999
FreeCAD v0.19 14555 (Git shallow)
  0
SECTION
  2
HEADER
  9
$ACADVER
  1
AC1014
  9
$ACADMAINTVER
 70
     9
  9
$DWGCODEPAGE
  3
ANSI_1252
  9
$TEXTSTYLE
  7
STANDARD
  9
$DIMSTYLE
  2
STANDARD
  9
$DIMTXSTY
  7
STANDARD
  9
$CMLSTYLE
  2
STANDARD
  9
$PEXTMAX
 10
50
 20
50
 30
50
  9
$PEXTMIN
 10
0
 20
0
 30
0
  9
$HANDSEED
  5
FFFF
  0
ENDSEC
  0
SECTION
  2
CLASSES
  0
CLASS
  1
ACDBDICTIONARYWDFLT
  2
AcDbDictionaryWithDefault
  3
ObjectDBX Classes
 90
        0
280
     0
281
     0
  0
CLASS
  1
XRECORD
  2
AcDbXrecord
  3
ObjectDBX Classes
 90
        0
280
     0
281
     0
  0
CLASS
  1
LWPOLYLINE
  2
AcDbPolyline
  3
ObjectDBX Classes
 90
        0
280
     0
281
     1
  0
ENDSEC
  0
SECTION
  2
TABLES
  0
TABLE
  2
VPORT
  5
20
330
0
100
AcDbSymbolTable
 70
     1
  0
VPORT
  5
21
330
20
100
AcDbSymbolTableRecord
100
AcDbViewportTableRecord
  2
*ACTIVE
 70
     0
  0
ENDTAB
  0
TABLE
  2
LTYPE
  5
22
330
0
100
AcDbSymbolTable
 70
     1
  0
LTYPE
  5
23
330
21
100
AcDbSymbolTableRecord
100
AcDbLinetypeTableRecord
  2
BYBLOCK
 70
     0
  3

 72
    65
 73
     0
 40
0.0
  0
LTYPE
  5
24
330
21
100
AcDbSymbolTableRecord
100
AcDbLinetypeTableRecord
  2
BYLAYER
 70
     0
  3

 72
    65
 73
     0
 40
0.0
  0
LTYPE
  5
25
330
21
100
AcDbSymbolTableRecord
100
AcDbLinetypeTableRecord
  2
CONTINUOUS
 70
     0
  3
Solid line
 72
    65
 73
     0
 40
0.0
  0
ENDTAB
  0
TABLE
  2
LAYER
  5
ED6
330
0
100
AcDbSymbolTable
 70
7
  0
LAYER
  5
ED7
330
ED6
100
AcDbSymbolTableRecord
100
AcDbLayerTableRecord
  2
0
 70
   0
 62
   7
  6
CONTINUOUS
  0
LAYER
  5
ED8
330
ED6
100
AcDbSymbolTableRecord
100
AcDbLayerTableRecord
  2
none
 70
    0
 62
    7
  6
CONTINUOUS
  0
LAYER
  5
ED9
330
ED6
100
AcDbSymbolTableRecord
100
AcDbLayerTableRecord
  2
Solid
 70
    0
 62
    7
  6
CONTINUOUS
  0
LAYER
  5
EDA
330
ED6
100
AcDbSymbolTableRecord
100
AcDbLayerTableRecord
  2
Solid001
 70
    0
 62
    7
  6
CONTINUOUS
  0
LAYER
  5
EDB
330
ED6
100
AcDbSymbolTableRecord
100
AcDbLayerTableRecord
  2
Solid002
 70
    0
 62
    7
  6
CONTINUOUS
  0
LAYER
  5
EDC
330
ED6
100
AcDbSymbolTableRecord
100
AcDbLayerTableRecord
  2
Solid003
 70
    0
 62
    7
  6
CONTINUOUS
  0
LAYER
  5
EDD
330
ED6
100
AcDbSymbolTableRecord
100
AcDbLayerTableRecord
  2
Solid004
 70
    0
 62
    7
  6
CONTINUOUS
  0
ENDTAB
  0
TABLE
  2
STYLE
  5
70
330
0
100
AcDbSymbolTable
 70
     2
  0
STYLE
  5
71
330
70
100
AcDbSymbolTableRecord
100
AcDbTextStyleTableRecord
  2
STANDARD
 70
     0
 40
0.0
 41
1.0
 50
0.0
 71
     0
 42
2.5
  3
arial.ttf
  4

  0
STYLE
  5
72
330
70
100
AcDbSymbolTableRecord
100
AcDbTextStyleTableRecord
  2
ANNOTATIVE
 70
     0
 40
0.0
 41
1.0
 50
0.0
 71
     0
 42
2.5
  3
arial.ttf
  4

  0
ENDTAB
  0
TABLE
  2
VIEW
  5
73
330
0
100
AcDbSymbolTable
 70
     0
  0
ENDTAB
  0
TABLE
  2
UCS
  5
74
330
0
100
AcDbSymbolTable
 70
     0
  0
ENDTAB
  0
TABLE
  2
APPID
  5
75
330
0
100
AcDbSymbolTable
 70
     2
  0
APPID
  5
76
330
75
100
AcDbSymbolTableRecord
100
AcDbRegAppTableRecord
  2
ACAD
 70
     0
  0
APPID
  5
77
330
75
100
AcDbSymbolTableRecord
100
AcDbRegAppTableRecord
  2
ACADANNOTATIVE
 70
     0
  0
ENDTAB
  0
TABLE
  2
DIMSTYLE
  5
78
330
0
100
AcDbSymbolTable
 70
     2
  0
DIMSTYLE
105
79
330
78
100
AcDbSymbolTableRecord
100
AcDbDimStyleTableRecord
  2
STANDARD
 70
     0
  3

  4

  5

  6

  7

 40
0.0
 41
2.5
 42
0.625
 43
3.75
 44
1.25
 45
0.0
 46
0.0
 47
0.0
 48
0.0
140
2.5
141
2.5
142
0.0
143
0.03937007874016
144
1.0
145
0.0
146
1.0
147
0.625
 71
     0
 72
     0
 73
     0
 74
     0
 75
     0
 76
     0
 77
     1
 78
     8
170
     0
171
     3
172
     1
173
     0
174
     0
175
     0
176
     0
177
     0
178
     0
270
     2
271
     2
272
     2
273
     2
274
     3
340
71
275
     0
280
     0
281
     0
282
     0
283
     0
284
     8
285
     0
286
     0
287
     3
288
     0
  0
ENDTAB
  0
TABLE
  2
BLOCK_RECORD
  5
A01
330
0
100
AcDbSymbolTable
  70
5
  0
BLOCK_RECORD
  5
A02
330
A01
100
AcDbSymbolTableRecord
100
AcDbBlockTableRecord
  2
*MODEL_SPACE
  0
BLOCK_RECORD
  5
A03
330
A01
100
AcDbSymbolTableRecord
100
AcDbBlockTableRecord
  2
*PAPER_SPACE
  0
ENDTAB
  0
ENDSEC
  0
SECTION
  2
BLOCKS
  0
BLOCK
  5
A04
330
A02
100
AcDbEntity
  8
0
100
AcDbBlockBegin
  2
*MODEL_SPACE
 70
   0
 10
0
 20
0
 30
0
  3
*MODEL_SPACE
  1
 
  0
ENDBLK
  5
A05
330
A02
100
AcDbEntity
  8
0
100
AcDbBlockEnd
  0
BLOCK
  5
A06
330
A03
100
AcDbEntity
 67
1
  8
0
100
AcDbBlockBegin
  2
*PAPER_SPACE
 70
   0
 10
0
 20
0
 30
0
  3
*PAPER_SPACE
  1
 
  0
ENDBLK
  5
A07
330
A03
100
AcDbEntity
 67
    1
  8
0
100
AcDbBlockEnd
  0
ENDSEC
  0
SECTION
  2
ENTITIES
  0
LINE
  5
A08
330
A02
100
AcDbEntity
  8
Solid
100
AcDbLine
 10
153.659
 20
-158.126
 30
0
 11
153.659
 21
-158.126
 31
1.6
  0
LINE
  5
A09
330
A02
100
AcDbEntity
  8
Solid
100
AcDbLine
 10
153.659
 20
-158.126
 30
1.6
 11
157.672
 21
-151.176
 31
1.6
  0
LINE
  5
A0A
330
A02
100
AcDbEntity
  8
Solid
100
AcDbLine
 10
157.672
 20
-151.176
 30
0
 11
157.672
 21
-151.176
 31
1.6
  0
LINE
  5
A0B
330
A02
100
AcDbEntity
  8
Solid
100
AcDbLine
 10
153.659
 20
-158.126
 30
0
 11
157.672
 21
-151.176
 31
0
  0
ARC
  5
A0C
330
A02
100
AcDbEntity
  8
Solid
100
AcDbCircle
 10
154.525
 20
-158.626
 30
0
 40
1.00002
100
AcDbArc
 50
150
 51
-120.001
  0
LINE
  5
A0D
330
A02
100
AcDbEntity
  8
Solid
100
AcDbLine
 10
154.025
 20
-159.492
 30
0
 11
154.025
 21
-159.492
 31
1.6
  0
ARC
  5
A0E
330
A02
100
AcDbEntity
  8
Solid
100
AcDbCircle
 10
154.525
 20
-158.626
 30
1.6
 40
1.00002
100
AcDbArc
 50
150
 51
-120.001
  0
LINE
  5
A0F
330
A02
100
AcDbEntity
  8
Solid
100
AcDbLine
 10
153.659
 20
-158.126
 30
0
 11
153.659
 21
-158.126
 31
1.6
  0
ARC
  5
A10
330
A02
100
AcDbEntity
  8
Solid
100
AcDbCircle
 10
62.9511
 20
-96.4894
 30
0
 40
109.374
100
AcDbArc
 50
-29.9996
 51
10.0004
  0
LINE
  5
A11
330
A02
100
AcDbEntity
  8
Solid
100
AcDbLine
 10
170.663
 20
-77.4962
 30
0
 11
170.663
 21
-77.4962
 31
1.6
  0
ARC
  5
A12
330
A02
100
AcDbEntity
  8
Solid
100
AcDbCircle
 10
62.9511
 20
-96.4894
 30
1.6
 40
109.374
100
AcDbArc
 50
-29.9996
 51
10.0004
  0
LINE
  5
A13
330
A02
100
AcDbEntity
  8
Solid
100
AcDbLine
 10
157.672
 20
-151.176
 30
0
 11
157.672
 21
-151.176
 31
1.6
  0
LINE
  5
A14
330
A02
100
AcDbEntity
  8
Solid
100
AcDbLine
 10
153.659
 20
-158.126
 30
0
 11
157.672
 21
-151.176
 31
0
  0
ARC
  5
A15
330
A02
100
AcDbEntity
  8
Solid
100
AcDbCircle
 10
62.9511
 20
-96.4894
 30
0
 40
109.374
100
AcDbArc
 50
-29.9996
 51
10.0004
  0
LINE
  5
A16
330
A02
100
AcDbEntity
  8
Solid
100
AcDbLine
 10
170.663
 20
-77.4962
 30
0
 11
169.269
 21
-69.595
 31
0
  0
ARC
  5
A17
330
A02
100
AcDbEntity
  8
Solid
100
AcDbCircle
 10
170.254
 20
-69.4214
 30
0
 40
1.00001
100
AcDbArc
 50
100.001
 51
-170
  0
LINE
  5
A18
330
A02
100
AcDbEntity
  8
Solid
100
AcDbLine
 10
170.081
 20
-68.4366
 30
0
 11
175.959
 21
-67.4002
 31
0
  0
ARC
  5
A19
330
A02
100
AcDbEntity
  8
Solid
100
AcDbCircle
 10
175.253
 20
-63.3973
 30
0
 40
4.06465
100
AcDbArc
 50
-79.9992
 51
0.000986728
  0
LINE
  5
A1A
330
A02
100
AcDbEntity
  8
Solid
100
AcDbLine
 10
179.317
 20
-63.3972
 30
0
 11
179.318
 21
-28.2968
 31
0
  0
ARC
  5
A1B
330
A02
100
AcDbEntity
  8
Solid
100
AcDbCircle
 10
180.318
 20
-28.2968
 30
0
 40
1.00001
100
AcDbArc
 50
90
 51
179.999
  0
LINE
  5
A1C
330
A02
100
AcDbEntity
  8
Solid
100
AcDbLine
 10
180.318
 20
-27.2968
 30
0
 11
253.517
 21
-27.2968
 31
0
  0
ARC
  5
A1D
330
A02
100
AcDbEntity
  8
Solid
100
AcDbCircle
 10
253.517
 20
-28.2687
 30
0
 40
0.97191
100
AcDbArc
 50
34.6005
 51
89.9991
  0
ARC
  5
A1E
330
A02
100
AcDbEntity
  8
Solid
100
AcDbCircle
 10
154.605
 20
-93.5092
 30
0
 40
119.462
100
AcDbArc
 50
0.0179137
 51
33.4179
  0
ARC
  5
A1F
330
A02
100
AcDbEntity
  8
Solid
100
AcDbCircle
 10
160.841
 20
-93.4948
 30
0
 40
113.226
100
AcDbArc
 50
-24.1884
 51
0.0116033
  0
ARC
  5
A20
330
A02
100
AcDbEntity
  8
Solid
100
AcDbCircle
 10
263.041
 20
-139.415
 30
0
 40
1.1841
100
AcDbArc
 50
-89.9594
 51
-23.5607
  0
LINE
  5
A21
330
A02
100
AcDbEntity
  8
Solid
100
AcDbLine
 10
263.041
 20
-140.599
 30
0
 11
183.022
 21
-140.599
 31
0
  0
ARC
  5
A22
330
A02
100
AcDbEntity
  8
Solid
100
AcDbCircle
 10
62.599
 20
-96.369
 30
0
 40
128.289
100
AcDbArc
 50
-29.9675
 51
-20.1675
  0
LINE
  5
A23
330
A02
100
AcDbEntity
  8
Solid
100
AcDbLine
 10
173.737
 20
-160.45
 30
0
 11
169.724
 21
-167.401
 31
0
  0
ARC
  5
A24
330
A02
100
AcDbEntity
  8
Solid
100
AcDbCircle
 10
168.858
 20
-166.901
 30
0
 40
1.00003
100
AcDbArc
 50
-119.999
 51
-30.0013
  0
LINE
  5
A25
330
A02
100
AcDbEntity
  8
Solid
100
AcDbLine
 10
168.358
 20
-167.767
 30
0
 11
154.025
 21
-159.492
 31
0
  0
ARC
  5
A26
330
A02
100
AcDbEntity
  8
Solid
100
AcDbCircle
 10
154.525
 20
-158.626
 30
0
 40
1.00002
100
AcDbArc
 50
150
 51
-120.001
  0
LINE
  5
A27
330
A02
100
AcDbEntity
  8
Solid
100
AcDbLine
 10
248.016
 20
-138.572
 30
0
 11
262.016
 21
-138.572
 31
0
  0
LINE
  5
A28
330
A02
100
AcDbEntity
  8
Solid
100
AcDbLine
 10
262.016
 20
-138.572
 30
0
 11
262.016
 21
-124.572
 31
0
  0
LINE
  5
A29
330
A02
100
AcDbEntity
  8
Solid
100
AcDbLine
 10
262.016
 20
-124.572
 30
0
 11
248.016
 21
-124.572
 31
0
  0
LINE
  5
A2A
330
A02
100
AcDbEntity
  8
Solid
100
AcDbLine
 10
248.016
 20
-124.572
 30
0
 11
248.016
 21
-138.572
 31
0
  0
LINE
  5
A2B
330
A02
100
AcDbEntity
  8
Solid
100
AcDbLine
 10
228.966
 20
-138.572
 30
0
 11
242.966
 21
-138.572
 31
0
  0
LINE
  5
A2C
330
A02
100
AcDbEntity
  8
Solid
100
AcDbLine
 10
242.966
 20
-138.572
 30
0
 11
242.966
 21
-124.572
 31
0
  0
LINE
  5
A2D
330
A02
100
AcDbEntity
  8
Solid
100
AcDbLine
 10
242.966
 20
-124.572
 30
0
 11
228.966
 21
-124.572
 31
0
  0
LINE
  5
A2E
330
A02
100
AcDbEntity
  8
Solid
100
AcDbLine
 10
228.966
 20
-124.572
 30
0
 11
228.966
 21
-138.572
 31
0
  0
LINE
  5
A2F
330
A02
100
AcDbEntity
  8
Solid
100
AcDbLine
 10
209.917
 20
-138.572
 30
0
 11
209.917
 21
-124.572
 31
0
  0
LINE
  5
A30
330
A02
100
AcDbEntity
  8
Solid
100
AcDbLine
 10
223.917
 20
-138.572
 30
0
 11
209.917
 21
-138.572
 31
0
  0
LINE
  5
A31
330
A02
100
AcDbEntity
  8
Solid
100
AcDbLine
 10
223.917
 20
-124.572
 30
0
 11
223.917
 21
-138.572
 31
0
  0
LINE
  5
A32
330
A02
100
AcDbEntity
  8
Solid
100
AcDbLine
 10
209.917
 20
-124.572
 30
0
 11
223.917
 21
-124.572
 31
0
  0
CIRCLE
  5
A33
330
A02
100
AcDbEntity
  8
Solid
100
AcDbCircle
 10
250.566
 20
-122.047
 40
1.15
  0
LINE
  5
A34
330
A02
100
AcDbEntity
  8
Solid
100
AcDbLine
 10
265.192
 20
-119.522
 30
0
 11
251.192
 21
-119.522
 31
0
  0
LINE
  5
A35
330
A02
100
AcDbEntity
  8
Solid
100
AcDbLine
 10
265.192
 20
-105.522
 30
0
 11
265.192
 21
-119.522
 31
0
  0
LINE
  5
A36
330
A02
100
AcDbEntity
  8
Solid
100
AcDbLine
 10
251.192
 20
-105.522
 30
0
 11
265.192
 21
-105.522
 31
0
  0
LINE
  5
A37
330
A02
100
AcDbEntity
  8
Solid
100
AcDbLine
 10
251.192
 20
-119.522
 30
0
 11
251.192
 21
-105.522
 31
0
  0
LINE
  5
A38
330
A02
100
AcDbEntity
  8
Solid
100
AcDbLine
 10
246.142
 20
-119.522
 30
0
 11
246.142
 21
-105.522
 31
0
  0
LINE
  5
A39
330
A02
100
AcDbEntity
  8
Solid
100
AcDbLine
 10
246.142
 20
-105.522
 30
0
 11
232.142
 21
-105.522
 31
0
  0
LINE
  5
A3A
330
A02
100
AcDbEntity
  8
Solid
100
AcDbLine
 10
232.142
 20
-105.522
 30
0
 11
232.142
 21
-119.522
 31
0
  0
LINE
  5
A3B
330
A02
100
AcDbEntity
  8
Solid
100
AcDbLine
 10
232.142
 20
-119.522
 30
0
 11
246.142
 21
-119.522
 31
0
  0
LINE
  5
A3C
330
A02
100
AcDbEntity
  8
Solid
100
AcDbLine
 10
227.092
 20
-119.522
 30
0
 11
227.092
 21
-105.522
 31
0
  0
LINE
  5
A3D
330
A02
100
AcDbEntity
  8
Solid
100
AcDbLine
 10
227.092
 20
-105.522
 30
0
 11
213.092
 21
-105.522
 31
0
  0
LINE
  5
A3E
330
A02
100
AcDbEntity
  8
Solid
100
AcDbLine
 10
213.092
 20
-105.522
 30
0
 11
213.092
 21
-119.522
 31
0
  0
LINE
  5
A3F
330
A02
100
AcDbEntity
  8
Solid
100
AcDbLine
 10
213.092
 20
-119.522
 30
0
 11
227.092
 21
-119.522
 31
0
  0
LINE
  5
A40
330
A02
100
AcDbEntity
  8
Solid
100
AcDbLine
 10
190.867
 20
-138.572
 30
0
 11
204.867
 21
-138.572
 31
0
  0
LINE
  5
A41
330
A02
100
AcDbEntity
  8
Solid
100
AcDbLine
 10
204.867
 20
-138.572
 30
0
 11
204.867
 21
-124.572
 31
0
  0
LINE
  5
A42
330
A02
100
AcDbEntity
  8
Solid
100
AcDbLine
 10
204.867
 20
-124.572
 30
0
 11
190.867
 21
-124.572
 31
0
  0
LINE
  5
A43
330
A02
100
AcDbEntity
  8
Solid
100
AcDbLine
 10
190.867
 20
-124.572
 30
0
 11
190.867
 21
-138.572
 31
0
  0
LINE
  5
A44
330
A02
100
AcDbEntity
  8
Solid
100
AcDbLine
 10
175.05
 20
-153.126
 30
0
 11
168.05
 21
-165.251
 31
0
  0
LINE
  5
A45
330
A02
100
AcDbEntity
  8
Solid
100
AcDbLine
 10
162.926
 20
-146.126
 30
0
 11
175.05
 21
-153.126
 31
0
  0
LINE
  5
A46
330
A02
100
AcDbEntity
  8
Solid
100
AcDbLine
 10
155.926
 20
-158.251
 30
0
 11
162.926
 21
-146.126
 31
0
  0
LINE
  5
A47
330
A02
100
AcDbEntity
  8
Solid
100
AcDbLine
 10
168.05
 20
-165.251
 30
0
 11
155.926
 21
-158.251
 31
0
  0
CIRCLE
  5
A48
330
A02
100
AcDbEntity
  8
Solid
100
AcDbCircle
 10
173.353
 20
-147.97
 40
1.15
  0
LINE
  5
A49
330
A02
100
AcDbEntity
  8
Solid
100
AcDbLine
 10
178.393
 20
-145.956
 30
0
 11
165.237
 21
-141.168
 31
0
  0
LINE
  5
A4A
330
A02
100
AcDbEntity
  8
Solid
100
AcDbLine
 10
183.181
 20
-132.801
 30
0
 11
178.393
 21
-145.956
 31
0
  0
LINE
  5
A4B
330
A02
100
AcDbEntity
  8
Solid
100
AcDbLine
 10
170.026
 20
-128.012
 30
0
 11
183.181
 21
-132.801
 31
0
  0
LINE
  5
A4C
330
A02
100
AcDbEntity
  8
Solid
100
AcDbLine
 10
165.237
 20
-141.168
 30
0
 11
170.026
 21
-128.012
 31
0
  0
LINE
  5
A4D
330
A02
100
AcDbEntity
  8
Solid
100
AcDbLine
 10
208.042
 20
-105.522
 30
0
 11
194.042
 21
-105.522
 31
0
  0
LINE
  5
A4E
330
A02
100
AcDbEntity
  8
Solid
100
AcDbLine
 10
194.042
 20
-105.522
 30
0
 11
194.042
 21
-119.522
 31
0
  0
LINE
  5
A4F
330
A02
100
AcDbEntity
  8
Solid
100
AcDbLine
 10
194.042
 20
-119.522
 30
0
 11
208.042
 21
-119.522
 31
0
  0
LINE
  5
A50
330
A02
100
AcDbEntity
  8
Solid
100
AcDbLine
 10
208.042
 20
-119.522
 30
0
 11
208.042
 21
-105.522
 31
0
  0
LINE
  5
A51
330
A02
100
AcDbEntity
  8
Solid
100
AcDbLine
 10
171.441
 20
-122.728
 30
0
 11
185.229
 21
-125.159
 31
0
  0
LINE
  5
A52
330
A02
100
AcDbEntity
  8
Solid
100
AcDbLine
 10
185.229
 20
-125.159
 30
0
 11
187.66
 21
-111.371
 31
0
  0
LINE
  5
A53
330
A02
100
AcDbEntity
  8
Solid
100
AcDbLine
 10
187.66
 20
-111.371
 30
0
 11
173.872
 21
-108.94
 31
0
  0
LINE
  5
A54
330
A02
100
AcDbEntity
  8
Solid
100
AcDbLine
 10
173.872
 20
-108.94
 30
0
 11
171.441
 21
-122.728
 31
0
  0
CIRCLE
  5
A55
330
A02
100
AcDbEntity
  8
Solid
100
AcDbCircle
 10
184.301
 20
-107.108
 40
1.15
  0
LINE
  5
A56
330
A02
100
AcDbEntity
  8
Solid
100
AcDbLine
 10
271.542
 20
-100.472
 30
0
 11
257.542
 21
-100.472
 31
0
  0
LINE
  5
A57
330
A02
100
AcDbEntity
  8
Solid
100
AcDbLine
 10
271.542
 20
-86.472
 30
0
 11
271.542
 21
-100.472
 31
0
  0
LINE
  5
A58
330
A02
100
AcDbEntity
  8
Solid
100
AcDbLine
 10
257.542
 20
-86.472
 30
0
 11
271.542
 21
-86.472
 31
0
  0
LINE
  5
A59
330
A02
100
AcDbEntity
  8
Solid
100
AcDbLine
 10
257.542
 20
-100.472
 30
0
 11
257.542
 21
-86.472
 31
0
  0
LINE
  5
A5A
330
A02
100
AcDbEntity
  8
Solid
100
AcDbLine
 10
252.492
 20
-100.472
 30
0
 11
252.492
 21
-86.472
 31
0
  0
LINE
  5
A5B
330
A02
100
AcDbEntity
  8
Solid
100
AcDbLine
 10
252.492
 20
-86.472
 30
0
 11
238.492
 21
-86.472
 31
0
  0
LINE
  5
A5C
330
A02
100
AcDbEntity
  8
Solid
100
AcDbLine
 10
238.492
 20
-86.472
 30
0
 11
238.492
 21
-100.472
 31
0
  0
LINE
  5
A5D
330
A02
100
AcDbEntity
  8
Solid
100
AcDbLine
 10
238.492
 20
-100.472
 30
0
 11
252.492
 21
-100.472
 31
0
  0
LINE
  5
A5E
330
A02
100
AcDbEntity
  8
Solid
100
AcDbLine
 10
265.192
 20
-81.422
 30
0
 11
265.192
 21
-67.422
 31
0
  0
LINE
  5
A5F
330
A02
100
AcDbEntity
  8
Solid
100
AcDbLine
 10
265.192
 20
-67.422
 30
0
 11
251.192
 21
-67.422
 31
0
  0
LINE
  5
A60
330
A02
100
AcDbEntity
  8
Solid
100
AcDbLine
 10
251.192
 20
-67.422
 30
0
 11
251.192
 21
-81.422
 31
0
  0
LINE
  5
A61
330
A02
100
AcDbEntity
  8
Solid
100
AcDbLine
 10
251.192
 20
-81.422
 30
0
 11
265.192
 21
-81.422
 31
0
  0
LINE
  5
A62
330
A02
100
AcDbEntity
  8
Solid
100
AcDbLine
 10
219.442
 20
-100.472
 30
0
 11
233.442
 21
-100.472
 31
0
  0
LINE
  5
A63
330
A02
100
AcDbEntity
  8
Solid
100
AcDbLine
 10
233.442
 20
-100.472
 30
0
 11
233.442
 21
-86.472
 31
0
  0
LINE
  5
A64
330
A02
100
AcDbEntity
  8
Solid
100
AcDbLine
 10
233.442
 20
-86.472
 30
0
 11
219.442
 21
-86.472
 31
0
  0
LINE
  5
A65
330
A02
100
AcDbEntity
  8
Solid
100
AcDbLine
 10
219.442
 20
-86.472
 30
0
 11
219.442
 21
-100.472
 31
0
  0
LINE
  5
A66
330
A02
100
AcDbEntity
  8
Solid
100
AcDbLine
 10
232.142
 20
-81.422
 30
0
 11
246.142
 21
-81.422
 31
0
  0
LINE
  5
A67
330
A02
100
AcDbEntity
  8
Solid
100
AcDbLine
 10
246.142
 20
-81.422
 30
0
 11
246.142
 21
-67.422
 31
0
  0
LINE
  5
A68
330
A02
100
AcDbEntity
  8
Solid
100
AcDbLine
 10
246.142
 20
-67.422
 30
0
 11
232.142
 21
-67.422
 31
0
  0
LINE
  5
A69
330
A02
100
AcDbEntity
  8
Solid
100
AcDbLine
 10
232.142
 20
-67.422
 30
0
 11
232.142
 21
-81.422
 31
0
  0
LINE
  5
A6A
330
A02
100
AcDbEntity
  8
Solid
100
AcDbLine
 10
213.092
 20
-81.422
 30
0
 11
227.092
 21
-81.422
 31
0
  0
LINE
  5
A6B
330
A02
100
AcDbEntity
  8
Solid
100
AcDbLine
 10
227.092
 20
-81.422
 30
0
 11
227.092
 21
-67.422
 31
0
  0
LINE
  5
A6C
330
A02
100
AcDbEntity
  8
Solid
100
AcDbLine
 10
227.092
 20
-67.422
 30
0
 11
213.092
 21
-67.422
 31
0
  0
LINE
  5
A6D
330
A02
100
AcDbEntity
  8
Solid
100
AcDbLine
 10
213.092
 20
-67.422
 30
0
 11
213.092
 21
-81.422
 31
0
  0
CIRCLE
  5
A6E
330
A02
100
AcDbEntity
  8
Solid
100
AcDbCircle
 10
216.923
 20
-64.8974
 40
1.15
  0
LINE
  5
A6F
330
A02
100
AcDbEntity
  8
Solid
100
AcDbLine
 10
238.492
 20
-62.372
 30
0
 11
252.492
 21
-62.372
 31
0
  0
LINE
  5
A70
330
A02
100
AcDbEntity
  8
Solid
100
AcDbLine
 10
252.492
 20
-62.372
 30
0
 11
252.492
 21
-48.372
 31
0
  0
LINE
  5
A71
330
A02
100
AcDbEntity
  8
Solid
100
AcDbLine
 10
252.492
 20
-48.372
 30
0
 11
238.492
 21
-48.372
 31
0
  0
LINE
  5
A72
330
A02
100
AcDbEntity
  8
Solid
100
AcDbLine
 10
238.492
 20
-48.372
 30
0
 11
238.492
 21
-62.372
 31
0
  0
LINE
  5
A73
330
A02
100
AcDbEntity
  8
Solid
100
AcDbLine
 10
252.492
 20
-29.322
 30
0
 11
238.492
 21
-29.322
 31
0
  0
LINE
  5
A74
330
A02
100
AcDbEntity
  8
Solid
100
AcDbLine
 10
238.492
 20
-29.322
 30
0
 11
238.492
 21
-43.322
 31
0
  0
LINE
  5
A75
330
A02
100
AcDbEntity
  8
Solid
100
AcDbLine
 10
238.492
 20
-43.322
 30
0
 11
252.492
 21
-43.322
 31
0
  0
LINE
  5
A76
330
A02
100
AcDbEntity
  8
Solid
100
AcDbLine
 10
252.492
 20
-43.322
 30
0
 11
252.492
 21
-29.322
 31
0
  0
LINE
  5
A77
330
A02
100
AcDbEntity
  8
Solid
100
AcDbLine
 10
233.442
 20
-48.372
 30
0
 11
219.442
 21
-48.372
 31
0
  0
LINE
  5
A78
330
A02
100
AcDbEntity
  8
Solid
100
AcDbLine
 10
219.442
 20
-48.372
 30
0
 11
219.442
 21
-62.372
 31
0
  0
LINE
  5
A79
330
A02
100
AcDbEntity
  8
Solid
100
AcDbLine
 10
219.442
 20
-62.372
 30
0
 11
233.442
 21
-62.372
 31
0
  0
LINE
  5
A7A
330
A02
100
AcDbEntity
  8
Solid
100
AcDbLine
 10
233.442
 20
-62.372
 30
0
 11
233.442
 21
-48.372
 31
0
  0
CIRCLE
  5
A7B
330
A02
100
AcDbEntity
  8
Solid
100
AcDbCircle
 10
237.867
 20
-45.847
 40
1.15
  0
LINE
  5
A7C
330
A02
100
AcDbEntity
  8
Solid
100
AcDbLine
 10
233.442
 20
-29.322
 30
0
 11
219.442
 21
-29.322
 31
0
  0
LINE
  5
A7D
330
A02
100
AcDbEntity
  8
Solid
100
AcDbLine
 10
219.442
 20
-29.322
 30
0
 11
219.442
 21
-43.322
 31
0
  0
LINE
  5
A7E
330
A02
100
AcDbEntity
  8
Solid
100
AcDbLine
 10
219.442
 20
-43.322
 30
0
 11
233.442
 21
-43.322
 31
0
  0
LINE
  5
A7F
330
A02
100
AcDbEntity
  8
Solid
100
AcDbLine
 10
233.442
 20
-43.322
 30
0
 11
233.442
 21
-29.322
 31
0
  0
LINE
  5
A80
330
A02
100
AcDbEntity
  8
Solid
100
AcDbLine
 10
214.392
 20
-100.472
 30
0
 11
214.392
 21
-86.472
 31
0
  0
LINE
  5
A81
330
A02
100
AcDbEntity
  8
Solid
100
AcDbLine
 10
214.392
 20
-86.472
 30
0
 11
200.392
 21
-86.472
 31
0
  0
LINE
  5
A82
330
A02
100
AcDbEntity
  8
Solid
100
AcDbLine
 10
200.392
 20
-86.472
 30
0
 11
200.392
 21
-100.472
 31
0
  0
LINE
  5
A83
330
A02
100
AcDbEntity
  8
Solid
100
AcDbLine
 10
200.392
 20
-100.472
 30
0
 11
214.392
 21
-100.472
 31
0
  0
LINE
  5
A84
330
A02
100
AcDbEntity
  8
Solid
100
AcDbLine
 10
194.042
 20
-67.422
 30
0
 11
208.042
 21
-67.422
 31
0
  0
LINE
  5
A85
330
A02
100
AcDbEntity
  8
Solid
100
AcDbLine
 10
194.042
 20
-81.422
 30
0
 11
194.042
 21
-67.422
 31
0
  0
LINE
  5
A86
330
A02
100
AcDbEntity
  8
Solid
100
AcDbLine
 10
208.042
 20
-81.422
 30
0
 11
194.042
 21
-81.422
 31
0
  0
LINE
  5
A87
330
A02
100
AcDbEntity
  8
Solid
100
AcDbLine
 10
208.042
 20
-67.422
 30
0
 11
208.042
 21
-81.422
 31
0
  0
LINE
  5
A88
330
A02
100
AcDbEntity
  8
Solid
100
AcDbLine
 10
188.349
 20
-89.4905
 30
0
 11
188.349
 21
-103.491
 31
0
  0
LINE
  5
A89
330
A02
100
AcDbEntity
  8
Solid
100
AcDbLine
 10
174.349
 20
-89.4905
 30
0
 11
188.349
 21
-89.4905
 31
0
  0
LINE
  5
A8A
330
A02
100
AcDbEntity
  8
Solid
100
AcDbLine
 10
174.349
 20
-103.491
 30
0
 11
174.349
 21
-89.4905
 31
0
  0
LINE
  5
A8B
330
A02
100
AcDbEntity
  8
Solid
100
AcDbLine
 10
188.349
 20
-103.491
 30
0
 11
174.349
 21
-103.491
 31
0
  0
LINE
  5
A8C
330
A02
100
AcDbEntity
  8
Solid
100
AcDbLine
 10
185.229
 20
-67.8218
 30
0
 11
171.441
 21
-70.2529
 31
0
  0
LINE
  5
A8D
330
A02
100
AcDbEntity
  8
Solid
100
AcDbLine
 10
171.441
 20
-70.2529
 30
0
 11
173.872
 21
-84.0402
 31
0
  0
LINE
  5
A8E
330
A02
100
AcDbEntity
  8
Solid
100
AcDbLine
 10
173.872
 20
-84.0402
 30
0
 11
187.66
 21
-81.6091
 31
0
  0
LINE
  5
A8F
330
A02
100
AcDbEntity
  8
Solid
100
AcDbLine
 10
187.66
 20
-81.6091
 30
0
 11
185.229
 21
-67.8218
 31
0
  0
LINE
  5
A90
330
A02
100
AcDbEntity
  8
Solid
100
AcDbLine
 10
200.392
 20
-48.372
 30
0
 11
214.392
 21
-48.372
 31
0
  0
LINE
  5
A91
330
A02
100
AcDbEntity
  8
Solid
100
AcDbLine
 10
200.392
 20
-62.372
 30
0
 11
200.392
 21
-48.372
 31
0
  0
LINE
  5
A92
330
A02
100
AcDbEntity
  8
Solid
100
AcDbLine
 10
214.392
 20
-62.372
 30
0
 11
200.392
 21
-62.372
 31
0
  0
LINE
  5
A93
330
A02
100
AcDbEntity
  8
Solid
100
AcDbLine
 10
214.392
 20
-48.372
 30
0
 11
214.392
 21
-62.372
 31
0
  0
LINE
  5
A94
330
A02
100
AcDbEntity
  8
Solid
100
AcDbLine
 10
195.342
 20
-62.372
 30
0
 11
195.342
 21
-48.372
 31
0
  0
LINE
  5
A95
330
A02
100
AcDbEntity
  8
Solid
100
AcDbLine
 10
195.342
 20
-48.372
 30
0
 11
181.342
 21
-48.372
 31
0
  0
LINE
  5
A96
330
A02
100
AcDbEntity
  8
Solid
100
AcDbLine
 10
181.342
 20
-48.372
 30
0
 11
181.342
 21
-62.372
 31
0
  0
LINE
  5
A97
330
A02
100
AcDbEntity
  8
Solid
100
AcDbLine
 10
181.342
 20
-62.372
 30
0
 11
195.342
 21
-62.372
 31
0
  0
LINE
  5
A98
330
A02
100
AcDbEntity
  8
Solid
100
AcDbLine
 10
200.392
 20
-43.322
 30
0
 11
214.392
 21
-43.322
 31
0
  0
LINE
  5
A99
330
A02
100
AcDbEntity
  8
Solid
100
AcDbLine
 10
214.392
 20
-43.322
 30
0
 11
214.392
 21
-29.322
 31
0
  0
LINE
  5
A9A
330
A02
100
AcDbEntity
  8
Solid
100
AcDbLine
 10
214.392
 20
-29.322
 30
0
 11
200.392
 21
-29.322
 31
0
  0
LINE
  5
A9B
330
A02
100
AcDbEntity
  8
Solid
100
AcDbLine
 10
200.392
 20
-29.322
 30
0
 11
200.392
 21
-43.322
 31
0
  0
CIRCLE
  5
A9C
330
A02
100
AcDbEntity
  8
Solid
100
AcDbCircle
 10
197.867
 20
-43.947
 40
1.15
  0
LINE
  5
A9D
330
A02
100
AcDbEntity
  8
Solid
100
AcDbLine
 10
181.342
 20
-29.322
 30
0
 11
195.342
 21
-29.322
 31
0
  0
LINE
  5
A9E
330
A02
100
AcDbEntity
  8
Solid
100
AcDbLine
 10
181.342
 20
-43.322
 30
0
 11
181.342
 21
-29.322
 31
0
  0
LINE
  5
A9F
330
A02
100
AcDbEntity
  8
Solid
100
AcDbLine
 10
195.342
 20
-43.322
 30
0
 11
181.342
 21
-43.322
 31
0
  0
LINE
  5
AA0
330
A02
100
AcDbEntity
  8
Solid
100
AcDbLine
 10
195.342
 20
-29.322
 30
0
 11
195.342
 21
-43.322
 31
0
  0
LINE
  5
AA1
330
A02
100
AcDbEntity
  8
Solid
100
AcDbLine
 10
153.659
 20
-158.126
 30
1.6
 11
157.672
 21
-151.176
 31
1.6
  0
ARC
  5
AA2
330
A02
100
AcDbEntity
  8
Solid
100
AcDbCircle
 10
62.9511
 20
-96.4894
 30
1.6
 40
109.374
100
AcDbArc
 50
-29.9996
 51
10.0004
  0
LINE
  5
AA3
330
A02
100
AcDbEntity
  8
Solid
100
AcDbLine
 10
170.663
 20
-77.4962
 30
1.6
 11
169.269
 21
-69.595
 31
1.6
  0
ARC
  5
AA4
330
A02
100
AcDbEntity
  8
Solid
100
AcDbCircle
 10
170.254
 20
-69.4214
 30
1.6
 40
1.00001
100
AcDbArc
 50
100.001
 51
-170
  0
LINE
  5
AA5
330
A02
100
AcDbEntity
  8
Solid
100
AcDbLine
 10
170.081
 20
-68.4366
 30
1.6
 11
175.959
 21
-67.4002
 31
1.6
  0
ARC
  5
AA6
330
A02
100
AcDbEntity
  8
Solid
100
AcDbCircle
 10
175.253
 20
-63.3973
 30
1.6
 40
4.06465
100
AcDbArc
 50
-79.9992
 51
0.000986728
  0
LINE
  5
AA7
330
A02
100
AcDbEntity
  8
Solid
100
AcDbLine
 10
179.317
 20
-63.3972
 30
1.6
 11
179.318
 21
-28.2968
 31
1.6
  0
ARC
  5
AA8
330
A02
100
AcDbEntity
  8
Solid
100
AcDbCircle
 10
180.318
 20
-28.2968
 30
1.6
 40
1.00001
100
AcDbArc
 50
90
 51
179.999
  0
LINE
  5
AA9
330
A02
100
AcDbEntity
  8
Solid
100
AcDbLine
 10
180.318
 20
-27.2968
 30
1.6
 11
253.517
 21
-27.2968
 31
1.6
  0
ARC
  5
AAA
330
A02
100
AcDbEntity
  8
Solid
100
AcDbCircle
 10
253.517
 20
-28.2687
 30
1.6
 40
0.97191
100
AcDbArc
 50
34.6005
 51
89.9991
  0
ARC
  5
AAB
330
A02
100
AcDbEntity
  8
Solid
100
AcDbCircle
 10
154.605
 20
-93.5092
 30
1.6
 40
119.462
100
AcDbArc
 50
0.0179137
 51
33.4179
  0
ARC
  5
AAC
330
A02
100
AcDbEntity
  8
Solid
100
AcDbCircle
 10
160.841
 20
-93.4948
 30
1.6
 40
113.226
100
AcDbArc
 50
-24.1884
 51
0.0116033
  0
ARC
  5
AAD
330
A02
100
AcDbEntity
  8
Solid
100
AcDbCircle
 10
263.041
 20
-139.415
 30
1.6
 40
1.1841
100
AcDbArc
 50
-89.9594
 51
-23.5607
  0
LINE
  5
AAE
330
A02
100
AcDbEntity
  8
Solid
100
AcDbLine
 10
263.041
 20
-140.599
 30
1.6
 11
183.022
 21
-140.599
 31
1.6
  0
ARC
  5
AAF
330
A02
100
AcDbEntity
  8
Solid
100
AcDbCircle
 10
62.599
 20
-96.369
 30
1.6
 40
128.289
100
AcDbArc
 50
-29.9675
 51
-20.1675
  0
LINE
  5
AB0
330
A02
100
AcDbEntity
  8
Solid
100
AcDbLine
 10
173.737
 20
-160.45
 30
1.6
 11
169.724
 21
-167.401
 31
1.6
  0
ARC
  5
AB1
330
A02
100
AcDbEntity
  8
Solid
100
AcDbCircle
 10
168.858
 20
-166.901
 30
1.6
 40
1.00003
100
AcDbArc
 50
-119.999
 51
-30.0013
  0
LINE
  5
AB2
330
A02
100
AcDbEntity
  8
Solid
100
AcDbLine
 10
168.358
 20
-167.767
 30
1.6
 11
154.025
 21
-159.492
 31
1.6
  0
ARC
  5
AB3
330
A02
100
AcDbEntity
  8
Solid
100
AcDbCircle
 10
154.525
 20
-158.626
 30
1.6
 40
1.00002
100
AcDbArc
 50
150
 51
-120.001
  0
LINE
  5
AB4
330
A02
100
AcDbEntity
  8
Solid
100
AcDbLine
 10
248.016
 20
-138.572
 30
1.6
 11
262.016
 21
-138.572
 31
1.6
  0
LINE
  5
AB5
330
A02
100
AcDbEntity
  8
Solid
100
AcDbLine
 10
262.016
 20
-138.572
 30
1.6
 11
262.016
 21
-124.572
 31
1.6
  0
LINE
  5
AB6
330
A02
100
AcDbEntity
  8
Solid
100
AcDbLine
 10
262.016
 20
-124.572
 30
1.6
 11
248.016
 21
-124.572
 31
1.6
  0
LINE
  5
AB7
330
A02
100
AcDbEntity
  8
Solid
100
AcDbLine
 10
248.016
 20
-124.572
 30
1.6
 11
248.016
 21
-138.572
 31
1.6
  0
LINE
  5
AB8
330
A02
100
AcDbEntity
  8
Solid
100
AcDbLine
 10
228.966
 20
-138.572
 30
1.6
 11
242.966
 21
-138.572
 31
1.6
  0
LINE
  5
AB9
330
A02
100
AcDbEntity
  8
Solid
100
AcDbLine
 10
242.966
 20
-138.572
 30
1.6
 11
242.966
 21
-124.572
 31
1.6
  0
LINE
  5
ABA
330
A02
100
AcDbEntity
  8
Solid
100
AcDbLine
 10
242.966
 20
-124.572
 30
1.6
 11
228.966
 21
-124.572
 31
1.6
  0
LINE
  5
ABB
330
A02
100
AcDbEntity
  8
Solid
100
AcDbLine
 10
228.966
 20
-124.572
 30
1.6
 11
228.966
 21
-138.572
 31
1.6
  0
LINE
  5
ABC
330
A02
100
AcDbEntity
  8
Solid
100
AcDbLine
 10
209.917
 20
-138.572
 30
1.6
 11
209.917
 21
-124.572
 31
1.6
  0
LINE
  5
ABD
330
A02
100
AcDbEntity
  8
Solid
100
AcDbLine
 10
223.917
 20
-138.572
 30
1.6
 11
209.917
 21
-138.572
 31
1.6
  0
LINE
  5
ABE
330
A02
100
AcDbEntity
  8
Solid
100
AcDbLine
 10
223.917
 20
-124.572
 30
1.6
 11
223.917
 21
-138.572
 31
1.6
  0
LINE
  5
ABF
330
A02
100
AcDbEntity
  8
Solid
100
AcDbLine
 10
209.917
 20
-124.572
 30
1.6
 11
223.917
 21
-124.572
 31
1.6
  0
CIRCLE
  5
AC0
330
A02
100
AcDbEntity
  8
Solid
100
AcDbCircle
 10
250.566
 20
-122.047
 40
1.15
  0
LINE
  5
AC1
330
A02
100
AcDbEntity
  8
Solid
100
AcDbLine
 10
265.192
 20
-119.522
 30
1.6
 11
251.192
 21
-119.522
 31
1.6
  0
LINE
  5
AC2
330
A02
100
AcDbEntity
  8
Solid
100
AcDbLine
 10
265.192
 20
-105.522
 30
1.6
 11
265.192
 21
-119.522
 31
1.6
  0
LINE
  5
AC3
330
A02
100
AcDbEntity
  8
Solid
100
AcDbLine
 10
251.192
 20
-105.522
 30
1.6
 11
265.192
 21
-105.522
 31
1.6
  0
LINE
  5
AC4
330
A02
100
AcDbEntity
  8
Solid
100
AcDbLine
 10
251.192
 20
-119.522
 30
1.6
 11
251.192
 21
-105.522
 31
1.6
  0
LINE
  5
AC5
330
A02
100
AcDbEntity
  8
Solid
100
AcDbLine
 10
246.142
 20
-119.522
 30
1.6
 11
246.142
 21
-105.522
 31
1.6
  0
LINE
  5
AC6
330
A02
100
AcDbEntity
  8
Solid
100
AcDbLine
 10
246.142
 20
-105.522
 30
1.6
 11
232.142
 21
-105.522
 31
1.6
  0
LINE
  5
AC7
330
A02
100
AcDbEntity
  8
Solid
100
AcDbLine
 10
232.142
 20
-105.522
 30
1.6
 11
232.142
 21
-119.522
 31
1.6
  0
LINE
  5
AC8
330
A02
100
AcDbEntity
  8
Solid
100
AcDbLine
 10
232.142
 20
-119.522
 30
1.6
 11
246.142
 21
-119.522
 31
1.6
  0
LINE
  5
AC9
330
A02
100
AcDbEntity
  8
Solid
100
AcDbLine
 10
227.092
 20
-119.522
 30
1.6
 11
227.092
 21
-105.522
 31
1.6
  0
LINE
  5
ACA
330
A02
100
AcDbEntity
  8
Solid
100
AcDbLine
 10
227.092
 20
-105.522
 30
1.6
 11
213.092
 21
-105.522
 31
1.6
  0
LINE
  5
ACB
330
A02
100
AcDbEntity
  8
Solid
100
AcDbLine
 10
213.092
 20
-105.522
 30
1.6
 11
213.092
 21
-119.522
 31
1.6
  0
LINE
  5
ACC
330
A02
100
AcDbEntity
  8
Solid
100
AcDbLine
 10
213.092
 20
-119.522
 30
1.6
 11
227.092
 21
-119.522
 31
1.6
  0
LINE
  5
ACD
330
A02
100
AcDbEntity
  8
Solid
100
AcDbLine
 10
190.867
 20
-138.572
 30
1.6
 11
204.867
 21
-138.572
 31
1.6
  0
LINE
  5
ACE
330
A02
100
AcDbEntity
  8
Solid
100
AcDbLine
 10
204.867
 20
-138.572
 30
1.6
 11
204.867
 21
-124.572
 31
1.6
  0
LINE
  5
ACF
330
A02
100
AcDbEntity
  8
Solid
100
AcDbLine
 10
204.867
 20
-124.572
 30
1.6
 11
190.867
 21
-124.572
 31
1.6
  0
LINE
  5
AD0
330
A02
100
AcDbEntity
  8
Solid
100
AcDbLine
 10
190.867
 20
-124.572
 30
1.6
 11
190.867
 21
-138.572
 31
1.6
  0
LINE
  5
AD1
330
A02
100
AcDbEntity
  8
Solid
100
AcDbLine
 10
175.05
 20
-153.126
 30
1.6
 11
168.05
 21
-165.251
 31
1.6
  0
LINE
  5
AD2
330
A02
100
AcDbEntity
  8
Solid
100
AcDbLine
 10
162.926
 20
-146.126
 30
1.6
 11
175.05
 21
-153.126
 31
1.6
  0
LINE
  5
AD3
330
A02
100
AcDbEntity
  8
Solid
100
AcDbLine
 10
155.926
 20
-158.251
 30
1.6
 11
162.926
 21
-146.126
 31
1.6
  0
LINE
  5
AD4
330
A02
100
AcDbEntity
  8
Solid
100
AcDbLine
 10
168.05
 20
-165.251
 30
1.6
 11
155.926
 21
-158.251
 31
1.6
  0
CIRCLE
  5
AD5
330
A02
100
AcDbEntity
  8
Solid
100
AcDbCircle
 10
173.353
 20
-147.97
 40
1.15
  0
LINE
  5
AD6
330
A02
100
AcDbEntity
  8
Solid
100
AcDbLine
 10
178.393
 20
-145.956
 30
1.6
 11
165.237
 21
-141.168
 31
1.6
  0
LINE
  5
AD7
330
A02
100
AcDbEntity
  8
Solid
100
AcDbLine
 10
183.181
 20
-132.801
 30
1.6
 11
178.393
 21
-145.956
 31
1.6
  0
LINE
  5
AD8
330
A02
100
AcDbEntity
  8
Solid
100
AcDbLine
 10
170.026
 20
-128.012
 30
1.6
 11
183.181
 21
-132.801
 31
1.6
  0
LINE
  5
AD9
330
A02
100
AcDbEntity
  8
Solid
100
AcDbLine
 10
165.237
 20
-141.168
 30
1.6
 11
170.026
 21
-128.012
 31
1.6
  0
LINE
  5
ADA
330
A02
100
AcDbEntity
  8
Solid
100
AcDbLine
 10
208.042
 20
-105.522
 30
1.6
 11
194.042
 21
-105.522
 31
1.6
  0
LINE
  5
ADB
330
A02
100
AcDbEntity
  8
Solid
100
AcDbLine
 10
194.042
 20
-105.522
 30
1.6
 11
194.042
 21
-119.522
 31
1.6
  0
LINE
  5
ADC
330
A02
100
AcDbEntity
  8
Solid
100
AcDbLine
 10
194.042
 20
-119.522
 30
1.6
 11
208.042
 21
-119.522
 31
1.6
  0
LINE
  5
ADD
330
A02
100
AcDbEntity
  8
Solid
100
AcDbLine
 10
208.042
 20
-119.522
 30
1.6
 11
208.042
 21
-105.522
 31
1.6
  0
LINE
  5
ADE
330
A02
100
AcDbEntity
  8
Solid
100
AcDbLine
 10
171.441
 20
-122.728
 30
1.6
 11
185.229
 21
-125.159
 31
1.6
  0
LINE
  5
ADF
330
A02
100
AcDbEntity
  8
Solid
100
AcDbLine
 10
185.229
 20
-125.159
 30
1.6
 11
187.66
 21
-111.371
 31
1.6
  0
LINE
  5
AE0
330
A02
100
AcDbEntity
  8
Solid
100
AcDbLine
 10
187.66
 20
-111.371
 30
1.6
 11
173.872
 21
-108.94
 31
1.6
  0
LINE
  5
AE1
330
A02
100
AcDbEntity
  8
Solid
100
AcDbLine
 10
173.872
 20
-108.94
 30
1.6
 11
171.441
 21
-122.728
 31
1.6
  0
CIRCLE
  5
AE2
330
A02
100
AcDbEntity
  8
Solid
100
AcDbCircle
 10
184.301
 20
-107.108
 40
1.15
  0
LINE
  5
AE3
330
A02
100
AcDbEntity
  8
Solid
100
AcDbLine
 10
271.542
 20
-100.472
 30
1.6
 11
257.542
 21
-100.472
 31
1.6
  0
LINE
  5
AE4
330
A02
100
AcDbEntity
  8
Solid
100
AcDbLine
 10
271.542
 20
-86.472
 30
1.6
 11
271.542
 21
-100.472
 31
1.6
  0
LINE
  5
AE5
330
A02
100
AcDbEntity
  8
Solid
100
AcDbLine
 10
257.542
 20
-86.472
 30
1.6
 11
271.542
 21
-86.472
 31
1.6
  0
LINE
  5
AE6
330
A02
100
AcDbEntity
  8
Solid
100
AcDbLine
 10
257.542
 20
-100.472
 30
1.6
 11
257.542
 21
-86.472
 31
1.6
  0
LINE
  5
AE7
330
A02
100
AcDbEntity
  8
Solid
100
AcDbLine
 10
252.492
 20
-100.472
 30
1.6
 11
252.492
 21
-86.472
 31
1.6
  0
LINE
  5
AE8
330
A02
100
AcDbEntity
  8
Solid
100
AcDbLine
 10
252.492
 20
-86.472
 30
1.6
 11
238.492
 21
-86.472
 31
1.6
  0
LINE
  5
AE9
330
A02
100
AcDbEntity
  8
Solid
100
AcDbLine
 10
238.492
 20
-86.472
 30
1.6
 11
238.492
 21
-100.472
 31
1.6
  0
LINE
  5
AEA
330
A02
100
AcDbEntity
  8
Solid
100
AcDbLine
 10
238.492
 20
-100.472
 30
1.6
 11
252.492
 21
-100.472
 31
1.6
  0
LINE
  5
AEB
330
A02
100
AcDbEntity
  8
Solid
100
AcDbLine
 10
265.192
 20
-81.422
 30
1.6
 11
265.192
 21
-67.422
 31
1.6
  0
LINE
  5
AEC
330
A02
100
AcDbEntity
  8
Solid
100
AcDbLine
 10
265.192
 20
-67.422
 30
1.6
 11
251.192
 21
-67.422
 31
1.6
  0
LINE
  5
AED
330
A02
100
AcDbEntity
  8
Solid
100
AcDbLine
 10
251.192
 20
-67.422
 30
1.6
 11
251.192
 21
-81.422
 31
1.6
  0
LINE
  5
AEE
330
A02
100
AcDbEntity
  8
Solid
100
AcDbLine
 10
251.192
 20
-81.422
 30
1.6
 11
265.192
 21
-81.422
 31
1.6
  0
LINE
  5
AEF
330
A02
100
AcDbEntity
  8
Solid
100
AcDbLine
 10
219.442
 20
-100.472
 30
1.6
 11
233.442
 21
-100.472
 31
1.6
  0
LINE
  5
AF0
330
A02
100
AcDbEntity
  8
Solid
100
AcDbLine
 10
233.442
 20
-100.472
 30
1.6
 11
233.442
 21
-86.472
 31
1.6
  0
LINE
  5
AF1
330
A02
100
AcDbEntity
  8
Solid
100
AcDbLine
 10
233.442
 20
-86.472
 30
1.6
 11
219.442
 21
-86.472
 31
1.6
  0
LINE
  5
AF2
330
A02
100
AcDbEntity
  8
Solid
100
AcDbLine
 10
219.442
 20
-86.472
 30
1.6
 11
219.442
 21
-100.472
 31
1.6
  0
LINE
  5
AF3
330
A02
100
AcDbEntity
  8
Solid
100
AcDbLine
 10
232.142
 20
-81.422
 30
1.6
 11
246.142
 21
-81.422
 31
1.6
  0
LINE
  5
AF4
330
A02
100
AcDbEntity
  8
Solid
100
AcDbLine
 10
246.142
 20
-81.422
 30
1.6
 11
246.142
 21
-67.422
 31
1.6
  0
LINE
  5
AF5
330
A02
100
AcDbEntity
  8
Solid
100
AcDbLine
 10
246.142
 20
-67.422
 30
1.6
 11
232.142
 21
-67.422
 31
1.6
  0
LINE
  5
AF6
330
A02
100
AcDbEntity
  8
Solid
100
AcDbLine
 10
232.142
 20
-67.422
 30
1.6
 11
232.142
 21
-81.422
 31
1.6
  0
LINE
  5
AF7
330
A02
100
AcDbEntity
  8
Solid
100
AcDbLine
 10
213.092
 20
-81.422
 30
1.6
 11
227.092
 21
-81.422
 31
1.6
  0
LINE
  5
AF8
330
A02
100
AcDbEntity
  8
Solid
100
AcDbLine
 10
227.092
 20
-81.422
 30
1.6
 11
227.092
 21
-67.422
 31
1.6
  0
LINE
  5
AF9
330
A02
100
AcDbEntity
  8
Solid
100
AcDbLine
 10
227.092
 20
-67.422
 30
1.6
 11
213.092
 21
-67.422
 31
1.6
  0
LINE
  5
AFA
330
A02
100
AcDbEntity
  8
Solid
100
AcDbLine
 10
213.092
 20
-67.422
 30
1.6
 11
213.092
 21
-81.422
 31
1.6
  0
CIRCLE
  5
AFB
330
A02
100
AcDbEntity
  8
Solid
100
AcDbCircle
 10
216.923
 20
-64.8974
 40
1.15
  0
LINE
  5
AFC
330
A02
100
AcDbEntity
  8
Solid
100
AcDbLine
 10
238.492
 20
-62.372
 30
1.6
 11
252.492
 21
-62.372
 31
1.6
  0
LINE
  5
AFD
330
A02
100
AcDbEntity
  8
Solid
100
AcDbLine
 10
252.492
 20
-62.372
 30
1.6
 11
252.492
 21
-48.372
 31
1.6
  0
LINE
  5
AFE
330
A02
100
AcDbEntity
  8
Solid
100
AcDbLine
 10
252.492
 20
-48.372
 30
1.6
 11
238.492
 21
-48.372
 31
1.6
  0
LINE
  5
AFF
330
A02
100
AcDbEntity
  8
Solid
100
AcDbLine
 10
238.492
 20
-48.372
 30
1.6
 11
238.492
 21
-62.372
 31
1.6
  0
LINE
  5
B00
330
A02
100
AcDbEntity
  8
Solid
100
AcDbLine
 10
252.492
 20
-29.322
 30
1.6
 11
238.492
 21
-29.322
 31
1.6
  0
LINE
  5
B01
330
A02
100
AcDbEntity
  8
Solid
100
AcDbLine
 10
238.492
 20
-29.322
 30
1.6
 11
238.492
 21
-43.322
 31
1.6
  0
LINE
  5
B02
330
A02
100
AcDbEntity
  8
Solid
100
AcDbLine
 10
238.492
 20
-43.322
 30
1.6
 11
252.492
 21
-43.322
 31
1.6
  0
LINE
  5
B03
330
A02
100
AcDbEntity
  8
Solid
100
AcDbLine
 10
252.492
 20
-43.322
 30
1.6
 11
252.492
 21
-29.322
 31
1.6
  0
LINE
  5
B04
330
A02
100
AcDbEntity
  8
Solid
100
AcDbLine
 10
233.442
 20
-48.372
 30
1.6
 11
219.442
 21
-48.372
 31
1.6
  0
LINE
  5
B05
330
A02
100
AcDbEntity
  8
Solid
100
AcDbLine
 10
219.442
 20
-48.372
 30
1.6
 11
219.442
 21
-62.372
 31
1.6
  0
LINE
  5
B06
330
A02
100
AcDbEntity
  8
Solid
100
AcDbLine
 10
219.442
 20
-62.372
 30
1.6
 11
233.442
 21
-62.372
 31
1.6
  0
LINE
  5
B07
330
A02
100
AcDbEntity
  8
Solid
100
AcDbLine
 10
233.442
 20
-62.372
 30
1.6
 11
233.442
 21
-48.372
 31
1.6
  0
CIRCLE
  5
B08
330
A02
100
AcDbEntity
  8
Solid
100
AcDbCircle
 10
237.867
 20
-45.847
 40
1.15
  0
LINE
  5
B09
330
A02
100
AcDbEntity
  8
Solid
100
AcDbLine
 10
233.442
 20
-29.322
 30
1.6
 11
219.442
 21
-29.322
 31
1.6
  0
LINE
  5
B0A
330
A02
100
AcDbEntity
  8
Solid
100
AcDbLine
 10
219.442
 20
-29.322
 30
1.6
 11
219.442
 21
-43.322
 31
1.6
  0
LINE
  5
B0B
330
A02
100
AcDbEntity
  8
Solid
100
AcDbLine
 10
219.442
 20
-43.322
 30
1.6
 11
233.442
 21
-43.322
 31
1.6
  0
LINE
  5
B0C
330
A02
100
AcDbEntity
  8
Solid
100
AcDbLine
 10
233.442
 20
-43.322
 30
1.6
 11
233.442
 21
-29.322
 31
1.6
  0
LINE
  5
B0D
330
A02
100
AcDbEntity
  8
Solid
100
AcDbLine
 10
214.392
 20
-100.472
 30
1.6
 11
214.392
 21
-86.472
 31
1.6
  0
LINE
  5
B0E
330
A02
100
AcDbEntity
  8
Solid
100
AcDbLine
 10
214.392
 20
-86.472
 30
1.6
 11
200.392
 21
-86.472
 31
1.6
  0
LINE
  5
B0F
330
A02
100
AcDbEntity
  8
Solid
100
AcDbLine
 10
200.392
 20
-86.472
 30
1.6
 11
200.392
 21
-100.472
 31
1.6
  0
LINE
  5
B10
330
A02
100
AcDbEntity
  8
Solid
100
AcDbLine
 10
200.392
 20
-100.472
 30
1.6
 11
214.392
 21
-100.472
 31
1.6
  0
LINE
  5
B11
330
A02
100
AcDbEntity
  8
Solid
100
AcDbLine
 10
194.042
 20
-67.422
 30
1.6
 11
208.042
 21
-67.422
 31
1.6
  0
LINE
  5
B12
330
A02
100
AcDbEntity
  8
Solid
100
AcDbLine
 10
194.042
 20
-81.422
 30
1.6
 11
194.042
 21
-67.422
 31
1.6
  0
LINE
  5
B13
330
A02
100
AcDbEntity
  8
Solid
100
AcDbLine
 10
208.042
 20
-81.422
 30
1.6
 11
194.042
 21
-81.422
 31
1.6
  0
LINE
  5
B14
330
A02
100
AcDbEntity
  8
Solid
100
AcDbLine
 10
208.042
 20
-67.422
 30
1.6
 11
208.042
 21
-81.422
 31
1.6
  0
LINE
  5
B15
330
A02
100
AcDbEntity
  8
Solid
100
AcDbLine
 10
188.349
 20
-89.4905
 30
1.6
 11
188.349
 21
-103.491
 31
1.6
  0
LINE
  5
B16
330
A02
100
AcDbEntity
  8
Solid
100
AcDbLine
 10
174.349
 20
-89.4905
 30
1.6
 11
188.349
 21
-89.4905
 31
1.6
  0
LINE
  5
B17
330
A02
100
AcDbEntity
  8
Solid
100
AcDbLine
 10
174.349
 20
-103.491
 30
1.6
 11
174.349
 21
-89.4905
 31
1.6
  0
LINE
  5
B18
330
A02
100
AcDbEntity
  8
Solid
100
AcDbLine
 10
188.349
 20
-103.491
 30
1.6
 11
174.349
 21
-103.491
 31
1.6
  0
LINE
  5
B19
330
A02
100
AcDbEntity
  8
Solid
100
AcDbLine
 10
185.229
 20
-67.8218
 30
1.6
 11
171.441
 21
-70.2529
 31
1.6
  0
LINE
  5
B1A
330
A02
100
AcDbEntity
  8
Solid
100
AcDbLine
 10
171.441
 20
-70.2529
 30
1.6
 11
173.872
 21
-84.0402
 31
1.6
  0
LINE
  5
B1B
330
A02
100
AcDbEntity
  8
Solid
100
AcDbLine
 10
173.872
 20
-84.0402
 30
1.6
 11
187.66
 21
-81.6091
 31
1.6
  0
LINE
  5
B1C
330
A02
100
AcDbEntity
  8
Solid
100
AcDbLine
 10
187.66
 20
-81.6091
 30
1.6
 11
185.229
 21
-67.8218
 31
1.6
  0
LINE
  5
B1D
330
A02
100
AcDbEntity
  8
Solid
100
AcDbLine
 10
200.392
 20
-48.372
 30
1.6
 11
214.392
 21
-48.372
 31
1.6
  0
LINE
  5
B1E
330
A02
100
AcDbEntity
  8
Solid
100
AcDbLine
 10
200.392
 20
-62.372
 30
1.6
 11
200.392
 21
-48.372
 31
1.6
  0
LINE
  5
B1F
330
A02
100
AcDbEntity
  8
Solid
100
AcDbLine
 10
214.392
 20
-62.372
 30
1.6
 11
200.392
 21
-62.372
 31
1.6
  0
LINE
  5
B20
330
A02
100
AcDbEntity
  8
Solid
100
AcDbLine
 10
214.392
 20
-48.372
 30
1.6
 11
214.392
 21
-62.372
 31
1.6
  0
LINE
  5
B21
330
A02
100
AcDbEntity
  8
Solid
100
AcDbLine
 10
195.342
 20
-62.372
 30
1.6
 11
195.342
 21
-48.372
 31
1.6
  0
LINE
  5
B22
330
A02
100
AcDbEntity
  8
Solid
100
AcDbLine
 10
195.342
 20
-48.372
 30
1.6
 11
181.342
 21
-48.372
 31
1.6
  0
LINE
  5
B23
330
A02
100
AcDbEntity
  8
Solid
100
AcDbLine
 10
181.342
 20
-48.372
 30
1.6
 11
181.342
 21
-62.372
 31
1.6
  0
LINE
  5
B24
330
A02
100
AcDbEntity
  8
Solid
100
AcDbLine
 10
181.342
 20
-62.372
 30
1.6
 11
195.342
 21
-62.372
 31
1.6
  0
LINE
  5
B25
330
A02
100
AcDbEntity
  8
Solid
100
AcDbLine
 10
200.392
 20
-43.322
 30
1.6
 11
214.392
 21
-43.322
 31
1.6
  0
LINE
  5
B26
330
A02
100
AcDbEntity
  8
Solid
100
AcDbLine
 10
214.392
 20
-43.322
 30
1.6
 11
214.392
 21
-29.322
 31
1.6
  0
LINE
  5
B27
330
A02
100
AcDbEntity
  8
Solid
100
AcDbLine
 10
214.392
 20
-29.322
 30
1.6
 11
200.392
 21
-29.322
 31
1.6
  0
LINE
  5
B28
330
A02
100
AcDbEntity
  8
Solid
100
AcDbLine
 10
200.392
 20
-29.322
 30
1.6
 11
200.392
 21
-43.322
 31
1.6
  0
CIRCLE
  5
B29
330
A02
100
AcDbEntity
  8
Solid
100
AcDbCircle
 10
197.867
 20
-43.947
 40
1.15
  0
LINE
  5
B2A
330
A02
100
AcDbEntity
  8
Solid
100
AcDbLine
 10
181.342
 20
-29.322
 30
1.6
 11
195.342
 21
-29.322
 31
1.6
  0
LINE
  5
B2B
330
A02
100
AcDbEntity
  8
Solid
100
AcDbLine
 10
181.342
 20
-43.322
 30
1.6
 11
181.342
 21
-29.322
 31
1.6
  0
LINE
  5
B2C
330
A02
100
AcDbEntity
  8
Solid
100
AcDbLine
 10
195.342
 20
-43.322
 30
1.6
 11
181.342
 21
-43.322
 31
1.6
  0
LINE
  5
B2D
330
A02
100
AcDbEntity
  8
Solid
100
AcDbLine
 10
195.342
 20
-29.322
 30
1.6
 11
195.342
 21
-43.322
 31
1.6
  0
LINE
  5
B2E
330
A02
100
AcDbEntity
  8
Solid
100
AcDbLine
 10
168.358
 20
-167.767
 30
0
 11
168.358
 21
-167.767
 31
1.6
  0
LINE
  5
B2F
330
A02
100
AcDbEntity
  8
Solid
100
AcDbLine
 10
168.358
 20
-167.767
 30
1.6
 11
154.025
 21
-159.492
 31
1.6
  0
LINE
  5
B30
330
A02
100
AcDbEntity
  8
Solid
100
AcDbLine
 10
154.025
 20
-159.492
 30
0
 11
154.025
 21
-159.492
 31
1.6
  0
LINE
  5
B31
330
A02
100
AcDbEntity
  8
Solid
100
AcDbLine
 10
168.358
 20
-167.767
 30
0
 11
154.025
 21
-159.492
 31
0
  0
LINE
  5
B32
330
A02
100
AcDbEntity
  8
Solid
100
AcDbLine
 10
170.663
 20
-77.4962
 30
0
 11
170.663
 21
-77.4962
 31
1.6
  0
LINE
  5
B33
330
A02
100
AcDbEntity
  8
Solid
100
AcDbLine
 10
170.663
 20
-77.4962
 30
1.6
 11
169.269
 21
-69.595
 31
1.6
  0
LINE
  5
B34
330
A02
100
AcDbEntity
  8
Solid
100
AcDbLine
 10
169.269
 20
-69.595
 30
0
 11
169.269
 21
-69.595
 31
1.6
  0
LINE
  5
B35
330
A02
100
AcDbEntity
  8
Solid
100
AcDbLine
 10
170.663
 20
-77.4962
 30
0
 11
169.269
 21
-69.595
 31
0
  0
ARC
  5
B36
330
A02
100
AcDbEntity
  8
Solid
100
AcDbCircle
 10
168.858
 20
-166.901
 30
0
 40
1.00003
100
AcDbArc
 50
-119.999
 51
-30.0013
  0
LINE
  5
B37
330
A02
100
AcDbEntity
  8
Solid
100
AcDbLine
 10
169.724
 20
-167.401
 30
0
 11
169.724
 21
-167.401
 31
1.6
  0
ARC
  5
B38
330
A02
100
AcDbEntity
  8
Solid
100
AcDbCircle
 10
168.858
 20
-166.901
 30
1.6
 40
1.00003
100
AcDbArc
 50
-119.999
 51
-30.0013
  0
LINE
  5
B39
330
A02
100
AcDbEntity
  8
Solid
100
AcDbLine
 10
168.358
 20
-167.767
 30
0
 11
168.358
 21
-167.767
 31
1.6
  0
ARC
  5
B3A
330
A02
100
AcDbEntity
  8
Solid
100
AcDbCircle
 10
170.254
 20
-69.4214
 30
0
 40
1.00001
100
AcDbArc
 50
100.001
 51
-170
  0
LINE
  5
B3B
330
A02
100
AcDbEntity
  8
Solid
100
AcDbLine
 10
169.269
 20
-69.595
 30
0
 11
169.269
 21
-69.595
 31
1.6
  0
ARC
  5
B3C
330
A02
100
AcDbEntity
  8
Solid
100
AcDbCircle
 10
170.254
 20
-69.4214
 30
1.6
 40
1.00001
100
AcDbArc
 50
100.001
 51
-170
  0
LINE
  5
B3D
330
A02
100
AcDbEntity
  8
Solid
100
AcDbLine
 10
170.081
 20
-68.4366
 30
0
 11
170.081
 21
-68.4366
 31
1.6
  0
LINE
  5
B3E
330
A02
100
AcDbEntity
  8
Solid
100
AcDbLine
 10
173.737
 20
-160.45
 30
0
 11
173.737
 21
-160.45
 31
1.6
  0
LINE
  5
B3F
330
A02
100
AcDbEntity
  8
Solid
100
AcDbLine
 10
173.737
 20
-160.45
 30
1.6
 11
169.724
 21
-167.401
 31
1.6
  0
LINE
  5
B40
330
A02
100
AcDbEntity
  8
Solid
100
AcDbLine
 10
169.724
 20
-167.401
 30
0
 11
169.724
 21
-167.401
 31
1.6
  0
LINE
  5
B41
330
A02
100
AcDbEntity
  8
Solid
100
AcDbLine
 10
173.737
 20
-160.45
 30
0
 11
169.724
 21
-167.401
 31
0
  0
LINE
  5
B42
330
A02
100
AcDbEntity
  8
Solid
100
AcDbLine
 10
170.081
 20
-68.4366
 30
0
 11
170.081
 21
-68.4366
 31
1.6
  0
LINE
  5
B43
330
A02
100
AcDbEntity
  8
Solid
100
AcDbLine
 10
170.081
 20
-68.4366
 30
1.6
 11
175.959
 21
-67.4002
 31
1.6
  0
LINE
  5
B44
330
A02
100
AcDbEntity
  8
Solid
100
AcDbLine
 10
175.959
 20
-67.4002
 30
0
 11
175.959
 21
-67.4002
 31
1.6
  0
LINE
  5
B45
330
A02
100
AcDbEntity
  8
Solid
100
AcDbLine
 10
170.081
 20
-68.4366
 30
0
 11
175.959
 21
-67.4002
 31
0
  0
ARC
  5
B46
330
A02
100
AcDbEntity
  8
Solid
100
AcDbCircle
 10
62.599
 20
-96.369
 30
0
 40
128.289
100
AcDbArc
 50
-29.9675
 51
-20.1675
  0
LINE
  5
B47
330
A02
100
AcDbEntity
  8
Solid
100
AcDbLine
 10
183.022
 20
-140.599
 30
0
 11
183.022
 21
-140.599
 31
1.6
  0
ARC
  5
B48
330
A02
100
AcDbEntity
  8
Solid
100
AcDbCircle
 10
62.599
 20
-96.369
 30
1.6
 40
128.289
100
AcDbArc
 50
-29.9675
 51
-20.1675
  0
LINE
  5
B49
330
A02
100
AcDbEntity
  8
Solid
100
AcDbLine
 10
173.737
 20
-160.45
 30
0
 11
173.737
 21
-160.45
 31
1.6
  0
ARC
  5
B4A
330
A02
100
AcDbEntity
  8
Solid
100
AcDbCircle
 10
175.253
 20
-63.3973
 30
0
 40
4.06465
100
AcDbArc
 50
-79.9992
 51
0.000986728
  0
LINE
  5
B4B
330
A02
100
AcDbEntity
  8
Solid
100
AcDbLine
 10
179.317
 20
-63.3972
 30
0
 11
179.317
 21
-63.3972
 31
1.6
  0
ARC
  5
B4C
330
A02
100
AcDbEntity
  8
Solid
100
AcDbCircle
 10
175.253
 20
-63.3973
 30
1.6
 40
4.06465
100
AcDbArc
 50
-79.9992
 51
0.000986728
  0
LINE
  5
B4D
330
A02
100
AcDbEntity
  8
Solid
100
AcDbLine
 10
175.959
 20
-67.4002
 30
0
 11
175.959
 21
-67.4002
 31
1.6
  0
LINE
  5
B4E
330
A02
100
AcDbEntity
  8
Solid
100
AcDbLine
 10
263.041
 20
-140.599
 30
0
 11
263.041
 21
-140.599
 31
1.6
  0
LINE
  5
B4F
330
A02
100
AcDbEntity
  8
Solid
100
AcDbLine
 10
263.041
 20
-140.599
 30
1.6
 11
183.022
 21
-140.599
 31
1.6
  0
LINE
  5
B50
330
A02
100
AcDbEntity
  8
Solid
100
AcDbLine
 10
183.022
 20
-140.599
 30
0
 11
183.022
 21
-140.599
 31
1.6
  0
LINE
  5
B51
330
A02
100
AcDbEntity
  8
Solid
100
AcDbLine
 10
263.041
 20
-140.599
 30
0
 11
183.022
 21
-140.599
 31
0
  0
LINE
  5
B52
330
A02
100
AcDbEntity
  8
Solid
100
AcDbLine
 10
179.317
 20
-63.3972
 30
0
 11
179.317
 21
-63.3972
 31
1.6
  0
LINE
  5
B53
330
A02
100
AcDbEntity
  8
Solid
100
AcDbLine
 10
179.317
 20
-63.3972
 30
1.6
 11
179.318
 21
-28.2968
 31
1.6
  0
LINE
  5
B54
330
A02
100
AcDbEntity
  8
Solid
100
AcDbLine
 10
179.318
 20
-28.2968
 30
0
 11
179.318
 21
-28.2968
 31
1.6
  0
LINE
  5
B55
330
A02
100
AcDbEntity
  8
Solid
100
AcDbLine
 10
179.317
 20
-63.3972
 30
0
 11
179.318
 21
-28.2968
 31
0
  0
ARC
  5
B56
330
A02
100
AcDbEntity
  8
Solid
100
AcDbCircle
 10
263.041
 20
-139.415
 30
0
 40
1.1841
100
AcDbArc
 50
-89.9594
 51
-23.5607
  0
LINE
  5
B57
330
A02
100
AcDbEntity
  8
Solid
100
AcDbLine
 10
264.126
 20
-139.888
 30
0
 11
264.126
 21
-139.888
 31
1.6
  0
ARC
  5
B58
330
A02
100
AcDbEntity
  8
Solid
100
AcDbCircle
 10
263.041
 20
-139.415
 30
1.6
 40
1.1841
100
AcDbArc
 50
-89.9594
 51
-23.5607
  0
LINE
  5
B59
330
A02
100
AcDbEntity
  8
Solid
100
AcDbLine
 10
263.041
 20
-140.599
 30
0
 11
263.041
 21
-140.599
 31
1.6
  0
ARC
  5
B5A
330
A02
100
AcDbEntity
  8
Solid
100
AcDbCircle
 10
180.318
 20
-28.2968
 30
0
 40
1.00001
100
AcDbArc
 50
90
 51
179.999
  0
LINE
  5
B5B
330
A02
100
AcDbEntity
  8
Solid
100
AcDbLine
 10
179.318
 20
-28.2968
 30
0
 11
179.318
 21
-28.2968
 31
1.6
  0
ARC
  5
B5C
330
A02
100
AcDbEntity
  8
Solid
100
AcDbCircle
 10
180.318
 20
-28.2968
 30
1.6
 40
1.00001
100
AcDbArc
 50
90
 51
179.999
  0
LINE
  5
B5D
330
A02
100
AcDbEntity
  8
Solid
100
AcDbLine
 10
180.318
 20
-27.2968
 30
0
 11
180.318
 21
-27.2968
 31
1.6
  0
ARC
  5
B5E
330
A02
100
AcDbEntity
  8
Solid
100
AcDbCircle
 10
160.841
 20
-93.4948
 30
0
 40
113.226
100
AcDbArc
 50
-24.1884
 51
0.0116033
  0
LINE
  5
B5F
330
A02
100
AcDbEntity
  8
Solid
100
AcDbLine
 10
274.067
 20
-93.4719
 30
0
 11
274.067
 21
-93.4719
 31
1.6
  0
ARC
  5
B60
330
A02
100
AcDbEntity
  8
Solid
100
AcDbCircle
 10
160.841
 20
-93.4948
 30
1.6
 40
113.226
100
AcDbArc
 50
-24.1884
 51
0.0116033
  0
LINE
  5
B61
330
A02
100
AcDbEntity
  8
Solid
100
AcDbLine
 10
264.126
 20
-139.888
 30
0
 11
264.126
 21
-139.888
 31
1.6
  0
LINE
  5
B62
330
A02
100
AcDbEntity
  8
Solid
100
AcDbLine
 10
180.318
 20
-27.2968
 30
0
 11
180.318
 21
-27.2968
 31
1.6
  0
LINE
  5
B63
330
A02
100
AcDbEntity
  8
Solid
100
AcDbLine
 10
180.318
 20
-27.2968
 30
1.6
 11
253.517
 21
-27.2968
 31
1.6
  0
LINE
  5
B64
330
A02
100
AcDbEntity
  8
Solid
100
AcDbLine
 10
253.517
 20
-27.2968
 30
0
 11
253.517
 21
-27.2968
 31
1.6
  0
LINE
  5
B65
330
A02
100
AcDbEntity
  8
Solid
100
AcDbLine
 10
180.318
 20
-27.2968
 30
0
 11
253.517
 21
-27.2968
 31
0
  0
ARC
  5
B66
330
A02
100
AcDbEntity
  8
Solid
100
AcDbCircle
 10
154.605
 20
-93.5092
 30
0
 40
119.462
100
AcDbArc
 50
0.0179137
 51
33.4179
  0
LINE
  5
B67
330
A02
100
AcDbEntity
  8
Solid
100
AcDbLine
 10
254.317
 20
-27.7168
 30
0
 11
254.317
 21
-27.7168
 31
1.6
  0
ARC
  5
B68
330
A02
100
AcDbEntity
  8
Solid
100
AcDbCircle
 10
154.605
 20
-93.5092
 30
1.6
 40
119.462
100
AcDbArc
 50
0.0179137
 51
33.4179
  0
LINE
  5
B69
330
A02
100
AcDbEntity
  8
Solid
100
AcDbLine
 10
274.067
 20
-93.4719
 30
0
 11
274.067
 21
-93.4719
 31
1.6
  0
ARC
  5
B6A
330
A02
100
AcDbEntity
  8
Solid
100
AcDbCircle
 10
253.517
 20
-28.2687
 30
0
 40
0.97191
100
AcDbArc
 50
34.6005
 51
89.9991
  0
LINE
  5
B6B
330
A02
100
AcDbEntity
  8
Solid
100
AcDbLine
 10
253.517
 20
-27.2968
 30
0
 11
253.517
 21
-27.2968
 31
1.6
  0
ARC
  5
B6C
330
A02
100
AcDbEntity
  8
Solid
100
AcDbCircle
 10
253.517
 20
-28.2687
 30
1.6
 40
0.97191
100
AcDbArc
 50
34.6005
 51
89.9991
  0
LINE
  5
B6D
330
A02
100
AcDbEntity
  8
Solid
100
AcDbLine
 10
254.317
 20
-27.7168
 30
0
 11
254.317
 21
-27.7168
 31
1.6
  0
LINE
  5
B6E
330
A02
100
AcDbEntity
  8
Solid
100
AcDbLine
 10
248.016
 20
-138.572
 30
0
 11
248.016
 21
-138.572
 31
1.6
  0
LINE
  5
B6F
330
A02
100
AcDbEntity
  8
Solid
100
AcDbLine
 10
248.016
 20
-138.572
 30
1.6
 11
262.016
 21
-138.572
 31
1.6
  0
LINE
  5
B70
330
A02
100
AcDbEntity
  8
Solid
100
AcDbLine
 10
262.016
 20
-138.572
 30
0
 11
262.016
 21
-138.572
 31
1.6
  0
LINE
  5
B71
330
A02
100
AcDbEntity
  8
Solid
100
AcDbLine
 10
248.016
 20
-138.572
 30
0
 11
262.016
 21
-138.572
 31
0
  0
LINE
  5
B72
330
A02
100
AcDbEntity
  8
Solid
100
AcDbLine
 10
248.016
 20
-124.572
 30
0
 11
248.016
 21
-124.572
 31
1.6
  0
LINE
  5
B73
330
A02
100
AcDbEntity
  8
Solid
100
AcDbLine
 10
248.016
 20
-124.572
 30
1.6
 11
248.016
 21
-138.572
 31
1.6
  0
LINE
  5
B74
330
A02
100
AcDbEntity
  8
Solid
100
AcDbLine
 10
248.016
 20
-138.572
 30
0
 11
248.016
 21
-138.572
 31
1.6
  0
LINE
  5
B75
330
A02
100
AcDbEntity
  8
Solid
100
AcDbLine
 10
248.016
 20
-124.572
 30
0
 11
248.016
 21
-138.572
 31
0
  0
LINE
  5
B76
330
A02
100
AcDbEntity
  8
Solid
100
AcDbLine
 10
262.016
 20
-124.572
 30
0
 11
262.016
 21
-124.572
 31
1.6
  0
LINE
  5
B77
330
A02
100
AcDbEntity
  8
Solid
100
AcDbLine
 10
262.016
 20
-124.572
 30
1.6
 11
248.016
 21
-124.572
 31
1.6
  0
LINE
  5
B78
330
A02
100
AcDbEntity
  8
Solid
100
AcDbLine
 10
248.016
 20
-124.572
 30
0
 11
248.016
 21
-124.572
 31
1.6
  0
LINE
  5
B79
330
A02
100
AcDbEntity
  8
Solid
100
AcDbLine
 10
262.016
 20
-124.572
 30
0
 11
248.016
 21
-124.572
 31
0
  0
LINE
  5
B7A
330
A02
100
AcDbEntity
  8
Solid
100
AcDbLine
 10
262.016
 20
-138.572
 30
0
 11
262.016
 21
-138.572
 31
1.6
  0
LINE
  5
B7B
330
A02
100
AcDbEntity
  8
Solid
100
AcDbLine
 10
262.016
 20
-138.572
 30
1.6
 11
262.016
 21
-124.572
 31
1.6
  0
LINE
  5
B7C
330
A02
100
AcDbEntity
  8
Solid
100
AcDbLine
 10
262.016
 20
-124.572
 30
0
 11
262.016
 21
-124.572
 31
1.6
  0
LINE
  5
B7D
330
A02
100
AcDbEntity
  8
Solid
100
AcDbLine
 10
262.016
 20
-138.572
 30
0
 11
262.016
 21
-124.572
 31
0
  0
LINE
  5
B7E
330
A02
100
AcDbEntity
  8
Solid
100
AcDbLine
 10
228.966
 20
-138.572
 30
0
 11
228.966
 21
-138.572
 31
1.6
  0
LINE
  5
B7F
330
A02
100
AcDbEntity
  8
Solid
100
AcDbLine
 10
228.966
 20
-138.572
 30
1.6
 11
242.966
 21
-138.572
 31
1.6
  0
LINE
  5
B80
330
A02
100
AcDbEntity
  8
Solid
100
AcDbLine
 10
242.966
 20
-138.572
 30
0
 11
242.966
 21
-138.572
 31
1.6
  0
LINE
  5
B81
330
A02
100
AcDbEntity
  8
Solid
100
AcDbLine
 10
228.966
 20
-138.572
 30
0
 11
242.966
 21
-138.572
 31
0
  0
LINE
  5
B82
330
A02
100
AcDbEntity
  8
Solid
100
AcDbLine
 10
228.966
 20
-124.572
 30
0
 11
228.966
 21
-124.572
 31
1.6
  0
LINE
  5
B83
330
A02
100
AcDbEntity
  8
Solid
100
AcDbLine
 10
228.966
 20
-124.572
 30
1.6
 11
228.966
 21
-138.572
 31
1.6
  0
LINE
  5
B84
330
A02
100
AcDbEntity
  8
Solid
100
AcDbLine
 10
228.966
 20
-138.572
 30
0
 11
228.966
 21
-138.572
 31
1.6
  0
LINE
  5
B85
330
A02
100
AcDbEntity
  8
Solid
100
AcDbLine
 10
228.966
 20
-124.572
 30
0
 11
228.966
 21
-138.572
 31
0
  0
LINE
  5
B86
330
A02
100
AcDbEntity
  8
Solid
100
AcDbLine
 10
242.966
 20
-124.572
 30
0
 11
242.966
 21
-124.572
 31
1.6
  0
LINE
  5
B87
330
A02
100
AcDbEntity
  8
Solid
100
AcDbLine
 10
242.966
 20
-124.572
 30
1.6
 11
228.966
 21
-124.572
 31
1.6
  0
LINE
  5
B88
330
A02
100
AcDbEntity
  8
Solid
100
AcDbLine
 10
228.966
 20
-124.572
 30
0
 11
228.966
 21
-124.572
 31
1.6
  0
LINE
  5
B89
330
A02
100
AcDbEntity
  8
Solid
100
AcDbLine
 10
242.966
 20
-124.572
 30
0
 11
228.966
 21
-124.572
 31
0
  0
LINE
  5
B8A
330
A02
100
AcDbEntity
  8
Solid
100
AcDbLine
 10
242.966
 20
-138.572
 30
0
 11
242.966
 21
-138.572
 31
1.6
  0
LINE
  5
B8B
330
A02
100
AcDbEntity
  8
Solid
100
AcDbLine
 10
242.966
 20
-138.572
 30
1.6
 11
242.966
 21
-124.572
 31
1.6
  0
LINE
  5
B8C
330
A02
100
AcDbEntity
  8
Solid
100
AcDbLine
 10
242.966
 20
-124.572
 30
0
 11
242.966
 21
-124.572
 31
1.6
  0
LINE
  5
B8D
330
A02
100
AcDbEntity
  8
Solid
100
AcDbLine
 10
242.966
 20
-138.572
 30
0
 11
242.966
 21
-124.572
 31
0
  0
LINE
  5
B8E
330
A02
100
AcDbEntity
  8
Solid
100
AcDbLine
 10
209.917
 20
-138.572
 30
0
 11
209.917
 21
-138.572
 31
1.6
  0
LINE
  5
B8F
330
A02
100
AcDbEntity
  8
Solid
100
AcDbLine
 10
209.917
 20
-138.572
 30
1.6
 11
209.917
 21
-124.572
 31
1.6
  0
LINE
  5
B90
330
A02
100
AcDbEntity
  8
Solid
100
AcDbLine
 10
209.917
 20
-124.572
 30
0
 11
209.917
 21
-124.572
 31
1.6
  0
LINE
  5
B91
330
A02
100
AcDbEntity
  8
Solid
100
AcDbLine
 10
209.917
 20
-138.572
 30
0
 11
209.917
 21
-124.572
 31
0
  0
LINE
  5
B92
330
A02
100
AcDbEntity
  8
Solid
100
AcDbLine
 10
209.917
 20
-124.572
 30
0
 11
209.917
 21
-124.572
 31
1.6
  0
LINE
  5
B93
330
A02
100
AcDbEntity
  8
Solid
100
AcDbLine
 10
209.917
 20
-124.572
 30
1.6
 11
223.917
 21
-124.572
 31
1.6
  0
LINE
  5
B94
330
A02
100
AcDbEntity
  8
Solid
100
AcDbLine
 10
223.917
 20
-124.572
 30
0
 11
223.917
 21
-124.572
 31
1.6
  0
LINE
  5
B95
330
A02
100
AcDbEntity
  8
Solid
100
AcDbLine
 10
209.917
 20
-124.572
 30
0
 11
223.917
 21
-124.572
 31
0
  0
LINE
  5
B96
330
A02
100
AcDbEntity
  8
Solid
100
AcDbLine
 10
223.917
 20
-124.572
 30
0
 11
223.917
 21
-124.572
 31
1.6
  0
LINE
  5
B97
330
A02
100
AcDbEntity
  8
Solid
100
AcDbLine
 10
223.917
 20
-124.572
 30
1.6
 11
223.917
 21
-138.572
 31
1.6
  0
LINE
  5
B98
330
A02
100
AcDbEntity
  8
Solid
100
AcDbLine
 10
223.917
 20
-138.572
 30
0
 11
223.917
 21
-138.572
 31
1.6
  0
LINE
  5
B99
330
A02
100
AcDbEntity
  8
Solid
100
AcDbLine
 10
223.917
 20
-124.572
 30
0
 11
223.917
 21
-138.572
 31
0
  0
LINE
  5
B9A
330
A02
100
AcDbEntity
  8
Solid
100
AcDbLine
 10
223.917
 20
-138.572
 30
0
 11
223.917
 21
-138.572
 31
1.6
  0
LINE
  5
B9B
330
A02
100
AcDbEntity
  8
Solid
100
AcDbLine
 10
223.917
 20
-138.572
 30
1.6
 11
209.917
 21
-138.572
 31
1.6
  0
LINE
  5
B9C
330
A02
100
AcDbEntity
  8
Solid
100
AcDbLine
 10
209.917
 20
-138.572
 30
0
 11
209.917
 21
-138.572
 31
1.6
  0
LINE
  5
B9D
330
A02
100
AcDbEntity
  8
Solid
100
AcDbLine
 10
223.917
 20
-138.572
 30
0
 11
209.917
 21
-138.572
 31
0
  0
CIRCLE
  5
B9E
330
A02
100
AcDbEntity
  8
Solid
100
AcDbCircle
 10
250.566
 20
-122.047
 40
1.15
  0
LINE
  5
B9F
330
A02
100
AcDbEntity
  8
Solid
100
AcDbLine
 10
251.716
 20
-122.047
 30
0
 11
251.716
 21
-122.047
 31
1.6
  0
CIRCLE
  5
BA0
330
A02
100
AcDbEntity
  8
Solid
100
AcDbCircle
 10
250.566
 20
-122.047
 40
1.15
  0
LINE
  5
BA1
330
A02
100
AcDbEntity
  8
Solid
100
AcDbLine
 10
251.716
 20
-122.047
 30
0
 11
251.716
 21
-122.047
 31
1.6
  0
LINE
  5
BA2
330
A02
100
AcDbEntity
  8
Solid
100
AcDbLine
 10
265.192
 20
-119.522
 30
0
 11
265.192
 21
-119.522
 31
1.6
  0
LINE
  5
BA3
330
A02
100
AcDbEntity
  8
Solid
100
AcDbLine
 10
265.192
 20
-119.522
 30
1.6
 11
251.192
 21
-119.522
 31
1.6
  0
LINE
  5
BA4
330
A02
100
AcDbEntity
  8
Solid
100
AcDbLine
 10
251.192
 20
-119.522
 30
0
 11
251.192
 21
-119.522
 31
1.6
  0
LINE
  5
BA5
330
A02
100
AcDbEntity
  8
Solid
100
AcDbLine
 10
265.192
 20
-119.522
 30
0
 11
251.192
 21
-119.522
 31
0
  0
LINE
  5
BA6
330
A02
100
AcDbEntity
  8
Solid
100
AcDbLine
 10
251.192
 20
-119.522
 30
0
 11
251.192
 21
-119.522
 31
1.6
  0
LINE
  5
BA7
330
A02
100
AcDbEntity
  8
Solid
100
AcDbLine
 10
251.192
 20
-119.522
 30
1.6
 11
251.192
 21
-105.522
 31
1.6
  0
LINE
  5
BA8
330
A02
100
AcDbEntity
  8
Solid
100
AcDbLine
 10
251.192
 20
-105.522
 30
0
 11
251.192
 21
-105.522
 31
1.6
  0
LINE
  5
BA9
330
A02
100
AcDbEntity
  8
Solid
100
AcDbLine
 10
251.192
 20
-119.522
 30
0
 11
251.192
 21
-105.522
 31
0
  0
LINE
  5
BAA
330
A02
100
AcDbEntity
  8
Solid
100
AcDbLine
 10
251.192
 20
-105.522
 30
0
 11
251.192
 21
-105.522
 31
1.6
  0
LINE
  5
BAB
330
A02
100
AcDbEntity
  8
Solid
100
AcDbLine
 10
251.192
 20
-105.522
 30
1.6
 11
265.192
 21
-105.522
 31
1.6
  0
LINE
  5
BAC
330
A02
100
AcDbEntity
  8
Solid
100
AcDbLine
 10
265.192
 20
-105.522
 30
0
 11
265.192
 21
-105.522
 31
1.6
  0
LINE
  5
BAD
330
A02
100
AcDbEntity
  8
Solid
100
AcDbLine
 10
251.192
 20
-105.522
 30
0
 11
265.192
 21
-105.522
 31
0
  0
LINE
  5
BAE
330
A02
100
AcDbEntity
  8
Solid
100
AcDbLine
 10
265.192
 20
-105.522
 30
0
 11
265.192
 21
-105.522
 31
1.6
  0
LINE
  5
BAF
330
A02
100
AcDbEntity
  8
Solid
100
AcDbLine
 10
265.192
 20
-105.522
 30
1.6
 11
265.192
 21
-119.522
 31
1.6
  0
LINE
  5
BB0
330
A02
100
AcDbEntity
  8
Solid
100
AcDbLine
 10
265.192
 20
-119.522
 30
0
 11
265.192
 21
-119.522
 31
1.6
  0
LINE
  5
BB1
330
A02
100
AcDbEntity
  8
Solid
100
AcDbLine
 10
265.192
 20
-105.522
 30
0
 11
265.192
 21
-119.522
 31
0
  0
LINE
  5
BB2
330
A02
100
AcDbEntity
  8
Solid
100
AcDbLine
 10
246.142
 20
-119.522
 30
0
 11
246.142
 21
-119.522
 31
1.6
  0
LINE
  5
BB3
330
A02
100
AcDbEntity
  8
Solid
100
AcDbLine
 10
246.142
 20
-119.522
 30
1.6
 11
246.142
 21
-105.522
 31
1.6
  0
LINE
  5
BB4
330
A02
100
AcDbEntity
  8
Solid
100
AcDbLine
 10
246.142
 20
-105.522
 30
0
 11
246.142
 21
-105.522
 31
1.6
  0
LINE
  5
BB5
330
A02
100
AcDbEntity
  8
Solid
100
AcDbLine
 10
246.142
 20
-119.522
 30
0
 11
246.142
 21
-105.522
 31
0
  0
LINE
  5
BB6
330
A02
100
AcDbEntity
  8
Solid
100
AcDbLine
 10
232.142
 20
-119.522
 30
0
 11
232.142
 21
-119.522
 31
1.6
  0
LINE
  5
BB7
330
A02
100
AcDbEntity
  8
Solid
100
AcDbLine
 10
232.142
 20
-119.522
 30
1.6
 11
246.142
 21
-119.522
 31
1.6
  0
LINE
  5
BB8
330
A02
100
AcDbEntity
  8
Solid
100
AcDbLine
 10
246.142
 20
-119.522
 30
0
 11
246.142
 21
-119.522
 31
1.6
  0
LINE
  5
BB9
330
A02
100
AcDbEntity
  8
Solid
100
AcDbLine
 10
232.142
 20
-119.522
 30
0
 11
246.142
 21
-119.522
 31
0
  0
LINE
  5
BBA
330
A02
100
AcDbEntity
  8
Solid
100
AcDbLine
 10
232.142
 20
-105.522
 30
0
 11
232.142
 21
-105.522
 31
1.6
  0
LINE
  5
BBB
330
A02
100
AcDbEntity
  8
Solid
100
AcDbLine
 10
232.142
 20
-105.522
 30
1.6
 11
232.142
 21
-119.522
 31
1.6
  0
LINE
  5
BBC
330
A02
100
AcDbEntity
  8
Solid
100
AcDbLine
 10
232.142
 20
-119.522
 30
0
 11
232.142
 21
-119.522
 31
1.6
  0
LINE
  5
BBD
330
A02
100
AcDbEntity
  8
Solid
100
AcDbLine
 10
232.142
 20
-105.522
 30
0
 11
232.142
 21
-119.522
 31
0
  0
LINE
  5
BBE
330
A02
100
AcDbEntity
  8
Solid
100
AcDbLine
 10
246.142
 20
-105.522
 30
0
 11
246.142
 21
-105.522
 31
1.6
  0
LINE
  5
BBF
330
A02
100
AcDbEntity
  8
Solid
100
AcDbLine
 10
246.142
 20
-105.522
 30
1.6
 11
232.142
 21
-105.522
 31
1.6
  0
LINE
  5
BC0
330
A02
100
AcDbEntity
  8
Solid
100
AcDbLine
 10
232.142
 20
-105.522
 30
0
 11
232.142
 21
-105.522
 31
1.6
  0
LINE
  5
BC1
330
A02
100
AcDbEntity
  8
Solid
100
AcDbLine
 10
246.142
 20
-105.522
 30
0
 11
232.142
 21
-105.522
 31
0
  0
LINE
  5
BC2
330
A02
100
AcDbEntity
  8
Solid
100
AcDbLine
 10
227.092
 20
-119.522
 30
0
 11
227.092
 21
-119.522
 31
1.6
  0
LINE
  5
BC3
330
A02
100
AcDbEntity
  8
Solid
100
AcDbLine
 10
227.092
 20
-119.522
 30
1.6
 11
227.092
 21
-105.522
 31
1.6
  0
LINE
  5
BC4
330
A02
100
AcDbEntity
  8
Solid
100
AcDbLine
 10
227.092
 20
-105.522
 30
0
 11
227.092
 21
-105.522
 31
1.6
  0
LINE
  5
BC5
330
A02
100
AcDbEntity
  8
Solid
100
AcDbLine
 10
227.092
 20
-119.522
 30
0
 11
227.092
 21
-105.522
 31
0
  0
LINE
  5
BC6
330
A02
100
AcDbEntity
  8
Solid
100
AcDbLine
 10
213.092
 20
-119.522
 30
0
 11
213.092
 21
-119.522
 31
1.6
  0
LINE
  5
BC7
330
A02
100
AcDbEntity
  8
Solid
100
AcDbLine
 10
213.092
 20
-119.522
 30
1.6
 11
227.092
 21
-119.522
 31
1.6
  0
LINE
  5
BC8
330
A02
100
AcDbEntity
  8
Solid
100
AcDbLine
 10
227.092
 20
-119.522
 30
0
 11
227.092
 21
-119.522
 31
1.6
  0
LINE
  5
BC9
330
A02
100
AcDbEntity
  8
Solid
100
AcDbLine
 10
213.092
 20
-119.522
 30
0
 11
227.092
 21
-119.522
 31
0
  0
LINE
  5
BCA
330
A02
100
AcDbEntity
  8
Solid
100
AcDbLine
 10
213.092
 20
-105.522
 30
0
 11
213.092
 21
-105.522
 31
1.6
  0
LINE
  5
BCB
330
A02
100
AcDbEntity
  8
Solid
100
AcDbLine
 10
213.092
 20
-105.522
 30
1.6
 11
213.092
 21
-119.522
 31
1.6
  0
LINE
  5
BCC
330
A02
100
AcDbEntity
  8
Solid
100
AcDbLine
 10
213.092
 20
-119.522
 30
0
 11
213.092
 21
-119.522
 31
1.6
  0
LINE
  5
BCD
330
A02
100
AcDbEntity
  8
Solid
100
AcDbLine
 10
213.092
 20
-105.522
 30
0
 11
213.092
 21
-119.522
 31
0
  0
LINE
  5
BCE
330
A02
100
AcDbEntity
  8
Solid
100
AcDbLine
 10
227.092
 20
-105.522
 30
0
 11
227.092
 21
-105.522
 31
1.6
  0
LINE
  5
BCF
330
A02
100
AcDbEntity
  8
Solid
100
AcDbLine
 10
227.092
 20
-105.522
 30
1.6
 11
213.092
 21
-105.522
 31
1.6
  0
LINE
  5
BD0
330
A02
100
AcDbEntity
  8
Solid
100
AcDbLine
 10
213.092
 20
-105.522
 30
0
 11
213.092
 21
-105.522
 31
1.6
  0
LINE
  5
BD1
330
A02
100
AcDbEntity
  8
Solid
100
AcDbLine
 10
227.092
 20
-105.522
 30
0
 11
213.092
 21
-105.522
 31
0
  0
LINE
  5
BD2
330
A02
100
AcDbEntity
  8
Solid
100
AcDbLine
 10
190.867
 20
-138.572
 30
0
 11
190.867
 21
-138.572
 31
1.6
  0
LINE
  5
BD3
330
A02
100
AcDbEntity
  8
Solid
100
AcDbLine
 10
190.867
 20
-138.572
 30
1.6
 11
204.867
 21
-138.572
 31
1.6
  0
LINE
  5
BD4
330
A02
100
AcDbEntity
  8
Solid
100
AcDbLine
 10
204.867
 20
-138.572
 30
0
 11
204.867
 21
-138.572
 31
1.6
  0
LINE
  5
BD5
330
A02
100
AcDbEntity
  8
Solid
100
AcDbLine
 10
190.867
 20
-138.572
 30
0
 11
204.867
 21
-138.572
 31
0
  0
LINE
  5
BD6
330
A02
100
AcDbEntity
  8
Solid
100
AcDbLine
 10
190.867
 20
-124.572
 30
0
 11
190.867
 21
-124.572
 31
1.6
  0
LINE
  5
BD7
330
A02
100
AcDbEntity
  8
Solid
100
AcDbLine
 10
190.867
 20
-124.572
 30
1.6
 11
190.867
 21
-138.572
 31
1.6
  0
LINE
  5
BD8
330
A02
100
AcDbEntity
  8
Solid
100
AcDbLine
 10
190.867
 20
-138.572
 30
0
 11
190.867
 21
-138.572
 31
1.6
  0
LINE
  5
BD9
330
A02
100
AcDbEntity
  8
Solid
100
AcDbLine
 10
190.867
 20
-124.572
 30
0
 11
190.867
 21
-138.572
 31
0
  0
LINE
  5
BDA
330
A02
100
AcDbEntity
  8
Solid
100
AcDbLine
 10
204.867
 20
-124.572
 30
0
 11
204.867
 21
-124.572
 31
1.6
  0
LINE
  5
BDB
330
A02
100
AcDbEntity
  8
Solid
100
AcDbLine
 10
204.867
 20
-124.572
 30
1.6
 11
190.867
 21
-124.572
 31
1.6
  0
LINE
  5
BDC
330
A02
100
AcDbEntity
  8
Solid
100
AcDbLine
 10
190.867
 20
-124.572
 30
0
 11
190.867
 21
-124.572
 31
1.6
  0
LINE
  5
BDD
330
A02
100
AcDbEntity
  8
Solid
100
AcDbLine
 10
204.867
 20
-124.572
 30
0
 11
190.867
 21
-124.572
 31
0
  0
LINE
  5
BDE
330
A02
100
AcDbEntity
  8
Solid
100
AcDbLine
 10
204.867
 20
-138.572
 30
0
 11
204.867
 21
-138.572
 31
1.6
  0
LINE
  5
BDF
330
A02
100
AcDbEntity
  8
Solid
100
AcDbLine
 10
204.867
 20
-138.572
 30
1.6
 11
204.867
 21
-124.572
 31
1.6
  0
LINE
  5
BE0
330
A02
100
AcDbEntity
  8
Solid
100
AcDbLine
 10
204.867
 20
-124.572
 30
0
 11
204.867
 21
-124.572
 31
1.6
  0
LINE
  5
BE1
330
A02
100
AcDbEntity
  8
Solid
100
AcDbLine
 10
204.867
 20
-138.572
 30
0
 11
204.867
 21
-124.572
 31
0
  0
LINE
  5
BE2
330
A02
100
AcDbEntity
  8
Solid
100
AcDbLine
 10
175.05
 20
-153.126
 30
0
 11
175.05
 21
-153.126
 31
1.6
  0
LINE
  5
BE3
330
A02
100
AcDbEntity
  8
Solid
100
AcDbLine
 10
175.05
 20
-153.126
 30
1.6
 11
168.05
 21
-165.251
 31
1.6
  0
LINE
  5
BE4
330
A02
100
AcDbEntity
  8
Solid
100
AcDbLine
 10
168.05
 20
-165.251
 30
0
 11
168.05
 21
-165.251
 31
1.6
  0
LINE
  5
BE5
330
A02
100
AcDbEntity
  8
Solid
100
AcDbLine
 10
175.05
 20
-153.126
 30
0
 11
168.05
 21
-165.251
 31
0
  0
LINE
  5
BE6
330
A02
100
AcDbEntity
  8
Solid
100
AcDbLine
 10
168.05
 20
-165.251
 30
0
 11
168.05
 21
-165.251
 31
1.6
  0
LINE
  5
BE7
330
A02
100
AcDbEntity
  8
Solid
100
AcDbLine
 10
168.05
 20
-165.251
 30
1.6
 11
155.926
 21
-158.251
 31
1.6
  0
LINE
  5
BE8
330
A02
100
AcDbEntity
  8
Solid
100
AcDbLine
 10
155.926
 20
-158.251
 30
0
 11
155.926
 21
-158.251
 31
1.6
  0
LINE
  5
BE9
330
A02
100
AcDbEntity
  8
Solid
100
AcDbLine
 10
168.05
 20
-165.251
 30
0
 11
155.926
 21
-158.251
 31
0
  0
LINE
  5
BEA
330
A02
100
AcDbEntity
  8
Solid
100
AcDbLine
 10
155.926
 20
-158.251
 30
0
 11
155.926
 21
-158.251
 31
1.6
  0
LINE
  5
BEB
330
A02
100
AcDbEntity
  8
Solid
100
AcDbLine
 10
155.926
 20
-158.251
 30
1.6
 11
162.926
 21
-146.126
 31
1.6
  0
LINE
  5
BEC
330
A02
100
AcDbEntity
  8
Solid
100
AcDbLine
 10
162.926
 20
-146.126
 30
0
 11
162.926
 21
-146.126
 31
1.6
  0
LINE
  5
BED
330
A02
100
AcDbEntity
  8
Solid
100
AcDbLine
 10
155.926
 20
-158.251
 30
0
 11
162.926
 21
-146.126
 31
0
  0
LINE
  5
BEE
330
A02
100
AcDbEntity
  8
Solid
100
AcDbLine
 10
162.926
 20
-146.126
 30
0
 11
162.926
 21
-146.126
 31
1.6
  0
LINE
  5
BEF
330
A02
100
AcDbEntity
  8
Solid
100
AcDbLine
 10
162.926
 20
-146.126
 30
1.6
 11
175.05
 21
-153.126
 31
1.6
  0
LINE
  5
BF0
330
A02
100
AcDbEntity
  8
Solid
100
AcDbLine
 10
175.05
 20
-153.126
 30
0
 11
175.05
 21
-153.126
 31
1.6
  0
LINE
  5
BF1
330
A02
100
AcDbEntity
  8
Solid
100
AcDbLine
 10
162.926
 20
-146.126
 30
0
 11
175.05
 21
-153.126
 31
0
  0
CIRCLE
  5
BF2
330
A02
100
AcDbEntity
  8
Solid
100
AcDbCircle
 10
173.353
 20
-147.97
 40
1.15
  0
LINE
  5
BF3
330
A02
100
AcDbEntity
  8
Solid
100
AcDbLine
 10
174.503
 20
-147.97
 30
0
 11
174.503
 21
-147.97
 31
1.6
  0
CIRCLE
  5
BF4
330
A02
100
AcDbEntity
  8
Solid
100
AcDbCircle
 10
173.353
 20
-147.97
 40
1.15
  0
LINE
  5
BF5
330
A02
100
AcDbEntity
  8
Solid
100
AcDbLine
 10
174.503
 20
-147.97
 30
0
 11
174.503
 21
-147.97
 31
1.6
  0
LINE
  5
BF6
330
A02
100
AcDbEntity
  8
Solid
100
AcDbLine
 10
178.393
 20
-145.956
 30
0
 11
178.393
 21
-145.956
 31
1.6
  0
LINE
  5
BF7
330
A02
100
AcDbEntity
  8
Solid
100
AcDbLine
 10
178.393
 20
-145.956
 30
1.6
 11
165.237
 21
-141.168
 31
1.6
  0
LINE
  5
BF8
330
A02
100
AcDbEntity
  8
Solid
100
AcDbLine
 10
165.237
 20
-141.168
 30
0
 11
165.237
 21
-141.168
 31
1.6
  0
LINE
  5
BF9
330
A02
100
AcDbEntity
  8
Solid
100
AcDbLine
 10
178.393
 20
-145.956
 30
0
 11
165.237
 21
-141.168
 31
0
  0
LINE
  5
BFA
330
A02
100
AcDbEntity
  8
Solid
100
AcDbLine
 10
165.237
 20
-141.168
 30
0
 11
165.237
 21
-141.168
 31
1.6
  0
LINE
  5
BFB
330
A02
100
AcDbEntity
  8
Solid
100
AcDbLine
 10
165.237
 20
-141.168
 30
1.6
 11
170.026
 21
-128.012
 31
1.6
  0
LINE
  5
BFC
330
A02
100
AcDbEntity
  8
Solid
100
AcDbLine
 10
170.026
 20
-128.012
 30
0
 11
170.026
 21
-128.012
 31
1.6
  0
LINE
  5
BFD
330
A02
100
AcDbEntity
  8
Solid
100
AcDbLine
 10
165.237
 20
-141.168
 30
0
 11
170.026
 21
-128.012
 31
0
  0
LINE
  5
BFE
330
A02
100
AcDbEntity
  8
Solid
100
AcDbLine
 10
170.026
 20
-128.012
 30
0
 11
170.026
 21
-128.012
 31
1.6
  0
LINE
  5
BFF
330
A02
100
AcDbEntity
  8
Solid
100
AcDbLine
 10
170.026
 20
-128.012
 30
1.6
 11
183.181
 21
-132.801
 31
1.6
  0
LINE
  5
C00
330
A02
100
AcDbEntity
  8
Solid
100
AcDbLine
 10
183.181
 20
-132.801
 30
0
 11
183.181
 21
-132.801
 31
1.6
  0
LINE
  5
C01
330
A02
100
AcDbEntity
  8
Solid
100
AcDbLine
 10
170.026
 20
-128.012
 30
0
 11
183.181
 21
-132.801
 31
0
  0
LINE
  5
C02
330
A02
100
AcDbEntity
  8
Solid
100
AcDbLine
 10
183.181
 20
-132.801
 30
0
 11
183.181
 21
-132.801
 31
1.6
  0
LINE
  5
C03
330
A02
100
AcDbEntity
  8
Solid
100
AcDbLine
 10
183.181
 20
-132.801
 30
1.6
 11
178.393
 21
-145.956
 31
1.6
  0
LINE
  5
C04
330
A02
100
AcDbEntity
  8
Solid
100
AcDbLine
 10
178.393
 20
-145.956
 30
0
 11
178.393
 21
-145.956
 31
1.6
  0
LINE
  5
C05
330
A02
100
AcDbEntity
  8
Solid
100
AcDbLine
 10
183.181
 20
-132.801
 30
0
 11
178.393
 21
-145.956
 31
0
  0
LINE
  5
C06
330
A02
100
AcDbEntity
  8
Solid
100
AcDbLine
 10
208.042
 20
-105.522
 30
0
 11
208.042
 21
-105.522
 31
1.6
  0
LINE
  5
C07
330
A02
100
AcDbEntity
  8
Solid
100
AcDbLine
 10
208.042
 20
-105.522
 30
1.6
 11
194.042
 21
-105.522
 31
1.6
  0
LINE
  5
C08
330
A02
100
AcDbEntity
  8
Solid
100
AcDbLine
 10
194.042
 20
-105.522
 30
0
 11
194.042
 21
-105.522
 31
1.6
  0
LINE
  5
C09
330
A02
100
AcDbEntity
  8
Solid
100
AcDbLine
 10
208.042
 20
-105.522
 30
0
 11
194.042
 21
-105.522
 31
0
  0
LINE
  5
C0A
330
A02
100
AcDbEntity
  8
Solid
100
AcDbLine
 10
208.042
 20
-119.522
 30
0
 11
208.042
 21
-119.522
 31
1.6
  0
LINE
  5
C0B
330
A02
100
AcDbEntity
  8
Solid
100
AcDbLine
 10
208.042
 20
-119.522
 30
1.6
 11
208.042
 21
-105.522
 31
1.6
  0
LINE
  5
C0C
330
A02
100
AcDbEntity
  8
Solid
100
AcDbLine
 10
208.042
 20
-105.522
 30
0
 11
208.042
 21
-105.522
 31
1.6
  0
LINE
  5
C0D
330
A02
100
AcDbEntity
  8
Solid
100
AcDbLine
 10
208.042
 20
-119.522
 30
0
 11
208.042
 21
-105.522
 31
0
  0
LINE
  5
C0E
330
A02
100
AcDbEntity
  8
Solid
100
AcDbLine
 10
194.042
 20
-119.522
 30
0
 11
194.042
 21
-119.522
 31
1.6
  0
LINE
  5
C0F
330
A02
100
AcDbEntity
  8
Solid
100
AcDbLine
 10
194.042
 20
-119.522
 30
1.6
 11
208.042
 21
-119.522
 31
1.6
  0
LINE
  5
C10
330
A02
100
AcDbEntity
  8
Solid
100
AcDbLine
 10
208.042
 20
-119.522
 30
0
 11
208.042
 21
-119.522
 31
1.6
  0
LINE
  5
C11
330
A02
100
AcDbEntity
  8
Solid
100
AcDbLine
 10
194.042
 20
-119.522
 30
0
 11
208.042
 21
-119.522
 31
0
  0
LINE
  5
C12
330
A02
100
AcDbEntity
  8
Solid
100
AcDbLine
 10
194.042
 20
-105.522
 30
0
 11
194.042
 21
-105.522
 31
1.6
  0
LINE
  5
C13
330
A02
100
AcDbEntity
  8
Solid
100
AcDbLine
 10
194.042
 20
-105.522
 30
1.6
 11
194.042
 21
-119.522
 31
1.6
  0
LINE
  5
C14
330
A02
100
AcDbEntity
  8
Solid
100
AcDbLine
 10
194.042
 20
-119.522
 30
0
 11
194.042
 21
-119.522
 31
1.6
  0
LINE
  5
C15
330
A02
100
AcDbEntity
  8
Solid
100
AcDbLine
 10
194.042
 20
-105.522
 30
0
 11
194.042
 21
-119.522
 31
0
  0
LINE
  5
C16
330
A02
100
AcDbEntity
  8
Solid
100
AcDbLine
 10
171.441
 20
-122.728
 30
0
 11
171.441
 21
-122.728
 31
1.6
  0
LINE
  5
C17
330
A02
100
AcDbEntity
  8
Solid
100
AcDbLine
 10
171.441
 20
-122.728
 30
1.6
 11
185.229
 21
-125.159
 31
1.6
  0
LINE
  5
C18
330
A02
100
AcDbEntity
  8
Solid
100
AcDbLine
 10
185.229
 20
-125.159
 30
0
 11
185.229
 21
-125.159
 31
1.6
  0
LINE
  5
C19
330
A02
100
AcDbEntity
  8
Solid
100
AcDbLine
 10
171.441
 20
-122.728
 30
0
 11
185.229
 21
-125.159
 31
0
  0
LINE
  5
C1A
330
A02
100
AcDbEntity
  8
Solid
100
AcDbLine
 10
173.872
 20
-108.94
 30
0
 11
173.872
 21
-108.94
 31
1.6
  0
LINE
  5
C1B
330
A02
100
AcDbEntity
  8
Solid
100
AcDbLine
 10
173.872
 20
-108.94
 30
1.6
 11
171.441
 21
-122.728
 31
1.6
  0
LINE
  5
C1C
330
A02
100
AcDbEntity
  8
Solid
100
AcDbLine
 10
171.441
 20
-122.728
 30
0
 11
171.441
 21
-122.728
 31
1.6
  0
LINE
  5
C1D
330
A02
100
AcDbEntity
  8
Solid
100
AcDbLine
 10
173.872
 20
-108.94
 30
0
 11
171.441
 21
-122.728
 31
0
  0
LINE
  5
C1E
330
A02
100
AcDbEntity
  8
Solid
100
AcDbLine
 10
187.66
 20
-111.371
 30
0
 11
187.66
 21
-111.371
 31
1.6
  0
LINE
  5
C1F
330
A02
100
AcDbEntity
  8
Solid
100
AcDbLine
 10
187.66
 20
-111.371
 30
1.6
 11
173.872
 21
-108.94
 31
1.6
  0
LINE
  5
C20
330
A02
100
AcDbEntity
  8
Solid
100
AcDbLine
 10
173.872
 20
-108.94
 30
0
 11
173.872
 21
-108.94
 31
1.6
  0
LINE
  5
C21
330
A02
100
AcDbEntity
  8
Solid
100
AcDbLine
 10
187.66
 20
-111.371
 30
0
 11
173.872
 21
-108.94
 31
0
  0
LINE
  5
C22
330
A02
100
AcDbEntity
  8
Solid
100
AcDbLine
 10
185.229
 20
-125.159
 30
0
 11
185.229
 21
-125.159
 31
1.6
  0
LINE
  5
C23
330
A02
100
AcDbEntity
  8
Solid
100
AcDbLine
 10
185.229
 20
-125.159
 30
1.6
 11
187.66
 21
-111.371
 31
1.6
  0
LINE
  5
C24
330
A02
100
AcDbEntity
  8
Solid
100
AcDbLine
 10
187.66
 20
-111.371
 30
0
 11
187.66
 21
-111.371
 31
1.6
  0
LINE
  5
C25
330
A02
100
AcDbEntity
  8
Solid
100
AcDbLine
 10
185.229
 20
-125.159
 30
0
 11
187.66
 21
-111.371
 31
0
  0
CIRCLE
  5
C26
330
A02
100
AcDbEntity
  8
Solid
100
AcDbCircle
 10
184.301
 20
-107.108
 40
1.15
  0
LINE
  5
C27
330
A02
100
AcDbEntity
  8
Solid
100
AcDbLine
 10
185.451
 20
-107.108
 30
0
 11
185.451
 21
-107.108
 31
1.6
  0
CIRCLE
  5
C28
330
A02
100
AcDbEntity
  8
Solid
100
AcDbCircle
 10
184.301
 20
-107.108
 40
1.15
  0
LINE
  5
C29
330
A02
100
AcDbEntity
  8
Solid
100
AcDbLine
 10
185.451
 20
-107.108
 30
0
 11
185.451
 21
-107.108
 31
1.6
  0
LINE
  5
C2A
330
A02
100
AcDbEntity
  8
Solid
100
AcDbLine
 10
271.542
 20
-100.472
 30
0
 11
271.542
 21
-100.472
 31
1.6
  0
LINE
  5
C2B
330
A02
100
AcDbEntity
  8
Solid
100
AcDbLine
 10
271.542
 20
-100.472
 30
1.6
 11
257.542
 21
-100.472
 31
1.6
  0
LINE
  5
C2C
330
A02
100
AcDbEntity
  8
Solid
100
AcDbLine
 10
257.542
 20
-100.472
 30
0
 11
257.542
 21
-100.472
 31
1.6
  0
LINE
  5
C2D
330
A02
100
AcDbEntity
  8
Solid
100
AcDbLine
 10
271.542
 20
-100.472
 30
0
 11
257.542
 21
-100.472
 31
0
  0
LINE
  5
C2E
330
A02
100
AcDbEntity
  8
Solid
100
AcDbLine
 10
257.542
 20
-100.472
 30
0
 11
257.542
 21
-100.472
 31
1.6
  0
LINE
  5
C2F
330
A02
100
AcDbEntity
  8
Solid
100
AcDbLine
 10
257.542
 20
-100.472
 30
1.6
 11
257.542
 21
-86.472
 31
1.6
  0
LINE
  5
C30
330
A02
100
AcDbEntity
  8
Solid
100
AcDbLine
 10
257.542
 20
-86.472
 30
0
 11
257.542
 21
-86.472
 31
1.6
  0
LINE
  5
C31
330
A02
100
AcDbEntity
  8
Solid
100
AcDbLine
 10
257.542
 20
-100.472
 30
0
 11
257.542
 21
-86.472
 31
0
  0
LINE
  5
C32
330
A02
100
AcDbEntity
  8
Solid
100
AcDbLine
 10
257.542
 20
-86.472
 30
0
 11
257.542
 21
-86.472
 31
1.6
  0
LINE
  5
C33
330
A02
100
AcDbEntity
  8
Solid
100
AcDbLine
 10
257.542
 20
-86.472
 30
1.6
 11
271.542
 21
-86.472
 31
1.6
  0
LINE
  5
C34
330
A02
100
AcDbEntity
  8
Solid
100
AcDbLine
 10
271.542
 20
-86.472
 30
0
 11
271.542
 21
-86.472
 31
1.6
  0
LINE
  5
C35
330
A02
100
AcDbEntity
  8
Solid
100
AcDbLine
 10
257.542
 20
-86.472
 30
0
 11
271.542
 21
-86.472
 31
0
  0
LINE
  5
C36
330
A02
100
AcDbEntity
  8
Solid
100
AcDbLine
 10
271.542
 20
-86.472
 30
0
 11
271.542
 21
-86.472
 31
1.6
  0
LINE
  5
C37
330
A02
100
AcDbEntity
  8
Solid
100
AcDbLine
 10
271.542
 20
-86.472
 30
1.6
 11
271.542
 21
-100.472
 31
1.6
  0
LINE
  5
C38
330
A02
100
AcDbEntity
  8
Solid
100
AcDbLine
 10
271.542
 20
-100.472
 30
0
 11
271.542
 21
-100.472
 31
1.6
  0
LINE
  5
C39
330
A02
100
AcDbEntity
  8
Solid
100
AcDbLine
 10
271.542
 20
-86.472
 30
0
 11
271.542
 21
-100.472
 31
0
  0
LINE
  5
C3A
330
A02
100
AcDbEntity
  8
Solid
100
AcDbLine
 10
252.492
 20
-100.472
 30
0
 11
252.492
 21
-100.472
 31
1.6
  0
LINE
  5
C3B
330
A02
100
AcDbEntity
  8
Solid
100
AcDbLine
 10
252.492
 20
-100.472
 30
1.6
 11
252.492
 21
-86.472
 31
1.6
  0
LINE
  5
C3C
330
A02
100
AcDbEntity
  8
Solid
100
AcDbLine
 10
252.492
 20
-86.472
 30
0
 11
252.492
 21
-86.472
 31
1.6
  0
LINE
  5
C3D
330
A02
100
AcDbEntity
  8
Solid
100
AcDbLine
 10
252.492
 20
-100.472
 30
0
 11
252.492
 21
-86.472
 31
0
  0
LINE
  5
C3E
330
A02
100
AcDbEntity
  8
Solid
100
AcDbLine
 10
238.492
 20
-100.472
 30
0
 11
238.492
 21
-100.472
 31
1.6
  0
LINE
  5
C3F
330
A02
100
AcDbEntity
  8
Solid
100
AcDbLine
 10
238.492
 20
-100.472
 30
1.6
 11
252.492
 21
-100.472
 31
1.6
  0
LINE
  5
C40
330
A02
100
AcDbEntity
  8
Solid
100
AcDbLine
 10
252.492
 20
-100.472
 30
0
 11
252.492
 21
-100.472
 31
1.6
  0
LINE
  5
C41
330
A02
100
AcDbEntity
  8
Solid
100
AcDbLine
 10
238.492
 20
-100.472
 30
0
 11
252.492
 21
-100.472
 31
0
  0
LINE
  5
C42
330
A02
100
AcDbEntity
  8
Solid
100
AcDbLine
 10
238.492
 20
-86.472
 30
0
 11
238.492
 21
-86.472
 31
1.6
  0
LINE
  5
C43
330
A02
100
AcDbEntity
  8
Solid
100
AcDbLine
 10
238.492
 20
-86.472
 30
1.6
 11
238.492
 21
-100.472
 31
1.6
  0
LINE
  5
C44
330
A02
100
AcDbEntity
  8
Solid
100
AcDbLine
 10
238.492
 20
-100.472
 30
0
 11
238.492
 21
-100.472
 31
1.6
  0
LINE
  5
C45
330
A02
100
AcDbEntity
  8
Solid
100
AcDbLine
 10
238.492
 20
-86.472
 30
0
 11
238.492
 21
-100.472
 31
0
  0
LINE
  5
C46
330
A02
100
AcDbEntity
  8
Solid
100
AcDbLine
 10
252.492
 20
-86.472
 30
0
 11
252.492
 21
-86.472
 31
1.6
  0
LINE
  5
C47
330
A02
100
AcDbEntity
  8
Solid
100
AcDbLine
 10
252.492
 20
-86.472
 30
1.6
 11
238.492
 21
-86.472
 31
1.6
  0
LINE
  5
C48
330
A02
100
AcDbEntity
  8
Solid
100
AcDbLine
 10
238.492
 20
-86.472
 30
0
 11
238.492
 21
-86.472
 31
1.6
  0
LINE
  5
C49
330
A02
100
AcDbEntity
  8
Solid
100
AcDbLine
 10
252.492
 20
-86.472
 30
0
 11
238.492
 21
-86.472
 31
0
  0
LINE
  5
C4A
330
A02
100
AcDbEntity
  8
Solid
100
AcDbLine
 10
265.192
 20
-81.422
 30
0
 11
265.192
 21
-81.422
 31
1.6
  0
LINE
  5
C4B
330
A02
100
AcDbEntity
  8
Solid
100
AcDbLine
 10
265.192
 20
-81.422
 30
1.6
 11
265.192
 21
-67.422
 31
1.6
  0
LINE
  5
C4C
330
A02
100
AcDbEntity
  8
Solid
100
AcDbLine
 10
265.192
 20
-67.422
 30
0
 11
265.192
 21
-67.422
 31
1.6
  0
LINE
  5
C4D
330
A02
100
AcDbEntity
  8
Solid
100
AcDbLine
 10
265.192
 20
-81.422
 30
0
 11
265.192
 21
-67.422
 31
0
  0
LINE
  5
C4E
330
A02
100
AcDbEntity
  8
Solid
100
AcDbLine
 10
251.192
 20
-81.422
 30
0
 11
251.192
 21
-81.422
 31
1.6
  0
LINE
  5
C4F
330
A02
100
AcDbEntity
  8
Solid
100
AcDbLine
 10
251.192
 20
-81.422
 30
1.6
 11
265.192
 21
-81.422
 31
1.6
  0
LINE
  5
C50
330
A02
100
AcDbEntity
  8
Solid
100
AcDbLine
 10
265.192
 20
-81.422
 30
0
 11
265.192
 21
-81.422
 31
1.6
  0
LINE
  5
C51
330
A02
100
AcDbEntity
  8
Solid
100
AcDbLine
 10
251.192
 20
-81.422
 30
0
 11
265.192
 21
-81.422
 31
0
  0
LINE
  5
C52
330
A02
100
AcDbEntity
  8
Solid
100
AcDbLine
 10
251.192
 20
-67.422
 30
0
 11
251.192
 21
-67.422
 31
1.6
  0
LINE
  5
C53
330
A02
100
AcDbEntity
  8
Solid
100
AcDbLine
 10
251.192
 20
-67.422
 30
1.6
 11
251.192
 21
-81.422
 31
1.6
  0
LINE
  5
C54
330
A02
100
AcDbEntity
  8
Solid
100
AcDbLine
 10
251.192
 20
-81.422
 30
0
 11
251.192
 21
-81.422
 31
1.6
  0
LINE
  5
C55
330
A02
100
AcDbEntity
  8
Solid
100
AcDbLine
 10
251.192
 20
-67.422
 30
0
 11
251.192
 21
-81.422
 31
0
  0
LINE
  5
C56
330
A02
100
AcDbEntity
  8
Solid
100
AcDbLine
 10
265.192
 20
-67.422
 30
0
 11
265.192
 21
-67.422
 31
1.6
  0
LINE
  5
C57
330
A02
100
AcDbEntity
  8
Solid
100
AcDbLine
 10
265.192
 20
-67.422
 30
1.6
 11
251.192
 21
-67.422
 31
1.6
  0
LINE
  5
C58
330
A02
100
AcDbEntity
  8
Solid
100
AcDbLine
 10
251.192
 20
-67.422
 30
0
 11
251.192
 21
-67.422
 31
1.6
  0
LINE
  5
C59
330
A02
100
AcDbEntity
  8
Solid
100
AcDbLine
 10
265.192
 20
-67.422
 30
0
 11
251.192
 21
-67.422
 31
0
  0
LINE
  5
C5A
330
A02
100
AcDbEntity
  8
Solid
100
AcDbLine
 10
219.442
 20
-100.472
 30
0
 11
219.442
 21
-100.472
 31
1.6
  0
LINE
  5
C5B
330
A02
100
AcDbEntity
  8
Solid
100
AcDbLine
 10
219.442
 20
-100.472
 30
1.6
 11
233.442
 21
-100.472
 31
1.6
  0
LINE
  5
C5C
330
A02
100
AcDbEntity
  8
Solid
100
AcDbLine
 10
233.442
 20
-100.472
 30
0
 11
233.442
 21
-100.472
 31
1.6
  0
LINE
  5
C5D
330
A02
100
AcDbEntity
  8
Solid
100
AcDbLine
 10
219.442
 20
-100.472
 30
0
 11
233.442
 21
-100.472
 31
0
  0
LINE
  5
C5E
330
A02
100
AcDbEntity
  8
Solid
100
AcDbLine
 10
219.442
 20
-86.472
 30
0
 11
219.442
 21
-86.472
 31
1.6
  0
LINE
  5
C5F
330
A02
100
AcDbEntity
  8
Solid
100
AcDbLine
 10
219.442
 20
-86.472
 30
1.6
 11
219.442
 21
-100.472
 31
1.6
  0
LINE
  5
C60
330
A02
100
AcDbEntity
  8
Solid
100
AcDbLine
 10
219.442
 20
-100.472
 30
0
 11
219.442
 21
-100.472
 31
1.6
  0
LINE
  5
C61
330
A02
100
AcDbEntity
  8
Solid
100
AcDbLine
 10
219.442
 20
-86.472
 30
0
 11
219.442
 21
-100.472
 31
0
  0
LINE
  5
C62
330
A02
100
AcDbEntity
  8
Solid
100
AcDbLine
 10
233.442
 20
-86.472
 30
0
 11
233.442
 21
-86.472
 31
1.6
  0
LINE
  5
C63
330
A02
100
AcDbEntity
  8
Solid
100
AcDbLine
 10
233.442
 20
-86.472
 30
1.6
 11
219.442
 21
-86.472
 31
1.6
  0
LINE
  5
C64
330
A02
100
AcDbEntity
  8
Solid
100
AcDbLine
 10
219.442
 20
-86.472
 30
0
 11
219.442
 21
-86.472
 31
1.6
  0
LINE
  5
C65
330
A02
100
AcDbEntity
  8
Solid
100
AcDbLine
 10
233.442
 20
-86.472
 30
0
 11
219.442
 21
-86.472
 31
0
  0
LINE
  5
C66
330
A02
100
AcDbEntity
  8
Solid
100
AcDbLine
 10
233.442
 20
-100.472
 30
0
 11
233.442
 21
-100.472
 31
1.6
  0
LINE
  5
C67
330
A02
100
AcDbEntity
  8
Solid
100
AcDbLine
 10
233.442
 20
-100.472
 30
1.6
 11
233.442
 21
-86.472
 31
1.6
  0
LINE
  5
C68
330
A02
100
AcDbEntity
  8
Solid
100
AcDbLine
 10
233.442
 20
-86.472
 30
0
 11
233.442
 21
-86.472
 31
1.6
  0
LINE
  5
C69
330
A02
100
AcDbEntity
  8
Solid
100
AcDbLine
 10
233.442
 20
-100.472
 30
0
 11
233.442
 21
-86.472
 31
0
  0
LINE
  5
C6A
330
A02
100
AcDbEntity
  8
Solid
100
AcDbLine
 10
232.142
 20
-81.422
 30
0
 11
232.142
 21
-81.422
 31
1.6
  0
LINE
  5
C6B
330
A02
100
AcDbEntity
  8
Solid
100
AcDbLine
 10
232.142
 20
-81.422
 30
1.6
 11
246.142
 21
-81.422
 31
1.6
  0
LINE
  5
C6C
330
A02
100
AcDbEntity
  8
Solid
100
AcDbLine
 10
246.142
 20
-81.422
 30
0
 11
246.142
 21
-81.422
 31
1.6
  0
LINE
  5
C6D
330
A02
100
AcDbEntity
  8
Solid
100
AcDbLine
 10
232.142
 20
-81.422
 30
0
 11
246.142
 21
-81.422
 31
0
  0
LINE
  5
C6E
330
A02
100
AcDbEntity
  8
Solid
100
AcDbLine
 10
232.142
 20
-67.422
 30
0
 11
232.142
 21
-67.422
 31
1.6
  0
LINE
  5
C6F
330
A02
100
AcDbEntity
  8
Solid
100
AcDbLine
 10
232.142
 20
-67.422
 30
1.6
 11
232.142
 21
-81.422
 31
1.6
  0
LINE
  5
C70
330
A02
100
AcDbEntity
  8
Solid
100
AcDbLine
 10
232.142
 20
-81.422
 30
0
 11
232.142
 21
-81.422
 31
1.6
  0
LINE
  5
C71
330
A02
100
AcDbEntity
  8
Solid
100
AcDbLine
 10
232.142
 20
-67.422
 30
0
 11
232.142
 21
-81.422
 31
0
  0
LINE
  5
C72
330
A02
100
AcDbEntity
  8
Solid
100
AcDbLine
 10
246.142
 20
-67.422
 30
0
 11
246.142
 21
-67.422
 31
1.6
  0
LINE
  5
C73
330
A02
100
AcDbEntity
  8
Solid
100
AcDbLine
 10
246.142
 20
-67.422
 30
1.6
 11
232.142
 21
-67.422
 31
1.6
  0
LINE
  5
C74
330
A02
100
AcDbEntity
  8
Solid
100
AcDbLine
 10
232.142
 20
-67.422
 30
0
 11
232.142
 21
-67.422
 31
1.6
  0
LINE
  5
C75
330
A02
100
AcDbEntity
  8
Solid
100
AcDbLine
 10
246.142
 20
-67.422
 30
0
 11
232.142
 21
-67.422
 31
0
  0
LINE
  5
C76
330
A02
100
AcDbEntity
  8
Solid
100
AcDbLine
 10
246.142
 20
-81.422
 30
0
 11
246.142
 21
-81.422
 31
1.6
  0
LINE
  5
C77
330
A02
100
AcDbEntity
  8
Solid
100
AcDbLine
 10
246.142
 20
-81.422
 30
1.6
 11
246.142
 21
-67.422
 31
1.6
  0
LINE
  5
C78
330
A02
100
AcDbEntity
  8
Solid
100
AcDbLine
 10
246.142
 20
-67.422
 30
0
 11
246.142
 21
-67.422
 31
1.6
  0
LINE
  5
C79
330
A02
100
AcDbEntity
  8
Solid
100
AcDbLine
 10
246.142
 20
-81.422
 30
0
 11
246.142
 21
-67.422
 31
0
  0
LINE
  5
C7A
330
A02
100
AcDbEntity
  8
Solid
100
AcDbLine
 10
213.092
 20
-81.422
 30
0
 11
213.092
 21
-81.422
 31
1.6
  0
LINE
  5
C7B
330
A02
100
AcDbEntity
  8
Solid
100
AcDbLine
 10
213.092
 20
-81.422
 30
1.6
 11
227.092
 21
-81.422
 31
1.6
  0
LINE
  5
C7C
330
A02
100
AcDbEntity
  8
Solid
100
AcDbLine
 10
227.092
 20
-81.422
 30
0
 11
227.092
 21
-81.422
 31
1.6
  0
LINE
  5
C7D
330
A02
100
AcDbEntity
  8
Solid
100
AcDbLine
 10
213.092
 20
-81.422
 30
0
 11
227.092
 21
-81.422
 31
0
  0
LINE
  5
C7E
330
A02
100
AcDbEntity
  8
Solid
100
AcDbLine
 10
213.092
 20
-67.422
 30
0
 11
213.092
 21
-67.422
 31
1.6
  0
LINE
  5
C7F
330
A02
100
AcDbEntity
  8
Solid
100
AcDbLine
 10
213.092
 20
-67.422
 30
1.6
 11
213.092
 21
-81.422
 31
1.6
  0
LINE
  5
C80
330
A02
100
AcDbEntity
  8
Solid
100
AcDbLine
 10
213.092
 20
-81.422
 30
0
 11
213.092
 21
-81.422
 31
1.6
  0
LINE
  5
C81
330
A02
100
AcDbEntity
  8
Solid
100
AcDbLine
 10
213.092
 20
-67.422
 30
0
 11
213.092
 21
-81.422
 31
0
  0
LINE
  5
C82
330
A02
100
AcDbEntity
  8
Solid
100
AcDbLine
 10
227.092
 20
-67.422
 30
0
 11
227.092
 21
-67.422
 31
1.6
  0
LINE
  5
C83
330
A02
100
AcDbEntity
  8
Solid
100
AcDbLine
 10
227.092
 20
-67.422
 30
1.6
 11
213.092
 21
-67.422
 31
1.6
  0
LINE
  5
C84
330
A02
100
AcDbEntity
  8
Solid
100
AcDbLine
 10
213.092
 20
-67.422
 30
0
 11
213.092
 21
-67.422
 31
1.6
  0
LINE
  5
C85
330
A02
100
AcDbEntity
  8
Solid
100
AcDbLine
 10
227.092
 20
-67.422
 30
0
 11
213.092
 21
-67.422
 31
0
  0
LINE
  5
C86
330
A02
100
AcDbEntity
  8
Solid
100
AcDbLine
 10
227.092
 20
-81.422
 30
0
 11
227.092
 21
-81.422
 31
1.6
  0
LINE
  5
C87
330
A02
100
AcDbEntity
  8
Solid
100
AcDbLine
 10
227.092
 20
-81.422
 30
1.6
 11
227.092
 21
-67.422
 31
1.6
  0
LINE
  5
C88
330
A02
100
AcDbEntity
  8
Solid
100
AcDbLine
 10
227.092
 20
-67.422
 30
0
 11
227.092
 21
-67.422
 31
1.6
  0
LINE
  5
C89
330
A02
100
AcDbEntity
  8
Solid
100
AcDbLine
 10
227.092
 20
-81.422
 30
0
 11
227.092
 21
-67.422
 31
0
  0
CIRCLE
  5
C8A
330
A02
100
AcDbEntity
  8
Solid
100
AcDbCircle
 10
216.923
 20
-64.8974
 40
1.15
  0
LINE
  5
C8B
330
A02
100
AcDbEntity
  8
Solid
100
AcDbLine
 10
218.073
 20
-64.8974
 30
0
 11
218.073
 21
-64.8974
 31
1.6
  0
CIRCLE
  5
C8C
330
A02
100
AcDbEntity
  8
Solid
100
AcDbCircle
 10
216.923
 20
-64.8974
 40
1.15
  0
LINE
  5
C8D
330
A02
100
AcDbEntity
  8
Solid
100
AcDbLine
 10
218.073
 20
-64.8974
 30
0
 11
218.073
 21
-64.8974
 31
1.6
  0
LINE
  5
C8E
330
A02
100
AcDbEntity
  8
Solid
100
AcDbLine
 10
238.492
 20
-62.372
 30
0
 11
238.492
 21
-62.372
 31
1.6
  0
LINE
  5
C8F
330
A02
100
AcDbEntity
  8
Solid
100
AcDbLine
 10
238.492
 20
-62.372
 30
1.6
 11
252.492
 21
-62.372
 31
1.6
  0
LINE
  5
C90
330
A02
100
AcDbEntity
  8
Solid
100
AcDbLine
 10
252.492
 20
-62.372
 30
0
 11
252.492
 21
-62.372
 31
1.6
  0
LINE
  5
C91
330
A02
100
AcDbEntity
  8
Solid
100
AcDbLine
 10
238.492
 20
-62.372
 30
0
 11
252.492
 21
-62.372
 31
0
  0
LINE
  5
C92
330
A02
100
AcDbEntity
  8
Solid
100
AcDbLine
 10
238.492
 20
-48.372
 30
0
 11
238.492
 21
-48.372
 31
1.6
  0
LINE
  5
C93
330
A02
100
AcDbEntity
  8
Solid
100
AcDbLine
 10
238.492
 20
-48.372
 30
1.6
 11
238.492
 21
-62.372
 31
1.6
  0
LINE
  5
C94
330
A02
100
AcDbEntity
  8
Solid
100
AcDbLine
 10
238.492
 20
-62.372
 30
0
 11
238.492
 21
-62.372
 31
1.6
  0
LINE
  5
C95
330
A02
100
AcDbEntity
  8
Solid
100
AcDbLine
 10
238.492
 20
-48.372
 30
0
 11
238.492
 21
-62.372
 31
0
  0
LINE
  5
C96
330
A02
100
AcDbEntity
  8
Solid
100
AcDbLine
 10
252.492
 20
-48.372
 30
0
 11
252.492
 21
-48.372
 31
1.6
  0
LINE
  5
C97
330
A02
100
AcDbEntity
  8
Solid
100
AcDbLine
 10
252.492
 20
-48.372
 30
1.6
 11
238.492
 21
-48.372
 31
1.6
  0
LINE
  5
C98
330
A02
100
AcDbEntity
  8
Solid
100
AcDbLine
 10
238.492
 20
-48.372
 30
0
 11
238.492
 21
-48.372
 31
1.6
  0
LINE
  5
C99
330
A02
100
AcDbEntity
  8
Solid
100
AcDbLine
 10
252.492
 20
-48.372
 30
0
 11
238.492
 21
-48.372
 31
0
  0
LINE
  5
C9A
330
A02
100
AcDbEntity
  8
Solid
100
AcDbLine
 10
252.492
 20
-62.372
 30
0
 11
252.492
 21
-62.372
 31
1.6
  0
LINE
  5
C9B
330
A02
100
AcDbEntity
  8
Solid
100
AcDbLine
 10
252.492
 20
-62.372
 30
1.6
 11
252.492
 21
-48.372
 31
1.6
  0
LINE
  5
C9C
330
A02
100
AcDbEntity
  8
Solid
100
AcDbLine
 10
252.492
 20
-48.372
 30
0
 11
252.492
 21
-48.372
 31
1.6
  0
LINE
  5
C9D
330
A02
100
AcDbEntity
  8
Solid
100
AcDbLine
 10
252.492
 20
-62.372
 30
0
 11
252.492
 21
-48.372
 31
0
  0
LINE
  5
C9E
330
A02
100
AcDbEntity
  8
Solid
100
AcDbLine
 10
252.492
 20
-29.322
 30
0
 11
252.492
 21
-29.322
 31
1.6
  0
LINE
  5
C9F
330
A02
100
AcDbEntity
  8
Solid
100
AcDbLine
 10
252.492
 20
-29.322
 30
1.6
 11
238.492
 21
-29.322
 31
1.6
  0
LINE
  5
CA0
330
A02
100
AcDbEntity
  8
Solid
100
AcDbLine
 10
238.492
 20
-29.322
 30
0
 11
238.492
 21
-29.322
 31
1.6
  0
LINE
  5
CA1
330
A02
100
AcDbEntity
  8
Solid
100
AcDbLine
 10
252.492
 20
-29.322
 30
0
 11
238.492
 21
-29.322
 31
0
  0
LINE
  5
CA2
330
A02
100
AcDbEntity
  8
Solid
100
AcDbLine
 10
252.492
 20
-43.322
 30
0
 11
252.492
 21
-43.322
 31
1.6
  0
LINE
  5
CA3
330
A02
100
AcDbEntity
  8
Solid
100
AcDbLine
 10
252.492
 20
-43.322
 30
1.6
 11
252.492
 21
-29.322
 31
1.6
  0
LINE
  5
CA4
330
A02
100
AcDbEntity
  8
Solid
100
AcDbLine
 10
252.492
 20
-29.322
 30
0
 11
252.492
 21
-29.322
 31
1.6
  0
LINE
  5
CA5
330
A02
100
AcDbEntity
  8
Solid
100
AcDbLine
 10
252.492
 20
-43.322
 30
0
 11
252.492
 21
-29.322
 31
0
  0
LINE
  5
CA6
330
A02
100
AcDbEntity
  8
Solid
100
AcDbLine
 10
238.492
 20
-43.322
 30
0
 11
238.492
 21
-43.322
 31
1.6
  0
LINE
  5
CA7
330
A02
100
AcDbEntity
  8
Solid
100
AcDbLine
 10
238.492
 20
-43.322
 30
1.6
 11
252.492
 21
-43.322
 31
1.6
  0
LINE
  5
CA8
330
A02
100
AcDbEntity
  8
Solid
100
AcDbLine
 10
252.492
 20
-43.322
 30
0
 11
252.492
 21
-43.322
 31
1.6
  0
LINE
  5
CA9
330
A02
100
AcDbEntity
  8
Solid
100
AcDbLine
 10
238.492
 20
-43.322
 30
0
 11
252.492
 21
-43.322
 31
0
  0
LINE
  5
CAA
330
A02
100
AcDbEntity
  8
Solid
100
AcDbLine
 10
238.492
 20
-29.322
 30
0
 11
238.492
 21
-29.322
 31
1.6
  0
LINE
  5
CAB
330
A02
100
AcDbEntity
  8
Solid
100
AcDbLine
 10
238.492
 20
-29.322
 30
1.6
 11
238.492
 21
-43.322
 31
1.6
  0
LINE
  5
CAC
330
A02
100
AcDbEntity
  8
Solid
100
AcDbLine
 10
238.492
 20
-43.322
 30
0
 11
238.492
 21
-43.322
 31
1.6
  0
LINE
  5
CAD
330
A02
100
AcDbEntity
  8
Solid
100
AcDbLine
 10
238.492
 20
-29.322
 30
0
 11
238.492
 21
-43.322
 31
0
  0
LINE
  5
CAE
330
A02
100
AcDbEntity
  8
Solid
100
AcDbLine
 10
233.442
 20
-48.372
 30
0
 11
233.442
 21
-48.372
 31
1.6
  0
LINE
  5
CAF
330
A02
100
AcDbEntity
  8
Solid
100
AcDbLine
 10
233.442
 20
-48.372
 30
1.6
 11
219.442
 21
-48.372
 31
1.6
  0
LINE
  5
CB0
330
A02
100
AcDbEntity
  8
Solid
100
AcDbLine
 10
219.442
 20
-48.372
 30
0
 11
219.442
 21
-48.372
 31
1.6
  0
LINE
  5
CB1
330
A02
100
AcDbEntity
  8
Solid
100
AcDbLine
 10
233.442
 20
-48.372
 30
0
 11
219.442
 21
-48.372
 31
0
  0
LINE
  5
CB2
330
A02
100
AcDbEntity
  8
Solid
100
AcDbLine
 10
233.442
 20
-62.372
 30
0
 11
233.442
 21
-62.372
 31
1.6
  0
LINE
  5
CB3
330
A02
100
AcDbEntity
  8
Solid
100
AcDbLine
 10
233.442
 20
-62.372
 30
1.6
 11
233.442
 21
-48.372
 31
1.6
  0
LINE
  5
CB4
330
A02
100
AcDbEntity
  8
Solid
100
AcDbLine
 10
233.442
 20
-48.372
 30
0
 11
233.442
 21
-48.372
 31
1.6
  0
LINE
  5
CB5
330
A02
100
AcDbEntity
  8
Solid
100
AcDbLine
 10
233.442
 20
-62.372
 30
0
 11
233.442
 21
-48.372
 31
0
  0
LINE
  5
CB6
330
A02
100
AcDbEntity
  8
Solid
100
AcDbLine
 10
219.442
 20
-62.372
 30
0
 11
219.442
 21
-62.372
 31
1.6
  0
LINE
  5
CB7
330
A02
100
AcDbEntity
  8
Solid
100
AcDbLine
 10
219.442
 20
-62.372
 30
1.6
 11
233.442
 21
-62.372
 31
1.6
  0
LINE
  5
CB8
330
A02
100
AcDbEntity
  8
Solid
100
AcDbLine
 10
233.442
 20
-62.372
 30
0
 11
233.442
 21
-62.372
 31
1.6
  0
LINE
  5
CB9
330
A02
100
AcDbEntity
  8
Solid
100
AcDbLine
 10
219.442
 20
-62.372
 30
0
 11
233.442
 21
-62.372
 31
0
  0
LINE
  5
CBA
330
A02
100
AcDbEntity
  8
Solid
100
AcDbLine
 10
219.442
 20
-48.372
 30
0
 11
219.442
 21
-48.372
 31
1.6
  0
LINE
  5
CBB
330
A02
100
AcDbEntity
  8
Solid
100
AcDbLine
 10
219.442
 20
-48.372
 30
1.6
 11
219.442
 21
-62.372
 31
1.6
  0
LINE
  5
CBC
330
A02
100
AcDbEntity
  8
Solid
100
AcDbLine
 10
219.442
 20
-62.372
 30
0
 11
219.442
 21
-62.372
 31
1.6
  0
LINE
  5
CBD
330
A02
100
AcDbEntity
  8
Solid
100
AcDbLine
 10
219.442
 20
-48.372
 30
0
 11
219.442
 21
-62.372
 31
0
  0
CIRCLE
  5
CBE
330
A02
100
AcDbEntity
  8
Solid
100
AcDbCircle
 10
237.867
 20
-45.847
 40
1.15
  0
LINE
  5
CBF
330
A02
100
AcDbEntity
  8
Solid
100
AcDbLine
 10
239.017
 20
-45.847
 30
0
 11
239.017
 21
-45.847
 31
1.6
  0
CIRCLE
  5
CC0
330
A02
100
AcDbEntity
  8
Solid
100
AcDbCircle
 10
237.867
 20
-45.847
 40
1.15
  0
LINE
  5
CC1
330
A02
100
AcDbEntity
  8
Solid
100
AcDbLine
 10
239.017
 20
-45.847
 30
0
 11
239.017
 21
-45.847
 31
1.6
  0
LINE
  5
CC2
330
A02
100
AcDbEntity
  8
Solid
100
AcDbLine
 10
233.442
 20
-29.322
 30
0
 11
233.442
 21
-29.322
 31
1.6
  0
LINE
  5
CC3
330
A02
100
AcDbEntity
  8
Solid
100
AcDbLine
 10
233.442
 20
-29.322
 30
1.6
 11
219.442
 21
-29.322
 31
1.6
  0
LINE
  5
CC4
330
A02
100
AcDbEntity
  8
Solid
100
AcDbLine
 10
219.442
 20
-29.322
 30
0
 11
219.442
 21
-29.322
 31
1.6
  0
LINE
  5
CC5
330
A02
100
AcDbEntity
  8
Solid
100
AcDbLine
 10
233.442
 20
-29.322
 30
0
 11
219.442
 21
-29.322
 31
0
  0
LINE
  5
CC6
330
A02
100
AcDbEntity
  8
Solid
100
AcDbLine
 10
233.442
 20
-43.322
 30
0
 11
233.442
 21
-43.322
 31
1.6
  0
LINE
  5
CC7
330
A02
100
AcDbEntity
  8
Solid
100
AcDbLine
 10
233.442
 20
-43.322
 30
1.6
 11
233.442
 21
-29.322
 31
1.6
  0
LINE
  5
CC8
330
A02
100
AcDbEntity
  8
Solid
100
AcDbLine
 10
233.442
 20
-29.322
 30
0
 11
233.442
 21
-29.322
 31
1.6
  0
LINE
  5
CC9
330
A02
100
AcDbEntity
  8
Solid
100
AcDbLine
 10
233.442
 20
-43.322
 30
0
 11
233.442
 21
-29.322
 31
0
  0
LINE
  5
CCA
330
A02
100
AcDbEntity
  8
Solid
100
AcDbLine
 10
219.442
 20
-43.322
 30
0
 11
219.442
 21
-43.322
 31
1.6
  0
LINE
  5
CCB
330
A02
100
AcDbEntity
  8
Solid
100
AcDbLine
 10
219.442
 20
-43.322
 30
1.6
 11
233.442
 21
-43.322
 31
1.6
  0
LINE
  5
CCC
330
A02
100
AcDbEntity
  8
Solid
100
AcDbLine
 10
233.442
 20
-43.322
 30
0
 11
233.442
 21
-43.322
 31
1.6
  0
LINE
  5
CCD
330
A02
100
AcDbEntity
  8
Solid
100
AcDbLine
 10
219.442
 20
-43.322
 30
0
 11
233.442
 21
-43.322
 31
0
  0
LINE
  5
CCE
330
A02
100
AcDbEntity
  8
Solid
100
AcDbLine
 10
219.442
 20
-29.322
 30
0
 11
219.442
 21
-29.322
 31
1.6
  0
LINE
  5
CCF
330
A02
100
AcDbEntity
  8
Solid
100
AcDbLine
 10
219.442
 20
-29.322
 30
1.6
 11
219.442
 21
-43.322
 31
1.6
  0
LINE
  5
CD0
330
A02
100
AcDbEntity
  8
Solid
100
AcDbLine
 10
219.442
 20
-43.322
 30
0
 11
219.442
 21
-43.322
 31
1.6
  0
LINE
  5
CD1
330
A02
100
AcDbEntity
  8
Solid
100
AcDbLine
 10
219.442
 20
-29.322
 30
0
 11
219.442
 21
-43.322
 31
0
  0
LINE
  5
CD2
330
A02
100
AcDbEntity
  8
Solid
100
AcDbLine
 10
214.392
 20
-100.472
 30
0
 11
214.392
 21
-100.472
 31
1.6
  0
LINE
  5
CD3
330
A02
100
AcDbEntity
  8
Solid
100
AcDbLine
 10
214.392
 20
-100.472
 30
1.6
 11
214.392
 21
-86.472
 31
1.6
  0
LINE
  5
CD4
330
A02
100
AcDbEntity
  8
Solid
100
AcDbLine
 10
214.392
 20
-86.472
 30
0
 11
214.392
 21
-86.472
 31
1.6
  0
LINE
  5
CD5
330
A02
100
AcDbEntity
  8
Solid
100
AcDbLine
 10
214.392
 20
-100.472
 30
0
 11
214.392
 21
-86.472
 31
0
  0
LINE
  5
CD6
330
A02
100
AcDbEntity
  8
Solid
100
AcDbLine
 10
200.392
 20
-100.472
 30
0
 11
200.392
 21
-100.472
 31
1.6
  0
LINE
  5
CD7
330
A02
100
AcDbEntity
  8
Solid
100
AcDbLine
 10
200.392
 20
-100.472
 30
1.6
 11
214.392
 21
-100.472
 31
1.6
  0
LINE
  5
CD8
330
A02
100
AcDbEntity
  8
Solid
100
AcDbLine
 10
214.392
 20
-100.472
 30
0
 11
214.392
 21
-100.472
 31
1.6
  0
LINE
  5
CD9
330
A02
100
AcDbEntity
  8
Solid
100
AcDbLine
 10
200.392
 20
-100.472
 30
0
 11
214.392
 21
-100.472
 31
0
  0
LINE
  5
CDA
330
A02
100
AcDbEntity
  8
Solid
100
AcDbLine
 10
200.392
 20
-86.472
 30
0
 11
200.392
 21
-86.472
 31
1.6
  0
LINE
  5
CDB
330
A02
100
AcDbEntity
  8
Solid
100
AcDbLine
 10
200.392
 20
-86.472
 30
1.6
 11
200.392
 21
-100.472
 31
1.6
  0
LINE
  5
CDC
330
A02
100
AcDbEntity
  8
Solid
100
AcDbLine
 10
200.392
 20
-100.472
 30
0
 11
200.392
 21
-100.472
 31
1.6
  0
LINE
  5
CDD
330
A02
100
AcDbEntity
  8
Solid
100
AcDbLine
 10
200.392
 20
-86.472
 30
0
 11
200.392
 21
-100.472
 31
0
  0
LINE
  5
CDE
330
A02
100
AcDbEntity
  8
Solid
100
AcDbLine
 10
214.392
 20
-86.472
 30
0
 11
214.392
 21
-86.472
 31
1.6
  0
LINE
  5
CDF
330
A02
100
AcDbEntity
  8
Solid
100
AcDbLine
 10
214.392
 20
-86.472
 30
1.6
 11
200.392
 21
-86.472
 31
1.6
  0
LINE
  5
CE0
330
A02
100
AcDbEntity
  8
Solid
100
AcDbLine
 10
200.392
 20
-86.472
 30
0
 11
200.392
 21
-86.472
 31
1.6
  0
LINE
  5
CE1
330
A02
100
AcDbEntity
  8
Solid
100
AcDbLine
 10
214.392
 20
-86.472
 30
0
 11
200.392
 21
-86.472
 31
0
  0
LINE
  5
CE2
330
A02
100
AcDbEntity
  8
Solid
100
AcDbLine
 10
194.042
 20
-67.422
 30
0
 11
194.042
 21
-67.422
 31
1.6
  0
LINE
  5
CE3
330
A02
100
AcDbEntity
  8
Solid
100
AcDbLine
 10
194.042
 20
-67.422
 30
1.6
 11
208.042
 21
-67.422
 31
1.6
  0
LINE
  5
CE4
330
A02
100
AcDbEntity
  8
Solid
100
AcDbLine
 10
208.042
 20
-67.422
 30
0
 11
208.042
 21
-67.422
 31
1.6
  0
LINE
  5
CE5
330
A02
100
AcDbEntity
  8
Solid
100
AcDbLine
 10
194.042
 20
-67.422
 30
0
 11
208.042
 21
-67.422
 31
0
  0
LINE
  5
CE6
330
A02
100
AcDbEntity
  8
Solid
100
AcDbLine
 10
208.042
 20
-67.422
 30
0
 11
208.042
 21
-67.422
 31
1.6
  0
LINE
  5
CE7
330
A02
100
AcDbEntity
  8
Solid
100
AcDbLine
 10
208.042
 20
-67.422
 30
1.6
 11
208.042
 21
-81.422
 31
1.6
  0
LINE
  5
CE8
330
A02
100
AcDbEntity
  8
Solid
100
AcDbLine
 10
208.042
 20
-81.422
 30
0
 11
208.042
 21
-81.422
 31
1.6
  0
LINE
  5
CE9
330
A02
100
AcDbEntity
  8
Solid
100
AcDbLine
 10
208.042
 20
-67.422
 30
0
 11
208.042
 21
-81.422
 31
0
  0
LINE
  5
CEA
330
A02
100
AcDbEntity
  8
Solid
100
AcDbLine
 10
208.042
 20
-81.422
 30
0
 11
208.042
 21
-81.422
 31
1.6
  0
LINE
  5
CEB
330
A02
100
AcDbEntity
  8
Solid
100
AcDbLine
 10
208.042
 20
-81.422
 30
1.6
 11
194.042
 21
-81.422
 31
1.6
  0
LINE
  5
CEC
330
A02
100
AcDbEntity
  8
Solid
100
AcDbLine
 10
194.042
 20
-81.422
 30
0
 11
194.042
 21
-81.422
 31
1.6
  0
LINE
  5
CED
330
A02
100
AcDbEntity
  8
Solid
100
AcDbLine
 10
208.042
 20
-81.422
 30
0
 11
194.042
 21
-81.422
 31
0
  0
LINE
  5
CEE
330
A02
100
AcDbEntity
  8
Solid
100
AcDbLine
 10
194.042
 20
-81.422
 30
0
 11
194.042
 21
-81.422
 31
1.6
  0
LINE
  5
CEF
330
A02
100
AcDbEntity
  8
Solid
100
AcDbLine
 10
194.042
 20
-81.422
 30
1.6
 11
194.042
 21
-67.422
 31
1.6
  0
LINE
  5
CF0
330
A02
100
AcDbEntity
  8
Solid
100
AcDbLine
 10
194.042
 20
-67.422
 30
0
 11
194.042
 21
-67.422
 31
1.6
  0
LINE
  5
CF1
330
A02
100
AcDbEntity
  8
Solid
100
AcDbLine
 10
194.042
 20
-81.422
 30
0
 11
194.042
 21
-67.422
 31
0
  0
LINE
  5
CF2
330
A02
100
AcDbEntity
  8
Solid
100
AcDbLine
 10
188.349
 20
-89.4905
 30
0
 11
188.349
 21
-89.4905
 31
1.6
  0
LINE
  5
CF3
330
A02
100
AcDbEntity
  8
Solid
100
AcDbLine
 10
188.349
 20
-89.4905
 30
1.6
 11
188.349
 21
-103.491
 31
1.6
  0
LINE
  5
CF4
330
A02
100
AcDbEntity
  8
Solid
100
AcDbLine
 10
188.349
 20
-103.491
 30
0
 11
188.349
 21
-103.491
 31
1.6
  0
LINE
  5
CF5
330
A02
100
AcDbEntity
  8
Solid
100
AcDbLine
 10
188.349
 20
-89.4905
 30
0
 11
188.349
 21
-103.491
 31
0
  0
LINE
  5
CF6
330
A02
100
AcDbEntity
  8
Solid
100
AcDbLine
 10
188.349
 20
-103.491
 30
0
 11
188.349
 21
-103.491
 31
1.6
  0
LINE
  5
CF7
330
A02
100
AcDbEntity
  8
Solid
100
AcDbLine
 10
188.349
 20
-103.491
 30
1.6
 11
174.349
 21
-103.491
 31
1.6
  0
LINE
  5
CF8
330
A02
100
AcDbEntity
  8
Solid
100
AcDbLine
 10
174.349
 20
-103.491
 30
0
 11
174.349
 21
-103.491
 31
1.6
  0
LINE
  5
CF9
330
A02
100
AcDbEntity
  8
Solid
100
AcDbLine
 10
188.349
 20
-103.491
 30
0
 11
174.349
 21
-103.491
 31
0
  0
LINE
  5
CFA
330
A02
100
AcDbEntity
  8
Solid
100
AcDbLine
 10
174.349
 20
-103.491
 30
0
 11
174.349
 21
-103.491
 31
1.6
  0
LINE
  5
CFB
330
A02
100
AcDbEntity
  8
Solid
100
AcDbLine
 10
174.349
 20
-103.491
 30
1.6
 11
174.349
 21
-89.4905
 31
1.6
  0
LINE
  5
CFC
330
A02
100
AcDbEntity
  8
Solid
100
AcDbLine
 10
174.349
 20
-89.4905
 30
0
 11
174.349
 21
-89.4905
 31
1.6
  0
LINE
  5
CFD
330
A02
100
AcDbEntity
  8
Solid
100
AcDbLine
 10
174.349
 20
-103.491
 30
0
 11
174.349
 21
-89.4905
 31
0
  0
LINE
  5
CFE
330
A02
100
AcDbEntity
  8
Solid
100
AcDbLine
 10
174.349
 20
-89.4905
 30
0
 11
174.349
 21
-89.4905
 31
1.6
  0
LINE
  5
CFF
330
A02
100
AcDbEntity
  8
Solid
100
AcDbLine
 10
174.349
 20
-89.4905
 30
1.6
 11
188.349
 21
-89.4905
 31
1.6
  0
LINE
  5
D00
330
A02
100
AcDbEntity
  8
Solid
100
AcDbLine
 10
188.349
 20
-89.4905
 30
0
 11
188.349
 21
-89.4905
 31
1.6
  0
LINE
  5
D01
330
A02
100
AcDbEntity
  8
Solid
100
AcDbLine
 10
174.349
 20
-89.4905
 30
0
 11
188.349
 21
-89.4905
 31
0
  0
LINE
  5
D02
330
A02
100
AcDbEntity
  8
Solid
100
AcDbLine
 10
185.229
 20
-67.8218
 30
0
 11
185.229
 21
-67.8218
 31
1.6
  0
LINE
  5
D03
330
A02
100
AcDbEntity
  8
Solid
100
AcDbLine
 10
185.229
 20
-67.8218
 30
1.6
 11
171.441
 21
-70.2529
 31
1.6
  0
LINE
  5
D04
330
A02
100
AcDbEntity
  8
Solid
100
AcDbLine
 10
171.441
 20
-70.2529
 30
0
 11
171.441
 21
-70.2529
 31
1.6
  0
LINE
  5
D05
330
A02
100
AcDbEntity
  8
Solid
100
AcDbLine
 10
185.229
 20
-67.8218
 30
0
 11
171.441
 21
-70.2529
 31
0
  0
LINE
  5
D06
330
A02
100
AcDbEntity
  8
Solid
100
AcDbLine
 10
187.66
 20
-81.6091
 30
0
 11
187.66
 21
-81.6091
 31
1.6
  0
LINE
  5
D07
330
A02
100
AcDbEntity
  8
Solid
100
AcDbLine
 10
187.66
 20
-81.6091
 30
1.6
 11
185.229
 21
-67.8218
 31
1.6
  0
LINE
  5
D08
330
A02
100
AcDbEntity
  8
Solid
100
AcDbLine
 10
185.229
 20
-67.8218
 30
0
 11
185.229
 21
-67.8218
 31
1.6
  0
LINE
  5
D09
330
A02
100
AcDbEntity
  8
Solid
100
AcDbLine
 10
187.66
 20
-81.6091
 30
0
 11
185.229
 21
-67.8218
 31
0
  0
LINE
  5
D0A
330
A02
100
AcDbEntity
  8
Solid
100
AcDbLine
 10
173.872
 20
-84.0402
 30
0
 11
173.872
 21
-84.0402
 31
1.6
  0
LINE
  5
D0B
330
A02
100
AcDbEntity
  8
Solid
100
AcDbLine
 10
173.872
 20
-84.0402
 30
1.6
 11
187.66
 21
-81.6091
 31
1.6
  0
LINE
  5
D0C
330
A02
100
AcDbEntity
  8
Solid
100
AcDbLine
 10
187.66
 20
-81.6091
 30
0
 11
187.66
 21
-81.6091
 31
1.6
  0
LINE
  5
D0D
330
A02
100
AcDbEntity
  8
Solid
100
AcDbLine
 10
173.872
 20
-84.0402
 30
0
 11
187.66
 21
-81.6091
 31
0
  0
LINE
  5
D0E
330
A02
100
AcDbEntity
  8
Solid
100
AcDbLine
 10
171.441
 20
-70.2529
 30
0
 11
171.441
 21
-70.2529
 31
1.6
  0
LINE
  5
D0F
330
A02
100
AcDbEntity
  8
Solid
100
AcDbLine
 10
171.441
 20
-70.2529
 30
1.6
 11
173.872
 21
-84.0402
 31
1.6
  0
LINE
  5
D10
330
A02
100
AcDbEntity
  8
Solid
100
AcDbLine
 10
173.872
 20
-84.0402
 30
0
 11
173.872
 21
-84.0402
 31
1.6
  0
LINE
  5
D11
330
A02
100
AcDbEntity
  8
Solid
100
AcDbLine
 10
171.441
 20
-70.2529
 30
0
 11
173.872
 21
-84.0402
 31
0
  0
LINE
  5
D12
330
A02
100
AcDbEntity
  8
Solid
100
AcDbLine
 10
200.392
 20
-48.372
 30
0
 11
200.392
 21
-48.372
 31
1.6
  0
LINE
  5
D13
330
A02
100
AcDbEntity
  8
Solid
100
AcDbLine
 10
200.392
 20
-48.372
 30
1.6
 11
214.392
 21
-48.372
 31
1.6
  0
LINE
  5
D14
330
A02
100
AcDbEntity
  8
Solid
100
AcDbLine
 10
214.392
 20
-48.372
 30
0
 11
214.392
 21
-48.372
 31
1.6
  0
LINE
  5
D15
330
A02
100
AcDbEntity
  8
Solid
100
AcDbLine
 10
200.392
 20
-48.372
 30
0
 11
214.392
 21
-48.372
 31
0
  0
LINE
  5
D16
330
A02
100
AcDbEntity
  8
Solid
100
AcDbLine
 10
214.392
 20
-48.372
 30
0
 11
214.392
 21
-48.372
 31
1.6
  0
LINE
  5
D17
330
A02
100
AcDbEntity
  8
Solid
100
AcDbLine
 10
214.392
 20
-48.372
 30
1.6
 11
214.392
 21
-62.372
 31
1.6
  0
LINE
  5
D18
330
A02
100
AcDbEntity
  8
Solid
100
AcDbLine
 10
214.392
 20
-62.372
 30
0
 11
214.392
 21
-62.372
 31
1.6
  0
LINE
  5
D19
330
A02
100
AcDbEntity
  8
Solid
100
AcDbLine
 10
214.392
 20
-48.372
 30
0
 11
214.392
 21
-62.372
 31
0
  0
LINE
  5
D1A
330
A02
100
AcDbEntity
  8
Solid
100
AcDbLine
 10
214.392
 20
-62.372
 30
0
 11
214.392
 21
-62.372
 31
1.6
  0
LINE
  5
D1B
330
A02
100
AcDbEntity
  8
Solid
100
AcDbLine
 10
214.392
 20
-62.372
 30
1.6
 11
200.392
 21
-62.372
 31
1.6
  0
LINE
  5
D1C
330
A02
100
AcDbEntity
  8
Solid
100
AcDbLine
 10
200.392
 20
-62.372
 30
0
 11
200.392
 21
-62.372
 31
1.6
  0
LINE
  5
D1D
330
A02
100
AcDbEntity
  8
Solid
100
AcDbLine
 10
214.392
 20
-62.372
 30
0
 11
200.392
 21
-62.372
 31
0
  0
LINE
  5
D1E
330
A02
100
AcDbEntity
  8
Solid
100
AcDbLine
 10
200.392
 20
-62.372
 30
0
 11
200.392
 21
-62.372
 31
1.6
  0
LINE
  5
D1F
330
A02
100
AcDbEntity
  8
Solid
100
AcDbLine
 10
200.392
 20
-62.372
 30
1.6
 11
200.392
 21
-48.372
 31
1.6
  0
LINE
  5
D20
330
A02
100
AcDbEntity
  8
Solid
100
AcDbLine
 10
200.392
 20
-48.372
 30
0
 11
200.392
 21
-48.372
 31
1.6
  0
LINE
  5
D21
330
A02
100
AcDbEntity
  8
Solid
100
AcDbLine
 10
200.392
 20
-62.372
 30
0
 11
200.392
 21
-48.372
 31
0
  0
LINE
  5
D22
330
A02
100
AcDbEntity
  8
Solid
100
AcDbLine
 10
195.342
 20
-62.372
 30
0
 11
195.342
 21
-62.372
 31
1.6
  0
LINE
  5
D23
330
A02
100
AcDbEntity
  8
Solid
100
AcDbLine
 10
195.342
 20
-62.372
 30
1.6
 11
195.342
 21
-48.372
 31
1.6
  0
LINE
  5
D24
330
A02
100
AcDbEntity
  8
Solid
100
AcDbLine
 10
195.342
 20
-48.372
 30
0
 11
195.342
 21
-48.372
 31
1.6
  0
LINE
  5
D25
330
A02
100
AcDbEntity
  8
Solid
100
AcDbLine
 10
195.342
 20
-62.372
 30
0
 11
195.342
 21
-48.372
 31
0
  0
LINE
  5
D26
330
A02
100
AcDbEntity
  8
Solid
100
AcDbLine
 10
181.342
 20
-62.372
 30
0
 11
181.342
 21
-62.372
 31
1.6
  0
LINE
  5
D27
330
A02
100
AcDbEntity
  8
Solid
100
AcDbLine
 10
181.342
 20
-62.372
 30
1.6
 11
195.342
 21
-62.372
 31
1.6
  0
LINE
  5
D28
330
A02
100
AcDbEntity
  8
Solid
100
AcDbLine
 10
195.342
 20
-62.372
 30
0
 11
195.342
 21
-62.372
 31
1.6
  0
LINE
  5
D29
330
A02
100
AcDbEntity
  8
Solid
100
AcDbLine
 10
181.342
 20
-62.372
 30
0
 11
195.342
 21
-62.372
 31
0
  0
LINE
  5
D2A
330
A02
100
AcDbEntity
  8
Solid
100
AcDbLine
 10
181.342
 20
-48.372
 30
0
 11
181.342
 21
-48.372
 31
1.6
  0
LINE
  5
D2B
330
A02
100
AcDbEntity
  8
Solid
100
AcDbLine
 10
181.342
 20
-48.372
 30
1.6
 11
181.342
 21
-62.372
 31
1.6
  0
LINE
  5
D2C
330
A02
100
AcDbEntity
  8
Solid
100
AcDbLine
 10
181.342
 20
-62.372
 30
0
 11
181.342
 21
-62.372
 31
1.6
  0
LINE
  5
D2D
330
A02
100
AcDbEntity
  8
Solid
100
AcDbLine
 10
181.342
 20
-48.372
 30
0
 11
181.342
 21
-62.372
 31
0
  0
LINE
  5
D2E
330
A02
100
AcDbEntity
  8
Solid
100
AcDbLine
 10
195.342
 20
-48.372
 30
0
 11
195.342
 21
-48.372
 31
1.6
  0
LINE
  5
D2F
330
A02
100
AcDbEntity
  8
Solid
100
AcDbLine
 10
195.342
 20
-48.372
 30
1.6
 11
181.342
 21
-48.372
 31
1.6
  0
LINE
  5
D30
330
A02
100
AcDbEntity
  8
Solid
100
AcDbLine
 10
181.342
 20
-48.372
 30
0
 11
181.342
 21
-48.372
 31
1.6
  0
LINE
  5
D31
330
A02
100
AcDbEntity
  8
Solid
100
AcDbLine
 10
195.342
 20
-48.372
 30
0
 11
181.342
 21
-48.372
 31
0
  0
LINE
  5
D32
330
A02
100
AcDbEntity
  8
Solid
100
AcDbLine
 10
200.392
 20
-43.322
 30
0
 11
200.392
 21
-43.322
 31
1.6
  0
LINE
  5
D33
330
A02
100
AcDbEntity
  8
Solid
100
AcDbLine
 10
200.392
 20
-43.322
 30
1.6
 11
214.392
 21
-43.322
 31
1.6
  0
LINE
  5
D34
330
A02
100
AcDbEntity
  8
Solid
100
AcDbLine
 10
214.392
 20
-43.322
 30
0
 11
214.392
 21
-43.322
 31
1.6
  0
LINE
  5
D35
330
A02
100
AcDbEntity
  8
Solid
100
AcDbLine
 10
200.392
 20
-43.322
 30
0
 11
214.392
 21
-43.322
 31
0
  0
LINE
  5
D36
330
A02
100
AcDbEntity
  8
Solid
100
AcDbLine
 10
200.392
 20
-29.322
 30
0
 11
200.392
 21
-29.322
 31
1.6
  0
LINE
  5
D37
330
A02
100
AcDbEntity
  8
Solid
100
AcDbLine
 10
200.392
 20
-29.322
 30
1.6
 11
200.392
 21
-43.322
 31
1.6
  0
LINE
  5
D38
330
A02
100
AcDbEntity
  8
Solid
100
AcDbLine
 10
200.392
 20
-43.322
 30
0
 11
200.392
 21
-43.322
 31
1.6
  0
LINE
  5
D39
330
A02
100
AcDbEntity
  8
Solid
100
AcDbLine
 10
200.392
 20
-29.322
 30
0
 11
200.392
 21
-43.322
 31
0
  0
LINE
  5
D3A
330
A02
100
AcDbEntity
  8
Solid
100
AcDbLine
 10
214.392
 20
-29.322
 30
0
 11
214.392
 21
-29.322
 31
1.6
  0
LINE
  5
D3B
330
A02
100
AcDbEntity
  8
Solid
100
AcDbLine
 10
214.392
 20
-29.322
 30
1.6
 11
200.392
 21
-29.322
 31
1.6
  0
LINE
  5
D3C
330
A02
100
AcDbEntity
  8
Solid
100
AcDbLine
 10
200.392
 20
-29.322
 30
0
 11
200.392
 21
-29.322
 31
1.6
  0
LINE
  5
D3D
330
A02
100
AcDbEntity
  8
Solid
100
AcDbLine
 10
214.392
 20
-29.322
 30
0
 11
200.392
 21
-29.322
 31
0
  0
LINE
  5
D3E
330
A02
100
AcDbEntity
  8
Solid
100
AcDbLine
 10
214.392
 20
-43.322
 30
0
 11
214.392
 21
-43.322
 31
1.6
  0
LINE
  5
D3F
330
A02
100
AcDbEntity
  8
Solid
100
AcDbLine
 10
214.392
 20
-43.322
 30
1.6
 11
214.392
 21
-29.322
 31
1.6
  0
LINE
  5
D40
330
A02
100
AcDbEntity
  8
Solid
100
AcDbLine
 10
214.392
 20
-29.322
 30
0
 11
214.392
 21
-29.322
 31
1.6
  0
LINE
  5
D41
330
A02
100
AcDbEntity
  8
Solid
100
AcDbLine
 10
214.392
 20
-43.322
 30
0
 11
214.392
 21
-29.322
 31
0
  0
CIRCLE
  5
D42
330
A02
100
AcDbEntity
  8
Solid
100
AcDbCircle
 10
197.867
 20
-43.947
 40
1.15
  0
LINE
  5
D43
330
A02
100
AcDbEntity
  8
Solid
100
AcDbLine
 10
199.017
 20
-43.947
 30
0
 11
199.017
 21
-43.947
 31
1.6
  0
CIRCLE
  5
D44
330
A02
100
AcDbEntity
  8
Solid
100
AcDbCircle
 10
197.867
 20
-43.947
 40
1.15
  0
LINE
  5
D45
330
A02
100
AcDbEntity
  8
Solid
100
AcDbLine
 10
199.017
 20
-43.947
 30
0
 11
199.017
 21
-43.947
 31
1.6
  0
LINE
  5
D46
330
A02
100
AcDbEntity
  8
Solid
100
AcDbLine
 10
181.342
 20
-29.322
 30
0
 11
181.342
 21
-29.322
 31
1.6
  0
LINE
  5
D47
330
A02
100
AcDbEntity
  8
Solid
100
AcDbLine
 10
181.342
 20
-29.322
 30
1.6
 11
195.342
 21
-29.322
 31
1.6
  0
LINE
  5
D48
330
A02
100
AcDbEntity
  8
Solid
100
AcDbLine
 10
195.342
 20
-29.322
 30
0
 11
195.342
 21
-29.322
 31
1.6
  0
LINE
  5
D49
330
A02
100
AcDbEntity
  8
Solid
100
AcDbLine
 10
181.342
 20
-29.322
 30
0
 11
195.342
 21
-29.322
 31
0
  0
LINE
  5
D4A
330
A02
100
AcDbEntity
  8
Solid
100
AcDbLine
 10
195.342
 20
-29.322
 30
0
 11
195.342
 21
-29.322
 31
1.6
  0
LINE
  5
D4B
330
A02
100
AcDbEntity
  8
Solid
100
AcDbLine
 10
195.342
 20
-29.322
 30
1.6
 11
195.342
 21
-43.322
 31
1.6
  0
LINE
  5
D4C
330
A02
100
AcDbEntity
  8
Solid
100
AcDbLine
 10
195.342
 20
-43.322
 30
0
 11
195.342
 21
-43.322
 31
1.6
  0
LINE
  5
D4D
330
A02
100
AcDbEntity
  8
Solid
100
AcDbLine
 10
195.342
 20
-29.322
 30
0
 11
195.342
 21
-43.322
 31
0
  0
LINE
  5
D4E
330
A02
100
AcDbEntity
  8
Solid
100
AcDbLine
 10
195.342
 20
-43.322
 30
0
 11
195.342
 21
-43.322
 31
1.6
  0
LINE
  5
D4F
330
A02
100
AcDbEntity
  8
Solid
100
AcDbLine
 10
195.342
 20
-43.322
 30
1.6
 11
181.342
 21
-43.322
 31
1.6
  0
LINE
  5
D50
330
A02
100
AcDbEntity
  8
Solid
100
AcDbLine
 10
181.342
 20
-43.322
 30
0
 11
181.342
 21
-43.322
 31
1.6
  0
LINE
  5
D51
330
A02
100
AcDbEntity
  8
Solid
100
AcDbLine
 10
195.342
 20
-43.322
 30
0
 11
181.342
 21
-43.322
 31
0
  0
LINE
  5
D52
330
A02
100
AcDbEntity
  8
Solid
100
AcDbLine
 10
181.342
 20
-43.322
 30
0
 11
181.342
 21
-43.322
 31
1.6
  0
LINE
  5
D53
330
A02
100
AcDbEntity
  8
Solid
100
AcDbLine
 10
181.342
 20
-43.322
 30
1.6
 11
181.342
 21
-29.322
 31
1.6
  0
LINE
  5
D54
330
A02
100
AcDbEntity
  8
Solid
100
AcDbLine
 10
181.342
 20
-29.322
 30
0
 11
181.342
 21
-29.322
 31
1.6
  0
LINE
  5
D55
330
A02
100
AcDbEntity
  8
Solid
100
AcDbLine
 10
181.342
 20
-43.322
 30
0
 11
181.342
 21
-29.322
 31
0
  0
LINE
  5
D56
330
A02
100
AcDbEntity
  8
Solid001
100
AcDbLine
 10
132.29
 20
-66.1518
 30
0
 11
132.29
 21
-66.1518
 31
1.6
  0
LINE
  5
D57
330
A02
100
AcDbEntity
  8
Solid001
100
AcDbLine
 10
132.29
 20
-66.1518
 30
1.6
 11
132.29
 21
-28.2976
 31
1.6
  0
LINE
  5
D58
330
A02
100
AcDbEntity
  8
Solid001
100
AcDbLine
 10
132.29
 20
-28.2976
 30
0
 11
132.29
 21
-28.2976
 31
1.6
  0
LINE
  5
D59
330
A02
100
AcDbEntity
  8
Solid001
100
AcDbLine
 10
132.29
 20
-66.1518
 30
0
 11
132.29
 21
-28.2976
 31
0
  0
ARC
  5
D5A
330
A02
100
AcDbEntity
  8
Solid001
100
AcDbCircle
 10
133.29
 20
-66.1518
 30
0
 40
1.00001
100
AcDbArc
 50
180
 51
-90.0005
  0
LINE
  5
D5B
330
A02
100
AcDbEntity
  8
Solid001
100
AcDbLine
 10
133.29
 20
-67.1518
 30
0
 11
133.29
 21
-67.1518
 31
1.6
  0
ARC
  5
D5C
330
A02
100
AcDbEntity
  8
Solid001
100
AcDbCircle
 10
133.29
 20
-66.1518
 30
1.6
 40
1.00001
100
AcDbArc
 50
180
 51
-90.0005
  0
LINE
  5
D5D
330
A02
100
AcDbEntity
  8
Solid001
100
AcDbLine
 10
132.29
 20
-66.1518
 30
0
 11
132.29
 21
-66.1518
 31
1.6
  0
ARC
  5
D5E
330
A02
100
AcDbEntity
  8
Solid001
100
AcDbCircle
 10
133.29
 20
-28.2976
 30
0
 40
1.00001
100
AcDbArc
 50
90.0006
 51
180
  0
LINE
  5
D5F
330
A02
100
AcDbEntity
  8
Solid001
100
AcDbLine
 10
132.29
 20
-28.2976
 30
0
 11
132.29
 21
-28.2976
 31
1.6
  0
ARC
  5
D60
330
A02
100
AcDbEntity
  8
Solid001
100
AcDbCircle
 10
133.29
 20
-28.2976
 30
1.6
 40
1.00001
100
AcDbArc
 50
90.0006
 51
180
  0
LINE
  5
D61
330
A02
100
AcDbEntity
  8
Solid001
100
AcDbLine
 10
133.29
 20
-27.2976
 30
0
 11
133.29
 21
-27.2976
 31
1.6
  0
LINE
  5
D62
330
A02
100
AcDbEntity
  8
Solid001
100
AcDbLine
 10
132.29
 20
-66.1518
 30
0
 11
132.29
 21
-28.2976
 31
0
  0
ARC
  5
D63
330
A02
100
AcDbEntity
  8
Solid001
100
AcDbCircle
 10
133.29
 20
-28.2976
 30
0
 40
1.00001
100
AcDbArc
 50
90.0006
 51
180
  0
LINE
  5
D64
330
A02
100
AcDbEntity
  8
Solid001
100
AcDbLine
 10
133.29
 20
-27.2976
 30
0
 11
159.58
 21
-27.2989
 31
0
  0
ARC
  5
D65
330
A02
100
AcDbEntity
  8
Solid001
100
AcDbCircle
 10
159.58
 20
-28.2989
 30
0
 40
1.00001
100
AcDbArc
 50
0.000572952
 51
89.9988
  0
LINE
  5
D66
330
A02
100
AcDbEntity
  8
Solid001
100
AcDbLine
 10
160.58
 20
-28.2989
 30
0
 11
160.579
 21
-66.1531
 31
0
  0
ARC
  5
D67
330
A02
100
AcDbEntity
  8
Solid001
100
AcDbCircle
 10
159.579
 20
-66.1531
 30
0
 40
1.00001
100
AcDbArc
 50
-90
 51
-0.0012032
  0
LINE
  5
D68
330
A02
100
AcDbEntity
  8
Solid001
100
AcDbLine
 10
159.579
 20
-67.1531
 30
0
 11
133.29
 21
-67.1518
 31
0
  0
ARC
  5
D69
330
A02
100
AcDbEntity
  8
Solid001
100
AcDbCircle
 10
133.29
 20
-66.1518
 30
0
 40
1.00001
100
AcDbArc
 50
180
 51
-90.0005
  0
CIRCLE
  5
D6A
330
A02
100
AcDbEntity
  8
Solid001
100
AcDbCircle
 10
157.079
 20
-63.1526
 40
1.15
  0
CIRCLE
  5
D6B
330
A02
100
AcDbEntity
  8
Solid001
100
AcDbCircle
 10
136.29
 20
-63.1516
 40
1.15
  0
LINE
  5
D6C
330
A02
100
AcDbEntity
  8
Solid001
100
AcDbLine
 10
132.29
 20
-66.1518
 30
1.6
 11
132.29
 21
-28.2976
 31
1.6
  0
ARC
  5
D6D
330
A02
100
AcDbEntity
  8
Solid001
100
AcDbCircle
 10
133.29
 20
-28.2976
 30
1.6
 40
1.00001
100
AcDbArc
 50
90.0006
 51
180
  0
LINE
  5
D6E
330
A02
100
AcDbEntity
  8
Solid001
100
AcDbLine
 10
133.29
 20
-27.2976
 30
1.6
 11
159.58
 21
-27.2989
 31
1.6
  0
ARC
  5
D6F
330
A02
100
AcDbEntity
  8
Solid001
100
AcDbCircle
 10
159.58
 20
-28.2989
 30
1.6
 40
1.00001
100
AcDbArc
 50
0.000572952
 51
89.9988
  0
LINE
  5
D70
330
A02
100
AcDbEntity
  8
Solid001
100
AcDbLine
 10
160.58
 20
-28.2989
 30
1.6
 11
160.579
 21
-66.1531
 31
1.6
  0
ARC
  5
D71
330
A02
100
AcDbEntity
  8
Solid001
100
AcDbCircle
 10
159.579
 20
-66.1531
 30
1.6
 40
1.00001
100
AcDbArc
 50
-90
 51
-0.0012032
  0
LINE
  5
D72
330
A02
100
AcDbEntity
  8
Solid001
100
AcDbLine
 10
159.579
 20
-67.1531
 30
1.6
 11
133.29
 21
-67.1518
 31
1.6
  0
ARC
  5
D73
330
A02
100
AcDbEntity
  8
Solid001
100
AcDbCircle
 10
133.29
 20
-66.1518
 30
1.6
 40
1.00001
100
AcDbArc
 50
180
 51
-90.0005
  0
CIRCLE
  5
D74
330
A02
100
AcDbEntity
  8
Solid001
100
AcDbCircle
 10
157.079
 20
-63.1526
 40
1.15
  0
CIRCLE
  5
D75
330
A02
100
AcDbEntity
  8
Solid001
100
AcDbCircle
 10
136.29
 20
-63.1516
 40
1.15
  0
LINE
  5
D76
330
A02
100
AcDbEntity
  8
Solid001
100
AcDbLine
 10
159.579
 20
-67.1531
 30
0
 11
159.579
 21
-67.1531
 31
1.6
  0
LINE
  5
D77
330
A02
100
AcDbEntity
  8
Solid001
100
AcDbLine
 10
159.579
 20
-67.1531
 30
1.6
 11
133.29
 21
-67.1518
 31
1.6
  0
LINE
  5
D78
330
A02
100
AcDbEntity
  8
Solid001
100
AcDbLine
 10
133.29
 20
-67.1518
 30
0
 11
133.29
 21
-67.1518
 31
1.6
  0
LINE
  5
D79
330
A02
100
AcDbEntity
  8
Solid001
100
AcDbLine
 10
159.579
 20
-67.1531
 30
0
 11
133.29
 21
-67.1518
 31
0
  0
LINE
  5
D7A
330
A02
100
AcDbEntity
  8
Solid001
100
AcDbLine
 10
133.29
 20
-27.2976
 30
0
 11
133.29
 21
-27.2976
 31
1.6
  0
LINE
  5
D7B
330
A02
100
AcDbEntity
  8
Solid001
100
AcDbLine
 10
133.29
 20
-27.2976
 30
1.6
 11
159.58
 21
-27.2989
 31
1.6
  0
LINE
  5
D7C
330
A02
100
AcDbEntity
  8
Solid001
100
AcDbLine
 10
159.58
 20
-27.2989
 30
0
 11
159.58
 21
-27.2989
 31
1.6
  0
LINE
  5
D7D
330
A02
100
AcDbEntity
  8
Solid001
100
AcDbLine
 10
133.29
 20
-27.2976
 30
0
 11
159.58
 21
-27.2989
 31
0
  0
ARC
  5
D7E
330
A02
100
AcDbEntity
  8
Solid001
100
AcDbCircle
 10
159.579
 20
-66.1531
 30
0
 40
1.00001
100
AcDbArc
 50
-90
 51
-0.0012032
  0
LINE
  5
D7F
330
A02
100
AcDbEntity
  8
Solid001
100
AcDbLine
 10
160.579
 20
-66.1531
 30
0
 11
160.579
 21
-66.1531
 31
1.6
  0
ARC
  5
D80
330
A02
100
AcDbEntity
  8
Solid001
100
AcDbCircle
 10
159.579
 20
-66.1531
 30
1.6
 40
1.00001
100
AcDbArc
 50
-90
 51
-0.0012032
  0
LINE
  5
D81
330
A02
100
AcDbEntity
  8
Solid001
100
AcDbLine
 10
159.579
 20
-67.1531
 30
0
 11
159.579
 21
-67.1531
 31
1.6
  0
ARC
  5
D82
330
A02
100
AcDbEntity
  8
Solid001
100
AcDbCircle
 10
159.58
 20
-28.2989
 30
0
 40
1.00001
100
AcDbArc
 50
0.000572952
 51
89.9988
  0
LINE
  5
D83
330
A02
100
AcDbEntity
  8
Solid001
100
AcDbLine
 10
159.58
 20
-27.2989
 30
0
 11
159.58
 21
-27.2989
 31
1.6
  0
ARC
  5
D84
330
A02
100
AcDbEntity
  8
Solid001
100
AcDbCircle
 10
159.58
 20
-28.2989
 30
1.6
 40
1.00001
100
AcDbArc
 50
0.000572952
 51
89.9988
  0
LINE
  5
D85
330
A02
100
AcDbEntity
  8
Solid001
100
AcDbLine
 10
160.58
 20
-28.2989
 30
0
 11
160.58
 21
-28.2989
 31
1.6
  0
LINE
  5
D86
330
A02
100
AcDbEntity
  8
Solid001
100
AcDbLine
 10
160.58
 20
-28.2989
 30
0
 11
160.58
 21
-28.2989
 31
1.6
  0
LINE
  5
D87
330
A02
100
AcDbEntity
  8
Solid001
100
AcDbLine
 10
160.58
 20
-28.2989
 30
1.6
 11
160.579
 21
-66.1531
 31
1.6
  0
LINE
  5
D88
330
A02
100
AcDbEntity
  8
Solid001
100
AcDbLine
 10
160.579
 20
-66.1531
 30
0
 11
160.579
 21
-66.1531
 31
1.6
  0
LINE
  5
D89
330
A02
100
AcDbEntity
  8
Solid001
100
AcDbLine
 10
160.58
 20
-28.2989
 30
0
 11
160.579
 21
-66.1531
 31
0
  0
CIRCLE
  5
D8A
330
A02
100
AcDbEntity
  8
Solid001
100
AcDbCircle
 10
157.079
 20
-63.1526
 40
1.15
  0
LINE
  5
D8B
330
A02
100
AcDbEntity
  8
Solid001
100
AcDbLine
 10
158.229
 20
-63.1526
 30
0
 11
158.229
 21
-63.1526
 31
1.6
  0
CIRCLE
  5
D8C
330
A02
100
AcDbEntity
  8
Solid001
100
AcDbCircle
 10
157.079
 20
-63.1526
 40
1.15
  0
LINE
  5
D8D
330
A02
100
AcDbEntity
  8
Solid001
100
AcDbLine
 10
158.229
 20
-63.1526
 30
0
 11
158.229
 21
-63.1526
 31
1.6
  0
CIRCLE
  5
D8E
330
A02
100
AcDbEntity
  8
Solid001
100
AcDbCircle
 10
136.29
 20
-63.1516
 40
1.15
  0
LINE
  5
D8F
330
A02
100
AcDbEntity
  8
Solid001
100
AcDbLine
 10
137.44
 20
-63.1516
 30
0
 11
137.44
 21
-63.1516
 31
1.6
  0
CIRCLE
  5
D90
330
A02
100
AcDbEntity
  8
Solid001
100
AcDbCircle
 10
136.29
 20
-63.1516
 40
1.15
  0
LINE
  5
D91
330
A02
100
AcDbEntity
  8
Solid001
100
AcDbLine
 10
137.44
 20
-63.1516
 30
0
 11
137.44
 21
-63.1516
 31
1.6
  0
ARC
  5
D92
330
A02
100
AcDbEntity
  8
Solid002
100
AcDbCircle
 10
112.551
 20
-28.2964
 30
0
 40
0.99999
100
AcDbArc
 50
0.000572964
 51
90.0005
  0
LINE
  5
D93
330
A02
100
AcDbEntity
  8
Solid002
100
AcDbLine
 10
112.551
 20
-27.2964
 30
0
 11
112.551
 21
-27.2964
 31
1.6
  0
ARC
  5
D94
330
A02
100
AcDbEntity
  8
Solid002
100
AcDbCircle
 10
112.551
 20
-28.2964
 30
1.6
 40
0.99999
100
AcDbArc
 50
0.000572964
 51
90.0005
  0
LINE
  5
D95
330
A02
100
AcDbEntity
  8
Solid002
100
AcDbLine
 10
113.551
 20
-28.2964
 30
0
 11
113.551
 21
-28.2964
 31
1.6
  0
LINE
  5
D96
330
A02
100
AcDbEntity
  8
Solid002
100
AcDbLine
 10
113.551
 20
-28.2964
 30
0
 11
113.551
 21
-28.2964
 31
1.6
  0
LINE
  5
D97
330
A02
100
AcDbEntity
  8
Solid002
100
AcDbLine
 10
113.551
 20
-28.2964
 30
1.6
 11
113.551
 21
-63.3968
 31
1.6
  0
LINE
  5
D98
330
A02
100
AcDbEntity
  8
Solid002
100
AcDbLine
 10
113.551
 20
-63.3968
 30
0
 11
113.551
 21
-63.3968
 31
1.6
  0
LINE
  5
D99
330
A02
100
AcDbEntity
  8
Solid002
100
AcDbLine
 10
113.551
 20
-28.2964
 30
0
 11
113.551
 21
-63.3968
 31
0
  0
LINE
  5
D9A
330
A02
100
AcDbEntity
  8
Solid002
100
AcDbLine
 10
39.3518
 20
-27.2964
 30
0
 11
39.3518
 21
-27.2964
 31
1.6
  0
LINE
  5
D9B
330
A02
100
AcDbEntity
  8
Solid002
100
AcDbLine
 10
39.3518
 20
-27.2964
 30
1.6
 11
112.551
 21
-27.2964
 31
1.6
  0
LINE
  5
D9C
330
A02
100
AcDbEntity
  8
Solid002
100
AcDbLine
 10
112.551
 20
-27.2964
 30
0
 11
112.551
 21
-27.2964
 31
1.6
  0
LINE
  5
D9D
330
A02
100
AcDbEntity
  8
Solid002
100
AcDbLine
 10
39.3518
 20
-27.2964
 30
0
 11
112.551
 21
-27.2964
 31
0
  0
ARC
  5
D9E
330
A02
100
AcDbEntity
  8
Solid002
100
AcDbCircle
 10
112.551
 20
-28.2964
 30
0
 40
0.99999
100
AcDbArc
 50
0.000572964
 51
90.0005
  0
LINE
  5
D9F
330
A02
100
AcDbEntity
  8
Solid002
100
AcDbLine
 10
39.3518
 20
-27.2964
 30
0
 11
112.551
 21
-27.2964
 31
0
  0
ARC
  5
DA0
330
A02
100
AcDbEntity
  8
Solid002
100
AcDbCircle
 10
39.3518
 20
-28.2683
 30
0
 40
0.971869
100
AcDbArc
 50
89.9988
 51
145.4
  0
ARC
  5
DA1
330
A02
100
AcDbEntity
  8
Solid002
100
AcDbCircle
 10
138.263
 20
-93.5088
 30
0
 40
119.462
100
AcDbArc
 50
146.582
 51
179.982
  0
ARC
  5
DA2
330
A02
100
AcDbEntity
  8
Solid002
100
AcDbCircle
 10
132.14
 20
-93.4764
 30
0
 40
113.339
100
AcDbArc
 50
179.998
 51
-137.835
  0
ARC
  5
DA3
330
A02
100
AcDbEntity
  8
Solid002
100
AcDbCircle
 10
48.8778
 20
-168.875
 30
0
 40
1.01022
100
AcDbArc
 50
-137.598
 51
-89.9986
  0
LINE
  5
DA4
330
A02
100
AcDbEntity
  8
Solid002
100
AcDbLine
 10
116.1
 20
-169.886
 30
0
 11
48.8778
 21
-169.885
 31
0
  0
ARC
  5
DA5
330
A02
100
AcDbEntity
  8
Solid002
100
AcDbCircle
 10
116.1
 20
-152.199
 30
0
 40
17.6865
100
AcDbArc
 50
-89.9999
 51
-60.0002
  0
LINE
  5
DA6
330
A02
100
AcDbEntity
  8
Solid002
100
AcDbLine
 10
138.843
 20
-159.491
 30
0
 11
124.943
 21
-167.516
 31
0
  0
ARC
  5
DA7
330
A02
100
AcDbEntity
  8
Solid002
100
AcDbCircle
 10
138.343
 20
-158.625
 30
0
 40
1
100
AcDbArc
 50
-60.0001
 51
30.0004
  0
LINE
  5
DA8
330
A02
100
AcDbEntity
  8
Solid002
100
AcDbLine
 10
135.197
 20
-151.175
 30
0
 11
139.209
 21
-158.125
 31
0
  0
ARC
  5
DA9
330
A02
100
AcDbEntity
  8
Solid002
100
AcDbCircle
 10
229.914
 20
-96.4897
 30
0
 40
109.37
100
AcDbArc
 50
169.999
 51
-150
  0
LINE
  5
DAA
330
A02
100
AcDbEntity
  8
Solid002
100
AcDbLine
 10
123.599
 20
-69.5946
 30
0
 11
122.206
 21
-77.4957
 31
0
  0
ARC
  5
DAB
330
A02
100
AcDbEntity
  8
Solid002
100
AcDbCircle
 10
122.614
 20
-69.421
 30
0
 40
0.999991
100
AcDbArc
 50
-10.0003
 51
80.0002
  0
LINE
  5
DAC
330
A02
100
AcDbEntity
  8
Solid002
100
AcDbLine
 10
116.91
 20
-67.3998
 30
0
 11
122.788
 21
-68.4362
 31
0
  0
ARC
  5
DAD
330
A02
100
AcDbEntity
  8
Solid002
100
AcDbCircle
 10
117.616
 20
-63.3968
 30
0
 40
4.06477
100
AcDbArc
 50
-179.999
 51
-100.002
  0
LINE
  5
DAE
330
A02
100
AcDbEntity
  8
Solid002
100
AcDbLine
 10
113.551
 20
-28.2964
 30
0
 11
113.551
 21
-63.3968
 31
0
  0
CIRCLE
  5
DAF
330
A02
100
AcDbEntity
  8
Solid002
100
AcDbCircle
 10
42.3027
 20
-122.047
 40
1.15
  0
CIRCLE
  5
DB0
330
A02
100
AcDbEntity
  8
Solid002
100
AcDbCircle
 10
119.515
 20
-147.97
 40
1.15
  0
CIRCLE
  5
DB1
330
A02
100
AcDbEntity
  8
Solid002
100
AcDbCircle
 10
82.1102
 20
-102.997
 40
21.0104
  0
CIRCLE
  5
DB2
330
A02
100
AcDbEntity
  8
Solid002
100
AcDbCircle
 10
108.567
 20
-107.108
 40
1.15
  0
CIRCLE
  5
DB3
330
A02
100
AcDbEntity
  8
Solid002
100
AcDbCircle
 10
55.0017
 20
-45.8466
 40
1.15
  0
CIRCLE
  5
DB4
330
A02
100
AcDbEntity
  8
Solid002
100
AcDbCircle
 10
75.9453
 20
-64.897
 40
1.15
  0
CIRCLE
  5
DB5
330
A02
100
AcDbEntity
  8
Solid002
100
AcDbCircle
 10
95.0017
 20
-43.9466
 40
1.15
  0
ARC
  5
DB6
330
A02
100
AcDbEntity
  8
Solid002
100
AcDbCircle
 10
112.551
 20
-28.2964
 30
1.6
 40
0.99999
100
AcDbArc
 50
0.000572964
 51
90.0005
  0
LINE
  5
DB7
330
A02
100
AcDbEntity
  8
Solid002
100
AcDbLine
 10
39.3518
 20
-27.2964
 30
1.6
 11
112.551
 21
-27.2964
 31
1.6
  0
ARC
  5
DB8
330
A02
100
AcDbEntity
  8
Solid002
100
AcDbCircle
 10
39.3518
 20
-28.2683
 30
1.6
 40
0.971869
100
AcDbArc
 50
89.9988
 51
145.4
  0
ARC
  5
DB9
330
A02
100
AcDbEntity
  8
Solid002
100
AcDbCircle
 10
138.263
 20
-93.5088
 30
1.6
 40
119.462
100
AcDbArc
 50
146.582
 51
179.982
  0
ARC
  5
DBA
330
A02
100
AcDbEntity
  8
Solid002
100
AcDbCircle
 10
132.14
 20
-93.4764
 30
1.6
 40
113.339
100
AcDbArc
 50
179.998
 51
-137.835
  0
ARC
  5
DBB
330
A02
100
AcDbEntity
  8
Solid002
100
AcDbCircle
 10
48.8778
 20
-168.875
 30
1.6
 40
1.01022
100
AcDbArc
 50
-137.598
 51
-89.9986
  0
LINE
  5
DBC
330
A02
100
AcDbEntity
  8
Solid002
100
AcDbLine
 10
116.1
 20
-169.886
 30
1.6
 11
48.8778
 21
-169.885
 31
1.6
  0
ARC
  5
DBD
330
A02
100
AcDbEntity
  8
Solid002
100
AcDbCircle
 10
116.1
 20
-152.199
 30
1.6
 40
17.6865
100
AcDbArc
 50
-89.9999
 51
-60.0002
  0
LINE
  5
DBE
330
A02
100
AcDbEntity
  8
Solid002
100
AcDbLine
 10
138.843
 20
-159.491
 30
1.6
 11
124.943
 21
-167.516
 31
1.6
  0
ARC
  5
DBF
330
A02
100
AcDbEntity
  8
Solid002
100
AcDbCircle
 10
138.343
 20
-158.625
 30
1.6
 40
1
100
AcDbArc
 50
-60.0001
 51
30.0004
  0
LINE
  5
DC0
330
A02
100
AcDbEntity
  8
Solid002
100
AcDbLine
 10
135.197
 20
-151.175
 30
1.6
 11
139.209
 21
-158.125
 31
1.6
  0
ARC
  5
DC1
330
A02
100
AcDbEntity
  8
Solid002
100
AcDbCircle
 10
229.914
 20
-96.4897
 30
1.6
 40
109.37
100
AcDbArc
 50
169.999
 51
-150
  0
LINE
  5
DC2
330
A02
100
AcDbEntity
  8
Solid002
100
AcDbLine
 10
123.599
 20
-69.5946
 30
1.6
 11
122.206
 21
-77.4957
 31
1.6
  0
ARC
  5
DC3
330
A02
100
AcDbEntity
  8
Solid002
100
AcDbCircle
 10
122.614
 20
-69.421
 30
1.6
 40
0.999991
100
AcDbArc
 50
-10.0003
 51
80.0002
  0
LINE
  5
DC4
330
A02
100
AcDbEntity
  8
Solid002
100
AcDbLine
 10
116.91
 20
-67.3998
 30
1.6
 11
122.788
 21
-68.4362
 31
1.6
  0
ARC
  5
DC5
330
A02
100
AcDbEntity
  8
Solid002
100
AcDbCircle
 10
117.616
 20
-63.3968
 30
1.6
 40
4.06477
100
AcDbArc
 50
-179.999
 51
-100.002
  0
LINE
  5
DC6
330
A02
100
AcDbEntity
  8
Solid002
100
AcDbLine
 10
113.551
 20
-28.2964
 30
1.6
 11
113.551
 21
-63.3968
 31
1.6
  0
CIRCLE
  5
DC7
330
A02
100
AcDbEntity
  8
Solid002
100
AcDbCircle
 10
42.3027
 20
-122.047
 40
1.15
  0
CIRCLE
  5
DC8
330
A02
100
AcDbEntity
  8
Solid002
100
AcDbCircle
 10
119.515
 20
-147.97
 40
1.15
  0
CIRCLE
  5
DC9
330
A02
100
AcDbEntity
  8
Solid002
100
AcDbCircle
 10
82.1102
 20
-102.997
 40
21.0104
  0
CIRCLE
  5
DCA
330
A02
100
AcDbEntity
  8
Solid002
100
AcDbCircle
 10
108.567
 20
-107.108
 40
1.15
  0
CIRCLE
  5
DCB
330
A02
100
AcDbEntity
  8
Solid002
100
AcDbCircle
 10
55.0017
 20
-45.8466
 40
1.15
  0
CIRCLE
  5
DCC
330
A02
100
AcDbEntity
  8
Solid002
100
AcDbCircle
 10
75.9453
 20
-64.897
 40
1.15
  0
CIRCLE
  5
DCD
330
A02
100
AcDbEntity
  8
Solid002
100
AcDbCircle
 10
95.0017
 20
-43.9466
 40
1.15
  0
ARC
  5
DCE
330
A02
100
AcDbEntity
  8
Solid002
100
AcDbCircle
 10
117.616
 20
-63.3968
 30
0
 40
4.06477
100
AcDbArc
 50
-179.999
 51
-100.002
  0
LINE
  5
DCF
330
A02
100
AcDbEntity
  8
Solid002
100
AcDbLine
 10
116.91
 20
-67.3998
 30
0
 11
116.91
 21
-67.3998
 31
1.6
  0
ARC
  5
DD0
330
A02
100
AcDbEntity
  8
Solid002
100
AcDbCircle
 10
117.616
 20
-63.3968
 30
1.6
 40
4.06477
100
AcDbArc
 50
-179.999
 51
-100.002
  0
LINE
  5
DD1
330
A02
100
AcDbEntity
  8
Solid002
100
AcDbLine
 10
113.551
 20
-63.3968
 30
0
 11
113.551
 21
-63.3968
 31
1.6
  0
ARC
  5
DD2
330
A02
100
AcDbEntity
  8
Solid002
100
AcDbCircle
 10
39.3518
 20
-28.2683
 30
0
 40
0.971869
100
AcDbArc
 50
89.9988
 51
145.4
  0
LINE
  5
DD3
330
A02
100
AcDbEntity
  8
Solid002
100
AcDbLine
 10
38.5518
 20
-27.7164
 30
0
 11
38.5518
 21
-27.7164
 31
1.6
  0
ARC
  5
DD4
330
A02
100
AcDbEntity
  8
Solid002
100
AcDbCircle
 10
39.3518
 20
-28.2683
 30
1.6
 40
0.971869
100
AcDbArc
 50
89.9988
 51
145.4
  0
LINE
  5
DD5
330
A02
100
AcDbEntity
  8
Solid002
100
AcDbLine
 10
39.3518
 20
-27.2964
 30
0
 11
39.3518
 21
-27.2964
 31
1.6
  0
LINE
  5
DD6
330
A02
100
AcDbEntity
  8
Solid002
100
AcDbLine
 10
116.91
 20
-67.3998
 30
0
 11
116.91
 21
-67.3998
 31
1.6
  0
LINE
  5
DD7
330
A02
100
AcDbEntity
  8
Solid002
100
AcDbLine
 10
116.91
 20
-67.3998
 30
1.6
 11
122.788
 21
-68.4362
 31
1.6
  0
LINE
  5
DD8
330
A02
100
AcDbEntity
  8
Solid002
100
AcDbLine
 10
122.788
 20
-68.4361
 30
0
 11
122.788
 21
-68.4361
 31
1.6
  0
LINE
  5
DD9
330
A02
100
AcDbEntity
  8
Solid002
100
AcDbLine
 10
116.91
 20
-67.3998
 30
0
 11
122.788
 21
-68.4362
 31
0
  0
ARC
  5
DDA
330
A02
100
AcDbEntity
  8
Solid002
100
AcDbCircle
 10
138.263
 20
-93.5088
 30
0
 40
119.462
100
AcDbArc
 50
146.582
 51
179.982
  0
LINE
  5
DDB
330
A02
100
AcDbEntity
  8
Solid002
100
AcDbLine
 10
18.8019
 20
-93.4715
 30
0
 11
18.8019
 21
-93.4715
 31
1.6
  0
ARC
  5
DDC
330
A02
100
AcDbEntity
  8
Solid002
100
AcDbCircle
 10
138.263
 20
-93.5088
 30
1.6
 40
119.462
100
AcDbArc
 50
146.582
 51
179.982
  0
LINE
  5
DDD
330
A02
100
AcDbEntity
  8
Solid002
100
AcDbLine
 10
38.5518
 20
-27.7164
 30
0
 11
38.5518
 21
-27.7164
 31
1.6
  0
ARC
  5
DDE
330
A02
100
AcDbEntity
  8
Solid002
100
AcDbCircle
 10
122.614
 20
-69.421
 30
0
 40
0.999991
100
AcDbArc
 50
-10.0003
 51
80.0002
  0
LINE
  5
DDF
330
A02
100
AcDbEntity
  8
Solid002
100
AcDbLine
 10
122.788
 20
-68.4361
 30
0
 11
122.788
 21
-68.4361
 31
1.6
  0
ARC
  5
DE0
330
A02
100
AcDbEntity
  8
Solid002
100
AcDbCircle
 10
122.614
 20
-69.421
 30
1.6
 40
0.999991
100
AcDbArc
 50
-10.0003
 51
80.0002
  0
LINE
  5
DE1
330
A02
100
AcDbEntity
  8
Solid002
100
AcDbLine
 10
123.599
 20
-69.5946
 30
0
 11
123.599
 21
-69.5946
 31
1.6
  0
ARC
  5
DE2
330
A02
100
AcDbEntity
  8
Solid002
100
AcDbCircle
 10
132.14
 20
-93.4764
 30
0
 40
113.339
100
AcDbArc
 50
179.998
 51
-137.835
  0
LINE
  5
DE3
330
A02
100
AcDbEntity
  8
Solid002
100
AcDbLine
 10
48.1318
 20
-169.556
 30
0
 11
48.1318
 21
-169.556
 31
1.6
  0
ARC
  5
DE4
330
A02
100
AcDbEntity
  8
Solid002
100
AcDbCircle
 10
132.14
 20
-93.4764
 30
1.6
 40
113.339
100
AcDbArc
 50
179.998
 51
-137.835
  0
LINE
  5
DE5
330
A02
100
AcDbEntity
  8
Solid002
100
AcDbLine
 10
18.8019
 20
-93.4715
 30
0
 11
18.8019
 21
-93.4715
 31
1.6
  0
LINE
  5
DE6
330
A02
100
AcDbEntity
  8
Solid002
100
AcDbLine
 10
123.599
 20
-69.5946
 30
0
 11
123.599
 21
-69.5946
 31
1.6
  0
LINE
  5
DE7
330
A02
100
AcDbEntity
  8
Solid002
100
AcDbLine
 10
123.599
 20
-69.5946
 30
1.6
 11
122.206
 21
-77.4957
 31
1.6
  0
LINE
  5
DE8
330
A02
100
AcDbEntity
  8
Solid002
100
AcDbLine
 10
122.206
 20
-77.4957
 30
0
 11
122.206
 21
-77.4957
 31
1.6
  0
LINE
  5
DE9
330
A02
100
AcDbEntity
  8
Solid002
100
AcDbLine
 10
123.599
 20
-69.5946
 30
0
 11
122.206
 21
-77.4957
 31
0
  0
ARC
  5
DEA
330
A02
100
AcDbEntity
  8
Solid002
100
AcDbCircle
 10
48.8778
 20
-168.875
 30
0
 40
1.01022
100
AcDbArc
 50
-137.598
 51
-89.9986
  0
LINE
  5
DEB
330
A02
100
AcDbEntity
  8
Solid002
100
AcDbLine
 10
48.8778
 20
-169.885
 30
0
 11
48.8778
 21
-169.885
 31
1.6
  0
ARC
  5
DEC
330
A02
100
AcDbEntity
  8
Solid002
100
AcDbCircle
 10
48.8778
 20
-168.875
 30
1.6
 40
1.01022
100
AcDbArc
 50
-137.598
 51
-89.9986
  0
LINE
  5
DED
330
A02
100
AcDbEntity
  8
Solid002
100
AcDbLine
 10
48.1318
 20
-169.556
 30
0
 11
48.1318
 21
-169.556
 31
1.6
  0
ARC
  5
DEE
330
A02
100
AcDbEntity
  8
Solid002
100
AcDbCircle
 10
229.914
 20
-96.4897
 30
0
 40
109.37
100
AcDbArc
 50
169.999
 51
-150
  0
LINE
  5
DEF
330
A02
100
AcDbEntity
  8
Solid002
100
AcDbLine
 10
135.197
 20
-151.175
 30
0
 11
135.197
 21
-151.175
 31
1.6
  0
ARC
  5
DF0
330
A02
100
AcDbEntity
  8
Solid002
100
AcDbCircle
 10
229.914
 20
-96.4897
 30
1.6
 40
109.37
100
AcDbArc
 50
169.999
 51
-150
  0
LINE
  5
DF1
330
A02
100
AcDbEntity
  8
Solid002
100
AcDbLine
 10
122.206
 20
-77.4957
 30
0
 11
122.206
 21
-77.4957
 31
1.6
  0
LINE
  5
DF2
330
A02
100
AcDbEntity
  8
Solid002
100
AcDbLine
 10
116.1
 20
-169.886
 30
0
 11
116.1
 21
-169.886
 31
1.6
  0
LINE
  5
DF3
330
A02
100
AcDbEntity
  8
Solid002
100
AcDbLine
 10
116.1
 20
-169.886
 30
1.6
 11
48.8778
 21
-169.885
 31
1.6
  0
LINE
  5
DF4
330
A02
100
AcDbEntity
  8
Solid002
100
AcDbLine
 10
48.8778
 20
-169.885
 30
0
 11
48.8778
 21
-169.885
 31
1.6
  0
LINE
  5
DF5
330
A02
100
AcDbEntity
  8
Solid002
100
AcDbLine
 10
116.1
 20
-169.886
 30
0
 11
48.8778
 21
-169.885
 31
0
  0
LINE
  5
DF6
330
A02
100
AcDbEntity
  8
Solid002
100
AcDbLine
 10
135.197
 20
-151.175
 30
0
 11
135.197
 21
-151.175
 31
1.6
  0
LINE
  5
DF7
330
A02
100
AcDbEntity
  8
Solid002
100
AcDbLine
 10
135.197
 20
-151.175
 30
1.6
 11
139.209
 21
-158.125
 31
1.6
  0
LINE
  5
DF8
330
A02
100
AcDbEntity
  8
Solid002
100
AcDbLine
 10
139.209
 20
-158.125
 30
0
 11
139.209
 21
-158.125
 31
1.6
  0
LINE
  5
DF9
330
A02
100
AcDbEntity
  8
Solid002
100
AcDbLine
 10
135.197
 20
-151.175
 30
0
 11
139.209
 21
-158.125
 31
0
  0
ARC
  5
DFA
330
A02
100
AcDbEntity
  8
Solid002
100
AcDbCircle
 10
116.1
 20
-152.199
 30
0
 40
17.6865
100
AcDbArc
 50
-89.9999
 51
-60.0002
  0
LINE
  5
DFB
330
A02
100
AcDbEntity
  8
Solid002
100
AcDbLine
 10
124.944
 20
-167.516
 30
0
 11
124.944
 21
-167.516
 31
1.6
  0
ARC
  5
DFC
330
A02
100
AcDbEntity
  8
Solid002
100
AcDbCircle
 10
116.1
 20
-152.199
 30
1.6
 40
17.6865
100
AcDbArc
 50
-89.9999
 51
-60.0002
  0
LINE
  5
DFD
330
A02
100
AcDbEntity
  8
Solid002
100
AcDbLine
 10
116.1
 20
-169.886
 30
0
 11
116.1
 21
-169.886
 31
1.6
  0
ARC
  5
DFE
330
A02
100
AcDbEntity
  8
Solid002
100
AcDbCircle
 10
138.343
 20
-158.625
 30
0
 40
1
100
AcDbArc
 50
-60.0001
 51
30.0004
  0
LINE
  5
DFF
330
A02
100
AcDbEntity
  8
Solid002
100
AcDbLine
 10
139.209
 20
-158.125
 30
0
 11
139.209
 21
-158.125
 31
1.6
  0
ARC
  5
E00
330
A02
100
AcDbEntity
  8
Solid002
100
AcDbCircle
 10
138.343
 20
-158.625
 30
1.6
 40
1
100
AcDbArc
 50
-60.0001
 51
30.0004
  0
LINE
  5
E01
330
A02
100
AcDbEntity
  8
Solid002
100
AcDbLine
 10
138.843
 20
-159.491
 30
0
 11
138.843
 21
-159.491
 31
1.6
  0
LINE
  5
E02
330
A02
100
AcDbEntity
  8
Solid002
100
AcDbLine
 10
138.843
 20
-159.491
 30
0
 11
138.843
 21
-159.491
 31
1.6
  0
LINE
  5
E03
330
A02
100
AcDbEntity
  8
Solid002
100
AcDbLine
 10
138.843
 20
-159.491
 30
1.6
 11
124.943
 21
-167.516
 31
1.6
  0
LINE
  5
E04
330
A02
100
AcDbEntity
  8
Solid002
100
AcDbLine
 10
124.944
 20
-167.516
 30
0
 11
124.944
 21
-167.516
 31
1.6
  0
LINE
  5
E05
330
A02
100
AcDbEntity
  8
Solid002
100
AcDbLine
 10
138.843
 20
-159.491
 30
0
 11
124.943
 21
-167.516
 31
0
  0
CIRCLE
  5
E06
330
A02
100
AcDbEntity
  8
Solid002
100
AcDbCircle
 10
42.3027
 20
-122.047
 40
1.15
  0
LINE
  5
E07
330
A02
100
AcDbEntity
  8
Solid002
100
AcDbLine
 10
43.4527
 20
-122.047
 30
0
 11
43.4527
 21
-122.047
 31
1.6
  0
CIRCLE
  5
E08
330
A02
100
AcDbEntity
  8
Solid002
100
AcDbCircle
 10
42.3027
 20
-122.047
 40
1.15
  0
LINE
  5
E09
330
A02
100
AcDbEntity
  8
Solid002
100
AcDbLine
 10
43.4527
 20
-122.047
 30
0
 11
43.4527
 21
-122.047
 31
1.6
  0
CIRCLE
  5
E0A
330
A02
100
AcDbEntity
  8
Solid002
100
AcDbCircle
 10
119.515
 20
-147.97
 40
1.15
  0
LINE
  5
E0B
330
A02
100
AcDbEntity
  8
Solid002
100
AcDbLine
 10
120.665
 20
-147.97
 30
0
 11
120.665
 21
-147.97
 31
1.6
  0
CIRCLE
  5
E0C
330
A02
100
AcDbEntity
  8
Solid002
100
AcDbCircle
 10
119.515
 20
-147.97
 40
1.15
  0
LINE
  5
E0D
330
A02
100
AcDbEntity
  8
Solid002
100
AcDbLine
 10
120.665
 20
-147.97
 30
0
 11
120.665
 21
-147.97
 31
1.6
  0
CIRCLE
  5
E0E
330
A02
100
AcDbEntity
  8
Solid002
100
AcDbCircle
 10
82.1102
 20
-102.997
 40
21.0104
  0
LINE
  5
E0F
330
A02
100
AcDbEntity
  8
Solid002
100
AcDbLine
 10
103.121
 20
-102.997
 30
0
 11
103.121
 21
-102.997
 31
1.6
  0
CIRCLE
  5
E10
330
A02
100
AcDbEntity
  8
Solid002
100
AcDbCircle
 10
82.1102
 20
-102.997
 40
21.0104
  0
LINE
  5
E11
330
A02
100
AcDbEntity
  8
Solid002
100
AcDbLine
 10
103.121
 20
-102.997
 30
0
 11
103.121
 21
-102.997
 31
1.6
  0
CIRCLE
  5
E12
330
A02
100
AcDbEntity
  8
Solid002
100
AcDbCircle
 10
108.567
 20
-107.108
 40
1.15
  0
LINE
  5
E13
330
A02
100
AcDbEntity
  8
Solid002
100
AcDbLine
 10
109.717
 20
-107.108
 30
0
 11
109.717
 21
-107.108
 31
1.6
  0
CIRCLE
  5
E14
330
A02
100
AcDbEntity
  8
Solid002
100
AcDbCircle
 10
108.567
 20
-107.108
 40
1.15
  0
LINE
  5
E15
330
A02
100
AcDbEntity
  8
Solid002
100
AcDbLine
 10
109.717
 20
-107.108
 30
0
 11
109.717
 21
-107.108
 31
1.6
  0
CIRCLE
  5
E16
330
A02
100
AcDbEntity
  8
Solid002
100
AcDbCircle
 10
55.0017
 20
-45.8466
 40
1.15
  0
LINE
  5
E17
330
A02
100
AcDbEntity
  8
Solid002
100
AcDbLine
 10
56.1517
 20
-45.8466
 30
0
 11
56.1517
 21
-45.8466
 31
1.6
  0
CIRCLE
  5
E18
330
A02
100
AcDbEntity
  8
Solid002
100
AcDbCircle
 10
55.0017
 20
-45.8466
 40
1.15
  0
LINE
  5
E19
330
A02
100
AcDbEntity
  8
Solid002
100
AcDbLine
 10
56.1517
 20
-45.8466
 30
0
 11
56.1517
 21
-45.8466
 31
1.6
  0
CIRCLE
  5
E1A
330
A02
100
AcDbEntity
  8
Solid002
100
AcDbCircle
 10
75.9453
 20
-64.897
 40
1.15
  0
LINE
  5
E1B
330
A02
100
AcDbEntity
  8
Solid002
100
AcDbLine
 10
77.0953
 20
-64.897
 30
0
 11
77.0953
 21
-64.897
 31
1.6
  0
CIRCLE
  5
E1C
330
A02
100
AcDbEntity
  8
Solid002
100
AcDbCircle
 10
75.9453
 20
-64.897
 40
1.15
  0
LINE
  5
E1D
330
A02
100
AcDbEntity
  8
Solid002
100
AcDbLine
 10
77.0953
 20
-64.897
 30
0
 11
77.0953
 21
-64.897
 31
1.6
  0
CIRCLE
  5
E1E
330
A02
100
AcDbEntity
  8
Solid002
100
AcDbCircle
 10
95.0017
 20
-43.9466
 40
1.15
  0
LINE
  5
E1F
330
A02
100
AcDbEntity
  8
Solid002
100
AcDbLine
 10
96.1517
 20
-43.9466
 30
0
 11
96.1517
 21
-43.9466
 31
1.6
  0
CIRCLE
  5
E20
330
A02
100
AcDbEntity
  8
Solid002
100
AcDbCircle
 10
95.0017
 20
-43.9466
 40
1.15
  0
LINE
  5
E21
330
A02
100
AcDbEntity
  8
Solid002
100
AcDbLine
 10
96.1517
 20
-43.9466
 30
0
 11
96.1517
 21
-43.9466
 31
1.6
  0
LINE
  5
E22
330
A02
100
AcDbEntity
  8
Solid003
100
AcDbLine
 10
140.089
 20
-74.953
 30
0
 11
140.089
 21
-74.953
 31
1.6
  0
LINE
  5
E23
330
A02
100
AcDbEntity
  8
Solid003
100
AcDbLine
 10
140.089
 20
-74.953
 30
1.6
 11
140.089
 21
-73.9531
 31
1.6
  0
LINE
  5
E24
330
A02
100
AcDbEntity
  8
Solid003
100
AcDbLine
 10
140.089
 20
-73.9531
 30
0
 11
140.089
 21
-73.9531
 31
1.6
  0
LINE
  5
E25
330
A02
100
AcDbEntity
  8
Solid003
100
AcDbLine
 10
140.089
 20
-74.953
 30
0
 11
140.089
 21
-73.9531
 31
0
  0
ARC
  5
E26
330
A02
100
AcDbEntity
  8
Solid003
100
AcDbCircle
 10
139.089
 20
-74.953
 30
0
 40
1.00002
100
AcDbArc
 50
-89.9989
 51
-0.00114589
  0
LINE
  5
E27
330
A02
100
AcDbEntity
  8
Solid003
100
AcDbLine
 10
140.089
 20
-74.953
 30
0
 11
140.089
 21
-74.953
 31
1.6
  0
ARC
  5
E28
330
A02
100
AcDbEntity
  8
Solid003
100
AcDbCircle
 10
139.089
 20
-74.953
 30
1.6
 40
1.00002
100
AcDbArc
 50
-89.9989
 51
-0.00114589
  0
LINE
  5
E29
330
A02
100
AcDbEntity
  8
Solid003
100
AcDbLine
 10
139.089
 20
-75.953
 30
0
 11
139.089
 21
-75.953
 31
1.6
  0
ARC
  5
E2A
330
A02
100
AcDbEntity
  8
Solid003
100
AcDbCircle
 10
142.589
 20
-73.9529
 30
0
 40
2.49999
100
AcDbArc
 50
90
 51
-179.997
  0
LINE
  5
E2B
330
A02
100
AcDbEntity
  8
Solid003
100
AcDbLine
 10
140.089
 20
-73.9531
 30
0
 11
140.089
 21
-73.9531
 31
1.6
  0
ARC
  5
E2C
330
A02
100
AcDbEntity
  8
Solid003
100
AcDbCircle
 10
142.589
 20
-73.9529
 30
1.6
 40
2.49999
100
AcDbArc
 50
90
 51
-179.997
  0
LINE
  5
E2D
330
A02
100
AcDbEntity
  8
Solid003
100
AcDbLine
 10
142.589
 20
-71.4529
 30
0
 11
142.589
 21
-71.4529
 31
1.6
  0
LINE
  5
E2E
330
A02
100
AcDbEntity
  8
Solid003
100
AcDbLine
 10
140.089
 20
-74.953
 30
0
 11
140.089
 21
-73.9531
 31
0
  0
ARC
  5
E2F
330
A02
100
AcDbEntity
  8
Solid003
100
AcDbCircle
 10
142.589
 20
-73.9529
 30
0
 40
2.49999
100
AcDbArc
 50
90
 51
-179.997
  0
ARC
  5
E30
330
A02
100
AcDbEntity
  8
Solid003
100
AcDbCircle
 10
142.589
 20
-73.953
 30
0
 40
2.50006
100
AcDbArc
 50
0.00160424
 51
90.0016
  0
LINE
  5
E31
330
A02
100
AcDbEntity
  8
Solid003
100
AcDbLine
 10
145.089
 20
-73.9529
 30
0
 11
145.089
 21
-118.098
 31
0
  0
ARC
  5
E32
330
A02
100
AcDbEntity
  8
Solid003
100
AcDbCircle
 10
143.703
 20
-118.098
 30
0
 40
1.38564
100
AcDbArc
 50
-60
 51
0
  0
LINE
  5
E33
330
A02
100
AcDbEntity
  8
Solid003
100
AcDbLine
 10
144.396
 20
-119.298
 30
0
 11
134.022
 21
-125.287
 31
0
  0
ARC
  5
E34
330
A02
100
AcDbEntity
  8
Solid003
100
AcDbCircle
 10
132.772
 20
-123.122
 30
0
 40
2.50007
100
AcDbArc
 50
-149.998
 51
-59.9985
  0
LINE
  5
E35
330
A02
100
AcDbEntity
  8
Solid003
100
AcDbLine
 10
130.607
 20
-124.372
 30
0
 11
128.555
 21
-120.818
 31
0
  0
ARC
  5
E36
330
A02
100
AcDbEntity
  8
Solid003
100
AcDbCircle
 10
143.582
 20
-113.363
 30
0
 40
16.7746
100
AcDbArc
 50
-179.556
 51
-153.617
  0
LINE
  5
E37
330
A02
100
AcDbEntity
  8
Solid003
100
AcDbLine
 10
126.808
 20
-113.493
 30
0
 11
126.808
 21
-76.9528
 31
0
  0
ARC
  5
E38
330
A02
100
AcDbEntity
  8
Solid003
100
AcDbCircle
 10
127.808
 20
-76.9528
 30
0
 40
1.00001
100
AcDbArc
 50
90
 51
180
  0
LINE
  5
E39
330
A02
100
AcDbEntity
  8
Solid003
100
AcDbLine
 10
127.808
 20
-75.9528
 30
0
 11
139.089
 21
-75.953
 31
0
  0
ARC
  5
E3A
330
A02
100
AcDbEntity
  8
Solid003
100
AcDbCircle
 10
139.089
 20
-74.953
 30
0
 40
1.00002
100
AcDbArc
 50
-89.9989
 51
-0.00114589
  0
CIRCLE
  5
E3B
330
A02
100
AcDbEntity
  8
Solid003
100
AcDbCircle
 10
132.772
 20
-123.122
 40
1.15
  0
CIRCLE
  5
E3C
330
A02
100
AcDbEntity
  8
Solid003
100
AcDbCircle
 10
142.589
 20
-73.9531
 40
1.15
  0
LINE
  5
E3D
330
A02
100
AcDbEntity
  8
Solid003
100
AcDbLine
 10
140.089
 20
-74.953
 30
1.6
 11
140.089
 21
-73.9531
 31
1.6
  0
ARC
  5
E3E
330
A02
100
AcDbEntity
  8
Solid003
100
AcDbCircle
 10
142.589
 20
-73.9529
 30
1.6
 40
2.49999
100
AcDbArc
 50
90
 51
-179.997
  0
ARC
  5
E3F
330
A02
100
AcDbEntity
  8
Solid003
100
AcDbCircle
 10
142.589
 20
-73.953
 30
1.6
 40
2.50006
100
AcDbArc
 50
0.00160424
 51
90.0016
  0
LINE
  5
E40
330
A02
100
AcDbEntity
  8
Solid003
100
AcDbLine
 10
145.089
 20
-73.9529
 30
1.6
 11
145.089
 21
-118.098
 31
1.6
  0
ARC
  5
E41
330
A02
100
AcDbEntity
  8
Solid003
100
AcDbCircle
 10
143.703
 20
-118.098
 30
1.6
 40
1.38564
100
AcDbArc
 50
-60
 51
0
  0
LINE
  5
E42
330
A02
100
AcDbEntity
  8
Solid003
100
AcDbLine
 10
144.396
 20
-119.298
 30
1.6
 11
134.022
 21
-125.287
 31
1.6
  0
ARC
  5
E43
330
A02
100
AcDbEntity
  8
Solid003
100
AcDbCircle
 10
132.772
 20
-123.122
 30
1.6
 40
2.50007
100
AcDbArc
 50
-149.998
 51
-59.9985
  0
LINE
  5
E44
330
A02
100
AcDbEntity
  8
Solid003
100
AcDbLine
 10
130.607
 20
-124.372
 30
1.6
 11
128.555
 21
-120.818
 31
1.6
  0
ARC
  5
E45
330
A02
100
AcDbEntity
  8
Solid003
100
AcDbCircle
 10
143.582
 20
-113.363
 30
1.6
 40
16.7746
100
AcDbArc
 50
-179.556
 51
-153.617
  0
LINE
  5
E46
330
A02
100
AcDbEntity
  8
Solid003
100
AcDbLine
 10
126.808
 20
-113.493
 30
1.6
 11
126.808
 21
-76.9528
 31
1.6
  0
ARC
  5
E47
330
A02
100
AcDbEntity
  8
Solid003
100
AcDbCircle
 10
127.808
 20
-76.9528
 30
1.6
 40
1.00001
100
AcDbArc
 50
90
 51
180
  0
LINE
  5
E48
330
A02
100
AcDbEntity
  8
Solid003
100
AcDbLine
 10
127.808
 20
-75.9528
 30
1.6
 11
139.089
 21
-75.953
 31
1.6
  0
ARC
  5
E49
330
A02
100
AcDbEntity
  8
Solid003
100
AcDbCircle
 10
139.089
 20
-74.953
 30
1.6
 40
1.00002
100
AcDbArc
 50
-89.9989
 51
-0.00114589
  0
CIRCLE
  5
E4A
330
A02
100
AcDbEntity
  8
Solid003
100
AcDbCircle
 10
132.772
 20
-123.122
 40
1.15
  0
CIRCLE
  5
E4B
330
A02
100
AcDbEntity
  8
Solid003
100
AcDbCircle
 10
142.589
 20
-73.9531
 40
1.15
  0
LINE
  5
E4C
330
A02
100
AcDbEntity
  8
Solid003
100
AcDbLine
 10
127.808
 20
-75.9528
 30
0
 11
127.808
 21
-75.9528
 31
1.6
  0
LINE
  5
E4D
330
A02
100
AcDbEntity
  8
Solid003
100
AcDbLine
 10
127.808
 20
-75.9528
 30
1.6
 11
139.089
 21
-75.953
 31
1.6
  0
LINE
  5
E4E
330
A02
100
AcDbEntity
  8
Solid003
100
AcDbLine
 10
139.089
 20
-75.953
 30
0
 11
139.089
 21
-75.953
 31
1.6
  0
LINE
  5
E4F
330
A02
100
AcDbEntity
  8
Solid003
100
AcDbLine
 10
127.808
 20
-75.9528
 30
0
 11
139.089
 21
-75.953
 31
0
  0
ARC
  5
E50
330
A02
100
AcDbEntity
  8
Solid003
100
AcDbCircle
 10
142.589
 20
-73.953
 30
0
 40
2.50006
100
AcDbArc
 50
0.00160424
 51
90.0016
  0
LINE
  5
E51
330
A02
100
AcDbEntity
  8
Solid003
100
AcDbLine
 10
142.589
 20
-71.4529
 30
0
 11
142.589
 21
-71.4529
 31
1.6
  0
ARC
  5
E52
330
A02
100
AcDbEntity
  8
Solid003
100
AcDbCircle
 10
142.589
 20
-73.953
 30
1.6
 40
2.50006
100
AcDbArc
 50
0.00160424
 51
90.0016
  0
LINE
  5
E53
330
A02
100
AcDbEntity
  8
Solid003
100
AcDbLine
 10
145.089
 20
-73.9529
 30
0
 11
145.089
 21
-73.9529
 31
1.6
  0
ARC
  5
E54
330
A02
100
AcDbEntity
  8
Solid003
100
AcDbCircle
 10
127.808
 20
-76.9528
 30
0
 40
1.00001
100
AcDbArc
 50
90
 51
180
  0
LINE
  5
E55
330
A02
100
AcDbEntity
  8
Solid003
100
AcDbLine
 10
126.808
 20
-76.9528
 30
0
 11
126.808
 21
-76.9528
 31
1.6
  0
ARC
  5
E56
330
A02
100
AcDbEntity
  8
Solid003
100
AcDbCircle
 10
127.808
 20
-76.9528
 30
1.6
 40
1.00001
100
AcDbArc
 50
90
 51
180
  0
LINE
  5
E57
330
A02
100
AcDbEntity
  8
Solid003
100
AcDbLine
 10
127.808
 20
-75.9528
 30
0
 11
127.808
 21
-75.9528
 31
1.6
  0
LINE
  5
E58
330
A02
100
AcDbEntity
  8
Solid003
100
AcDbLine
 10
145.089
 20
-73.9529
 30
0
 11
145.089
 21
-73.9529
 31
1.6
  0
LINE
  5
E59
330
A02
100
AcDbEntity
  8
Solid003
100
AcDbLine
 10
145.089
 20
-73.9529
 30
1.6
 11
145.089
 21
-118.098
 31
1.6
  0
LINE
  5
E5A
330
A02
100
AcDbEntity
  8
Solid003
100
AcDbLine
 10
145.089
 20
-118.098
 30
0
 11
145.089
 21
-118.098
 31
1.6
  0
LINE
  5
E5B
330
A02
100
AcDbEntity
  8
Solid003
100
AcDbLine
 10
145.089
 20
-73.9529
 30
0
 11
145.089
 21
-118.098
 31
0
  0
LINE
  5
E5C
330
A02
100
AcDbEntity
  8
Solid003
100
AcDbLine
 10
126.808
 20
-113.493
 30
0
 11
126.808
 21
-113.493
 31
1.6
  0
LINE
  5
E5D
330
A02
100
AcDbEntity
  8
Solid003
100
AcDbLine
 10
126.808
 20
-113.493
 30
1.6
 11
126.808
 21
-76.9528
 31
1.6
  0
LINE
  5
E5E
330
A02
100
AcDbEntity
  8
Solid003
100
AcDbLine
 10
126.808
 20
-76.9528
 30
0
 11
126.808
 21
-76.9528
 31
1.6
  0
LINE
  5
E5F
330
A02
100
AcDbEntity
  8
Solid003
100
AcDbLine
 10
126.808
 20
-113.493
 30
0
 11
126.808
 21
-76.9528
 31
0
  0
ARC
  5
E60
330
A02
100
AcDbEntity
  8
Solid003
100
AcDbCircle
 10
143.703
 20
-118.098
 30
0
 40
1.38564
100
AcDbArc
 50
-60
 51
0
  0
LINE
  5
E61
330
A02
100
AcDbEntity
  8
Solid003
100
AcDbLine
 10
145.089
 20
-118.098
 30
0
 11
145.089
 21
-118.098
 31
1.6
  0
ARC
  5
E62
330
A02
100
AcDbEntity
  8
Solid003
100
AcDbCircle
 10
143.703
 20
-118.098
 30
1.6
 40
1.38564
100
AcDbArc
 50
-60
 51
0
  0
LINE
  5
E63
330
A02
100
AcDbEntity
  8
Solid003
100
AcDbLine
 10
144.396
 20
-119.298
 30
0
 11
144.396
 21
-119.298
 31
1.6
  0
ARC
  5
E64
330
A02
100
AcDbEntity
  8
Solid003
100
AcDbCircle
 10
143.582
 20
-113.363
 30
0
 40
16.7746
100
AcDbArc
 50
-179.556
 51
-153.617
  0
LINE
  5
E65
330
A02
100
AcDbEntity
  8
Solid003
100
AcDbLine
 10
128.555
 20
-120.818
 30
0
 11
128.555
 21
-120.818
 31
1.6
  0
ARC
  5
E66
330
A02
100
AcDbEntity
  8
Solid003
100
AcDbCircle
 10
143.582
 20
-113.363
 30
1.6
 40
16.7746
100
AcDbArc
 50
-179.556
 51
-153.617
  0
LINE
  5
E67
330
A02
100
AcDbEntity
  8
Solid003
100
AcDbLine
 10
126.808
 20
-113.493
 30
0
 11
126.808
 21
-113.493
 31
1.6
  0
LINE
  5
E68
330
A02
100
AcDbEntity
  8
Solid003
100
AcDbLine
 10
144.396
 20
-119.298
 30
0
 11
144.396
 21
-119.298
 31
1.6
  0
LINE
  5
E69
330
A02
100
AcDbEntity
  8
Solid003
100
AcDbLine
 10
144.396
 20
-119.298
 30
1.6
 11
134.022
 21
-125.287
 31
1.6
  0
LINE
  5
E6A
330
A02
100
AcDbEntity
  8
Solid003
100
AcDbLine
 10
134.022
 20
-125.287
 30
0
 11
134.022
 21
-125.287
 31
1.6
  0
LINE
  5
E6B
330
A02
100
AcDbEntity
  8
Solid003
100
AcDbLine
 10
144.396
 20
-119.298
 30
0
 11
134.022
 21
-125.287
 31
0
  0
LINE
  5
E6C
330
A02
100
AcDbEntity
  8
Solid003
100
AcDbLine
 10
130.607
 20
-124.372
 30
0
 11
130.607
 21
-124.372
 31
1.6
  0
LINE
  5
E6D
330
A02
100
AcDbEntity
  8
Solid003
100
AcDbLine
 10
130.607
 20
-124.372
 30
1.6
 11
128.555
 21
-120.818
 31
1.6
  0
LINE
  5
E6E
330
A02
100
AcDbEntity
  8
Solid003
100
AcDbLine
 10
128.555
 20
-120.818
 30
0
 11
128.555
 21
-120.818
 31
1.6
  0
LINE
  5
E6F
330
A02
100
AcDbEntity
  8
Solid003
100
AcDbLine
 10
130.607
 20
-124.372
 30
0
 11
128.555
 21
-120.818
 31
0
  0
ARC
  5
E70
330
A02
100
AcDbEntity
  8
Solid003
100
AcDbCircle
 10
132.772
 20
-123.122
 30
0
 40
2.50007
100
AcDbArc
 50
-149.998
 51
-59.9985
  0
LINE
  5
E71
330
A02
100
AcDbEntity
  8
Solid003
100
AcDbLine
 10
134.022
 20
-125.287
 30
0
 11
134.022
 21
-125.287
 31
1.6
  0
ARC
  5
E72
330
A02
100
AcDbEntity
  8
Solid003
100
AcDbCircle
 10
132.772
 20
-123.122
 30
1.6
 40
2.50007
100
AcDbArc
 50
-149.998
 51
-59.9985
  0
LINE
  5
E73
330
A02
100
AcDbEntity
  8
Solid003
100
AcDbLine
 10
130.607
 20
-124.372
 30
0
 11
130.607
 21
-124.372
 31
1.6
  0
CIRCLE
  5
E74
330
A02
100
AcDbEntity
  8
Solid003
100
AcDbCircle
 10
132.772
 20
-123.122
 40
1.15
  0
LINE
  5
E75
330
A02
100
AcDbEntity
  8
Solid003
100
AcDbLine
 10
133.922
 20
-123.122
 30
0
 11
133.922
 21
-123.122
 31
1.6
  0
CIRCLE
  5
E76
330
A02
100
AcDbEntity
  8
Solid003
100
AcDbCircle
 10
132.772
 20
-123.122
 40
1.15
  0
LINE
  5
E77
330
A02
100
AcDbEntity
  8
Solid003
100
AcDbLine
 10
133.922
 20
-123.122
 30
0
 11
133.922
 21
-123.122
 31
1.6
  0
CIRCLE
  5
E78
330
A02
100
AcDbEntity
  8
Solid003
100
AcDbCircle
 10
142.589
 20
-73.9531
 40
1.15
  0
LINE
  5
E79
330
A02
100
AcDbEntity
  8
Solid003
100
AcDbLine
 10
143.739
 20
-73.9531
 30
0
 11
143.739
 21
-73.9531
 31
1.6
  0
CIRCLE
  5
E7A
330
A02
100
AcDbEntity
  8
Solid003
100
AcDbCircle
 10
142.589
 20
-73.9531
 40
1.15
  0
LINE
  5
E7B
330
A02
100
AcDbEntity
  8
Solid003
100
AcDbLine
 10
143.739
 20
-73.9531
 30
0
 11
143.739
 21
-73.9531
 31
1.6
  0
ARC
  5
E7C
330
A02
100
AcDbEntity
  8
Solid004
100
AcDbCircle
 10
149.992
 20
-113.512
 30
0
 40
16.7742
100
AcDbArc
 50
-26.3834
 51
-0.443682
  0
LINE
  5
E7D
330
A02
100
AcDbEntity
  8
Solid004
100
AcDbLine
 10
166.766
 20
-113.642
 30
0
 11
166.766
 21
-113.642
 31
1.6
  0
ARC
  5
E7E
330
A02
100
AcDbEntity
  8
Solid004
100
AcDbCircle
 10
149.992
 20
-113.512
 30
1.6
 40
16.7742
100
AcDbArc
 50
-26.3834
 51
-0.443682
  0
LINE
  5
E7F
330
A02
100
AcDbEntity
  8
Solid004
100
AcDbLine
 10
165.019
 20
-120.966
 30
0
 11
165.019
 21
-120.966
 31
1.6
  0
LINE
  5
E80
330
A02
100
AcDbEntity
  8
Solid004
100
AcDbLine
 10
165.019
 20
-120.966
 30
0
 11
165.019
 21
-120.966
 31
1.6
  0
LINE
  5
E81
330
A02
100
AcDbEntity
  8
Solid004
100
AcDbLine
 10
165.019
 20
-120.966
 30
1.6
 11
162.967
 21
-124.521
 31
1.6
  0
LINE
  5
E82
330
A02
100
AcDbEntity
  8
Solid004
100
AcDbLine
 10
162.967
 20
-124.521
 30
0
 11
162.967
 21
-124.521
 31
1.6
  0
LINE
  5
E83
330
A02
100
AcDbEntity
  8
Solid004
100
AcDbLine
 10
165.019
 20
-120.966
 30
0
 11
162.967
 21
-124.521
 31
0
  0
LINE
  5
E84
330
A02
100
AcDbEntity
  8
Solid004
100
AcDbLine
 10
166.766
 20
-77.1017
 30
0
 11
166.766
 21
-77.1017
 31
1.6
  0
LINE
  5
E85
330
A02
100
AcDbEntity
  8
Solid004
100
AcDbLine
 10
166.766
 20
-77.1017
 30
1.6
 11
166.766
 21
-113.642
 31
1.6
  0
LINE
  5
E86
330
A02
100
AcDbEntity
  8
Solid004
100
AcDbLine
 10
166.766
 20
-113.642
 30
0
 11
166.766
 21
-113.642
 31
1.6
  0
LINE
  5
E87
330
A02
100
AcDbEntity
  8
Solid004
100
AcDbLine
 10
166.766
 20
-77.1017
 30
0
 11
166.766
 21
-113.642
 31
0
  0
ARC
  5
E88
330
A02
100
AcDbEntity
  8
Solid004
100
AcDbCircle
 10
149.992
 20
-113.512
 30
0
 40
16.7742
100
AcDbArc
 50
-26.3834
 51
-0.443682
  0
LINE
  5
E89
330
A02
100
AcDbEntity
  8
Solid004
100
AcDbLine
 10
166.766
 20
-77.1017
 30
0
 11
166.766
 21
-113.642
 31
0
  0
ARC
  5
E8A
330
A02
100
AcDbEntity
  8
Solid004
100
AcDbCircle
 10
165.766
 20
-77.1017
 30
0
 40
1.00001
100
AcDbArc
 50
0.0011459
 51
89.9994
  0
LINE
  5
E8B
330
A02
100
AcDbEntity
  8
Solid004
100
AcDbLine
 10
154.485
 20
-76.1019
 30
0
 11
165.766
 21
-76.1017
 31
0
  0
ARC
  5
E8C
330
A02
100
AcDbEntity
  8
Solid004
100
AcDbCircle
 10
154.485
 20
-75.1019
 30
0
 40
1.00001
100
AcDbArc
 50
-179.999
 51
-90
  0
LINE
  5
E8D
330
A02
100
AcDbEntity
  8
Solid004
100
AcDbLine
 10
153.485
 20
-74.102
 30
0
 11
153.485
 21
-75.1019
 31
0
  0
ARC
  5
E8E
330
A02
100
AcDbEntity
  8
Solid004
100
AcDbCircle
 10
150.985
 20
-74.1018
 30
0
 40
2.49999
100
AcDbArc
 50
-0.00343776
 51
90
  0
ARC
  5
E8F
330
A02
100
AcDbEntity
  8
Solid004
100
AcDbCircle
 10
150.985
 20
-74.1019
 30
0
 40
2.50006
100
AcDbArc
 50
89.9984
 51
179.999
  0
LINE
  5
E90
330
A02
100
AcDbEntity
  8
Solid004
100
AcDbLine
 10
148.485
 20
-118.247
 30
0
 11
148.485
 21
-74.1018
 31
0
  0
ARC
  5
E91
330
A02
100
AcDbEntity
  8
Solid004
100
AcDbCircle
 10
149.871
 20
-118.247
 30
0
 40
1.38564
100
AcDbArc
 50
180
 51
-120
  0
LINE
  5
E92
330
A02
100
AcDbEntity
  8
Solid004
100
AcDbLine
 10
159.552
 20
-125.436
 30
0
 11
149.178
 21
-119.447
 31
0
  0
ARC
  5
E93
330
A02
100
AcDbEntity
  8
Solid004
100
AcDbCircle
 10
160.802
 20
-123.271
 30
0
 40
2.50006
100
AcDbArc
 50
-120.002
 51
-30.0016
  0
LINE
  5
E94
330
A02
100
AcDbEntity
  8
Solid004
100
AcDbLine
 10
165.019
 20
-120.966
 30
0
 11
162.967
 21
-124.521
 31
0
  0
CIRCLE
  5
E95
330
A02
100
AcDbEntity
  8
Solid004
100
AcDbCircle
 10
160.801
 20
-123.271
 40
1.15
  0
CIRCLE
  5
E96
330
A02
100
AcDbEntity
  8
Solid004
100
AcDbCircle
 10
150.985
 20
-74.102
 40
1.15
  0
ARC
  5
E97
330
A02
100
AcDbEntity
  8
Solid004
100
AcDbCircle
 10
149.992
 20
-113.512
 30
1.6
 40
16.7742
100
AcDbArc
 50
-26.3834
 51
-0.443682
  0
LINE
  5
E98
330
A02
100
AcDbEntity
  8
Solid004
100
AcDbLine
 10
166.766
 20
-77.1017
 30
1.6
 11
166.766
 21
-113.642
 31
1.6
  0
ARC
  5
E99
330
A02
100
AcDbEntity
  8
Solid004
100
AcDbCircle
 10
165.766
 20
-77.1017
 30
1.6
 40
1.00001
100
AcDbArc
 50
0.0011459
 51
89.9994
  0
LINE
  5
E9A
330
A02
100
AcDbEntity
  8
Solid004
100
AcDbLine
 10
154.485
 20
-76.1019
 30
1.6
 11
165.766
 21
-76.1017
 31
1.6
  0
ARC
  5
E9B
330
A02
100
AcDbEntity
  8
Solid004
100
AcDbCircle
 10
154.485
 20
-75.1019
 30
1.6
 40
1.00001
100
AcDbArc
 50
-179.999
 51
-90
  0
LINE
  5
E9C
330
A02
100
AcDbEntity
  8
Solid004
100
AcDbLine
 10
153.485
 20
-74.102
 30
1.6
 11
153.485
 21
-75.1019
 31
1.6
  0
ARC
  5
E9D
330
A02
100
AcDbEntity
  8
Solid004
100
AcDbCircle
 10
150.985
 20
-74.1018
 30
1.6
 40
2.49999
100
AcDbArc
 50
-0.00343776
 51
90
  0
ARC
  5
E9E
330
A02
100
AcDbEntity
  8
Solid004
100
AcDbCircle
 10
150.985
 20
-74.1019
 30
1.6
 40
2.50006
100
AcDbArc
 50
89.9984
 51
179.999
  0
LINE
  5
E9F
330
A02
100
AcDbEntity
  8
Solid004
100
AcDbLine
 10
148.485
 20
-118.247
 30
1.6
 11
148.485
 21
-74.1018
 31
1.6
  0
ARC
  5
EA0
330
A02
100
AcDbEntity
  8
Solid004
100
AcDbCircle
 10
149.871
 20
-118.247
 30
1.6
 40
1.38564
100
AcDbArc
 50
180
 51
-120
  0
LINE
  5
EA1
330
A02
100
AcDbEntity
  8
Solid004
100
AcDbLine
 10
159.552
 20
-125.436
 30
1.6
 11
149.178
 21
-119.447
 31
1.6
  0
ARC
  5
EA2
330
A02
100
AcDbEntity
  8
Solid004
100
AcDbCircle
 10
160.802
 20
-123.271
 30
1.6
 40
2.50006
100
AcDbArc
 50
-120.002
 51
-30.0016
  0
LINE
  5
EA3
330
A02
100
AcDbEntity
  8
Solid004
100
AcDbLine
 10
165.019
 20
-120.966
 30
1.6
 11
162.967
 21
-124.521
 31
1.6
  0
CIRCLE
  5
EA4
330
A02
100
AcDbEntity
  8
Solid004
100
AcDbCircle
 10
160.801
 20
-123.271
 40
1.15
  0
CIRCLE
  5
EA5
330
A02
100
AcDbEntity
  8
Solid004
100
AcDbCircle
 10
150.985
 20
-74.102
 40
1.15
  0
ARC
  5
EA6
330
A02
100
AcDbEntity
  8
Solid004
100
AcDbCircle
 10
160.802
 20
-123.271
 30
0
 40
2.50006
100
AcDbArc
 50
-120.002
 51
-30.0016
  0
LINE
  5
EA7
330
A02
100
AcDbEntity
  8
Solid004
100
AcDbLine
 10
162.967
 20
-124.521
 30
0
 11
162.967
 21
-124.521
 31
1.6
  0
ARC
  5
EA8
330
A02
100
AcDbEntity
  8
Solid004
100
AcDbCircle
 10
160.802
 20
-123.271
 30
1.6
 40
2.50006
100
AcDbArc
 50
-120.002
 51
-30.0016
  0
LINE
  5
EA9
330
A02
100
AcDbEntity
  8
Solid004
100
AcDbLine
 10
159.552
 20
-125.436
 30
0
 11
159.552
 21
-125.436
 31
1.6
  0
ARC
  5
EAA
330
A02
100
AcDbEntity
  8
Solid004
100
AcDbCircle
 10
165.766
 20
-77.1017
 30
0
 40
1.00001
100
AcDbArc
 50
0.0011459
 51
89.9994
  0
LINE
  5
EAB
330
A02
100
AcDbEntity
  8
Solid004
100
AcDbLine
 10
165.766
 20
-76.1017
 30
0
 11
165.766
 21
-76.1017
 31
1.6
  0
ARC
  5
EAC
330
A02
100
AcDbEntity
  8
Solid004
100
AcDbCircle
 10
165.766
 20
-77.1017
 30
1.6
 40
1.00001
100
AcDbArc
 50
0.0011459
 51
89.9994
  0
LINE
  5
EAD
330
A02
100
AcDbEntity
  8
Solid004
100
AcDbLine
 10
166.766
 20
-77.1017
 30
0
 11
166.766
 21
-77.1017
 31
1.6
  0
LINE
  5
EAE
330
A02
100
AcDbEntity
  8
Solid004
100
AcDbLine
 10
159.552
 20
-125.436
 30
0
 11
159.552
 21
-125.436
 31
1.6
  0
LINE
  5
EAF
330
A02
100
AcDbEntity
  8
Solid004
100
AcDbLine
 10
159.552
 20
-125.436
 30
1.6
 11
149.178
 21
-119.447
 31
1.6
  0
LINE
  5
EB0
330
A02
100
AcDbEntity
  8
Solid004
100
AcDbLine
 10
149.178
 20
-119.447
 30
0
 11
149.178
 21
-119.447
 31
1.6
  0
LINE
  5
EB1
330
A02
100
AcDbEntity
  8
Solid004
100
AcDbLine
 10
159.552
 20
-125.436
 30
0
 11
149.178
 21
-119.447
 31
0
  0
LINE
  5
EB2
330
A02
100
AcDbEntity
  8
Solid004
100
AcDbLine
 10
154.485
 20
-76.1019
 30
0
 11
154.485
 21
-76.1019
 31
1.6
  0
LINE
  5
EB3
330
A02
100
AcDbEntity
  8
Solid004
100
AcDbLine
 10
154.485
 20
-76.1019
 30
1.6
 11
165.766
 21
-76.1017
 31
1.6
  0
LINE
  5
EB4
330
A02
100
AcDbEntity
  8
Solid004
100
AcDbLine
 10
165.766
 20
-76.1017
 30
0
 11
165.766
 21
-76.1017
 31
1.6
  0
LINE
  5
EB5
330
A02
100
AcDbEntity
  8
Solid004
100
AcDbLine
 10
154.485
 20
-76.1019
 30
0
 11
165.766
 21
-76.1017
 31
0
  0
ARC
  5
EB6
330
A02
100
AcDbEntity
  8
Solid004
100
AcDbCircle
 10
149.871
 20
-118.247
 30
0
 40
1.38564
100
AcDbArc
 50
180
 51
-120
  0
LINE
  5
EB7
330
A02
100
AcDbEntity
  8
Solid004
100
AcDbLine
 10
149.178
 20
-119.447
 30
0
 11
149.178
 21
-119.447
 31
1.6
  0
ARC
  5
EB8
330
A02
100
AcDbEntity
  8
Solid004
100
AcDbCircle
 10
149.871
 20
-118.247
 30
1.6
 40
1.38564
100
AcDbArc
 50
180
 51
-120
  0
LINE
  5
EB9
330
A02
100
AcDbEntity
  8
Solid004
100
AcDbLine
 10
148.485
 20
-118.247
 30
0
 11
148.485
 21
-118.247
 31
1.6
  0
ARC
  5
EBA
330
A02
100
AcDbEntity
  8
Solid004
100
AcDbCircle
 10
154.485
 20
-75.1019
 30
0
 40
1.00001
100
AcDbArc
 50
-179.999
 51
-90
  0
LINE
  5
EBB
330
A02
100
AcDbEntity
  8
Solid004
100
AcDbLine
 10
154.485
 20
-76.1019
 30
0
 11
154.485
 21
-76.1019
 31
1.6
  0
ARC
  5
EBC
330
A02
100
AcDbEntity
  8
Solid004
100
AcDbCircle
 10
154.485
 20
-75.1019
 30
1.6
 40
1.00001
100
AcDbArc
 50
-179.999
 51
-90
  0
LINE
  5
EBD
330
A02
100
AcDbEntity
  8
Solid004
100
AcDbLine
 10
153.485
 20
-75.1019
 30
0
 11
153.485
 21
-75.1019
 31
1.6
  0
LINE
  5
EBE
330
A02
100
AcDbEntity
  8
Solid004
100
AcDbLine
 10
148.485
 20
-118.247
 30
0
 11
148.485
 21
-118.247
 31
1.6
  0
LINE
  5
EBF
330
A02
100
AcDbEntity
  8
Solid004
100
AcDbLine
 10
148.485
 20
-118.247
 30
1.6
 11
148.485
 21
-74.1018
 31
1.6
  0
LINE
  5
EC0
330
A02
100
AcDbEntity
  8
Solid004
100
AcDbLine
 10
148.485
 20
-74.1018
 30
0
 11
148.485
 21
-74.1018
 31
1.6
  0
LINE
  5
EC1
330
A02
100
AcDbEntity
  8
Solid004
100
AcDbLine
 10
148.485
 20
-118.247
 30
0
 11
148.485
 21
-74.1018
 31
0
  0
LINE
  5
EC2
330
A02
100
AcDbEntity
  8
Solid004
100
AcDbLine
 10
153.485
 20
-74.102
 30
0
 11
153.485
 21
-74.102
 31
1.6
  0
LINE
  5
EC3
330
A02
100
AcDbEntity
  8
Solid004
100
AcDbLine
 10
153.485
 20
-74.102
 30
1.6
 11
153.485
 21
-75.1019
 31
1.6
  0
LINE
  5
EC4
330
A02
100
AcDbEntity
  8
Solid004
100
AcDbLine
 10
153.485
 20
-75.1019
 30
0
 11
153.485
 21
-75.1019
 31
1.6
  0
LINE
  5
EC5
330
A02
100
AcDbEntity
  8
Solid004
100
AcDbLine
 10
153.485
 20
-74.102
 30
0
 11
153.485
 21
-75.1019
 31
0
  0
ARC
  5
EC6
330
A02
100
AcDbEntity
  8
Solid004
100
AcDbCircle
 10
150.985
 20
-74.1019
 30
0
 40
2.50006
100
AcDbArc
 50
89.9984
 51
179.999
  0
LINE
  5
EC7
330
A02
100
AcDbEntity
  8
Solid004
100
AcDbLine
 10
148.485
 20
-74.1018
 30
0
 11
148.485
 21
-74.1018
 31
1.6
  0
ARC
  5
EC8
330
A02
100
AcDbEntity
  8
Solid004
100
AcDbCircle
 10
150.985
 20
-74.1019
 30
1.6
 40
2.50006
100
AcDbArc
 50
89.9984
 51
179.999
  0
LINE
  5
EC9
330
A02
100
AcDbEntity
  8
Solid004
100
AcDbLine
 10
150.985
 20
-71.6018
 30
0
 11
150.985
 21
-71.6018
 31
1.6
  0
ARC
  5
ECA
330
A02
100
AcDbEntity
  8
Solid004
100
AcDbCircle
 10
150.985
 20
-74.1018
 30
0
 40
2.49999
100
AcDbArc
 50
-0.00343776
 51
90
  0
LINE
  5
ECB
330
A02
100
AcDbEntity
  8
Solid004
100
AcDbLine
 10
150.985
 20
-71.6018
 30
0
 11
150.985
 21
-71.6018
 31
1.6
  0
ARC
  5
ECC
330
A02
100
AcDbEntity
  8
Solid004
100
AcDbCircle
 10
150.985
 20
-74.1018
 30
1.6
 40
2.49999
100
AcDbArc
 50
-0.00343776
 51
90
  0
LINE
  5
ECD
330
A02
100
AcDbEntity
  8
Solid004
100
AcDbLine
 10
153.485
 20
-74.102
 30
0
 11
153.485
 21
-74.102
 31
1.6
  0
CIRCLE
  5
ECE
330
A02
100
AcDbEntity
  8
Solid004
100
AcDbCircle
 10
160.801
 20
-123.271
 40
1.15
  0
LINE
  5
ECF
330
A02
100
AcDbEntity
  8
Solid004
100
AcDbLine
 10
161.951
 20
-123.271
 30
0
 11
161.951
 21
-123.271
 31
1.6
  0
CIRCLE
  5
ED0
330
A02
100
AcDbEntity
  8
Solid004
100
AcDbCircle
 10
160.801
 20
-123.271
 40
1.15
  0
LINE
  5
ED1
330
A02
100
AcDbEntity
  8
Solid004
100
AcDbLine
 10
161.951
 20
-123.271
 30
0
 11
161.951
 21
-123.271
 31
1.6
  0
CIRCLE
  5
ED2
330
A02
100
AcDbEntity
  8
Solid004
100
AcDbCircle
 10
150.985
 20
-74.102
 40
1.15
  0
LINE
  5
ED3
330
A02
100
AcDbEntity
  8
Solid004
100
AcDbLine
 10
152.135
 20
-74.102
 30
0
 11
152.135
 21
-74.102
 31
1.6
  0
CIRCLE
  5
ED4
330
A02
100
AcDbEntity
  8
Solid004
100
AcDbCircle
 10
150.985
 20
-74.102
 40
1.15
  0
LINE
  5
ED5
330
A02
100
AcDbEntity
  8
Solid004
100
AcDbLine
 10
152.135
 20
-74.102
 30
0
 11
152.135
 21
-74.102
 31
1.6
  0
ENDSEC
  0
SECTION
  2
OBJECTS
  0
DICTIONARY
  5
F000
330
0
100
AcDbDictionary
  3
ACAD_GROUP
350
F001
  0
DICTIONARY
  5
F001
330
F000
100
AcDbDictionary
  0
ENDSEC
  0
EOF