999
FreeCAD v0.19 14555 (Git shallow)
  0
SECTION
  2
HEADER
  9
$ACADVER
  1
AC1014
  9
$ACADMAINTVER
 70
     9
  9
$DWGCODEPAGE
  3
ANSI_1252
  9
$TEXTSTYLE
  7
STANDARD
  9
$DIMSTYLE
  2
STANDARD
  9
$DIMTXSTY
  7
STANDARD
  9
$CMLSTYLE
  2
STANDARD
  9
$PEXTMAX
 10
50
 20
50
 30
50
  9
$PEXTMIN
 10
0
 20
0
 30
0
  9
$HANDSEED
  5
FFFF
  0
ENDSEC
  0
SECTION
  2
CLASSES
  0
CLASS
  1
ACDBDICTIONARYWDFLT
  2
AcDbDictionaryWithDefault
  3
ObjectDBX Classes
 90
        0
280
     0
281
     0
  0
CLASS
  1
XRECORD
  2
AcDbXrecord
  3
ObjectDBX Classes
 90
        0
280
     0
281
     0
  0
CLASS
  1
LWPOLYLINE
  2
AcDbPolyline
  3
ObjectDBX Classes
 90
        0
280
     0
281
     1
  0
ENDSEC
  0
SECTION
  2
TABLES
  0
TABLE
  2
VPORT
  5
20
330
0
100
AcDbSymbolTable
 70
     1
  0
VPORT
  5
21
330
20
100
AcDbSymbolTableRecord
100
AcDbViewportTableRecord
  2
*ACTIVE
 70
     0
  0
ENDTAB
  0
TABLE
  2
LTYPE
  5
22
330
0
100
AcDbSymbolTable
 70
     1
  0
LTYPE
  5
23
330
21
100
AcDbSymbolTableRecord
100
AcDbLinetypeTableRecord
  2
BYBLOCK
 70
     0
  3

 72
    65
 73
     0
 40
0.0
  0
LTYPE
  5
24
330
21
100
AcDbSymbolTableRecord
100
AcDbLinetypeTableRecord
  2
BYLAYER
 70
     0
  3

 72
    65
 73
     0
 40
0.0
  0
LTYPE
  5
25
330
21
100
AcDbSymbolTableRecord
100
AcDbLinetypeTableRecord
  2
CONTINUOUS
 70
     0
  3
Solid line
 72
    65
 73
     0
 40
0.0
  0
ENDTAB
  0
TABLE
  2
LAYER
  5
D56
330
0
100
AcDbSymbolTable
 70
3
  0
LAYER
  5
D57
330
D56
100
AcDbSymbolTableRecord
100
AcDbLayerTableRecord
  2
0
 70
   0
 62
   7
  6
CONTINUOUS
  0
LAYER
  5
D58
330
D56
100
AcDbSymbolTableRecord
100
AcDbLayerTableRecord
  2
none
 70
    0
 62
    7
  6
CONTINUOUS
  0
LAYER
  5
D59
330
D56
100
AcDbSymbolTableRecord
100
AcDbLayerTableRecord
  2
Solid
 70
    0
 62
    7
  6
CONTINUOUS
  0
ENDTAB
  0
TABLE
  2
STYLE
  5
70
330
0
100
AcDbSymbolTable
 70
     2
  0
STYLE
  5
71
330
70
100
AcDbSymbolTableRecord
100
AcDbTextStyleTableRecord
  2
STANDARD
 70
     0
 40
0.0
 41
1.0
 50
0.0
 71
     0
 42
2.5
  3
arial.ttf
  4

  0
STYLE
  5
72
330
70
100
AcDbSymbolTableRecord
100
AcDbTextStyleTableRecord
  2
ANNOTATIVE
 70
     0
 40
0.0
 41
1.0
 50
0.0
 71
     0
 42
2.5
  3
arial.ttf
  4

  0
ENDTAB
  0
TABLE
  2
VIEW
  5
73
330
0
100
AcDbSymbolTable
 70
     0
  0
ENDTAB
  0
TABLE
  2
UCS
  5
74
330
0
100
AcDbSymbolTable
 70
     0
  0
ENDTAB
  0
TABLE
  2
APPID
  5
75
330
0
100
AcDbSymbolTable
 70
     2
  0
APPID
  5
76
330
75
100
AcDbSymbolTableRecord
100
AcDbRegAppTableRecord
  2
ACAD
 70
     0
  0
APPID
  5
77
330
75
100
AcDbSymbolTableRecord
100
AcDbRegAppTableRecord
  2
ACADANNOTATIVE
 70
     0
  0
ENDTAB
  0
TABLE
  2
DIMSTYLE
  5
78
330
0
100
AcDbSymbolTable
 70
     2
  0
DIMSTYLE
105
79
330
78
100
AcDbSymbolTableRecord
100
AcDbDimStyleTableRecord
  2
STANDARD
 70
     0
  3

  4

  5

  6

  7

 40
0.0
 41
2.5
 42
0.625
 43
3.75
 44
1.25
 45
0.0
 46
0.0
 47
0.0
 48
0.0
140
2.5
141
2.5
142
0.0
143
0.03937007874016
144
1.0
145
0.0
146
1.0
147
0.625
 71
     0
 72
     0
 73
     0
 74
     0
 75
     0
 76
     0
 77
     1
 78
     8
170
     0
171
     3
172
     1
173
     0
174
     0
175
     0
176
     0
177
     0
178
     0
270
     2
271
     2
272
     2
273
     2
274
     3
340
71
275
     0
280
     0
281
     0
282
     0
283
     0
284
     8
285
     0
286
     0
287
     3
288
     0
  0
ENDTAB
  0
TABLE
  2
BLOCK_RECORD
  5
A01
330
0
100
AcDbSymbolTable
  70
5
  0
BLOCK_RECORD
  5
A02
330
A01
100
AcDbSymbolTableRecord
100
AcDbBlockTableRecord
  2
*MODEL_SPACE
  0
BLOCK_RECORD
  5
A03
330
A01
100
AcDbSymbolTableRecord
100
AcDbBlockTableRecord
  2
*PAPER_SPACE
  0
ENDTAB
  0
ENDSEC
  0
SECTION
  2
BLOCKS
  0
BLOCK
  5
A04
330
A02
100
AcDbEntity
  8
0
100
AcDbBlockBegin
  2
*MODEL_SPACE
 70
   0
 10
0
 20
0
 30
0
  3
*MODEL_SPACE
  1
 
  0
ENDBLK
  5
A05
330
A02
100
AcDbEntity
  8
0
100
AcDbBlockEnd
  0
BLOCK
  5
A06
330
A03
100
AcDbEntity
 67
1
  8
0
100
AcDbBlockBegin
  2
*PAPER_SPACE
 70
   0
 10
0
 20
0
 30
0
  3
*PAPER_SPACE
  1
 
  0
ENDBLK
  5
A07
330
A03
100
AcDbEntity
 67
    1
  8
0
100
AcDbBlockEnd
  0
ENDSEC
  0
SECTION
  2
ENTITIES
  0
ARC
  5
A08
330
A02
100
AcDbEntity
  8
Solid
100
AcDbCircle
 10
75.7453
 20
-139.681
 30
0
 40
0.999983
100
AcDbArc
 50
-170
 51
-79.9995
  0
LINE
  5
A09
330
A02
100
AcDbEntity
  8
Solid
100
AcDbLine
 10
75.919
 20
-140.666
 30
0
 11
75.919
 21
-140.666
 31
1.6
  0
ARC
  5
A0A
330
A02
100
AcDbEntity
  8
Solid
100
AcDbCircle
 10
75.7453
 20
-139.681
 30
1.6
 40
0.999983
100
AcDbArc
 50
-170
 51
-79.9995
  0
LINE
  5
A0B
330
A02
100
AcDbEntity
  8
Solid
100
AcDbLine
 10
74.7605
 20
-139.855
 30
0
 11
74.7605
 21
-139.855
 31
1.6
  0
LINE
  5
A0C
330
A02
100
AcDbEntity
  8
Solid
100
AcDbLine
 10
74.7605
 20
-139.855
 30
0
 11
74.7605
 21
-139.855
 31
1.6
  0
LINE
  5
A0D
330
A02
100
AcDbEntity
  8
Solid
100
AcDbLine
 10
74.7605
 20
-139.855
 30
1.6
 11
73.7242
 21
-133.977
 31
1.6
  0
LINE
  5
A0E
330
A02
100
AcDbEntity
  8
Solid
100
AcDbLine
 10
73.7242
 20
-133.977
 30
0
 11
73.7242
 21
-133.977
 31
1.6
  0
LINE
  5
A0F
330
A02
100
AcDbEntity
  8
Solid
100
AcDbLine
 10
74.7605
 20
-139.855
 30
0
 11
73.7242
 21
-133.977
 31
0
  0
LINE
  5
A10
330
A02
100
AcDbEntity
  8
Solid
100
AcDbLine
 10
83.8201
 20
-139.273
 30
0
 11
83.8201
 21
-139.273
 31
1.6
  0
LINE
  5
A11
330
A02
100
AcDbEntity
  8
Solid
100
AcDbLine
 10
83.8201
 20
-139.273
 30
1.6
 11
75.919
 21
-140.666
 31
1.6
  0
LINE
  5
A12
330
A02
100
AcDbEntity
  8
Solid
100
AcDbLine
 10
75.919
 20
-140.666
 30
0
 11
75.919
 21
-140.666
 31
1.6
  0
LINE
  5
A13
330
A02
100
AcDbEntity
  8
Solid
100
AcDbLine
 10
83.8201
 20
-139.273
 30
0
 11
75.919
 21
-140.666
 31
0
  0
ARC
  5
A14
330
A02
100
AcDbEntity
  8
Solid
100
AcDbCircle
 10
75.7453
 20
-139.681
 30
0
 40
0.999983
100
AcDbArc
 50
-170
 51
-79.9995
  0
LINE
  5
A15
330
A02
100
AcDbEntity
  8
Solid
100
AcDbLine
 10
83.8201
 20
-139.273
 30
0
 11
75.919
 21
-140.666
 31
0
  0
ARC
  5
A16
330
A02
100
AcDbEntity
  8
Solid
100
AcDbCircle
 10
102.813
 20
-246.984
 30
0
 40
109.373
100
AcDbArc
 50
60.0004
 51
100
  0
LINE
  5
A17
330
A02
100
AcDbEntity
  8
Solid
100
AcDbLine
 10
164.45
 20
-156.276
 30
0
 11
157.499
 21
-152.264
 31
0
  0
ARC
  5
A18
330
A02
100
AcDbEntity
  8
Solid
100
AcDbCircle
 10
164.95
 20
-155.41
 30
0
 40
1.00001
100
AcDbArc
 50
-120
 51
-30.0008
  0
LINE
  5
A19
330
A02
100
AcDbEntity
  8
Solid
100
AcDbLine
 10
174.091
 20
-141.577
 30
0
 11
165.816
 21
-155.91
 31
0
  0
ARC
  5
A1A
330
A02
100
AcDbEntity
  8
Solid
100
AcDbCircle
 10
173.225
 20
-141.077
 30
0
 40
1
100
AcDbArc
 50
-30.0007
 51
59.9992
  0
LINE
  5
A1B
330
A02
100
AcDbEntity
  8
Solid
100
AcDbLine
 10
166.774
 20
-136.199
 30
0
 11
173.725
 21
-140.211
 31
0
  0
ARC
  5
A1C
330
A02
100
AcDbEntity
  8
Solid
100
AcDbCircle
 10
102.693
 20
-247.337
 30
0
 40
128.289
100
AcDbArc
 50
60.0325
 51
69.8324
  0
LINE
  5
A1D
330
A02
100
AcDbEntity
  8
Solid
100
AcDbLine
 10
146.923
 20
-46.894
 30
0
 11
146.923
 21
-126.913
 31
0
  0
ARC
  5
A1E
330
A02
100
AcDbEntity
  8
Solid
100
AcDbCircle
 10
145.739
 20
-46.8948
 30
0
 40
1.18405
100
AcDbArc
 50
0.0387117
 51
66.4403
  0
ARC
  5
A1F
330
A02
100
AcDbEntity
  8
Solid
100
AcDbCircle
 10
99.8188
 20
-149.094
 30
0
 40
113.226
100
AcDbArc
 50
65.8116
 51
90.0116
  0
ARC
  5
A20
330
A02
100
AcDbEntity
  8
Solid
100
AcDbCircle
 10
99.8332
 20
-155.33
 30
0
 40
119.462
100
AcDbArc
 50
90.0179
 51
123.418
  0
ARC
  5
A21
330
A02
100
AcDbEntity
  8
Solid
100
AcDbCircle
 10
34.5927
 20
-56.4185
 30
0
 40
0.9719
100
AcDbArc
 50
124.601
 51
-180
  0
LINE
  5
A22
330
A02
100
AcDbEntity
  8
Solid
100
AcDbLine
 10
33.6208
 20
-129.618
 30
0
 11
33.6208
 21
-56.4185
 31
0
  0
ARC
  5
A23
330
A02
100
AcDbEntity
  8
Solid
100
AcDbCircle
 10
34.6208
 20
-129.618
 30
0
 40
0.99999
100
AcDbArc
 50
179.999
 51
-90.0002
  0
LINE
  5
A24
330
A02
100
AcDbEntity
  8
Solid
100
AcDbLine
 10
69.7212
 20
-130.618
 30
0
 11
34.6208
 21
-130.618
 31
0
  0
ARC
  5
A25
330
A02
100
AcDbEntity
  8
Solid
100
AcDbCircle
 10
69.7212
 20
-134.683
 30
0
 40
4.06468
100
AcDbArc
 50
10.0011
 51
90.0008
  0
LINE
  5
A26
330
A02
100
AcDbEntity
  8
Solid
100
AcDbLine
 10
74.7605
 20
-139.855
 30
0
 11
73.7242
 21
-133.977
 31
0
  0
LINE
  5
A27
330
A02
100
AcDbEntity
  8
Solid
100
AcDbLine
 10
76.5769
 20
-138.494
 30
0
 11
90.3642
 21
-136.063
 31
0
  0
LINE
  5
A28
330
A02
100
AcDbEntity
  8
Solid
100
AcDbLine
 10
74.1458
 20
-124.707
 30
0
 11
76.5769
 21
-138.494
 31
0
  0
LINE
  5
A29
330
A02
100
AcDbEntity
  8
Solid
100
AcDbLine
 10
87.9331
 20
-122.276
 30
0
 11
74.1458
 21
-124.707
 31
0
  0
LINE
  5
A2A
330
A02
100
AcDbEntity
  8
Solid
100
AcDbLine
 10
90.3642
 20
-136.063
 30
0
 11
87.9331
 21
-122.276
 31
0
  0
LINE
  5
A2B
330
A02
100
AcDbEntity
  8
Solid
100
AcDbLine
 10
95.8145
 20
-135.586
 30
0
 11
95.8145
 21
-121.586
 31
0
  0
LINE
  5
A2C
330
A02
100
AcDbEntity
  8
Solid
100
AcDbLine
 10
95.8145
 20
-121.586
 30
0
 11
109.815
 21
-121.586
 31
0
  0
LINE
  5
A2D
330
A02
100
AcDbEntity
  8
Solid
100
AcDbLine
 10
109.815
 20
-121.586
 30
0
 11
109.815
 21
-135.586
 31
0
  0
LINE
  5
A2E
330
A02
100
AcDbEntity
  8
Solid
100
AcDbLine
 10
109.815
 20
-135.586
 30
0
 11
95.8145
 21
-135.586
 31
0
  0
LINE
  5
A2F
330
A02
100
AcDbEntity
  8
Solid
100
AcDbLine
 10
49.646
 20
-128.593
 30
0
 11
35.646
 21
-128.593
 31
0
  0
LINE
  5
A30
330
A02
100
AcDbEntity
  8
Solid
100
AcDbLine
 10
35.646
 20
-128.593
 30
0
 11
35.646
 21
-114.593
 31
0
  0
LINE
  5
A31
330
A02
100
AcDbEntity
  8
Solid
100
AcDbLine
 10
35.646
 20
-114.593
 30
0
 11
49.646
 21
-114.593
 31
0
  0
LINE
  5
A32
330
A02
100
AcDbEntity
  8
Solid
100
AcDbLine
 10
49.646
 20
-114.593
 30
0
 11
49.646
 21
-128.593
 31
0
  0
CIRCLE
  5
A33
330
A02
100
AcDbEntity
  8
Solid
100
AcDbCircle
 10
50.271
 20
-112.068
 40
1.15
  0
LINE
  5
A34
330
A02
100
AcDbEntity
  8
Solid
100
AcDbLine
 10
54.696
 20
-114.593
 30
0
 11
54.696
 21
-128.593
 31
0
  0
LINE
  5
A35
330
A02
100
AcDbEntity
  8
Solid
100
AcDbLine
 10
68.696
 20
-114.593
 30
0
 11
54.696
 21
-114.593
 31
0
  0
LINE
  5
A36
330
A02
100
AcDbEntity
  8
Solid
100
AcDbLine
 10
68.696
 20
-128.593
 30
0
 11
68.696
 21
-114.593
 31
0
  0
LINE
  5
A37
330
A02
100
AcDbEntity
  8
Solid
100
AcDbLine
 10
54.696
 20
-128.593
 30
0
 11
68.696
 21
-128.593
 31
0
  0
LINE
  5
A38
330
A02
100
AcDbEntity
  8
Solid
100
AcDbLine
 10
49.646
 20
-95.5434
 30
0
 11
35.646
 21
-95.5434
 31
0
  0
LINE
  5
A39
330
A02
100
AcDbEntity
  8
Solid
100
AcDbLine
 10
49.646
 20
-109.543
 30
0
 11
49.646
 21
-95.5434
 31
0
  0
LINE
  5
A3A
330
A02
100
AcDbEntity
  8
Solid
100
AcDbLine
 10
35.646
 20
-109.543
 30
0
 11
49.646
 21
-109.543
 31
0
  0
LINE
  5
A3B
330
A02
100
AcDbEntity
  8
Solid
100
AcDbLine
 10
35.646
 20
-95.5434
 30
0
 11
35.646
 21
-109.543
 31
0
  0
LINE
  5
A3C
330
A02
100
AcDbEntity
  8
Solid
100
AcDbLine
 10
68.696
 20
-109.543
 30
0
 11
54.696
 21
-109.543
 31
0
  0
LINE
  5
A3D
330
A02
100
AcDbEntity
  8
Solid
100
AcDbLine
 10
54.696
 20
-109.543
 30
0
 11
54.696
 21
-95.5434
 31
0
  0
LINE
  5
A3E
330
A02
100
AcDbEntity
  8
Solid
100
AcDbLine
 10
54.696
 20
-95.5434
 30
0
 11
68.696
 21
-95.5434
 31
0
  0
LINE
  5
A3F
330
A02
100
AcDbEntity
  8
Solid
100
AcDbLine
 10
68.696
 20
-95.5434
 30
0
 11
68.696
 21
-109.543
 31
0
  0
LINE
  5
A40
330
A02
100
AcDbEntity
  8
Solid
100
AcDbLine
 10
87.746
 20
-115.893
 30
0
 11
73.746
 21
-115.893
 31
0
  0
LINE
  5
A41
330
A02
100
AcDbEntity
  8
Solid
100
AcDbLine
 10
73.746
 20
-115.893
 30
0
 11
73.746
 21
-101.893
 31
0
  0
LINE
  5
A42
330
A02
100
AcDbEntity
  8
Solid
100
AcDbLine
 10
73.746
 20
-101.893
 30
0
 11
87.746
 21
-101.893
 31
0
  0
LINE
  5
A43
330
A02
100
AcDbEntity
  8
Solid
100
AcDbLine
 10
87.746
 20
-101.893
 30
0
 11
87.746
 21
-115.893
 31
0
  0
LINE
  5
A44
330
A02
100
AcDbEntity
  8
Solid
100
AcDbLine
 10
92.796
 20
-95.5434
 30
0
 11
92.796
 21
-109.543
 31
0
  0
LINE
  5
A45
330
A02
100
AcDbEntity
  8
Solid
100
AcDbLine
 10
106.796
 20
-95.5434
 30
0
 11
92.796
 21
-95.5434
 31
0
  0
LINE
  5
A46
330
A02
100
AcDbEntity
  8
Solid
100
AcDbLine
 10
106.796
 20
-109.543
 30
0
 11
106.796
 21
-95.5434
 31
0
  0
LINE
  5
A47
330
A02
100
AcDbEntity
  8
Solid
100
AcDbLine
 10
92.796
 20
-109.543
 30
0
 11
106.796
 21
-109.543
 31
0
  0
CIRCLE
  5
A48
330
A02
100
AcDbEntity
  8
Solid
100
AcDbCircle
 10
113.432
 20
-125.634
 40
1.15
  0
LINE
  5
A49
330
A02
100
AcDbEntity
  8
Solid
100
AcDbLine
 10
131.483
 20
-124.707
 30
0
 11
117.695
 21
-122.276
 31
0
  0
LINE
  5
A4A
330
A02
100
AcDbEntity
  8
Solid
100
AcDbLine
 10
129.052
 20
-138.494
 30
0
 11
131.483
 21
-124.707
 31
0
  0
LINE
  5
A4B
330
A02
100
AcDbEntity
  8
Solid
100
AcDbLine
 10
115.264
 20
-136.063
 30
0
 11
129.052
 21
-138.494
 31
0
  0
LINE
  5
A4C
330
A02
100
AcDbEntity
  8
Solid
100
AcDbLine
 10
117.695
 20
-122.276
 30
0
 11
115.264
 21
-136.063
 31
0
  0
LINE
  5
A4D
330
A02
100
AcDbEntity
  8
Solid
100
AcDbLine
 10
152.45
 20
-147.01
 30
0
 11
159.45
 21
-134.885
 31
0
  0
LINE
  5
A4E
330
A02
100
AcDbEntity
  8
Solid
100
AcDbLine
 10
159.45
 20
-134.885
 30
0
 11
171.575
 21
-141.885
 31
0
  0
LINE
  5
A4F
330
A02
100
AcDbEntity
  8
Solid
100
AcDbLine
 10
171.575
 20
-141.885
 30
0
 11
164.575
 21
-154.01
 31
0
  0
LINE
  5
A50
330
A02
100
AcDbEntity
  8
Solid
100
AcDbLine
 10
164.575
 20
-154.01
 30
0
 11
152.45
 21
-147.01
 31
0
  0
LINE
  5
A51
330
A02
100
AcDbEntity
  8
Solid
100
AcDbLine
 10
139.125
 20
-126.754
 30
0
 11
152.28
 21
-131.542
 31
0
  0
LINE
  5
A52
330
A02
100
AcDbEntity
  8
Solid
100
AcDbLine
 10
152.28
 20
-131.542
 30
0
 11
147.492
 21
-144.698
 31
0
  0
LINE
  5
A53
330
A02
100
AcDbEntity
  8
Solid
100
AcDbLine
 10
147.492
 20
-144.698
 30
0
 11
134.336
 21
-139.91
 31
0
  0
LINE
  5
A54
330
A02
100
AcDbEntity
  8
Solid
100
AcDbLine
 10
134.336
 20
-139.91
 30
0
 11
139.125
 21
-126.754
 31
0
  0
CIRCLE
  5
A55
330
A02
100
AcDbEntity
  8
Solid
100
AcDbCircle
 10
154.294
 20
-136.582
 40
1.15
  0
LINE
  5
A56
330
A02
100
AcDbEntity
  8
Solid
100
AcDbLine
 10
111.846
 20
-115.893
 30
0
 11
125.846
 21
-115.893
 31
0
  0
LINE
  5
A57
330
A02
100
AcDbEntity
  8
Solid
100
AcDbLine
 10
111.846
 20
-101.893
 30
0
 11
111.846
 21
-115.893
 31
0
  0
LINE
  5
A58
330
A02
100
AcDbEntity
  8
Solid
100
AcDbLine
 10
125.846
 20
-101.893
 30
0
 11
111.846
 21
-101.893
 31
0
  0
LINE
  5
A59
330
A02
100
AcDbEntity
  8
Solid
100
AcDbLine
 10
125.846
 20
-115.893
 30
0
 11
125.846
 21
-101.893
 31
0
  0
LINE
  5
A5A
330
A02
100
AcDbEntity
  8
Solid
100
AcDbLine
 10
144.896
 20
-105.068
 30
0
 11
130.896
 21
-105.068
 31
0
  0
LINE
  5
A5B
330
A02
100
AcDbEntity
  8
Solid
100
AcDbLine
 10
144.896
 20
-119.068
 30
0
 11
144.896
 21
-105.068
 31
0
  0
LINE
  5
A5C
330
A02
100
AcDbEntity
  8
Solid
100
AcDbLine
 10
130.896
 20
-119.068
 30
0
 11
144.896
 21
-119.068
 31
0
  0
LINE
  5
A5D
330
A02
100
AcDbEntity
  8
Solid
100
AcDbLine
 10
130.896
 20
-105.068
 30
0
 11
130.896
 21
-119.068
 31
0
  0
LINE
  5
A5E
330
A02
100
AcDbEntity
  8
Solid
100
AcDbLine
 10
35.646
 20
-90.4934
 30
0
 11
49.646
 21
-90.4934
 31
0
  0
LINE
  5
A5F
330
A02
100
AcDbEntity
  8
Solid
100
AcDbLine
 10
35.646
 20
-76.4934
 30
0
 11
35.646
 21
-90.4934
 31
0
  0
LINE
  5
A60
330
A02
100
AcDbEntity
  8
Solid
100
AcDbLine
 10
49.646
 20
-76.4934
 30
0
 11
35.646
 21
-76.4934
 31
0
  0
LINE
  5
A61
330
A02
100
AcDbEntity
  8
Solid
100
AcDbLine
 10
49.646
 20
-90.4934
 30
0
 11
49.646
 21
-76.4934
 31
0
  0
LINE
  5
A62
330
A02
100
AcDbEntity
  8
Solid
100
AcDbLine
 10
54.696
 20
-90.4934
 30
0
 11
68.696
 21
-90.4934
 31
0
  0
LINE
  5
A63
330
A02
100
AcDbEntity
  8
Solid
100
AcDbLine
 10
54.696
 20
-76.4934
 30
0
 11
54.696
 21
-90.4934
 31
0
  0
LINE
  5
A64
330
A02
100
AcDbEntity
  8
Solid
100
AcDbLine
 10
68.696
 20
-76.4934
 30
0
 11
54.696
 21
-76.4934
 31
0
  0
LINE
  5
A65
330
A02
100
AcDbEntity
  8
Solid
100
AcDbLine
 10
68.696
 20
-90.4934
 30
0
 11
68.696
 21
-76.4934
 31
0
  0
CIRCLE
  5
A66
330
A02
100
AcDbEntity
  8
Solid
100
AcDbCircle
 10
52.171
 20
-72.0684
 40
1.15
  0
CIRCLE
  5
A67
330
A02
100
AcDbEntity
  8
Solid
100
AcDbCircle
 10
71.2214
 20
-93.0119
 40
1.15
  0
LINE
  5
A68
330
A02
100
AcDbEntity
  8
Solid
100
AcDbLine
 10
87.746
 20
-82.8434
 30
0
 11
73.746
 21
-82.8434
 31
0
  0
LINE
  5
A69
330
A02
100
AcDbEntity
  8
Solid
100
AcDbLine
 10
87.746
 20
-96.8434
 30
0
 11
87.746
 21
-82.8434
 31
0
  0
LINE
  5
A6A
330
A02
100
AcDbEntity
  8
Solid
100
AcDbLine
 10
73.746
 20
-96.8434
 30
0
 11
87.746
 21
-96.8434
 31
0
  0
LINE
  5
A6B
330
A02
100
AcDbEntity
  8
Solid
100
AcDbLine
 10
73.746
 20
-82.8434
 30
0
 11
73.746
 21
-96.8434
 31
0
  0
LINE
  5
A6C
330
A02
100
AcDbEntity
  8
Solid
100
AcDbLine
 10
106.796
 20
-76.4934
 30
0
 11
92.796
 21
-76.4934
 31
0
  0
LINE
  5
A6D
330
A02
100
AcDbEntity
  8
Solid
100
AcDbLine
 10
106.796
 20
-90.4934
 30
0
 11
106.796
 21
-76.4934
 31
0
  0
LINE
  5
A6E
330
A02
100
AcDbEntity
  8
Solid
100
AcDbLine
 10
92.796
 20
-90.4934
 30
0
 11
106.796
 21
-90.4934
 31
0
  0
LINE
  5
A6F
330
A02
100
AcDbEntity
  8
Solid
100
AcDbLine
 10
92.796
 20
-76.4934
 30
0
 11
92.796
 21
-90.4934
 31
0
  0
LINE
  5
A70
330
A02
100
AcDbEntity
  8
Solid
100
AcDbLine
 10
87.746
 20
-63.7934
 30
0
 11
73.746
 21
-63.7934
 31
0
  0
LINE
  5
A71
330
A02
100
AcDbEntity
  8
Solid
100
AcDbLine
 10
87.746
 20
-77.7934
 30
0
 11
87.746
 21
-63.7934
 31
0
  0
LINE
  5
A72
330
A02
100
AcDbEntity
  8
Solid
100
AcDbLine
 10
73.746
 20
-77.7934
 30
0
 11
87.746
 21
-77.7934
 31
0
  0
LINE
  5
A73
330
A02
100
AcDbEntity
  8
Solid
100
AcDbLine
 10
73.746
 20
-63.7934
 30
0
 11
73.746
 21
-77.7934
 31
0
  0
LINE
  5
A74
330
A02
100
AcDbEntity
  8
Solid
100
AcDbLine
 10
35.646
 20
-71.4434
 30
0
 11
49.646
 21
-71.4434
 31
0
  0
LINE
  5
A75
330
A02
100
AcDbEntity
  8
Solid
100
AcDbLine
 10
35.646
 20
-57.4434
 30
0
 11
35.646
 21
-71.4434
 31
0
  0
LINE
  5
A76
330
A02
100
AcDbEntity
  8
Solid
100
AcDbLine
 10
49.646
 20
-57.4434
 30
0
 11
35.646
 21
-57.4434
 31
0
  0
LINE
  5
A77
330
A02
100
AcDbEntity
  8
Solid
100
AcDbLine
 10
49.646
 20
-71.4434
 30
0
 11
49.646
 21
-57.4434
 31
0
  0
LINE
  5
A78
330
A02
100
AcDbEntity
  8
Solid
100
AcDbLine
 10
68.696
 20
-57.4434
 30
0
 11
54.696
 21
-57.4434
 31
0
  0
LINE
  5
A79
330
A02
100
AcDbEntity
  8
Solid
100
AcDbLine
 10
68.696
 20
-71.4434
 30
0
 11
68.696
 21
-57.4434
 31
0
  0
LINE
  5
A7A
330
A02
100
AcDbEntity
  8
Solid
100
AcDbLine
 10
54.696
 20
-71.4434
 30
0
 11
68.696
 21
-71.4434
 31
0
  0
LINE
  5
A7B
330
A02
100
AcDbEntity
  8
Solid
100
AcDbLine
 10
54.696
 20
-57.4434
 30
0
 11
54.696
 21
-71.4434
 31
0
  0
LINE
  5
A7C
330
A02
100
AcDbEntity
  8
Solid
100
AcDbLine
 10
92.796
 20
-57.4434
 30
0
 11
92.796
 21
-71.4434
 31
0
  0
LINE
  5
A7D
330
A02
100
AcDbEntity
  8
Solid
100
AcDbLine
 10
106.796
 20
-57.4434
 30
0
 11
92.796
 21
-57.4434
 31
0
  0
LINE
  5
A7E
330
A02
100
AcDbEntity
  8
Solid
100
AcDbLine
 10
106.796
 20
-71.4434
 30
0
 11
106.796
 21
-57.4434
 31
0
  0
LINE
  5
A7F
330
A02
100
AcDbEntity
  8
Solid
100
AcDbLine
 10
92.796
 20
-71.4434
 30
0
 11
106.796
 21
-71.4434
 31
0
  0
LINE
  5
A80
330
A02
100
AcDbEntity
  8
Solid
100
AcDbLine
 10
73.746
 20
-44.7434
 30
0
 11
73.746
 21
-58.7434
 31
0
  0
LINE
  5
A81
330
A02
100
AcDbEntity
  8
Solid
100
AcDbLine
 10
87.746
 20
-44.7434
 30
0
 11
73.746
 21
-44.7434
 31
0
  0
LINE
  5
A82
330
A02
100
AcDbEntity
  8
Solid
100
AcDbLine
 10
87.746
 20
-58.7434
 30
0
 11
87.746
 21
-44.7434
 31
0
  0
LINE
  5
A83
330
A02
100
AcDbEntity
  8
Solid
100
AcDbLine
 10
73.746
 20
-58.7434
 30
0
 11
87.746
 21
-58.7434
 31
0
  0
LINE
  5
A84
330
A02
100
AcDbEntity
  8
Solid
100
AcDbLine
 10
92.796
 20
-38.3934
 30
0
 11
106.796
 21
-38.3934
 31
0
  0
LINE
  5
A85
330
A02
100
AcDbEntity
  8
Solid
100
AcDbLine
 10
106.796
 20
-38.3934
 30
0
 11
106.796
 21
-52.3934
 31
0
  0
LINE
  5
A86
330
A02
100
AcDbEntity
  8
Solid
100
AcDbLine
 10
106.796
 20
-52.3934
 30
0
 11
92.796
 21
-52.3934
 31
0
  0
LINE
  5
A87
330
A02
100
AcDbEntity
  8
Solid
100
AcDbLine
 10
92.796
 20
-52.3934
 30
0
 11
92.796
 21
-38.3934
 31
0
  0
LINE
  5
A88
330
A02
100
AcDbEntity
  8
Solid
100
AcDbLine
 10
111.846
 20
-82.8434
 30
0
 11
111.846
 21
-96.8434
 31
0
  0
LINE
  5
A89
330
A02
100
AcDbEntity
  8
Solid
100
AcDbLine
 10
125.846
 20
-82.8434
 30
0
 11
111.846
 21
-82.8434
 31
0
  0
LINE
  5
A8A
330
A02
100
AcDbEntity
  8
Solid
100
AcDbLine
 10
125.846
 20
-96.8434
 30
0
 11
125.846
 21
-82.8434
 31
0
  0
LINE
  5
A8B
330
A02
100
AcDbEntity
  8
Solid
100
AcDbLine
 10
111.846
 20
-96.8434
 30
0
 11
125.846
 21
-96.8434
 31
0
  0
LINE
  5
A8C
330
A02
100
AcDbEntity
  8
Solid
100
AcDbLine
 10
111.846
 20
-63.7939
 30
0
 11
111.846
 21
-77.7939
 31
0
  0
LINE
  5
A8D
330
A02
100
AcDbEntity
  8
Solid
100
AcDbLine
 10
125.846
 20
-63.7939
 30
0
 11
111.846
 21
-63.7939
 31
0
  0
LINE
  5
A8E
330
A02
100
AcDbEntity
  8
Solid
100
AcDbLine
 10
125.846
 20
-77.7939
 30
0
 11
125.846
 21
-63.7939
 31
0
  0
LINE
  5
A8F
330
A02
100
AcDbEntity
  8
Solid
100
AcDbLine
 10
111.846
 20
-77.7939
 30
0
 11
125.846
 21
-77.7939
 31
0
  0
LINE
  5
A90
330
A02
100
AcDbEntity
  8
Solid
100
AcDbLine
 10
144.896
 20
-86.0184
 30
0
 11
144.896
 21
-100.018
 31
0
  0
LINE
  5
A91
330
A02
100
AcDbEntity
  8
Solid
100
AcDbLine
 10
144.896
 20
-100.018
 30
0
 11
130.896
 21
-100.018
 31
0
  0
LINE
  5
A92
330
A02
100
AcDbEntity
  8
Solid
100
AcDbLine
 10
130.896
 20
-100.018
 30
0
 11
130.896
 21
-86.0184
 31
0
  0
LINE
  5
A93
330
A02
100
AcDbEntity
  8
Solid
100
AcDbLine
 10
130.896
 20
-86.0184
 30
0
 11
144.896
 21
-86.0184
 31
0
  0
LINE
  5
A94
330
A02
100
AcDbEntity
  8
Solid
100
AcDbLine
 10
144.896
 20
-66.9694
 30
0
 11
130.896
 21
-66.9694
 31
0
  0
LINE
  5
A95
330
A02
100
AcDbEntity
  8
Solid
100
AcDbLine
 10
144.896
 20
-80.9694
 30
0
 11
144.896
 21
-66.9694
 31
0
  0
LINE
  5
A96
330
A02
100
AcDbEntity
  8
Solid
100
AcDbLine
 10
130.896
 20
-80.9694
 30
0
 11
144.896
 21
-80.9694
 31
0
  0
LINE
  5
A97
330
A02
100
AcDbEntity
  8
Solid
100
AcDbLine
 10
130.896
 20
-66.9694
 30
0
 11
130.896
 21
-80.9694
 31
0
  0
CIRCLE
  5
A98
330
A02
100
AcDbEntity
  8
Solid
100
AcDbCircle
 10
128.371
 20
-59.3694
 40
1.15
  0
LINE
  5
A99
330
A02
100
AcDbEntity
  8
Solid
100
AcDbLine
 10
111.846
 20
-44.7439
 30
0
 11
125.846
 21
-44.7439
 31
0
  0
LINE
  5
A9A
330
A02
100
AcDbEntity
  8
Solid
100
AcDbLine
 10
125.846
 20
-44.7439
 30
0
 11
125.846
 21
-58.7439
 31
0
  0
LINE
  5
A9B
330
A02
100
AcDbEntity
  8
Solid
100
AcDbLine
 10
125.846
 20
-58.7439
 30
0
 11
111.846
 21
-58.7439
 31
0
  0
LINE
  5
A9C
330
A02
100
AcDbEntity
  8
Solid
100
AcDbLine
 10
111.846
 20
-58.7439
 30
0
 11
111.846
 21
-44.7439
 31
0
  0
LINE
  5
A9D
330
A02
100
AcDbEntity
  8
Solid
100
AcDbLine
 10
144.896
 20
-47.9194
 30
0
 11
130.896
 21
-47.9194
 31
0
  0
LINE
  5
A9E
330
A02
100
AcDbEntity
  8
Solid
100
AcDbLine
 10
144.896
 20
-61.9194
 30
0
 11
144.896
 21
-47.9194
 31
0
  0
LINE
  5
A9F
330
A02
100
AcDbEntity
  8
Solid
100
AcDbLine
 10
130.896
 20
-61.9194
 30
0
 11
144.896
 21
-61.9194
 31
0
  0
LINE
  5
AA0
330
A02
100
AcDbEntity
  8
Solid
100
AcDbLine
 10
130.896
 20
-47.9194
 30
0
 11
130.896
 21
-61.9194
 31
0
  0
ARC
  5
AA1
330
A02
100
AcDbEntity
  8
Solid
100
AcDbCircle
 10
75.7453
 20
-139.681
 30
1.6
 40
0.999983
100
AcDbArc
 50
-170
 51
-79.9995
  0
LINE
  5
AA2
330
A02
100
AcDbEntity
  8
Solid
100
AcDbLine
 10
83.8201
 20
-139.273
 30
1.6
 11
75.919
 21
-140.666
 31
1.6
  0
ARC
  5
AA3
330
A02
100
AcDbEntity
  8
Solid
100
AcDbCircle
 10
102.813
 20
-246.984
 30
1.6
 40
109.373
100
AcDbArc
 50
60.0004
 51
100
  0
LINE
  5
AA4
330
A02
100
AcDbEntity
  8
Solid
100
AcDbLine
 10
164.45
 20
-156.276
 30
1.6
 11
157.499
 21
-152.264
 31
1.6
  0
ARC
  5
AA5
330
A02
100
AcDbEntity
  8
Solid
100
AcDbCircle
 10
164.95
 20
-155.41
 30
1.6
 40
1.00001
100
AcDbArc
 50
-120
 51
-30.0008
  0
LINE
  5
AA6
330
A02
100
AcDbEntity
  8
Solid
100
AcDbLine
 10
174.091
 20
-141.577
 30
1.6
 11
165.816
 21
-155.91
 31
1.6
  0
ARC
  5
AA7
330
A02
100
AcDbEntity
  8
Solid
100
AcDbCircle
 10
173.225
 20
-141.077
 30
1.6
 40
1
100
AcDbArc
 50
-30.0007
 51
59.9992
  0
LINE
  5
AA8
330
A02
100
AcDbEntity
  8
Solid
100
AcDbLine
 10
166.774
 20
-136.199
 30
1.6
 11
173.725
 21
-140.211
 31
1.6
  0
ARC
  5
AA9
330
A02
100
AcDbEntity
  8
Solid
100
AcDbCircle
 10
102.693
 20
-247.337
 30
1.6
 40
128.289
100
AcDbArc
 50
60.0325
 51
69.8324
  0
LINE
  5
AAA
330
A02
100
AcDbEntity
  8
Solid
100
AcDbLine
 10
146.923
 20
-46.894
 30
1.6
 11
146.923
 21
-126.913
 31
1.6
  0
ARC
  5
AAB
330
A02
100
AcDbEntity
  8
Solid
100
AcDbCircle
 10
145.739
 20
-46.8948
 30
1.6
 40
1.18405
100
AcDbArc
 50
0.0387117
 51
66.4403
  0
ARC
  5
AAC
330
A02
100
AcDbEntity
  8
Solid
100
AcDbCircle
 10
99.8188
 20
-149.094
 30
1.6
 40
113.226
100
AcDbArc
 50
65.8116
 51
90.0116
  0
ARC
  5
AAD
330
A02
100
AcDbEntity
  8
Solid
100
AcDbCircle
 10
99.8332
 20
-155.33
 30
1.6
 40
119.462
100
AcDbArc
 50
90.0179
 51
123.418
  0
ARC
  5
AAE
330
A02
100
AcDbEntity
  8
Solid
100
AcDbCircle
 10
34.5927
 20
-56.4185
 30
1.6
 40
0.9719
100
AcDbArc
 50
124.601
 51
-180
  0
LINE
  5
AAF
330
A02
100
AcDbEntity
  8
Solid
100
AcDbLine
 10
33.6208
 20
-129.618
 30
1.6
 11
33.6208
 21
-56.4185
 31
1.6
  0
ARC
  5
AB0
330
A02
100
AcDbEntity
  8
Solid
100
AcDbCircle
 10
34.6208
 20
-129.618
 30
1.6
 40
0.99999
100
AcDbArc
 50
179.999
 51
-90.0002
  0
LINE
  5
AB1
330
A02
100
AcDbEntity
  8
Solid
100
AcDbLine
 10
69.7212
 20
-130.618
 30
1.6
 11
34.6208
 21
-130.618
 31
1.6
  0
ARC
  5
AB2
330
A02
100
AcDbEntity
  8
Solid
100
AcDbCircle
 10
69.7212
 20
-134.683
 30
1.6
 40
4.06468
100
AcDbArc
 50
10.0011
 51
90.0008
  0
LINE
  5
AB3
330
A02
100
AcDbEntity
  8
Solid
100
AcDbLine
 10
74.7605
 20
-139.855
 30
1.6
 11
73.7242
 21
-133.977
 31
1.6
  0
LINE
  5
AB4
330
A02
100
AcDbEntity
  8
Solid
100
AcDbLine
 10
76.5769
 20
-138.494
 30
1.6
 11
90.3642
 21
-136.063
 31
1.6
  0
LINE
  5
AB5
330
A02
100
AcDbEntity
  8
Solid
100
AcDbLine
 10
74.1458
 20
-124.707
 30
1.6
 11
76.5769
 21
-138.494
 31
1.6
  0
LINE
  5
AB6
330
A02
100
AcDbEntity
  8
Solid
100
AcDbLine
 10
87.9331
 20
-122.276
 30
1.6
 11
74.1458
 21
-124.707
 31
1.6
  0
LINE
  5
AB7
330
A02
100
AcDbEntity
  8
Solid
100
AcDbLine
 10
90.3642
 20
-136.063
 30
1.6
 11
87.9331
 21
-122.276
 31
1.6
  0
LINE
  5
AB8
330
A02
100
AcDbEntity
  8
Solid
100
AcDbLine
 10
95.8145
 20
-135.586
 30
1.6
 11
95.8145
 21
-121.586
 31
1.6
  0
LINE
  5
AB9
330
A02
100
AcDbEntity
  8
Solid
100
AcDbLine
 10
95.8145
 20
-121.586
 30
1.6
 11
109.815
 21
-121.586
 31
1.6
  0
LINE
  5
ABA
330
A02
100
AcDbEntity
  8
Solid
100
AcDbLine
 10
109.815
 20
-121.586
 30
1.6
 11
109.815
 21
-135.586
 31
1.6
  0
LINE
  5
ABB
330
A02
100
AcDbEntity
  8
Solid
100
AcDbLine
 10
109.815
 20
-135.586
 30
1.6
 11
95.8145
 21
-135.586
 31
1.6
  0
LINE
  5
ABC
330
A02
100
AcDbEntity
  8
Solid
100
AcDbLine
 10
49.646
 20
-128.593
 30
1.6
 11
35.646
 21
-128.593
 31
1.6
  0
LINE
  5
ABD
330
A02
100
AcDbEntity
  8
Solid
100
AcDbLine
 10
35.646
 20
-128.593
 30
1.6
 11
35.646
 21
-114.593
 31
1.6
  0
LINE
  5
ABE
330
A02
100
AcDbEntity
  8
Solid
100
AcDbLine
 10
35.646
 20
-114.593
 30
1.6
 11
49.646
 21
-114.593
 31
1.6
  0
LINE
  5
ABF
330
A02
100
AcDbEntity
  8
Solid
100
AcDbLine
 10
49.646
 20
-114.593
 30
1.6
 11
49.646
 21
-128.593
 31
1.6
  0
CIRCLE
  5
AC0
330
A02
100
AcDbEntity
  8
Solid
100
AcDbCircle
 10
50.271
 20
-112.068
 40
1.15
  0
LINE
  5
AC1
330
A02
100
AcDbEntity
  8
Solid
100
AcDbLine
 10
54.696
 20
-114.593
 30
1.6
 11
54.696
 21
-128.593
 31
1.6
  0
LINE
  5
AC2
330
A02
100
AcDbEntity
  8
Solid
100
AcDbLine
 10
68.696
 20
-114.593
 30
1.6
 11
54.696
 21
-114.593
 31
1.6
  0
LINE
  5
AC3
330
A02
100
AcDbEntity
  8
Solid
100
AcDbLine
 10
68.696
 20
-128.593
 30
1.6
 11
68.696
 21
-114.593
 31
1.6
  0
LINE
  5
AC4
330
A02
100
AcDbEntity
  8
Solid
100
AcDbLine
 10
54.696
 20
-128.593
 30
1.6
 11
68.696
 21
-128.593
 31
1.6
  0
LINE
  5
AC5
330
A02
100
AcDbEntity
  8
Solid
100
AcDbLine
 10
49.646
 20
-95.5434
 30
1.6
 11
35.646
 21
-95.5434
 31
1.6
  0
LINE
  5
AC6
330
A02
100
AcDbEntity
  8
Solid
100
AcDbLine
 10
49.646
 20
-109.543
 30
1.6
 11
49.646
 21
-95.5434
 31
1.6
  0
LINE
  5
AC7
330
A02
100
AcDbEntity
  8
Solid
100
AcDbLine
 10
35.646
 20
-109.543
 30
1.6
 11
49.646
 21
-109.543
 31
1.6
  0
LINE
  5
AC8
330
A02
100
AcDbEntity
  8
Solid
100
AcDbLine
 10
35.646
 20
-95.5434
 30
1.6
 11
35.646
 21
-109.543
 31
1.6
  0
LINE
  5
AC9
330
A02
100
AcDbEntity
  8
Solid
100
AcDbLine
 10
68.696
 20
-109.543
 30
1.6
 11
54.696
 21
-109.543
 31
1.6
  0
LINE
  5
ACA
330
A02
100
AcDbEntity
  8
Solid
100
AcDbLine
 10
54.696
 20
-109.543
 30
1.6
 11
54.696
 21
-95.5434
 31
1.6
  0
LINE
  5
ACB
330
A02
100
AcDbEntity
  8
Solid
100
AcDbLine
 10
54.696
 20
-95.5434
 30
1.6
 11
68.696
 21
-95.5434
 31
1.6
  0
LINE
  5
ACC
330
A02
100
AcDbEntity
  8
Solid
100
AcDbLine
 10
68.696
 20
-95.5434
 30
1.6
 11
68.696
 21
-109.543
 31
1.6
  0
LINE
  5
ACD
330
A02
100
AcDbEntity
  8
Solid
100
AcDbLine
 10
87.746
 20
-115.893
 30
1.6
 11
73.746
 21
-115.893
 31
1.6
  0
LINE
  5
ACE
330
A02
100
AcDbEntity
  8
Solid
100
AcDbLine
 10
73.746
 20
-115.893
 30
1.6
 11
73.746
 21
-101.893
 31
1.6
  0
LINE
  5
ACF
330
A02
100
AcDbEntity
  8
Solid
100
AcDbLine
 10
73.746
 20
-101.893
 30
1.6
 11
87.746
 21
-101.893
 31
1.6
  0
LINE
  5
AD0
330
A02
100
AcDbEntity
  8
Solid
100
AcDbLine
 10
87.746
 20
-101.893
 30
1.6
 11
87.746
 21
-115.893
 31
1.6
  0
LINE
  5
AD1
330
A02
100
AcDbEntity
  8
Solid
100
AcDbLine
 10
92.796
 20
-95.5434
 30
1.6
 11
92.796
 21
-109.543
 31
1.6
  0
LINE
  5
AD2
330
A02
100
AcDbEntity
  8
Solid
100
AcDbLine
 10
106.796
 20
-95.5434
 30
1.6
 11
92.796
 21
-95.5434
 31
1.6
  0
LINE
  5
AD3
330
A02
100
AcDbEntity
  8
Solid
100
AcDbLine
 10
106.796
 20
-109.543
 30
1.6
 11
106.796
 21
-95.5434
 31
1.6
  0
LINE
  5
AD4
330
A02
100
AcDbEntity
  8
Solid
100
AcDbLine
 10
92.796
 20
-109.543
 30
1.6
 11
106.796
 21
-109.543
 31
1.6
  0
CIRCLE
  5
AD5
330
A02
100
AcDbEntity
  8
Solid
100
AcDbCircle
 10
113.432
 20
-125.634
 40
1.15
  0
LINE
  5
AD6
330
A02
100
AcDbEntity
  8
Solid
100
AcDbLine
 10
131.483
 20
-124.707
 30
1.6
 11
117.695
 21
-122.276
 31
1.6
  0
LINE
  5
AD7
330
A02
100
AcDbEntity
  8
Solid
100
AcDbLine
 10
129.052
 20
-138.494
 30
1.6
 11
131.483
 21
-124.707
 31
1.6
  0
LINE
  5
AD8
330
A02
100
AcDbEntity
  8
Solid
100
AcDbLine
 10
115.264
 20
-136.063
 30
1.6
 11
129.052
 21
-138.494
 31
1.6
  0
LINE
  5
AD9
330
A02
100
AcDbEntity
  8
Solid
100
AcDbLine
 10
117.695
 20
-122.276
 30
1.6
 11
115.264
 21
-136.063
 31
1.6
  0
LINE
  5
ADA
330
A02
100
AcDbEntity
  8
Solid
100
AcDbLine
 10
152.45
 20
-147.01
 30
1.6
 11
159.45
 21
-134.885
 31
1.6
  0
LINE
  5
ADB
330
A02
100
AcDbEntity
  8
Solid
100
AcDbLine
 10
159.45
 20
-134.885
 30
1.6
 11
171.575
 21
-141.885
 31
1.6
  0
LINE
  5
ADC
330
A02
100
AcDbEntity
  8
Solid
100
AcDbLine
 10
171.575
 20
-141.885
 30
1.6
 11
164.575
 21
-154.01
 31
1.6
  0
LINE
  5
ADD
330
A02
100
AcDbEntity
  8
Solid
100
AcDbLine
 10
164.575
 20
-154.01
 30
1.6
 11
152.45
 21
-147.01
 31
1.6
  0
LINE
  5
ADE
330
A02
100
AcDbEntity
  8
Solid
100
AcDbLine
 10
139.125
 20
-126.754
 30
1.6
 11
152.28
 21
-131.542
 31
1.6
  0
LINE
  5
ADF
330
A02
100
AcDbEntity
  8
Solid
100
AcDbLine
 10
152.28
 20
-131.542
 30
1.6
 11
147.492
 21
-144.698
 31
1.6
  0
LINE
  5
AE0
330
A02
100
AcDbEntity
  8
Solid
100
AcDbLine
 10
147.492
 20
-144.698
 30
1.6
 11
134.336
 21
-139.91
 31
1.6
  0
LINE
  5
AE1
330
A02
100
AcDbEntity
  8
Solid
100
AcDbLine
 10
134.336
 20
-139.91
 30
1.6
 11
139.125
 21
-126.754
 31
1.6
  0
CIRCLE
  5
AE2
330
A02
100
AcDbEntity
  8
Solid
100
AcDbCircle
 10
154.294
 20
-136.582
 40
1.15
  0
LINE
  5
AE3
330
A02
100
AcDbEntity
  8
Solid
100
AcDbLine
 10
111.846
 20
-115.893
 30
1.6
 11
125.846
 21
-115.893
 31
1.6
  0
LINE
  5
AE4
330
A02
100
AcDbEntity
  8
Solid
100
AcDbLine
 10
111.846
 20
-101.893
 30
1.6
 11
111.846
 21
-115.893
 31
1.6
  0
LINE
  5
AE5
330
A02
100
AcDbEntity
  8
Solid
100
AcDbLine
 10
125.846
 20
-101.893
 30
1.6
 11
111.846
 21
-101.893
 31
1.6
  0
LINE
  5
AE6
330
A02
100
AcDbEntity
  8
Solid
100
AcDbLine
 10
125.846
 20
-115.893
 30
1.6
 11
125.846
 21
-101.893
 31
1.6
  0
LINE
  5
AE7
330
A02
100
AcDbEntity
  8
Solid
100
AcDbLine
 10
144.896
 20
-105.068
 30
1.6
 11
130.896
 21
-105.068
 31
1.6
  0
LINE
  5
AE8
330
A02
100
AcDbEntity
  8
Solid
100
AcDbLine
 10
144.896
 20
-119.068
 30
1.6
 11
144.896
 21
-105.068
 31
1.6
  0
LINE
  5
AE9
330
A02
100
AcDbEntity
  8
Solid
100
AcDbLine
 10
130.896
 20
-119.068
 30
1.6
 11
144.896
 21
-119.068
 31
1.6
  0
LINE
  5
AEA
330
A02
100
AcDbEntity
  8
Solid
100
AcDbLine
 10
130.896
 20
-105.068
 30
1.6
 11
130.896
 21
-119.068
 31
1.6
  0
LINE
  5
AEB
330
A02
100
AcDbEntity
  8
Solid
100
AcDbLine
 10
35.646
 20
-90.4934
 30
1.6
 11
49.646
 21
-90.4934
 31
1.6
  0
LINE
  5
AEC
330
A02
100
AcDbEntity
  8
Solid
100
AcDbLine
 10
35.646
 20
-76.4934
 30
1.6
 11
35.646
 21
-90.4934
 31
1.6
  0
LINE
  5
AED
330
A02
100
AcDbEntity
  8
Solid
100
AcDbLine
 10
49.646
 20
-76.4934
 30
1.6
 11
35.646
 21
-76.4934
 31
1.6
  0
LINE
  5
AEE
330
A02
100
AcDbEntity
  8
Solid
100
AcDbLine
 10
49.646
 20
-90.4934
 30
1.6
 11
49.646
 21
-76.4934
 31
1.6
  0
LINE
  5
AEF
330
A02
100
AcDbEntity
  8
Solid
100
AcDbLine
 10
54.696
 20
-90.4934
 30
1.6
 11
68.696
 21
-90.4934
 31
1.6
  0
LINE
  5
AF0
330
A02
100
AcDbEntity
  8
Solid
100
AcDbLine
 10
54.696
 20
-76.4934
 30
1.6
 11
54.696
 21
-90.4934
 31
1.6
  0
LINE
  5
AF1
330
A02
100
AcDbEntity
  8
Solid
100
AcDbLine
 10
68.696
 20
-76.4934
 30
1.6
 11
54.696
 21
-76.4934
 31
1.6
  0
LINE
  5
AF2
330
A02
100
AcDbEntity
  8
Solid
100
AcDbLine
 10
68.696
 20
-90.4934
 30
1.6
 11
68.696
 21
-76.4934
 31
1.6
  0
CIRCLE
  5
AF3
330
A02
100
AcDbEntity
  8
Solid
100
AcDbCircle
 10
52.171
 20
-72.0684
 40
1.15
  0
CIRCLE
  5
AF4
330
A02
100
AcDbEntity
  8
Solid
100
AcDbCircle
 10
71.2214
 20
-93.0119
 40
1.15
  0
LINE
  5
AF5
330
A02
100
AcDbEntity
  8
Solid
100
AcDbLine
 10
87.746
 20
-82.8434
 30
1.6
 11
73.746
 21
-82.8434
 31
1.6
  0
LINE
  5
AF6
330
A02
100
AcDbEntity
  8
Solid
100
AcDbLine
 10
87.746
 20
-96.8434
 30
1.6
 11
87.746
 21
-82.8434
 31
1.6
  0
LINE
  5
AF7
330
A02
100
AcDbEntity
  8
Solid
100
AcDbLine
 10
73.746
 20
-96.8434
 30
1.6
 11
87.746
 21
-96.8434
 31
1.6
  0
LINE
  5
AF8
330
A02
100
AcDbEntity
  8
Solid
100
AcDbLine
 10
73.746
 20
-82.8434
 30
1.6
 11
73.746
 21
-96.8434
 31
1.6
  0
LINE
  5
AF9
330
A02
100
AcDbEntity
  8
Solid
100
AcDbLine
 10
106.796
 20
-76.4934
 30
1.6
 11
92.796
 21
-76.4934
 31
1.6
  0
LINE
  5
AFA
330
A02
100
AcDbEntity
  8
Solid
100
AcDbLine
 10
106.796
 20
-90.4934
 30
1.6
 11
106.796
 21
-76.4934
 31
1.6
  0
LINE
  5
AFB
330
A02
100
AcDbEntity
  8
Solid
100
AcDbLine
 10
92.796
 20
-90.4934
 30
1.6
 11
106.796
 21
-90.4934
 31
1.6
  0
LINE
  5
AFC
330
A02
100
AcDbEntity
  8
Solid
100
AcDbLine
 10
92.796
 20
-76.4934
 30
1.6
 11
92.796
 21
-90.4934
 31
1.6
  0
LINE
  5
AFD
330
A02
100
AcDbEntity
  8
Solid
100
AcDbLine
 10
87.746
 20
-63.7934
 30
1.6
 11
73.746
 21
-63.7934
 31
1.6
  0
LINE
  5
AFE
330
A02
100
AcDbEntity
  8
Solid
100
AcDbLine
 10
87.746
 20
-77.7934
 30
1.6
 11
87.746
 21
-63.7934
 31
1.6
  0
LINE
  5
AFF
330
A02
100
AcDbEntity
  8
Solid
100
AcDbLine
 10
73.746
 20
-77.7934
 30
1.6
 11
87.746
 21
-77.7934
 31
1.6
  0
LINE
  5
B00
330
A02
100
AcDbEntity
  8
Solid
100
AcDbLine
 10
73.746
 20
-63.7934
 30
1.6
 11
73.746
 21
-77.7934
 31
1.6
  0
LINE
  5
B01
330
A02
100
AcDbEntity
  8
Solid
100
AcDbLine
 10
35.646
 20
-71.4434
 30
1.6
 11
49.646
 21
-71.4434
 31
1.6
  0
LINE
  5
B02
330
A02
100
AcDbEntity
  8
Solid
100
AcDbLine
 10
35.646
 20
-57.4434
 30
1.6
 11
35.646
 21
-71.4434
 31
1.6
  0
LINE
  5
B03
330
A02
100
AcDbEntity
  8
Solid
100
AcDbLine
 10
49.646
 20
-57.4434
 30
1.6
 11
35.646
 21
-57.4434
 31
1.6
  0
LINE
  5
B04
330
A02
100
AcDbEntity
  8
Solid
100
AcDbLine
 10
49.646
 20
-71.4434
 30
1.6
 11
49.646
 21
-57.4434
 31
1.6
  0
LINE
  5
B05
330
A02
100
AcDbEntity
  8
Solid
100
AcDbLine
 10
68.696
 20
-57.4434
 30
1.6
 11
54.696
 21
-57.4434
 31
1.6
  0
LINE
  5
B06
330
A02
100
AcDbEntity
  8
Solid
100
AcDbLine
 10
68.696
 20
-71.4434
 30
1.6
 11
68.696
 21
-57.4434
 31
1.6
  0
LINE
  5
B07
330
A02
100
AcDbEntity
  8
Solid
100
AcDbLine
 10
54.696
 20
-71.4434
 30
1.6
 11
68.696
 21
-71.4434
 31
1.6
  0
LINE
  5
B08
330
A02
100
AcDbEntity
  8
Solid
100
AcDbLine
 10
54.696
 20
-57.4434
 30
1.6
 11
54.696
 21
-71.4434
 31
1.6
  0
LINE
  5
B09
330
A02
100
AcDbEntity
  8
Solid
100
AcDbLine
 10
92.796
 20
-57.4434
 30
1.6
 11
92.796
 21
-71.4434
 31
1.6
  0
LINE
  5
B0A
330
A02
100
AcDbEntity
  8
Solid
100
AcDbLine
 10
106.796
 20
-57.4434
 30
1.6
 11
92.796
 21
-57.4434
 31
1.6
  0
LINE
  5
B0B
330
A02
100
AcDbEntity
  8
Solid
100
AcDbLine
 10
106.796
 20
-71.4434
 30
1.6
 11
106.796
 21
-57.4434
 31
1.6
  0
LINE
  5
B0C
330
A02
100
AcDbEntity
  8
Solid
100
AcDbLine
 10
92.796
 20
-71.4434
 30
1.6
 11
106.796
 21
-71.4434
 31
1.6
  0
LINE
  5
B0D
330
A02
100
AcDbEntity
  8
Solid
100
AcDbLine
 10
73.746
 20
-44.7434
 30
1.6
 11
73.746
 21
-58.7434
 31
1.6
  0
LINE
  5
B0E
330
A02
100
AcDbEntity
  8
Solid
100
AcDbLine
 10
87.746
 20
-44.7434
 30
1.6
 11
73.746
 21
-44.7434
 31
1.6
  0
LINE
  5
B0F
330
A02
100
AcDbEntity
  8
Solid
100
AcDbLine
 10
87.746
 20
-58.7434
 30
1.6
 11
87.746
 21
-44.7434
 31
1.6
  0
LINE
  5
B10
330
A02
100
AcDbEntity
  8
Solid
100
AcDbLine
 10
73.746
 20
-58.7434
 30
1.6
 11
87.746
 21
-58.7434
 31
1.6
  0
LINE
  5
B11
330
A02
100
AcDbEntity
  8
Solid
100
AcDbLine
 10
92.796
 20
-38.3934
 30
1.6
 11
106.796
 21
-38.3934
 31
1.6
  0
LINE
  5
B12
330
A02
100
AcDbEntity
  8
Solid
100
AcDbLine
 10
106.796
 20
-38.3934
 30
1.6
 11
106.796
 21
-52.3934
 31
1.6
  0
LINE
  5
B13
330
A02
100
AcDbEntity
  8
Solid
100
AcDbLine
 10
106.796
 20
-52.3934
 30
1.6
 11
92.796
 21
-52.3934
 31
1.6
  0
LINE
  5
B14
330
A02
100
AcDbEntity
  8
Solid
100
AcDbLine
 10
92.796
 20
-52.3934
 30
1.6
 11
92.796
 21
-38.3934
 31
1.6
  0
LINE
  5
B15
330
A02
100
AcDbEntity
  8
Solid
100
AcDbLine
 10
111.846
 20
-82.8434
 30
1.6
 11
111.846
 21
-96.8434
 31
1.6
  0
LINE
  5
B16
330
A02
100
AcDbEntity
  8
Solid
100
AcDbLine
 10
125.846
 20
-82.8434
 30
1.6
 11
111.846
 21
-82.8434
 31
1.6
  0
LINE
  5
B17
330
A02
100
AcDbEntity
  8
Solid
100
AcDbLine
 10
125.846
 20
-96.8434
 30
1.6
 11
125.846
 21
-82.8434
 31
1.6
  0
LINE
  5
B18
330
A02
100
AcDbEntity
  8
Solid
100
AcDbLine
 10
111.846
 20
-96.8434
 30
1.6
 11
125.846
 21
-96.8434
 31
1.6
  0
LINE
  5
B19
330
A02
100
AcDbEntity
  8
Solid
100
AcDbLine
 10
111.846
 20
-63.7939
 30
1.6
 11
111.846
 21
-77.7939
 31
1.6
  0
LINE
  5
B1A
330
A02
100
AcDbEntity
  8
Solid
100
AcDbLine
 10
125.846
 20
-63.7939
 30
1.6
 11
111.846
 21
-63.7939
 31
1.6
  0
LINE
  5
B1B
330
A02
100
AcDbEntity
  8
Solid
100
AcDbLine
 10
125.846
 20
-77.7939
 30
1.6
 11
125.846
 21
-63.7939
 31
1.6
  0
LINE
  5
B1C
330
A02
100
AcDbEntity
  8
Solid
100
AcDbLine
 10
111.846
 20
-77.7939
 30
1.6
 11
125.846
 21
-77.7939
 31
1.6
  0
LINE
  5
B1D
330
A02
100
AcDbEntity
  8
Solid
100
AcDbLine
 10
144.896
 20
-86.0184
 30
1.6
 11
144.896
 21
-100.018
 31
1.6
  0
LINE
  5
B1E
330
A02
100
AcDbEntity
  8
Solid
100
AcDbLine
 10
144.896
 20
-100.018
 30
1.6
 11
130.896
 21
-100.018
 31
1.6
  0
LINE
  5
B1F
330
A02
100
AcDbEntity
  8
Solid
100
AcDbLine
 10
130.896
 20
-100.018
 30
1.6
 11
130.896
 21
-86.0184
 31
1.6
  0
LINE
  5
B20
330
A02
100
AcDbEntity
  8
Solid
100
AcDbLine
 10
130.896
 20
-86.0184
 30
1.6
 11
144.896
 21
-86.0184
 31
1.6
  0
LINE
  5
B21
330
A02
100
AcDbEntity
  8
Solid
100
AcDbLine
 10
144.896
 20
-66.9694
 30
1.6
 11
130.896
 21
-66.9694
 31
1.6
  0
LINE
  5
B22
330
A02
100
AcDbEntity
  8
Solid
100
AcDbLine
 10
144.896
 20
-80.9694
 30
1.6
 11
144.896
 21
-66.9694
 31
1.6
  0
LINE
  5
B23
330
A02
100
AcDbEntity
  8
Solid
100
AcDbLine
 10
130.896
 20
-80.9694
 30
1.6
 11
144.896
 21
-80.9694
 31
1.6
  0
LINE
  5
B24
330
A02
100
AcDbEntity
  8
Solid
100
AcDbLine
 10
130.896
 20
-66.9694
 30
1.6
 11
130.896
 21
-80.9694
 31
1.6
  0
CIRCLE
  5
B25
330
A02
100
AcDbEntity
  8
Solid
100
AcDbCircle
 10
128.371
 20
-59.3694
 40
1.15
  0
LINE
  5
B26
330
A02
100
AcDbEntity
  8
Solid
100
AcDbLine
 10
111.846
 20
-44.7439
 30
1.6
 11
125.846
 21
-44.7439
 31
1.6
  0
LINE
  5
B27
330
A02
100
AcDbEntity
  8
Solid
100
AcDbLine
 10
125.846
 20
-44.7439
 30
1.6
 11
125.846
 21
-58.7439
 31
1.6
  0
LINE
  5
B28
330
A02
100
AcDbEntity
  8
Solid
100
AcDbLine
 10
125.846
 20
-58.7439
 30
1.6
 11
111.846
 21
-58.7439
 31
1.6
  0
LINE
  5
B29
330
A02
100
AcDbEntity
  8
Solid
100
AcDbLine
 10
111.846
 20
-58.7439
 30
1.6
 11
111.846
 21
-44.7439
 31
1.6
  0
LINE
  5
B2A
330
A02
100
AcDbEntity
  8
Solid
100
AcDbLine
 10
144.896
 20
-47.9194
 30
1.6
 11
130.896
 21
-47.9194
 31
1.6
  0
LINE
  5
B2B
330
A02
100
AcDbEntity
  8
Solid
100
AcDbLine
 10
144.896
 20
-61.9194
 30
1.6
 11
144.896
 21
-47.9194
 31
1.6
  0
LINE
  5
B2C
330
A02
100
AcDbEntity
  8
Solid
100
AcDbLine
 10
130.896
 20
-61.9194
 30
1.6
 11
144.896
 21
-61.9194
 31
1.6
  0
LINE
  5
B2D
330
A02
100
AcDbEntity
  8
Solid
100
AcDbLine
 10
130.896
 20
-47.9194
 30
1.6
 11
130.896
 21
-61.9194
 31
1.6
  0
ARC
  5
B2E
330
A02
100
AcDbEntity
  8
Solid
100
AcDbCircle
 10
69.7212
 20
-134.683
 30
0
 40
4.06468
100
AcDbArc
 50
10.0011
 51
90.0008
  0
LINE
  5
B2F
330
A02
100
AcDbEntity
  8
Solid
100
AcDbLine
 10
69.7212
 20
-130.618
 30
0
 11
69.7212
 21
-130.618
 31
1.6
  0
ARC
  5
B30
330
A02
100
AcDbEntity
  8
Solid
100
AcDbCircle
 10
69.7212
 20
-134.683
 30
1.6
 40
4.06468
100
AcDbArc
 50
10.0011
 51
90.0008
  0
LINE
  5
B31
330
A02
100
AcDbEntity
  8
Solid
100
AcDbLine
 10
73.7242
 20
-133.977
 30
0
 11
73.7242
 21
-133.977
 31
1.6
  0
ARC
  5
B32
330
A02
100
AcDbEntity
  8
Solid
100
AcDbCircle
 10
102.813
 20
-246.984
 30
0
 40
109.373
100
AcDbArc
 50
60.0004
 51
100
  0
LINE
  5
B33
330
A02
100
AcDbEntity
  8
Solid
100
AcDbLine
 10
83.8201
 20
-139.273
 30
0
 11
83.8201
 21
-139.273
 31
1.6
  0
ARC
  5
B34
330
A02
100
AcDbEntity
  8
Solid
100
AcDbCircle
 10
102.813
 20
-246.984
 30
1.6
 40
109.373
100
AcDbArc
 50
60.0004
 51
100
  0
LINE
  5
B35
330
A02
100
AcDbEntity
  8
Solid
100
AcDbLine
 10
157.499
 20
-152.264
 30
0
 11
157.499
 21
-152.264
 31
1.6
  0
LINE
  5
B36
330
A02
100
AcDbEntity
  8
Solid
100
AcDbLine
 10
69.7212
 20
-130.618
 30
0
 11
69.7212
 21
-130.618
 31
1.6
  0
LINE
  5
B37
330
A02
100
AcDbEntity
  8
Solid
100
AcDbLine
 10
69.7212
 20
-130.618
 30
1.6
 11
34.6208
 21
-130.618
 31
1.6
  0
LINE
  5
B38
330
A02
100
AcDbEntity
  8
Solid
100
AcDbLine
 10
34.6208
 20
-130.618
 30
0
 11
34.6208
 21
-130.618
 31
1.6
  0
LINE
  5
B39
330
A02
100
AcDbEntity
  8
Solid
100
AcDbLine
 10
69.7212
 20
-130.618
 30
0
 11
34.6208
 21
-130.618
 31
0
  0
LINE
  5
B3A
330
A02
100
AcDbEntity
  8
Solid
100
AcDbLine
 10
164.45
 20
-156.276
 30
0
 11
164.45
 21
-156.276
 31
1.6
  0
LINE
  5
B3B
330
A02
100
AcDbEntity
  8
Solid
100
AcDbLine
 10
164.45
 20
-156.276
 30
1.6
 11
157.499
 21
-152.264
 31
1.6
  0
LINE
  5
B3C
330
A02
100
AcDbEntity
  8
Solid
100
AcDbLine
 10
157.499
 20
-152.264
 30
0
 11
157.499
 21
-152.264
 31
1.6
  0
LINE
  5
B3D
330
A02
100
AcDbEntity
  8
Solid
100
AcDbLine
 10
164.45
 20
-156.276
 30
0
 11
157.499
 21
-152.264
 31
0
  0
ARC
  5
B3E
330
A02
100
AcDbEntity
  8
Solid
100
AcDbCircle
 10
34.6208
 20
-129.618
 30
0
 40
0.99999
100
AcDbArc
 50
179.999
 51
-90.0002
  0
LINE
  5
B3F
330
A02
100
AcDbEntity
  8
Solid
100
AcDbLine
 10
34.6208
 20
-130.618
 30
0
 11
34.6208
 21
-130.618
 31
1.6
  0
ARC
  5
B40
330
A02
100
AcDbEntity
  8
Solid
100
AcDbCircle
 10
34.6208
 20
-129.618
 30
1.6
 40
0.99999
100
AcDbArc
 50
179.999
 51
-90.0002
  0
LINE
  5
B41
330
A02
100
AcDbEntity
  8
Solid
100
AcDbLine
 10
33.6208
 20
-129.618
 30
0
 11
33.6208
 21
-129.618
 31
1.6
  0
ARC
  5
B42
330
A02
100
AcDbEntity
  8
Solid
100
AcDbCircle
 10
164.95
 20
-155.41
 30
0
 40
1.00001
100
AcDbArc
 50
-120
 51
-30.0008
  0
LINE
  5
B43
330
A02
100
AcDbEntity
  8
Solid
100
AcDbLine
 10
165.816
 20
-155.91
 30
0
 11
165.816
 21
-155.91
 31
1.6
  0
ARC
  5
B44
330
A02
100
AcDbEntity
  8
Solid
100
AcDbCircle
 10
164.95
 20
-155.41
 30
1.6
 40
1.00001
100
AcDbArc
 50
-120
 51
-30.0008
  0
LINE
  5
B45
330
A02
100
AcDbEntity
  8
Solid
100
AcDbLine
 10
164.45
 20
-156.276
 30
0
 11
164.45
 21
-156.276
 31
1.6
  0
LINE
  5
B46
330
A02
100
AcDbEntity
  8
Solid
100
AcDbLine
 10
33.6208
 20
-129.618
 30
0
 11
33.6208
 21
-129.618
 31
1.6
  0
LINE
  5
B47
330
A02
100
AcDbEntity
  8
Solid
100
AcDbLine
 10
33.6208
 20
-129.618
 30
1.6
 11
33.6208
 21
-56.4185
 31
1.6
  0
LINE
  5
B48
330
A02
100
AcDbEntity
  8
Solid
100
AcDbLine
 10
33.6208
 20
-56.4185
 30
0
 11
33.6208
 21
-56.4185
 31
1.6
  0
LINE
  5
B49
330
A02
100
AcDbEntity
  8
Solid
100
AcDbLine
 10
33.6208
 20
-129.618
 30
0
 11
33.6208
 21
-56.4185
 31
0
  0
LINE
  5
B4A
330
A02
100
AcDbEntity
  8
Solid
100
AcDbLine
 10
174.091
 20
-141.577
 30
0
 11
174.091
 21
-141.577
 31
1.6
  0
LINE
  5
B4B
330
A02
100
AcDbEntity
  8
Solid
100
AcDbLine
 10
174.091
 20
-141.577
 30
1.6
 11
165.816
 21
-155.91
 31
1.6
  0
LINE
  5
B4C
330
A02
100
AcDbEntity
  8
Solid
100
AcDbLine
 10
165.816
 20
-155.91
 30
0
 11
165.816
 21
-155.91
 31
1.6
  0
LINE
  5
B4D
330
A02
100
AcDbEntity
  8
Solid
100
AcDbLine
 10
174.091
 20
-141.577
 30
0
 11
165.816
 21
-155.91
 31
0
  0
ARC
  5
B4E
330
A02
100
AcDbEntity
  8
Solid
100
AcDbCircle
 10
34.5927
 20
-56.4185
 30
0
 40
0.9719
100
AcDbArc
 50
124.601
 51
-180
  0
LINE
  5
B4F
330
A02
100
AcDbEntity
  8
Solid
100
AcDbLine
 10
33.6208
 20
-56.4185
 30
0
 11
33.6208
 21
-56.4185
 31
1.6
  0
ARC
  5
B50
330
A02
100
AcDbEntity
  8
Solid
100
AcDbCircle
 10
34.5927
 20
-56.4185
 30
1.6
 40
0.9719
100
AcDbArc
 50
124.601
 51
-180
  0
LINE
  5
B51
330
A02
100
AcDbEntity
  8
Solid
100
AcDbLine
 10
34.0408
 20
-55.6185
 30
0
 11
34.0408
 21
-55.6185
 31
1.6
  0
ARC
  5
B52
330
A02
100
AcDbEntity
  8
Solid
100
AcDbCircle
 10
173.225
 20
-141.077
 30
0
 40
1
100
AcDbArc
 50
-30.0007
 51
59.9992
  0
LINE
  5
B53
330
A02
100
AcDbEntity
  8
Solid
100
AcDbLine
 10
173.725
 20
-140.211
 30
0
 11
173.725
 21
-140.211
 31
1.6
  0
ARC
  5
B54
330
A02
100
AcDbEntity
  8
Solid
100
AcDbCircle
 10
173.225
 20
-141.077
 30
1.6
 40
1
100
AcDbArc
 50
-30.0007
 51
59.9992
  0
LINE
  5
B55
330
A02
100
AcDbEntity
  8
Solid
100
AcDbLine
 10
174.091
 20
-141.577
 30
0
 11
174.091
 21
-141.577
 31
1.6
  0
ARC
  5
B56
330
A02
100
AcDbEntity
  8
Solid
100
AcDbCircle
 10
99.8332
 20
-155.33
 30
0
 40
119.462
100
AcDbArc
 50
90.0179
 51
123.418
  0
LINE
  5
B57
330
A02
100
AcDbEntity
  8
Solid
100
AcDbLine
 10
34.0408
 20
-55.6185
 30
0
 11
34.0408
 21
-55.6185
 31
1.6
  0
ARC
  5
B58
330
A02
100
AcDbEntity
  8
Solid
100
AcDbCircle
 10
99.8332
 20
-155.33
 30
1.6
 40
119.462
100
AcDbArc
 50
90.0179
 51
123.418
  0
LINE
  5
B59
330
A02
100
AcDbEntity
  8
Solid
100
AcDbLine
 10
99.7959
 20
-35.8686
 30
0
 11
99.7959
 21
-35.8686
 31
1.6
  0
LINE
  5
B5A
330
A02
100
AcDbEntity
  8
Solid
100
AcDbLine
 10
166.774
 20
-136.199
 30
0
 11
166.774
 21
-136.199
 31
1.6
  0
LINE
  5
B5B
330
A02
100
AcDbEntity
  8
Solid
100
AcDbLine
 10
166.774
 20
-136.199
 30
1.6
 11
173.725
 21
-140.211
 31
1.6
  0
LINE
  5
B5C
330
A02
100
AcDbEntity
  8
Solid
100
AcDbLine
 10
173.725
 20
-140.211
 30
0
 11
173.725
 21
-140.211
 31
1.6
  0
LINE
  5
B5D
330
A02
100
AcDbEntity
  8
Solid
100
AcDbLine
 10
166.774
 20
-136.199
 30
0
 11
173.725
 21
-140.211
 31
0
  0
ARC
  5
B5E
330
A02
100
AcDbEntity
  8
Solid
100
AcDbCircle
 10
99.8188
 20
-149.094
 30
0
 40
113.226
100
AcDbArc
 50
65.8116
 51
90.0116
  0
LINE
  5
B5F
330
A02
100
AcDbEntity
  8
Solid
100
AcDbLine
 10
99.7959
 20
-35.8686
 30
0
 11
99.7959
 21
-35.8686
 31
1.6
  0
ARC
  5
B60
330
A02
100
AcDbEntity
  8
Solid
100
AcDbCircle
 10
99.8188
 20
-149.094
 30
1.6
 40
113.226
100
AcDbArc
 50
65.8116
 51
90.0116
  0
LINE
  5
B61
330
A02
100
AcDbEntity
  8
Solid
100
AcDbLine
 10
146.212
 20
-45.8095
 30
0
 11
146.212
 21
-45.8095
 31
1.6
  0
ARC
  5
B62
330
A02
100
AcDbEntity
  8
Solid
100
AcDbCircle
 10
102.693
 20
-247.337
 30
0
 40
128.289
100
AcDbArc
 50
60.0325
 51
69.8324
  0
LINE
  5
B63
330
A02
100
AcDbEntity
  8
Solid
100
AcDbLine
 10
146.923
 20
-126.913
 30
0
 11
146.923
 21
-126.913
 31
1.6
  0
ARC
  5
B64
330
A02
100
AcDbEntity
  8
Solid
100
AcDbCircle
 10
102.693
 20
-247.337
 30
1.6
 40
128.289
100
AcDbArc
 50
60.0325
 51
69.8324
  0
LINE
  5
B65
330
A02
100
AcDbEntity
  8
Solid
100
AcDbLine
 10
166.774
 20
-136.199
 30
0
 11
166.774
 21
-136.199
 31
1.6
  0
ARC
  5
B66
330
A02
100
AcDbEntity
  8
Solid
100
AcDbCircle
 10
145.739
 20
-46.8948
 30
0
 40
1.18405
100
AcDbArc
 50
0.0387117
 51
66.4403
  0
LINE
  5
B67
330
A02
100
AcDbEntity
  8
Solid
100
AcDbLine
 10
146.212
 20
-45.8095
 30
0
 11
146.212
 21
-45.8095
 31
1.6
  0
ARC
  5
B68
330
A02
100
AcDbEntity
  8
Solid
100
AcDbCircle
 10
145.739
 20
-46.8948
 30
1.6
 40
1.18405
100
AcDbArc
 50
0.0387117
 51
66.4403
  0
LINE
  5
B69
330
A02
100
AcDbEntity
  8
Solid
100
AcDbLine
 10
146.923
 20
-46.894
 30
0
 11
146.923
 21
-46.894
 31
1.6
  0
LINE
  5
B6A
330
A02
100
AcDbEntity
  8
Solid
100
AcDbLine
 10
146.923
 20
-46.894
 30
0
 11
146.923
 21
-46.894
 31
1.6
  0
LINE
  5
B6B
330
A02
100
AcDbEntity
  8
Solid
100
AcDbLine
 10
146.923
 20
-46.894
 30
1.6
 11
146.923
 21
-126.913
 31
1.6
  0
LINE
  5
B6C
330
A02
100
AcDbEntity
  8
Solid
100
AcDbLine
 10
146.923
 20
-126.913
 30
0
 11
146.923
 21
-126.913
 31
1.6
  0
LINE
  5
B6D
330
A02
100
AcDbEntity
  8
Solid
100
AcDbLine
 10
146.923
 20
-46.894
 30
0
 11
146.923
 21
-126.913
 31
0
  0
LINE
  5
B6E
330
A02
100
AcDbEntity
  8
Solid
100
AcDbLine
 10
76.5769
 20
-138.494
 30
0
 11
76.5769
 21
-138.494
 31
1.6
  0
LINE
  5
B6F
330
A02
100
AcDbEntity
  8
Solid
100
AcDbLine
 10
76.5769
 20
-138.494
 30
1.6
 11
90.3642
 21
-136.063
 31
1.6
  0
LINE
  5
B70
330
A02
100
AcDbEntity
  8
Solid
100
AcDbLine
 10
90.3642
 20
-136.063
 30
0
 11
90.3642
 21
-136.063
 31
1.6
  0
LINE
  5
B71
330
A02
100
AcDbEntity
  8
Solid
100
AcDbLine
 10
76.5769
 20
-138.494
 30
0
 11
90.3642
 21
-136.063
 31
0
  0
LINE
  5
B72
330
A02
100
AcDbEntity
  8
Solid
100
AcDbLine
 10
90.3642
 20
-136.063
 30
0
 11
90.3642
 21
-136.063
 31
1.6
  0
LINE
  5
B73
330
A02
100
AcDbEntity
  8
Solid
100
AcDbLine
 10
90.3642
 20
-136.063
 30
1.6
 11
87.9331
 21
-122.276
 31
1.6
  0
LINE
  5
B74
330
A02
100
AcDbEntity
  8
Solid
100
AcDbLine
 10
87.9331
 20
-122.276
 30
0
 11
87.9331
 21
-122.276
 31
1.6
  0
LINE
  5
B75
330
A02
100
AcDbEntity
  8
Solid
100
AcDbLine
 10
90.3642
 20
-136.063
 30
0
 11
87.9331
 21
-122.276
 31
0
  0
LINE
  5
B76
330
A02
100
AcDbEntity
  8
Solid
100
AcDbLine
 10
87.9331
 20
-122.276
 30
0
 11
87.9331
 21
-122.276
 31
1.6
  0
LINE
  5
B77
330
A02
100
AcDbEntity
  8
Solid
100
AcDbLine
 10
87.9331
 20
-122.276
 30
1.6
 11
74.1458
 21
-124.707
 31
1.6
  0
LINE
  5
B78
330
A02
100
AcDbEntity
  8
Solid
100
AcDbLine
 10
74.1458
 20
-124.707
 30
0
 11
74.1458
 21
-124.707
 31
1.6
  0
LINE
  5
B79
330
A02
100
AcDbEntity
  8
Solid
100
AcDbLine
 10
87.9331
 20
-122.276
 30
0
 11
74.1458
 21
-124.707
 31
0
  0
LINE
  5
B7A
330
A02
100
AcDbEntity
  8
Solid
100
AcDbLine
 10
74.1458
 20
-124.707
 30
0
 11
74.1458
 21
-124.707
 31
1.6
  0
LINE
  5
B7B
330
A02
100
AcDbEntity
  8
Solid
100
AcDbLine
 10
74.1458
 20
-124.707
 30
1.6
 11
76.5769
 21
-138.494
 31
1.6
  0
LINE
  5
B7C
330
A02
100
AcDbEntity
  8
Solid
100
AcDbLine
 10
76.5769
 20
-138.494
 30
0
 11
76.5769
 21
-138.494
 31
1.6
  0
LINE
  5
B7D
330
A02
100
AcDbEntity
  8
Solid
100
AcDbLine
 10
74.1458
 20
-124.707
 30
0
 11
76.5769
 21
-138.494
 31
0
  0
LINE
  5
B7E
330
A02
100
AcDbEntity
  8
Solid
100
AcDbLine
 10
95.8145
 20
-135.586
 30
0
 11
95.8145
 21
-135.586
 31
1.6
  0
LINE
  5
B7F
330
A02
100
AcDbEntity
  8
Solid
100
AcDbLine
 10
95.8145
 20
-135.586
 30
1.6
 11
95.8145
 21
-121.586
 31
1.6
  0
LINE
  5
B80
330
A02
100
AcDbEntity
  8
Solid
100
AcDbLine
 10
95.8145
 20
-121.586
 30
0
 11
95.8145
 21
-121.586
 31
1.6
  0
LINE
  5
B81
330
A02
100
AcDbEntity
  8
Solid
100
AcDbLine
 10
95.8145
 20
-135.586
 30
0
 11
95.8145
 21
-121.586
 31
0
  0
LINE
  5
B82
330
A02
100
AcDbEntity
  8
Solid
100
AcDbLine
 10
109.815
 20
-135.586
 30
0
 11
109.815
 21
-135.586
 31
1.6
  0
LINE
  5
B83
330
A02
100
AcDbEntity
  8
Solid
100
AcDbLine
 10
109.815
 20
-135.586
 30
1.6
 11
95.8145
 21
-135.586
 31
1.6
  0
LINE
  5
B84
330
A02
100
AcDbEntity
  8
Solid
100
AcDbLine
 10
95.8145
 20
-135.586
 30
0
 11
95.8145
 21
-135.586
 31
1.6
  0
LINE
  5
B85
330
A02
100
AcDbEntity
  8
Solid
100
AcDbLine
 10
109.815
 20
-135.586
 30
0
 11
95.8145
 21
-135.586
 31
0
  0
LINE
  5
B86
330
A02
100
AcDbEntity
  8
Solid
100
AcDbLine
 10
109.815
 20
-121.586
 30
0
 11
109.815
 21
-121.586
 31
1.6
  0
LINE
  5
B87
330
A02
100
AcDbEntity
  8
Solid
100
AcDbLine
 10
109.815
 20
-121.586
 30
1.6
 11
109.815
 21
-135.586
 31
1.6
  0
LINE
  5
B88
330
A02
100
AcDbEntity
  8
Solid
100
AcDbLine
 10
109.815
 20
-135.586
 30
0
 11
109.815
 21
-135.586
 31
1.6
  0
LINE
  5
B89
330
A02
100
AcDbEntity
  8
Solid
100
AcDbLine
 10
109.815
 20
-121.586
 30
0
 11
109.815
 21
-135.586
 31
0
  0
LINE
  5
B8A
330
A02
100
AcDbEntity
  8
Solid
100
AcDbLine
 10
95.8145
 20
-121.586
 30
0
 11
95.8145
 21
-121.586
 31
1.6
  0
LINE
  5
B8B
330
A02
100
AcDbEntity
  8
Solid
100
AcDbLine
 10
95.8145
 20
-121.586
 30
1.6
 11
109.815
 21
-121.586
 31
1.6
  0
LINE
  5
B8C
330
A02
100
AcDbEntity
  8
Solid
100
AcDbLine
 10
109.815
 20
-121.586
 30
0
 11
109.815
 21
-121.586
 31
1.6
  0
LINE
  5
B8D
330
A02
100
AcDbEntity
  8
Solid
100
AcDbLine
 10
95.8145
 20
-121.586
 30
0
 11
109.815
 21
-121.586
 31
0
  0
LINE
  5
B8E
330
A02
100
AcDbEntity
  8
Solid
100
AcDbLine
 10
49.646
 20
-128.593
 30
0
 11
49.646
 21
-128.593
 31
1.6
  0
LINE
  5
B8F
330
A02
100
AcDbEntity
  8
Solid
100
AcDbLine
 10
49.646
 20
-128.593
 30
1.6
 11
35.646
 21
-128.593
 31
1.6
  0
LINE
  5
B90
330
A02
100
AcDbEntity
  8
Solid
100
AcDbLine
 10
35.646
 20
-128.593
 30
0
 11
35.646
 21
-128.593
 31
1.6
  0
LINE
  5
B91
330
A02
100
AcDbEntity
  8
Solid
100
AcDbLine
 10
49.646
 20
-128.593
 30
0
 11
35.646
 21
-128.593
 31
0
  0
LINE
  5
B92
330
A02
100
AcDbEntity
  8
Solid
100
AcDbLine
 10
49.646
 20
-114.593
 30
0
 11
49.646
 21
-114.593
 31
1.6
  0
LINE
  5
B93
330
A02
100
AcDbEntity
  8
Solid
100
AcDbLine
 10
49.646
 20
-114.593
 30
1.6
 11
49.646
 21
-128.593
 31
1.6
  0
LINE
  5
B94
330
A02
100
AcDbEntity
  8
Solid
100
AcDbLine
 10
49.646
 20
-128.593
 30
0
 11
49.646
 21
-128.593
 31
1.6
  0
LINE
  5
B95
330
A02
100
AcDbEntity
  8
Solid
100
AcDbLine
 10
49.646
 20
-114.593
 30
0
 11
49.646
 21
-128.593
 31
0
  0
LINE
  5
B96
330
A02
100
AcDbEntity
  8
Solid
100
AcDbLine
 10
35.646
 20
-114.593
 30
0
 11
35.646
 21
-114.593
 31
1.6
  0
LINE
  5
B97
330
A02
100
AcDbEntity
  8
Solid
100
AcDbLine
 10
35.646
 20
-114.593
 30
1.6
 11
49.646
 21
-114.593
 31
1.6
  0
LINE
  5
B98
330
A02
100
AcDbEntity
  8
Solid
100
AcDbLine
 10
49.646
 20
-114.593
 30
0
 11
49.646
 21
-114.593
 31
1.6
  0
LINE
  5
B99
330
A02
100
AcDbEntity
  8
Solid
100
AcDbLine
 10
35.646
 20
-114.593
 30
0
 11
49.646
 21
-114.593
 31
0
  0
LINE
  5
B9A
330
A02
100
AcDbEntity
  8
Solid
100
AcDbLine
 10
35.646
 20
-128.593
 30
0
 11
35.646
 21
-128.593
 31
1.6
  0
LINE
  5
B9B
330
A02
100
AcDbEntity
  8
Solid
100
AcDbLine
 10
35.646
 20
-128.593
 30
1.6
 11
35.646
 21
-114.593
 31
1.6
  0
LINE
  5
B9C
330
A02
100
AcDbEntity
  8
Solid
100
AcDbLine
 10
35.646
 20
-114.593
 30
0
 11
35.646
 21
-114.593
 31
1.6
  0
LINE
  5
B9D
330
A02
100
AcDbEntity
  8
Solid
100
AcDbLine
 10
35.646
 20
-128.593
 30
0
 11
35.646
 21
-114.593
 31
0
  0
CIRCLE
  5
B9E
330
A02
100
AcDbEntity
  8
Solid
100
AcDbCircle
 10
50.271
 20
-112.068
 40
1.15
  0
LINE
  5
B9F
330
A02
100
AcDbEntity
  8
Solid
100
AcDbLine
 10
51.421
 20
-112.068
 30
0
 11
51.421
 21
-112.068
 31
1.6
  0
CIRCLE
  5
BA0
330
A02
100
AcDbEntity
  8
Solid
100
AcDbCircle
 10
50.271
 20
-112.068
 40
1.15
  0
LINE
  5
BA1
330
A02
100
AcDbEntity
  8
Solid
100
AcDbLine
 10
51.421
 20
-112.068
 30
0
 11
51.421
 21
-112.068
 31
1.6
  0
LINE
  5
BA2
330
A02
100
AcDbEntity
  8
Solid
100
AcDbLine
 10
54.696
 20
-114.593
 30
0
 11
54.696
 21
-114.593
 31
1.6
  0
LINE
  5
BA3
330
A02
100
AcDbEntity
  8
Solid
100
AcDbLine
 10
54.696
 20
-114.593
 30
1.6
 11
54.696
 21
-128.593
 31
1.6
  0
LINE
  5
BA4
330
A02
100
AcDbEntity
  8
Solid
100
AcDbLine
 10
54.696
 20
-128.593
 30
0
 11
54.696
 21
-128.593
 31
1.6
  0
LINE
  5
BA5
330
A02
100
AcDbEntity
  8
Solid
100
AcDbLine
 10
54.696
 20
-114.593
 30
0
 11
54.696
 21
-128.593
 31
0
  0
LINE
  5
BA6
330
A02
100
AcDbEntity
  8
Solid
100
AcDbLine
 10
54.696
 20
-128.593
 30
0
 11
54.696
 21
-128.593
 31
1.6
  0
LINE
  5
BA7
330
A02
100
AcDbEntity
  8
Solid
100
AcDbLine
 10
54.696
 20
-128.593
 30
1.6
 11
68.696
 21
-128.593
 31
1.6
  0
LINE
  5
BA8
330
A02
100
AcDbEntity
  8
Solid
100
AcDbLine
 10
68.696
 20
-128.593
 30
0
 11
68.696
 21
-128.593
 31
1.6
  0
LINE
  5
BA9
330
A02
100
AcDbEntity
  8
Solid
100
AcDbLine
 10
54.696
 20
-128.593
 30
0
 11
68.696
 21
-128.593
 31
0
  0
LINE
  5
BAA
330
A02
100
AcDbEntity
  8
Solid
100
AcDbLine
 10
68.696
 20
-128.593
 30
0
 11
68.696
 21
-128.593
 31
1.6
  0
LINE
  5
BAB
330
A02
100
AcDbEntity
  8
Solid
100
AcDbLine
 10
68.696
 20
-128.593
 30
1.6
 11
68.696
 21
-114.593
 31
1.6
  0
LINE
  5
BAC
330
A02
100
AcDbEntity
  8
Solid
100
AcDbLine
 10
68.696
 20
-114.593
 30
0
 11
68.696
 21
-114.593
 31
1.6
  0
LINE
  5
BAD
330
A02
100
AcDbEntity
  8
Solid
100
AcDbLine
 10
68.696
 20
-128.593
 30
0
 11
68.696
 21
-114.593
 31
0
  0
LINE
  5
BAE
330
A02
100
AcDbEntity
  8
Solid
100
AcDbLine
 10
68.696
 20
-114.593
 30
0
 11
68.696
 21
-114.593
 31
1.6
  0
LINE
  5
BAF
330
A02
100
AcDbEntity
  8
Solid
100
AcDbLine
 10
68.696
 20
-114.593
 30
1.6
 11
54.696
 21
-114.593
 31
1.6
  0
LINE
  5
BB0
330
A02
100
AcDbEntity
  8
Solid
100
AcDbLine
 10
54.696
 20
-114.593
 30
0
 11
54.696
 21
-114.593
 31
1.6
  0
LINE
  5
BB1
330
A02
100
AcDbEntity
  8
Solid
100
AcDbLine
 10
68.696
 20
-114.593
 30
0
 11
54.696
 21
-114.593
 31
0
  0
LINE
  5
BB2
330
A02
100
AcDbEntity
  8
Solid
100
AcDbLine
 10
49.646
 20
-95.5434
 30
0
 11
49.646
 21
-95.5434
 31
1.6
  0
LINE
  5
BB3
330
A02
100
AcDbEntity
  8
Solid
100
AcDbLine
 10
49.646
 20
-95.5434
 30
1.6
 11
35.646
 21
-95.5434
 31
1.6
  0
LINE
  5
BB4
330
A02
100
AcDbEntity
  8
Solid
100
AcDbLine
 10
35.646
 20
-95.5434
 30
0
 11
35.646
 21
-95.5434
 31
1.6
  0
LINE
  5
BB5
330
A02
100
AcDbEntity
  8
Solid
100
AcDbLine
 10
49.646
 20
-95.5434
 30
0
 11
35.646
 21
-95.5434
 31
0
  0
LINE
  5
BB6
330
A02
100
AcDbEntity
  8
Solid
100
AcDbLine
 10
35.646
 20
-95.5434
 30
0
 11
35.646
 21
-95.5434
 31
1.6
  0
LINE
  5
BB7
330
A02
100
AcDbEntity
  8
Solid
100
AcDbLine
 10
35.646
 20
-95.5434
 30
1.6
 11
35.646
 21
-109.543
 31
1.6
  0
LINE
  5
BB8
330
A02
100
AcDbEntity
  8
Solid
100
AcDbLine
 10
35.646
 20
-109.543
 30
0
 11
35.646
 21
-109.543
 31
1.6
  0
LINE
  5
BB9
330
A02
100
AcDbEntity
  8
Solid
100
AcDbLine
 10
35.646
 20
-95.5434
 30
0
 11
35.646
 21
-109.543
 31
0
  0
LINE
  5
BBA
330
A02
100
AcDbEntity
  8
Solid
100
AcDbLine
 10
35.646
 20
-109.543
 30
0
 11
35.646
 21
-109.543
 31
1.6
  0
LINE
  5
BBB
330
A02
100
AcDbEntity
  8
Solid
100
AcDbLine
 10
35.646
 20
-109.543
 30
1.6
 11
49.646
 21
-109.543
 31
1.6
  0
LINE
  5
BBC
330
A02
100
AcDbEntity
  8
Solid
100
AcDbLine
 10
49.646
 20
-109.543
 30
0
 11
49.646
 21
-109.543
 31
1.6
  0
LINE
  5
BBD
330
A02
100
AcDbEntity
  8
Solid
100
AcDbLine
 10
35.646
 20
-109.543
 30
0
 11
49.646
 21
-109.543
 31
0
  0
LINE
  5
BBE
330
A02
100
AcDbEntity
  8
Solid
100
AcDbLine
 10
49.646
 20
-109.543
 30
0
 11
49.646
 21
-109.543
 31
1.6
  0
LINE
  5
BBF
330
A02
100
AcDbEntity
  8
Solid
100
AcDbLine
 10
49.646
 20
-109.543
 30
1.6
 11
49.646
 21
-95.5434
 31
1.6
  0
LINE
  5
BC0
330
A02
100
AcDbEntity
  8
Solid
100
AcDbLine
 10
49.646
 20
-95.5434
 30
0
 11
49.646
 21
-95.5434
 31
1.6
  0
LINE
  5
BC1
330
A02
100
AcDbEntity
  8
Solid
100
AcDbLine
 10
49.646
 20
-109.543
 30
0
 11
49.646
 21
-95.5434
 31
0
  0
LINE
  5
BC2
330
A02
100
AcDbEntity
  8
Solid
100
AcDbLine
 10
68.696
 20
-109.543
 30
0
 11
68.696
 21
-109.543
 31
1.6
  0
LINE
  5
BC3
330
A02
100
AcDbEntity
  8
Solid
100
AcDbLine
 10
68.696
 20
-109.543
 30
1.6
 11
54.696
 21
-109.543
 31
1.6
  0
LINE
  5
BC4
330
A02
100
AcDbEntity
  8
Solid
100
AcDbLine
 10
54.696
 20
-109.543
 30
0
 11
54.696
 21
-109.543
 31
1.6
  0
LINE
  5
BC5
330
A02
100
AcDbEntity
  8
Solid
100
AcDbLine
 10
68.696
 20
-109.543
 30
0
 11
54.696
 21
-109.543
 31
0
  0
LINE
  5
BC6
330
A02
100
AcDbEntity
  8
Solid
100
AcDbLine
 10
68.696
 20
-95.5434
 30
0
 11
68.696
 21
-95.5434
 31
1.6
  0
LINE
  5
BC7
330
A02
100
AcDbEntity
  8
Solid
100
AcDbLine
 10
68.696
 20
-95.5434
 30
1.6
 11
68.696
 21
-109.543
 31
1.6
  0
LINE
  5
BC8
330
A02
100
AcDbEntity
  8
Solid
100
AcDbLine
 10
68.696
 20
-109.543
 30
0
 11
68.696
 21
-109.543
 31
1.6
  0
LINE
  5
BC9
330
A02
100
AcDbEntity
  8
Solid
100
AcDbLine
 10
68.696
 20
-95.5434
 30
0
 11
68.696
 21
-109.543
 31
0
  0
LINE
  5
BCA
330
A02
100
AcDbEntity
  8
Solid
100
AcDbLine
 10
54.696
 20
-95.5434
 30
0
 11
54.696
 21
-95.5434
 31
1.6
  0
LINE
  5
BCB
330
A02
100
AcDbEntity
  8
Solid
100
AcDbLine
 10
54.696
 20
-95.5434
 30
1.6
 11
68.696
 21
-95.5434
 31
1.6
  0
LINE
  5
BCC
330
A02
100
AcDbEntity
  8
Solid
100
AcDbLine
 10
68.696
 20
-95.5434
 30
0
 11
68.696
 21
-95.5434
 31
1.6
  0
LINE
  5
BCD
330
A02
100
AcDbEntity
  8
Solid
100
AcDbLine
 10
54.696
 20
-95.5434
 30
0
 11
68.696
 21
-95.5434
 31
0
  0
LINE
  5
BCE
330
A02
100
AcDbEntity
  8
Solid
100
AcDbLine
 10
54.696
 20
-109.543
 30
0
 11
54.696
 21
-109.543
 31
1.6
  0
LINE
  5
BCF
330
A02
100
AcDbEntity
  8
Solid
100
AcDbLine
 10
54.696
 20
-109.543
 30
1.6
 11
54.696
 21
-95.5434
 31
1.6
  0
LINE
  5
BD0
330
A02
100
AcDbEntity
  8
Solid
100
AcDbLine
 10
54.696
 20
-95.5434
 30
0
 11
54.696
 21
-95.5434
 31
1.6
  0
LINE
  5
BD1
330
A02
100
AcDbEntity
  8
Solid
100
AcDbLine
 10
54.696
 20
-109.543
 30
0
 11
54.696
 21
-95.5434
 31
0
  0
LINE
  5
BD2
330
A02
100
AcDbEntity
  8
Solid
100
AcDbLine
 10
87.746
 20
-115.893
 30
0
 11
87.746
 21
-115.893
 31
1.6
  0
LINE
  5
BD3
330
A02
100
AcDbEntity
  8
Solid
100
AcDbLine
 10
87.746
 20
-115.893
 30
1.6
 11
73.746
 21
-115.893
 31
1.6
  0
LINE
  5
BD4
330
A02
100
AcDbEntity
  8
Solid
100
AcDbLine
 10
73.746
 20
-115.893
 30
0
 11
73.746
 21
-115.893
 31
1.6
  0
LINE
  5
BD5
330
A02
100
AcDbEntity
  8
Solid
100
AcDbLine
 10
87.746
 20
-115.893
 30
0
 11
73.746
 21
-115.893
 31
0
  0
LINE
  5
BD6
330
A02
100
AcDbEntity
  8
Solid
100
AcDbLine
 10
87.746
 20
-101.893
 30
0
 11
87.746
 21
-101.893
 31
1.6
  0
LINE
  5
BD7
330
A02
100
AcDbEntity
  8
Solid
100
AcDbLine
 10
87.746
 20
-101.893
 30
1.6
 11
87.746
 21
-115.893
 31
1.6
  0
LINE
  5
BD8
330
A02
100
AcDbEntity
  8
Solid
100
AcDbLine
 10
87.746
 20
-115.893
 30
0
 11
87.746
 21
-115.893
 31
1.6
  0
LINE
  5
BD9
330
A02
100
AcDbEntity
  8
Solid
100
AcDbLine
 10
87.746
 20
-101.893
 30
0
 11
87.746
 21
-115.893
 31
0
  0
LINE
  5
BDA
330
A02
100
AcDbEntity
  8
Solid
100
AcDbLine
 10
73.746
 20
-101.893
 30
0
 11
73.746
 21
-101.893
 31
1.6
  0
LINE
  5
BDB
330
A02
100
AcDbEntity
  8
Solid
100
AcDbLine
 10
73.746
 20
-101.893
 30
1.6
 11
87.746
 21
-101.893
 31
1.6
  0
LINE
  5
BDC
330
A02
100
AcDbEntity
  8
Solid
100
AcDbLine
 10
87.746
 20
-101.893
 30
0
 11
87.746
 21
-101.893
 31
1.6
  0
LINE
  5
BDD
330
A02
100
AcDbEntity
  8
Solid
100
AcDbLine
 10
73.746
 20
-101.893
 30
0
 11
87.746
 21
-101.893
 31
0
  0
LINE
  5
BDE
330
A02
100
AcDbEntity
  8
Solid
100
AcDbLine
 10
73.746
 20
-115.893
 30
0
 11
73.746
 21
-115.893
 31
1.6
  0
LINE
  5
BDF
330
A02
100
AcDbEntity
  8
Solid
100
AcDbLine
 10
73.746
 20
-115.893
 30
1.6
 11
73.746
 21
-101.893
 31
1.6
  0
LINE
  5
BE0
330
A02
100
AcDbEntity
  8
Solid
100
AcDbLine
 10
73.746
 20
-101.893
 30
0
 11
73.746
 21
-101.893
 31
1.6
  0
LINE
  5
BE1
330
A02
100
AcDbEntity
  8
Solid
100
AcDbLine
 10
73.746
 20
-115.893
 30
0
 11
73.746
 21
-101.893
 31
0
  0
LINE
  5
BE2
330
A02
100
AcDbEntity
  8
Solid
100
AcDbLine
 10
92.796
 20
-95.5434
 30
0
 11
92.796
 21
-95.5434
 31
1.6
  0
LINE
  5
BE3
330
A02
100
AcDbEntity
  8
Solid
100
AcDbLine
 10
92.796
 20
-95.5434
 30
1.6
 11
92.796
 21
-109.543
 31
1.6
  0
LINE
  5
BE4
330
A02
100
AcDbEntity
  8
Solid
100
AcDbLine
 10
92.796
 20
-109.543
 30
0
 11
92.796
 21
-109.543
 31
1.6
  0
LINE
  5
BE5
330
A02
100
AcDbEntity
  8
Solid
100
AcDbLine
 10
92.796
 20
-95.5434
 30
0
 11
92.796
 21
-109.543
 31
0
  0
LINE
  5
BE6
330
A02
100
AcDbEntity
  8
Solid
100
AcDbLine
 10
92.796
 20
-109.543
 30
0
 11
92.796
 21
-109.543
 31
1.6
  0
LINE
  5
BE7
330
A02
100
AcDbEntity
  8
Solid
100
AcDbLine
 10
92.796
 20
-109.543
 30
1.6
 11
106.796
 21
-109.543
 31
1.6
  0
LINE
  5
BE8
330
A02
100
AcDbEntity
  8
Solid
100
AcDbLine
 10
106.796
 20
-109.543
 30
0
 11
106.796
 21
-109.543
 31
1.6
  0
LINE
  5
BE9
330
A02
100
AcDbEntity
  8
Solid
100
AcDbLine
 10
92.796
 20
-109.543
 30
0
 11
106.796
 21
-109.543
 31
0
  0
LINE
  5
BEA
330
A02
100
AcDbEntity
  8
Solid
100
AcDbLine
 10
106.796
 20
-109.543
 30
0
 11
106.796
 21
-109.543
 31
1.6
  0
LINE
  5
BEB
330
A02
100
AcDbEntity
  8
Solid
100
AcDbLine
 10
106.796
 20
-109.543
 30
1.6
 11
106.796
 21
-95.5434
 31
1.6
  0
LINE
  5
BEC
330
A02
100
AcDbEntity
  8
Solid
100
AcDbLine
 10
106.796
 20
-95.5434
 30
0
 11
106.796
 21
-95.5434
 31
1.6
  0
LINE
  5
BED
330
A02
100
AcDbEntity
  8
Solid
100
AcDbLine
 10
106.796
 20
-109.543
 30
0
 11
106.796
 21
-95.5434
 31
0
  0
LINE
  5
BEE
330
A02
100
AcDbEntity
  8
Solid
100
AcDbLine
 10
106.796
 20
-95.5434
 30
0
 11
106.796
 21
-95.5434
 31
1.6
  0
LINE
  5
BEF
330
A02
100
AcDbEntity
  8
Solid
100
AcDbLine
 10
106.796
 20
-95.5434
 30
1.6
 11
92.796
 21
-95.5434
 31
1.6
  0
LINE
  5
BF0
330
A02
100
AcDbEntity
  8
Solid
100
AcDbLine
 10
92.796
 20
-95.5434
 30
0
 11
92.796
 21
-95.5434
 31
1.6
  0
LINE
  5
BF1
330
A02
100
AcDbEntity
  8
Solid
100
AcDbLine
 10
106.796
 20
-95.5434
 30
0
 11
92.796
 21
-95.5434
 31
0
  0
CIRCLE
  5
BF2
330
A02
100
AcDbEntity
  8
Solid
100
AcDbCircle
 10
113.432
 20
-125.634
 40
1.15
  0
LINE
  5
BF3
330
A02
100
AcDbEntity
  8
Solid
100
AcDbLine
 10
114.582
 20
-125.634
 30
0
 11
114.582
 21
-125.634
 31
1.6
  0
CIRCLE
  5
BF4
330
A02
100
AcDbEntity
  8
Solid
100
AcDbCircle
 10
113.432
 20
-125.634
 40
1.15
  0
LINE
  5
BF5
330
A02
100
AcDbEntity
  8
Solid
100
AcDbLine
 10
114.582
 20
-125.634
 30
0
 11
114.582
 21
-125.634
 31
1.6
  0
LINE
  5
BF6
330
A02
100
AcDbEntity
  8
Solid
100
AcDbLine
 10
131.483
 20
-124.707
 30
0
 11
131.483
 21
-124.707
 31
1.6
  0
LINE
  5
BF7
330
A02
100
AcDbEntity
  8
Solid
100
AcDbLine
 10
131.483
 20
-124.707
 30
1.6
 11
117.695
 21
-122.276
 31
1.6
  0
LINE
  5
BF8
330
A02
100
AcDbEntity
  8
Solid
100
AcDbLine
 10
117.695
 20
-122.276
 30
0
 11
117.695
 21
-122.276
 31
1.6
  0
LINE
  5
BF9
330
A02
100
AcDbEntity
  8
Solid
100
AcDbLine
 10
131.483
 20
-124.707
 30
0
 11
117.695
 21
-122.276
 31
0
  0
LINE
  5
BFA
330
A02
100
AcDbEntity
  8
Solid
100
AcDbLine
 10
117.695
 20
-122.276
 30
0
 11
117.695
 21
-122.276
 31
1.6
  0
LINE
  5
BFB
330
A02
100
AcDbEntity
  8
Solid
100
AcDbLine
 10
117.695
 20
-122.276
 30
1.6
 11
115.264
 21
-136.063
 31
1.6
  0
LINE
  5
BFC
330
A02
100
AcDbEntity
  8
Solid
100
AcDbLine
 10
115.264
 20
-136.063
 30
0
 11
115.264
 21
-136.063
 31
1.6
  0
LINE
  5
BFD
330
A02
100
AcDbEntity
  8
Solid
100
AcDbLine
 10
117.695
 20
-122.276
 30
0
 11
115.264
 21
-136.063
 31
0
  0
LINE
  5
BFE
330
A02
100
AcDbEntity
  8
Solid
100
AcDbLine
 10
115.264
 20
-136.063
 30
0
 11
115.264
 21
-136.063
 31
1.6
  0
LINE
  5
BFF
330
A02
100
AcDbEntity
  8
Solid
100
AcDbLine
 10
115.264
 20
-136.063
 30
1.6
 11
129.052
 21
-138.494
 31
1.6
  0
LINE
  5
C00
330
A02
100
AcDbEntity
  8
Solid
100
AcDbLine
 10
129.052
 20
-138.494
 30
0
 11
129.052
 21
-138.494
 31
1.6
  0
LINE
  5
C01
330
A02
100
AcDbEntity
  8
Solid
100
AcDbLine
 10
115.264
 20
-136.063
 30
0
 11
129.052
 21
-138.494
 31
0
  0
LINE
  5
C02
330
A02
100
AcDbEntity
  8
Solid
100
AcDbLine
 10
129.052
 20
-138.494
 30
0
 11
129.052
 21
-138.494
 31
1.6
  0
LINE
  5
C03
330
A02
100
AcDbEntity
  8
Solid
100
AcDbLine
 10
129.052
 20
-138.494
 30
1.6
 11
131.483
 21
-124.707
 31
1.6
  0
LINE
  5
C04
330
A02
100
AcDbEntity
  8
Solid
100
AcDbLine
 10
131.483
 20
-124.707
 30
0
 11
131.483
 21
-124.707
 31
1.6
  0
LINE
  5
C05
330
A02
100
AcDbEntity
  8
Solid
100
AcDbLine
 10
129.052
 20
-138.494
 30
0
 11
131.483
 21
-124.707
 31
0
  0
LINE
  5
C06
330
A02
100
AcDbEntity
  8
Solid
100
AcDbLine
 10
152.45
 20
-147.01
 30
0
 11
152.45
 21
-147.01
 31
1.6
  0
LINE
  5
C07
330
A02
100
AcDbEntity
  8
Solid
100
AcDbLine
 10
152.45
 20
-147.01
 30
1.6
 11
159.45
 21
-134.885
 31
1.6
  0
LINE
  5
C08
330
A02
100
AcDbEntity
  8
Solid
100
AcDbLine
 10
159.45
 20
-134.885
 30
0
 11
159.45
 21
-134.885
 31
1.6
  0
LINE
  5
C09
330
A02
100
AcDbEntity
  8
Solid
100
AcDbLine
 10
152.45
 20
-147.01
 30
0
 11
159.45
 21
-134.885
 31
0
  0
LINE
  5
C0A
330
A02
100
AcDbEntity
  8
Solid
100
AcDbLine
 10
164.575
 20
-154.01
 30
0
 11
164.575
 21
-154.01
 31
1.6
  0
LINE
  5
C0B
330
A02
100
AcDbEntity
  8
Solid
100
AcDbLine
 10
164.575
 20
-154.01
 30
1.6
 11
152.45
 21
-147.01
 31
1.6
  0
LINE
  5
C0C
330
A02
100
AcDbEntity
  8
Solid
100
AcDbLine
 10
152.45
 20
-147.01
 30
0
 11
152.45
 21
-147.01
 31
1.6
  0
LINE
  5
C0D
330
A02
100
AcDbEntity
  8
Solid
100
AcDbLine
 10
164.575
 20
-154.01
 30
0
 11
152.45
 21
-147.01
 31
0
  0
LINE
  5
C0E
330
A02
100
AcDbEntity
  8
Solid
100
AcDbLine
 10
171.575
 20
-141.885
 30
0
 11
171.575
 21
-141.885
 31
1.6
  0
LINE
  5
C0F
330
A02
100
AcDbEntity
  8
Solid
100
AcDbLine
 10
171.575
 20
-141.885
 30
1.6
 11
164.575
 21
-154.01
 31
1.6
  0
LINE
  5
C10
330
A02
100
AcDbEntity
  8
Solid
100
AcDbLine
 10
164.575
 20
-154.01
 30
0
 11
164.575
 21
-154.01
 31
1.6
  0
LINE
  5
C11
330
A02
100
AcDbEntity
  8
Solid
100
AcDbLine
 10
171.575
 20
-141.885
 30
0
 11
164.575
 21
-154.01
 31
0
  0
LINE
  5
C12
330
A02
100
AcDbEntity
  8
Solid
100
AcDbLine
 10
159.45
 20
-134.885
 30
0
 11
159.45
 21
-134.885
 31
1.6
  0
LINE
  5
C13
330
A02
100
AcDbEntity
  8
Solid
100
AcDbLine
 10
159.45
 20
-134.885
 30
1.6
 11
171.575
 21
-141.885
 31
1.6
  0
LINE
  5
C14
330
A02
100
AcDbEntity
  8
Solid
100
AcDbLine
 10
171.575
 20
-141.885
 30
0
 11
171.575
 21
-141.885
 31
1.6
  0
LINE
  5
C15
330
A02
100
AcDbEntity
  8
Solid
100
AcDbLine
 10
159.45
 20
-134.885
 30
0
 11
171.575
 21
-141.885
 31
0
  0
LINE
  5
C16
330
A02
100
AcDbEntity
  8
Solid
100
AcDbLine
 10
139.125
 20
-126.754
 30
0
 11
139.125
 21
-126.754
 31
1.6
  0
LINE
  5
C17
330
A02
100
AcDbEntity
  8
Solid
100
AcDbLine
 10
139.125
 20
-126.754
 30
1.6
 11
152.28
 21
-131.542
 31
1.6
  0
LINE
  5
C18
330
A02
100
AcDbEntity
  8
Solid
100
AcDbLine
 10
152.28
 20
-131.542
 30
0
 11
152.28
 21
-131.542
 31
1.6
  0
LINE
  5
C19
330
A02
100
AcDbEntity
  8
Solid
100
AcDbLine
 10
139.125
 20
-126.754
 30
0
 11
152.28
 21
-131.542
 31
0
  0
LINE
  5
C1A
330
A02
100
AcDbEntity
  8
Solid
100
AcDbLine
 10
134.336
 20
-139.91
 30
0
 11
134.336
 21
-139.91
 31
1.6
  0
LINE
  5
C1B
330
A02
100
AcDbEntity
  8
Solid
100
AcDbLine
 10
134.336
 20
-139.91
 30
1.6
 11
139.125
 21
-126.754
 31
1.6
  0
LINE
  5
C1C
330
A02
100
AcDbEntity
  8
Solid
100
AcDbLine
 10
139.125
 20
-126.754
 30
0
 11
139.125
 21
-126.754
 31
1.6
  0
LINE
  5
C1D
330
A02
100
AcDbEntity
  8
Solid
100
AcDbLine
 10
134.336
 20
-139.91
 30
0
 11
139.125
 21
-126.754
 31
0
  0
LINE
  5
C1E
330
A02
100
AcDbEntity
  8
Solid
100
AcDbLine
 10
147.492
 20
-144.698
 30
0
 11
147.492
 21
-144.698
 31
1.6
  0
LINE
  5
C1F
330
A02
100
AcDbEntity
  8
Solid
100
AcDbLine
 10
147.492
 20
-144.698
 30
1.6
 11
134.336
 21
-139.91
 31
1.6
  0
LINE
  5
C20
330
A02
100
AcDbEntity
  8
Solid
100
AcDbLine
 10
134.336
 20
-139.91
 30
0
 11
134.336
 21
-139.91
 31
1.6
  0
LINE
  5
C21
330
A02
100
AcDbEntity
  8
Solid
100
AcDbLine
 10
147.492
 20
-144.698
 30
0
 11
134.336
 21
-139.91
 31
0
  0
LINE
  5
C22
330
A02
100
AcDbEntity
  8
Solid
100
AcDbLine
 10
152.28
 20
-131.542
 30
0
 11
152.28
 21
-131.542
 31
1.6
  0
LINE
  5
C23
330
A02
100
AcDbEntity
  8
Solid
100
AcDbLine
 10
152.28
 20
-131.542
 30
1.6
 11
147.492
 21
-144.698
 31
1.6
  0
LINE
  5
C24
330
A02
100
AcDbEntity
  8
Solid
100
AcDbLine
 10
147.492
 20
-144.698
 30
0
 11
147.492
 21
-144.698
 31
1.6
  0
LINE
  5
C25
330
A02
100
AcDbEntity
  8
Solid
100
AcDbLine
 10
152.28
 20
-131.542
 30
0
 11
147.492
 21
-144.698
 31
0
  0
CIRCLE
  5
C26
330
A02
100
AcDbEntity
  8
Solid
100
AcDbCircle
 10
154.294
 20
-136.582
 40
1.15
  0
LINE
  5
C27
330
A02
100
AcDbEntity
  8
Solid
100
AcDbLine
 10
155.444
 20
-136.582
 30
0
 11
155.444
 21
-136.582
 31
1.6
  0
CIRCLE
  5
C28
330
A02
100
AcDbEntity
  8
Solid
100
AcDbCircle
 10
154.294
 20
-136.582
 40
1.15
  0
LINE
  5
C29
330
A02
100
AcDbEntity
  8
Solid
100
AcDbLine
 10
155.444
 20
-136.582
 30
0
 11
155.444
 21
-136.582
 31
1.6
  0
LINE
  5
C2A
330
A02
100
AcDbEntity
  8
Solid
100
AcDbLine
 10
111.846
 20
-115.893
 30
0
 11
111.846
 21
-115.893
 31
1.6
  0
LINE
  5
C2B
330
A02
100
AcDbEntity
  8
Solid
100
AcDbLine
 10
111.846
 20
-115.893
 30
1.6
 11
125.846
 21
-115.893
 31
1.6
  0
LINE
  5
C2C
330
A02
100
AcDbEntity
  8
Solid
100
AcDbLine
 10
125.846
 20
-115.893
 30
0
 11
125.846
 21
-115.893
 31
1.6
  0
LINE
  5
C2D
330
A02
100
AcDbEntity
  8
Solid
100
AcDbLine
 10
111.846
 20
-115.893
 30
0
 11
125.846
 21
-115.893
 31
0
  0
LINE
  5
C2E
330
A02
100
AcDbEntity
  8
Solid
100
AcDbLine
 10
125.846
 20
-115.893
 30
0
 11
125.846
 21
-115.893
 31
1.6
  0
LINE
  5
C2F
330
A02
100
AcDbEntity
  8
Solid
100
AcDbLine
 10
125.846
 20
-115.893
 30
1.6
 11
125.846
 21
-101.893
 31
1.6
  0
LINE
  5
C30
330
A02
100
AcDbEntity
  8
Solid
100
AcDbLine
 10
125.846
 20
-101.893
 30
0
 11
125.846
 21
-101.893
 31
1.6
  0
LINE
  5
C31
330
A02
100
AcDbEntity
  8
Solid
100
AcDbLine
 10
125.846
 20
-115.893
 30
0
 11
125.846
 21
-101.893
 31
0
  0
LINE
  5
C32
330
A02
100
AcDbEntity
  8
Solid
100
AcDbLine
 10
125.846
 20
-101.893
 30
0
 11
125.846
 21
-101.893
 31
1.6
  0
LINE
  5
C33
330
A02
100
AcDbEntity
  8
Solid
100
AcDbLine
 10
125.846
 20
-101.893
 30
1.6
 11
111.846
 21
-101.893
 31
1.6
  0
LINE
  5
C34
330
A02
100
AcDbEntity
  8
Solid
100
AcDbLine
 10
111.846
 20
-101.893
 30
0
 11
111.846
 21
-101.893
 31
1.6
  0
LINE
  5
C35
330
A02
100
AcDbEntity
  8
Solid
100
AcDbLine
 10
125.846
 20
-101.893
 30
0
 11
111.846
 21
-101.893
 31
0
  0
LINE
  5
C36
330
A02
100
AcDbEntity
  8
Solid
100
AcDbLine
 10
111.846
 20
-101.893
 30
0
 11
111.846
 21
-101.893
 31
1.6
  0
LINE
  5
C37
330
A02
100
AcDbEntity
  8
Solid
100
AcDbLine
 10
111.846
 20
-101.893
 30
1.6
 11
111.846
 21
-115.893
 31
1.6
  0
LINE
  5
C38
330
A02
100
AcDbEntity
  8
Solid
100
AcDbLine
 10
111.846
 20
-115.893
 30
0
 11
111.846
 21
-115.893
 31
1.6
  0
LINE
  5
C39
330
A02
100
AcDbEntity
  8
Solid
100
AcDbLine
 10
111.846
 20
-101.893
 30
0
 11
111.846
 21
-115.893
 31
0
  0
LINE
  5
C3A
330
A02
100
AcDbEntity
  8
Solid
100
AcDbLine
 10
144.896
 20
-105.068
 30
0
 11
144.896
 21
-105.068
 31
1.6
  0
LINE
  5
C3B
330
A02
100
AcDbEntity
  8
Solid
100
AcDbLine
 10
144.896
 20
-105.068
 30
1.6
 11
130.896
 21
-105.068
 31
1.6
  0
LINE
  5
C3C
330
A02
100
AcDbEntity
  8
Solid
100
AcDbLine
 10
130.896
 20
-105.068
 30
0
 11
130.896
 21
-105.068
 31
1.6
  0
LINE
  5
C3D
330
A02
100
AcDbEntity
  8
Solid
100
AcDbLine
 10
144.896
 20
-105.068
 30
0
 11
130.896
 21
-105.068
 31
0
  0
LINE
  5
C3E
330
A02
100
AcDbEntity
  8
Solid
100
AcDbLine
 10
130.896
 20
-105.068
 30
0
 11
130.896
 21
-105.068
 31
1.6
  0
LINE
  5
C3F
330
A02
100
AcDbEntity
  8
Solid
100
AcDbLine
 10
130.896
 20
-105.068
 30
1.6
 11
130.896
 21
-119.068
 31
1.6
  0
LINE
  5
C40
330
A02
100
AcDbEntity
  8
Solid
100
AcDbLine
 10
130.896
 20
-119.068
 30
0
 11
130.896
 21
-119.068
 31
1.6
  0
LINE
  5
C41
330
A02
100
AcDbEntity
  8
Solid
100
AcDbLine
 10
130.896
 20
-105.068
 30
0
 11
130.896
 21
-119.068
 31
0
  0
LINE
  5
C42
330
A02
100
AcDbEntity
  8
Solid
100
AcDbLine
 10
130.896
 20
-119.068
 30
0
 11
130.896
 21
-119.068
 31
1.6
  0
LINE
  5
C43
330
A02
100
AcDbEntity
  8
Solid
100
AcDbLine
 10
130.896
 20
-119.068
 30
1.6
 11
144.896
 21
-119.068
 31
1.6
  0
LINE
  5
C44
330
A02
100
AcDbEntity
  8
Solid
100
AcDbLine
 10
144.896
 20
-119.068
 30
0
 11
144.896
 21
-119.068
 31
1.6
  0
LINE
  5
C45
330
A02
100
AcDbEntity
  8
Solid
100
AcDbLine
 10
130.896
 20
-119.068
 30
0
 11
144.896
 21
-119.068
 31
0
  0
LINE
  5
C46
330
A02
100
AcDbEntity
  8
Solid
100
AcDbLine
 10
144.896
 20
-119.068
 30
0
 11
144.896
 21
-119.068
 31
1.6
  0
LINE
  5
C47
330
A02
100
AcDbEntity
  8
Solid
100
AcDbLine
 10
144.896
 20
-119.068
 30
1.6
 11
144.896
 21
-105.068
 31
1.6
  0
LINE
  5
C48
330
A02
100
AcDbEntity
  8
Solid
100
AcDbLine
 10
144.896
 20
-105.068
 30
0
 11
144.896
 21
-105.068
 31
1.6
  0
LINE
  5
C49
330
A02
100
AcDbEntity
  8
Solid
100
AcDbLine
 10
144.896
 20
-119.068
 30
0
 11
144.896
 21
-105.068
 31
0
  0
LINE
  5
C4A
330
A02
100
AcDbEntity
  8
Solid
100
AcDbLine
 10
35.646
 20
-90.4934
 30
0
 11
35.646
 21
-90.4934
 31
1.6
  0
LINE
  5
C4B
330
A02
100
AcDbEntity
  8
Solid
100
AcDbLine
 10
35.646
 20
-90.4934
 30
1.6
 11
49.646
 21
-90.4934
 31
1.6
  0
LINE
  5
C4C
330
A02
100
AcDbEntity
  8
Solid
100
AcDbLine
 10
49.646
 20
-90.4934
 30
0
 11
49.646
 21
-90.4934
 31
1.6
  0
LINE
  5
C4D
330
A02
100
AcDbEntity
  8
Solid
100
AcDbLine
 10
35.646
 20
-90.4934
 30
0
 11
49.646
 21
-90.4934
 31
0
  0
LINE
  5
C4E
330
A02
100
AcDbEntity
  8
Solid
100
AcDbLine
 10
49.646
 20
-90.4934
 30
0
 11
49.646
 21
-90.4934
 31
1.6
  0
LINE
  5
C4F
330
A02
100
AcDbEntity
  8
Solid
100
AcDbLine
 10
49.646
 20
-90.4934
 30
1.6
 11
49.646
 21
-76.4934
 31
1.6
  0
LINE
  5
C50
330
A02
100
AcDbEntity
  8
Solid
100
AcDbLine
 10
49.646
 20
-76.4934
 30
0
 11
49.646
 21
-76.4934
 31
1.6
  0
LINE
  5
C51
330
A02
100
AcDbEntity
  8
Solid
100
AcDbLine
 10
49.646
 20
-90.4934
 30
0
 11
49.646
 21
-76.4934
 31
0
  0
LINE
  5
C52
330
A02
100
AcDbEntity
  8
Solid
100
AcDbLine
 10
49.646
 20
-76.4934
 30
0
 11
49.646
 21
-76.4934
 31
1.6
  0
LINE
  5
C53
330
A02
100
AcDbEntity
  8
Solid
100
AcDbLine
 10
49.646
 20
-76.4934
 30
1.6
 11
35.646
 21
-76.4934
 31
1.6
  0
LINE
  5
C54
330
A02
100
AcDbEntity
  8
Solid
100
AcDbLine
 10
35.646
 20
-76.4934
 30
0
 11
35.646
 21
-76.4934
 31
1.6
  0
LINE
  5
C55
330
A02
100
AcDbEntity
  8
Solid
100
AcDbLine
 10
49.646
 20
-76.4934
 30
0
 11
35.646
 21
-76.4934
 31
0
  0
LINE
  5
C56
330
A02
100
AcDbEntity
  8
Solid
100
AcDbLine
 10
35.646
 20
-76.4934
 30
0
 11
35.646
 21
-76.4934
 31
1.6
  0
LINE
  5
C57
330
A02
100
AcDbEntity
  8
Solid
100
AcDbLine
 10
35.646
 20
-76.4934
 30
1.6
 11
35.646
 21
-90.4934
 31
1.6
  0
LINE
  5
C58
330
A02
100
AcDbEntity
  8
Solid
100
AcDbLine
 10
35.646
 20
-90.4934
 30
0
 11
35.646
 21
-90.4934
 31
1.6
  0
LINE
  5
C59
330
A02
100
AcDbEntity
  8
Solid
100
AcDbLine
 10
35.646
 20
-76.4934
 30
0
 11
35.646
 21
-90.4934
 31
0
  0
LINE
  5
C5A
330
A02
100
AcDbEntity
  8
Solid
100
AcDbLine
 10
54.696
 20
-90.4934
 30
0
 11
54.696
 21
-90.4934
 31
1.6
  0
LINE
  5
C5B
330
A02
100
AcDbEntity
  8
Solid
100
AcDbLine
 10
54.696
 20
-90.4934
 30
1.6
 11
68.696
 21
-90.4934
 31
1.6
  0
LINE
  5
C5C
330
A02
100
AcDbEntity
  8
Solid
100
AcDbLine
 10
68.696
 20
-90.4934
 30
0
 11
68.696
 21
-90.4934
 31
1.6
  0
LINE
  5
C5D
330
A02
100
AcDbEntity
  8
Solid
100
AcDbLine
 10
54.696
 20
-90.4934
 30
0
 11
68.696
 21
-90.4934
 31
0
  0
LINE
  5
C5E
330
A02
100
AcDbEntity
  8
Solid
100
AcDbLine
 10
68.696
 20
-90.4934
 30
0
 11
68.696
 21
-90.4934
 31
1.6
  0
LINE
  5
C5F
330
A02
100
AcDbEntity
  8
Solid
100
AcDbLine
 10
68.696
 20
-90.4934
 30
1.6
 11
68.696
 21
-76.4934
 31
1.6
  0
LINE
  5
C60
330
A02
100
AcDbEntity
  8
Solid
100
AcDbLine
 10
68.696
 20
-76.4934
 30
0
 11
68.696
 21
-76.4934
 31
1.6
  0
LINE
  5
C61
330
A02
100
AcDbEntity
  8
Solid
100
AcDbLine
 10
68.696
 20
-90.4934
 30
0
 11
68.696
 21
-76.4934
 31
0
  0
LINE
  5
C62
330
A02
100
AcDbEntity
  8
Solid
100
AcDbLine
 10
68.696
 20
-76.4934
 30
0
 11
68.696
 21
-76.4934
 31
1.6
  0
LINE
  5
C63
330
A02
100
AcDbEntity
  8
Solid
100
AcDbLine
 10
68.696
 20
-76.4934
 30
1.6
 11
54.696
 21
-76.4934
 31
1.6
  0
LINE
  5
C64
330
A02
100
AcDbEntity
  8
Solid
100
AcDbLine
 10
54.696
 20
-76.4934
 30
0
 11
54.696
 21
-76.4934
 31
1.6
  0
LINE
  5
C65
330
A02
100
AcDbEntity
  8
Solid
100
AcDbLine
 10
68.696
 20
-76.4934
 30
0
 11
54.696
 21
-76.4934
 31
0
  0
LINE
  5
C66
330
A02
100
AcDbEntity
  8
Solid
100
AcDbLine
 10
54.696
 20
-76.4934
 30
0
 11
54.696
 21
-76.4934
 31
1.6
  0
LINE
  5
C67
330
A02
100
AcDbEntity
  8
Solid
100
AcDbLine
 10
54.696
 20
-76.4934
 30
1.6
 11
54.696
 21
-90.4934
 31
1.6
  0
LINE
  5
C68
330
A02
100
AcDbEntity
  8
Solid
100
AcDbLine
 10
54.696
 20
-90.4934
 30
0
 11
54.696
 21
-90.4934
 31
1.6
  0
LINE
  5
C69
330
A02
100
AcDbEntity
  8
Solid
100
AcDbLine
 10
54.696
 20
-76.4934
 30
0
 11
54.696
 21
-90.4934
 31
0
  0
CIRCLE
  5
C6A
330
A02
100
AcDbEntity
  8
Solid
100
AcDbCircle
 10
52.171
 20
-72.0684
 40
1.15
  0
LINE
  5
C6B
330
A02
100
AcDbEntity
  8
Solid
100
AcDbLine
 10
53.321
 20
-72.0684
 30
0
 11
53.321
 21
-72.0684
 31
1.6
  0
CIRCLE
  5
C6C
330
A02
100
AcDbEntity
  8
Solid
100
AcDbCircle
 10
52.171
 20
-72.0684
 40
1.15
  0
LINE
  5
C6D
330
A02
100
AcDbEntity
  8
Solid
100
AcDbLine
 10
53.321
 20
-72.0684
 30
0
 11
53.321
 21
-72.0684
 31
1.6
  0
CIRCLE
  5
C6E
330
A02
100
AcDbEntity
  8
Solid
100
AcDbCircle
 10
71.2214
 20
-93.0119
 40
1.15
  0
LINE
  5
C6F
330
A02
100
AcDbEntity
  8
Solid
100
AcDbLine
 10
72.3714
 20
-93.0119
 30
0
 11
72.3714
 21
-93.0119
 31
1.6
  0
CIRCLE
  5
C70
330
A02
100
AcDbEntity
  8
Solid
100
AcDbCircle
 10
71.2214
 20
-93.0119
 40
1.15
  0
LINE
  5
C71
330
A02
100
AcDbEntity
  8
Solid
100
AcDbLine
 10
72.3714
 20
-93.0119
 30
0
 11
72.3714
 21
-93.0119
 31
1.6
  0
LINE
  5
C72
330
A02
100
AcDbEntity
  8
Solid
100
AcDbLine
 10
87.746
 20
-82.8434
 30
0
 11
87.746
 21
-82.8434
 31
1.6
  0
LINE
  5
C73
330
A02
100
AcDbEntity
  8
Solid
100
AcDbLine
 10
87.746
 20
-82.8434
 30
1.6
 11
73.746
 21
-82.8434
 31
1.6
  0
LINE
  5
C74
330
A02
100
AcDbEntity
  8
Solid
100
AcDbLine
 10
73.746
 20
-82.8434
 30
0
 11
73.746
 21
-82.8434
 31
1.6
  0
LINE
  5
C75
330
A02
100
AcDbEntity
  8
Solid
100
AcDbLine
 10
87.746
 20
-82.8434
 30
0
 11
73.746
 21
-82.8434
 31
0
  0
LINE
  5
C76
330
A02
100
AcDbEntity
  8
Solid
100
AcDbLine
 10
73.746
 20
-82.8434
 30
0
 11
73.746
 21
-82.8434
 31
1.6
  0
LINE
  5
C77
330
A02
100
AcDbEntity
  8
Solid
100
AcDbLine
 10
73.746
 20
-82.8434
 30
1.6
 11
73.746
 21
-96.8434
 31
1.6
  0
LINE
  5
C78
330
A02
100
AcDbEntity
  8
Solid
100
AcDbLine
 10
73.746
 20
-96.8434
 30
0
 11
73.746
 21
-96.8434
 31
1.6
  0
LINE
  5
C79
330
A02
100
AcDbEntity
  8
Solid
100
AcDbLine
 10
73.746
 20
-82.8434
 30
0
 11
73.746
 21
-96.8434
 31
0
  0
LINE
  5
C7A
330
A02
100
AcDbEntity
  8
Solid
100
AcDbLine
 10
73.746
 20
-96.8434
 30
0
 11
73.746
 21
-96.8434
 31
1.6
  0
LINE
  5
C7B
330
A02
100
AcDbEntity
  8
Solid
100
AcDbLine
 10
73.746
 20
-96.8434
 30
1.6
 11
87.746
 21
-96.8434
 31
1.6
  0
LINE
  5
C7C
330
A02
100
AcDbEntity
  8
Solid
100
AcDbLine
 10
87.746
 20
-96.8434
 30
0
 11
87.746
 21
-96.8434
 31
1.6
  0
LINE
  5
C7D
330
A02
100
AcDbEntity
  8
Solid
100
AcDbLine
 10
73.746
 20
-96.8434
 30
0
 11
87.746
 21
-96.8434
 31
0
  0
LINE
  5
C7E
330
A02
100
AcDbEntity
  8
Solid
100
AcDbLine
 10
87.746
 20
-96.8434
 30
0
 11
87.746
 21
-96.8434
 31
1.6
  0
LINE
  5
C7F
330
A02
100
AcDbEntity
  8
Solid
100
AcDbLine
 10
87.746
 20
-96.8434
 30
1.6
 11
87.746
 21
-82.8434
 31
1.6
  0
LINE
  5
C80
330
A02
100
AcDbEntity
  8
Solid
100
AcDbLine
 10
87.746
 20
-82.8434
 30
0
 11
87.746
 21
-82.8434
 31
1.6
  0
LINE
  5
C81
330
A02
100
AcDbEntity
  8
Solid
100
AcDbLine
 10
87.746
 20
-96.8434
 30
0
 11
87.746
 21
-82.8434
 31
0
  0
LINE
  5
C82
330
A02
100
AcDbEntity
  8
Solid
100
AcDbLine
 10
106.796
 20
-76.4934
 30
0
 11
106.796
 21
-76.4934
 31
1.6
  0
LINE
  5
C83
330
A02
100
AcDbEntity
  8
Solid
100
AcDbLine
 10
106.796
 20
-76.4934
 30
1.6
 11
92.796
 21
-76.4934
 31
1.6
  0
LINE
  5
C84
330
A02
100
AcDbEntity
  8
Solid
100
AcDbLine
 10
92.796
 20
-76.4934
 30
0
 11
92.796
 21
-76.4934
 31
1.6
  0
LINE
  5
C85
330
A02
100
AcDbEntity
  8
Solid
100
AcDbLine
 10
106.796
 20
-76.4934
 30
0
 11
92.796
 21
-76.4934
 31
0
  0
LINE
  5
C86
330
A02
100
AcDbEntity
  8
Solid
100
AcDbLine
 10
92.796
 20
-76.4934
 30
0
 11
92.796
 21
-76.4934
 31
1.6
  0
LINE
  5
C87
330
A02
100
AcDbEntity
  8
Solid
100
AcDbLine
 10
92.796
 20
-76.4934
 30
1.6
 11
92.796
 21
-90.4934
 31
1.6
  0
LINE
  5
C88
330
A02
100
AcDbEntity
  8
Solid
100
AcDbLine
 10
92.796
 20
-90.4934
 30
0
 11
92.796
 21
-90.4934
 31
1.6
  0
LINE
  5
C89
330
A02
100
AcDbEntity
  8
Solid
100
AcDbLine
 10
92.796
 20
-76.4934
 30
0
 11
92.796
 21
-90.4934
 31
0
  0
LINE
  5
C8A
330
A02
100
AcDbEntity
  8
Solid
100
AcDbLine
 10
92.796
 20
-90.4934
 30
0
 11
92.796
 21
-90.4934
 31
1.6
  0
LINE
  5
C8B
330
A02
100
AcDbEntity
  8
Solid
100
AcDbLine
 10
92.796
 20
-90.4934
 30
1.6
 11
106.796
 21
-90.4934
 31
1.6
  0
LINE
  5
C8C
330
A02
100
AcDbEntity
  8
Solid
100
AcDbLine
 10
106.796
 20
-90.4934
 30
0
 11
106.796
 21
-90.4934
 31
1.6
  0
LINE
  5
C8D
330
A02
100
AcDbEntity
  8
Solid
100
AcDbLine
 10
92.796
 20
-90.4934
 30
0
 11
106.796
 21
-90.4934
 31
0
  0
LINE
  5
C8E
330
A02
100
AcDbEntity
  8
Solid
100
AcDbLine
 10
106.796
 20
-90.4934
 30
0
 11
106.796
 21
-90.4934
 31
1.6
  0
LINE
  5
C8F
330
A02
100
AcDbEntity
  8
Solid
100
AcDbLine
 10
106.796
 20
-90.4934
 30
1.6
 11
106.796
 21
-76.4934
 31
1.6
  0
LINE
  5
C90
330
A02
100
AcDbEntity
  8
Solid
100
AcDbLine
 10
106.796
 20
-76.4934
 30
0
 11
106.796
 21
-76.4934
 31
1.6
  0
LINE
  5
C91
330
A02
100
AcDbEntity
  8
Solid
100
AcDbLine
 10
106.796
 20
-90.4934
 30
0
 11
106.796
 21
-76.4934
 31
0
  0
LINE
  5
C92
330
A02
100
AcDbEntity
  8
Solid
100
AcDbLine
 10
87.746
 20
-63.7934
 30
0
 11
87.746
 21
-63.7934
 31
1.6
  0
LINE
  5
C93
330
A02
100
AcDbEntity
  8
Solid
100
AcDbLine
 10
87.746
 20
-63.7934
 30
1.6
 11
73.746
 21
-63.7934
 31
1.6
  0
LINE
  5
C94
330
A02
100
AcDbEntity
  8
Solid
100
AcDbLine
 10
73.746
 20
-63.7934
 30
0
 11
73.746
 21
-63.7934
 31
1.6
  0
LINE
  5
C95
330
A02
100
AcDbEntity
  8
Solid
100
AcDbLine
 10
87.746
 20
-63.7934
 30
0
 11
73.746
 21
-63.7934
 31
0
  0
LINE
  5
C96
330
A02
100
AcDbEntity
  8
Solid
100
AcDbLine
 10
73.746
 20
-63.7934
 30
0
 11
73.746
 21
-63.7934
 31
1.6
  0
LINE
  5
C97
330
A02
100
AcDbEntity
  8
Solid
100
AcDbLine
 10
73.746
 20
-63.7934
 30
1.6
 11
73.746
 21
-77.7934
 31
1.6
  0
LINE
  5
C98
330
A02
100
AcDbEntity
  8
Solid
100
AcDbLine
 10
73.746
 20
-77.7934
 30
0
 11
73.746
 21
-77.7934
 31
1.6
  0
LINE
  5
C99
330
A02
100
AcDbEntity
  8
Solid
100
AcDbLine
 10
73.746
 20
-63.7934
 30
0
 11
73.746
 21
-77.7934
 31
0
  0
LINE
  5
C9A
330
A02
100
AcDbEntity
  8
Solid
100
AcDbLine
 10
73.746
 20
-77.7934
 30
0
 11
73.746
 21
-77.7934
 31
1.6
  0
LINE
  5
C9B
330
A02
100
AcDbEntity
  8
Solid
100
AcDbLine
 10
73.746
 20
-77.7934
 30
1.6
 11
87.746
 21
-77.7934
 31
1.6
  0
LINE
  5
C9C
330
A02
100
AcDbEntity
  8
Solid
100
AcDbLine
 10
87.746
 20
-77.7934
 30
0
 11
87.746
 21
-77.7934
 31
1.6
  0
LINE
  5
C9D
330
A02
100
AcDbEntity
  8
Solid
100
AcDbLine
 10
73.746
 20
-77.7934
 30
0
 11
87.746
 21
-77.7934
 31
0
  0
LINE
  5
C9E
330
A02
100
AcDbEntity
  8
Solid
100
AcDbLine
 10
87.746
 20
-77.7934
 30
0
 11
87.746
 21
-77.7934
 31
1.6
  0
LINE
  5
C9F
330
A02
100
AcDbEntity
  8
Solid
100
AcDbLine
 10
87.746
 20
-77.7934
 30
1.6
 11
87.746
 21
-63.7934
 31
1.6
  0
LINE
  5
CA0
330
A02
100
AcDbEntity
  8
Solid
100
AcDbLine
 10
87.746
 20
-63.7934
 30
0
 11
87.746
 21
-63.7934
 31
1.6
  0
LINE
  5
CA1
330
A02
100
AcDbEntity
  8
Solid
100
AcDbLine
 10
87.746
 20
-77.7934
 30
0
 11
87.746
 21
-63.7934
 31
0
  0
LINE
  5
CA2
330
A02
100
AcDbEntity
  8
Solid
100
AcDbLine
 10
35.646
 20
-71.4434
 30
0
 11
35.646
 21
-71.4434
 31
1.6
  0
LINE
  5
CA3
330
A02
100
AcDbEntity
  8
Solid
100
AcDbLine
 10
35.646
 20
-71.4434
 30
1.6
 11
49.646
 21
-71.4434
 31
1.6
  0
LINE
  5
CA4
330
A02
100
AcDbEntity
  8
Solid
100
AcDbLine
 10
49.646
 20
-71.4434
 30
0
 11
49.646
 21
-71.4434
 31
1.6
  0
LINE
  5
CA5
330
A02
100
AcDbEntity
  8
Solid
100
AcDbLine
 10
35.646
 20
-71.4434
 30
0
 11
49.646
 21
-71.4434
 31
0
  0
LINE
  5
CA6
330
A02
100
AcDbEntity
  8
Solid
100
AcDbLine
 10
49.646
 20
-71.4434
 30
0
 11
49.646
 21
-71.4434
 31
1.6
  0
LINE
  5
CA7
330
A02
100
AcDbEntity
  8
Solid
100
AcDbLine
 10
49.646
 20
-71.4434
 30
1.6
 11
49.646
 21
-57.4434
 31
1.6
  0
LINE
  5
CA8
330
A02
100
AcDbEntity
  8
Solid
100
AcDbLine
 10
49.646
 20
-57.4434
 30
0
 11
49.646
 21
-57.4434
 31
1.6
  0
LINE
  5
CA9
330
A02
100
AcDbEntity
  8
Solid
100
AcDbLine
 10
49.646
 20
-71.4434
 30
0
 11
49.646
 21
-57.4434
 31
0
  0
LINE
  5
CAA
330
A02
100
AcDbEntity
  8
Solid
100
AcDbLine
 10
49.646
 20
-57.4434
 30
0
 11
49.646
 21
-57.4434
 31
1.6
  0
LINE
  5
CAB
330
A02
100
AcDbEntity
  8
Solid
100
AcDbLine
 10
49.646
 20
-57.4434
 30
1.6
 11
35.646
 21
-57.4434
 31
1.6
  0
LINE
  5
CAC
330
A02
100
AcDbEntity
  8
Solid
100
AcDbLine
 10
35.646
 20
-57.4434
 30
0
 11
35.646
 21
-57.4434
 31
1.6
  0
LINE
  5
CAD
330
A02
100
AcDbEntity
  8
Solid
100
AcDbLine
 10
49.646
 20
-57.4434
 30
0
 11
35.646
 21
-57.4434
 31
0
  0
LINE
  5
CAE
330
A02
100
AcDbEntity
  8
Solid
100
AcDbLine
 10
35.646
 20
-57.4434
 30
0
 11
35.646
 21
-57.4434
 31
1.6
  0
LINE
  5
CAF
330
A02
100
AcDbEntity
  8
Solid
100
AcDbLine
 10
35.646
 20
-57.4434
 30
1.6
 11
35.646
 21
-71.4434
 31
1.6
  0
LINE
  5
CB0
330
A02
100
AcDbEntity
  8
Solid
100
AcDbLine
 10
35.646
 20
-71.4434
 30
0
 11
35.646
 21
-71.4434
 31
1.6
  0
LINE
  5
CB1
330
A02
100
AcDbEntity
  8
Solid
100
AcDbLine
 10
35.646
 20
-57.4434
 30
0
 11
35.646
 21
-71.4434
 31
0
  0
LINE
  5
CB2
330
A02
100
AcDbEntity
  8
Solid
100
AcDbLine
 10
68.696
 20
-57.4434
 30
0
 11
68.696
 21
-57.4434
 31
1.6
  0
LINE
  5
CB3
330
A02
100
AcDbEntity
  8
Solid
100
AcDbLine
 10
68.696
 20
-57.4434
 30
1.6
 11
54.696
 21
-57.4434
 31
1.6
  0
LINE
  5
CB4
330
A02
100
AcDbEntity
  8
Solid
100
AcDbLine
 10
54.696
 20
-57.4434
 30
0
 11
54.696
 21
-57.4434
 31
1.6
  0
LINE
  5
CB5
330
A02
100
AcDbEntity
  8
Solid
100
AcDbLine
 10
68.696
 20
-57.4434
 30
0
 11
54.696
 21
-57.4434
 31
0
  0
LINE
  5
CB6
330
A02
100
AcDbEntity
  8
Solid
100
AcDbLine
 10
54.696
 20
-57.4434
 30
0
 11
54.696
 21
-57.4434
 31
1.6
  0
LINE
  5
CB7
330
A02
100
AcDbEntity
  8
Solid
100
AcDbLine
 10
54.696
 20
-57.4434
 30
1.6
 11
54.696
 21
-71.4434
 31
1.6
  0
LINE
  5
CB8
330
A02
100
AcDbEntity
  8
Solid
100
AcDbLine
 10
54.696
 20
-71.4434
 30
0
 11
54.696
 21
-71.4434
 31
1.6
  0
LINE
  5
CB9
330
A02
100
AcDbEntity
  8
Solid
100
AcDbLine
 10
54.696
 20
-57.4434
 30
0
 11
54.696
 21
-71.4434
 31
0
  0
LINE
  5
CBA
330
A02
100
AcDbEntity
  8
Solid
100
AcDbLine
 10
54.696
 20
-71.4434
 30
0
 11
54.696
 21
-71.4434
 31
1.6
  0
LINE
  5
CBB
330
A02
100
AcDbEntity
  8
Solid
100
AcDbLine
 10
54.696
 20
-71.4434
 30
1.6
 11
68.696
 21
-71.4434
 31
1.6
  0
LINE
  5
CBC
330
A02
100
AcDbEntity
  8
Solid
100
AcDbLine
 10
68.696
 20
-71.4434
 30
0
 11
68.696
 21
-71.4434
 31
1.6
  0
LINE
  5
CBD
330
A02
100
AcDbEntity
  8
Solid
100
AcDbLine
 10
54.696
 20
-71.4434
 30
0
 11
68.696
 21
-71.4434
 31
0
  0
LINE
  5
CBE
330
A02
100
AcDbEntity
  8
Solid
100
AcDbLine
 10
68.696
 20
-71.4434
 30
0
 11
68.696
 21
-71.4434
 31
1.6
  0
LINE
  5
CBF
330
A02
100
AcDbEntity
  8
Solid
100
AcDbLine
 10
68.696
 20
-71.4434
 30
1.6
 11
68.696
 21
-57.4434
 31
1.6
  0
LINE
  5
CC0
330
A02
100
AcDbEntity
  8
Solid
100
AcDbLine
 10
68.696
 20
-57.4434
 30
0
 11
68.696
 21
-57.4434
 31
1.6
  0
LINE
  5
CC1
330
A02
100
AcDbEntity
  8
Solid
100
AcDbLine
 10
68.696
 20
-71.4434
 30
0
 11
68.696
 21
-57.4434
 31
0
  0
LINE
  5
CC2
330
A02
100
AcDbEntity
  8
Solid
100
AcDbLine
 10
92.796
 20
-57.4434
 30
0
 11
92.796
 21
-57.4434
 31
1.6
  0
LINE
  5
CC3
330
A02
100
AcDbEntity
  8
Solid
100
AcDbLine
 10
92.796
 20
-57.4434
 30
1.6
 11
92.796
 21
-71.4434
 31
1.6
  0
LINE
  5
CC4
330
A02
100
AcDbEntity
  8
Solid
100
AcDbLine
 10
92.796
 20
-71.4434
 30
0
 11
92.796
 21
-71.4434
 31
1.6
  0
LINE
  5
CC5
330
A02
100
AcDbEntity
  8
Solid
100
AcDbLine
 10
92.796
 20
-57.4434
 30
0
 11
92.796
 21
-71.4434
 31
0
  0
LINE
  5
CC6
330
A02
100
AcDbEntity
  8
Solid
100
AcDbLine
 10
92.796
 20
-71.4434
 30
0
 11
92.796
 21
-71.4434
 31
1.6
  0
LINE
  5
CC7
330
A02
100
AcDbEntity
  8
Solid
100
AcDbLine
 10
92.796
 20
-71.4434
 30
1.6
 11
106.796
 21
-71.4434
 31
1.6
  0
LINE
  5
CC8
330
A02
100
AcDbEntity
  8
Solid
100
AcDbLine
 10
106.796
 20
-71.4434
 30
0
 11
106.796
 21
-71.4434
 31
1.6
  0
LINE
  5
CC9
330
A02
100
AcDbEntity
  8
Solid
100
AcDbLine
 10
92.796
 20
-71.4434
 30
0
 11
106.796
 21
-71.4434
 31
0
  0
LINE
  5
CCA
330
A02
100
AcDbEntity
  8
Solid
100
AcDbLine
 10
106.796
 20
-71.4434
 30
0
 11
106.796
 21
-71.4434
 31
1.6
  0
LINE
  5
CCB
330
A02
100
AcDbEntity
  8
Solid
100
AcDbLine
 10
106.796
 20
-71.4434
 30
1.6
 11
106.796
 21
-57.4434
 31
1.6
  0
LINE
  5
CCC
330
A02
100
AcDbEntity
  8
Solid
100
AcDbLine
 10
106.796
 20
-57.4434
 30
0
 11
106.796
 21
-57.4434
 31
1.6
  0
LINE
  5
CCD
330
A02
100
AcDbEntity
  8
Solid
100
AcDbLine
 10
106.796
 20
-71.4434
 30
0
 11
106.796
 21
-57.4434
 31
0
  0
LINE
  5
CCE
330
A02
100
AcDbEntity
  8
Solid
100
AcDbLine
 10
106.796
 20
-57.4434
 30
0
 11
106.796
 21
-57.4434
 31
1.6
  0
LINE
  5
CCF
330
A02
100
AcDbEntity
  8
Solid
100
AcDbLine
 10
106.796
 20
-57.4434
 30
1.6
 11
92.796
 21
-57.4434
 31
1.6
  0
LINE
  5
CD0
330
A02
100
AcDbEntity
  8
Solid
100
AcDbLine
 10
92.796
 20
-57.4434
 30
0
 11
92.796
 21
-57.4434
 31
1.6
  0
LINE
  5
CD1
330
A02
100
AcDbEntity
  8
Solid
100
AcDbLine
 10
106.796
 20
-57.4434
 30
0
 11
92.796
 21
-57.4434
 31
0
  0
LINE
  5
CD2
330
A02
100
AcDbEntity
  8
Solid
100
AcDbLine
 10
73.746
 20
-44.7434
 30
0
 11
73.746
 21
-44.7434
 31
1.6
  0
LINE
  5
CD3
330
A02
100
AcDbEntity
  8
Solid
100
AcDbLine
 10
73.746
 20
-44.7434
 30
1.6
 11
73.746
 21
-58.7434
 31
1.6
  0
LINE
  5
CD4
330
A02
100
AcDbEntity
  8
Solid
100
AcDbLine
 10
73.746
 20
-58.7434
 30
0
 11
73.746
 21
-58.7434
 31
1.6
  0
LINE
  5
CD5
330
A02
100
AcDbEntity
  8
Solid
100
AcDbLine
 10
73.746
 20
-44.7434
 30
0
 11
73.746
 21
-58.7434
 31
0
  0
LINE
  5
CD6
330
A02
100
AcDbEntity
  8
Solid
100
AcDbLine
 10
73.746
 20
-58.7434
 30
0
 11
73.746
 21
-58.7434
 31
1.6
  0
LINE
  5
CD7
330
A02
100
AcDbEntity
  8
Solid
100
AcDbLine
 10
73.746
 20
-58.7434
 30
1.6
 11
87.746
 21
-58.7434
 31
1.6
  0
LINE
  5
CD8
330
A02
100
AcDbEntity
  8
Solid
100
AcDbLine
 10
87.746
 20
-58.7434
 30
0
 11
87.746
 21
-58.7434
 31
1.6
  0
LINE
  5
CD9
330
A02
100
AcDbEntity
  8
Solid
100
AcDbLine
 10
73.746
 20
-58.7434
 30
0
 11
87.746
 21
-58.7434
 31
0
  0
LINE
  5
CDA
330
A02
100
AcDbEntity
  8
Solid
100
AcDbLine
 10
87.746
 20
-58.7434
 30
0
 11
87.746
 21
-58.7434
 31
1.6
  0
LINE
  5
CDB
330
A02
100
AcDbEntity
  8
Solid
100
AcDbLine
 10
87.746
 20
-58.7434
 30
1.6
 11
87.746
 21
-44.7434
 31
1.6
  0
LINE
  5
CDC
330
A02
100
AcDbEntity
  8
Solid
100
AcDbLine
 10
87.746
 20
-44.7434
 30
0
 11
87.746
 21
-44.7434
 31
1.6
  0
LINE
  5
CDD
330
A02
100
AcDbEntity
  8
Solid
100
AcDbLine
 10
87.746
 20
-58.7434
 30
0
 11
87.746
 21
-44.7434
 31
0
  0
LINE
  5
CDE
330
A02
100
AcDbEntity
  8
Solid
100
AcDbLine
 10
87.746
 20
-44.7434
 30
0
 11
87.746
 21
-44.7434
 31
1.6
  0
LINE
  5
CDF
330
A02
100
AcDbEntity
  8
Solid
100
AcDbLine
 10
87.746
 20
-44.7434
 30
1.6
 11
73.746
 21
-44.7434
 31
1.6
  0
LINE
  5
CE0
330
A02
100
AcDbEntity
  8
Solid
100
AcDbLine
 10
73.746
 20
-44.7434
 30
0
 11
73.746
 21
-44.7434
 31
1.6
  0
LINE
  5
CE1
330
A02
100
AcDbEntity
  8
Solid
100
AcDbLine
 10
87.746
 20
-44.7434
 30
0
 11
73.746
 21
-44.7434
 31
0
  0
LINE
  5
CE2
330
A02
100
AcDbEntity
  8
Solid
100
AcDbLine
 10
92.796
 20
-38.3934
 30
0
 11
92.796
 21
-38.3934
 31
1.6
  0
LINE
  5
CE3
330
A02
100
AcDbEntity
  8
Solid
100
AcDbLine
 10
92.796
 20
-38.3934
 30
1.6
 11
106.796
 21
-38.3934
 31
1.6
  0
LINE
  5
CE4
330
A02
100
AcDbEntity
  8
Solid
100
AcDbLine
 10
106.796
 20
-38.3934
 30
0
 11
106.796
 21
-38.3934
 31
1.6
  0
LINE
  5
CE5
330
A02
100
AcDbEntity
  8
Solid
100
AcDbLine
 10
92.796
 20
-38.3934
 30
0
 11
106.796
 21
-38.3934
 31
0
  0
LINE
  5
CE6
330
A02
100
AcDbEntity
  8
Solid
100
AcDbLine
 10
92.796
 20
-52.3934
 30
0
 11
92.796
 21
-52.3934
 31
1.6
  0
LINE
  5
CE7
330
A02
100
AcDbEntity
  8
Solid
100
AcDbLine
 10
92.796
 20
-52.3934
 30
1.6
 11
92.796
 21
-38.3934
 31
1.6
  0
LINE
  5
CE8
330
A02
100
AcDbEntity
  8
Solid
100
AcDbLine
 10
92.796
 20
-38.3934
 30
0
 11
92.796
 21
-38.3934
 31
1.6
  0
LINE
  5
CE9
330
A02
100
AcDbEntity
  8
Solid
100
AcDbLine
 10
92.796
 20
-52.3934
 30
0
 11
92.796
 21
-38.3934
 31
0
  0
LINE
  5
CEA
330
A02
100
AcDbEntity
  8
Solid
100
AcDbLine
 10
106.796
 20
-52.3934
 30
0
 11
106.796
 21
-52.3934
 31
1.6
  0
LINE
  5
CEB
330
A02
100
AcDbEntity
  8
Solid
100
AcDbLine
 10
106.796
 20
-52.3934
 30
1.6
 11
92.796
 21
-52.3934
 31
1.6
  0
LINE
  5
CEC
330
A02
100
AcDbEntity
  8
Solid
100
AcDbLine
 10
92.796
 20
-52.3934
 30
0
 11
92.796
 21
-52.3934
 31
1.6
  0
LINE
  5
CED
330
A02
100
AcDbEntity
  8
Solid
100
AcDbLine
 10
106.796
 20
-52.3934
 30
0
 11
92.796
 21
-52.3934
 31
0
  0
LINE
  5
CEE
330
A02
100
AcDbEntity
  8
Solid
100
AcDbLine
 10
106.796
 20
-38.3934
 30
0
 11
106.796
 21
-38.3934
 31
1.6
  0
LINE
  5
CEF
330
A02
100
AcDbEntity
  8
Solid
100
AcDbLine
 10
106.796
 20
-38.3934
 30
1.6
 11
106.796
 21
-52.3934
 31
1.6
  0
LINE
  5
CF0
330
A02
100
AcDbEntity
  8
Solid
100
AcDbLine
 10
106.796
 20
-52.3934
 30
0
 11
106.796
 21
-52.3934
 31
1.6
  0
LINE
  5
CF1
330
A02
100
AcDbEntity
  8
Solid
100
AcDbLine
 10
106.796
 20
-38.3934
 30
0
 11
106.796
 21
-52.3934
 31
0
  0
LINE
  5
CF2
330
A02
100
AcDbEntity
  8
Solid
100
AcDbLine
 10
111.846
 20
-82.8434
 30
0
 11
111.846
 21
-82.8434
 31
1.6
  0
LINE
  5
CF3
330
A02
100
AcDbEntity
  8
Solid
100
AcDbLine
 10
111.846
 20
-82.8434
 30
1.6
 11
111.846
 21
-96.8434
 31
1.6
  0
LINE
  5
CF4
330
A02
100
AcDbEntity
  8
Solid
100
AcDbLine
 10
111.846
 20
-96.8434
 30
0
 11
111.846
 21
-96.8434
 31
1.6
  0
LINE
  5
CF5
330
A02
100
AcDbEntity
  8
Solid
100
AcDbLine
 10
111.846
 20
-82.8434
 30
0
 11
111.846
 21
-96.8434
 31
0
  0
LINE
  5
CF6
330
A02
100
AcDbEntity
  8
Solid
100
AcDbLine
 10
111.846
 20
-96.8434
 30
0
 11
111.846
 21
-96.8434
 31
1.6
  0
LINE
  5
CF7
330
A02
100
AcDbEntity
  8
Solid
100
AcDbLine
 10
111.846
 20
-96.8434
 30
1.6
 11
125.846
 21
-96.8434
 31
1.6
  0
LINE
  5
CF8
330
A02
100
AcDbEntity
  8
Solid
100
AcDbLine
 10
125.846
 20
-96.8434
 30
0
 11
125.846
 21
-96.8434
 31
1.6
  0
LINE
  5
CF9
330
A02
100
AcDbEntity
  8
Solid
100
AcDbLine
 10
111.846
 20
-96.8434
 30
0
 11
125.846
 21
-96.8434
 31
0
  0
LINE
  5
CFA
330
A02
100
AcDbEntity
  8
Solid
100
AcDbLine
 10
125.846
 20
-96.8434
 30
0
 11
125.846
 21
-96.8434
 31
1.6
  0
LINE
  5
CFB
330
A02
100
AcDbEntity
  8
Solid
100
AcDbLine
 10
125.846
 20
-96.8434
 30
1.6
 11
125.846
 21
-82.8434
 31
1.6
  0
LINE
  5
CFC
330
A02
100
AcDbEntity
  8
Solid
100
AcDbLine
 10
125.846
 20
-82.8434
 30
0
 11
125.846
 21
-82.8434
 31
1.6
  0
LINE
  5
CFD
330
A02
100
AcDbEntity
  8
Solid
100
AcDbLine
 10
125.846
 20
-96.8434
 30
0
 11
125.846
 21
-82.8434
 31
0
  0
LINE
  5
CFE
330
A02
100
AcDbEntity
  8
Solid
100
AcDbLine
 10
125.846
 20
-82.8434
 30
0
 11
125.846
 21
-82.8434
 31
1.6
  0
LINE
  5
CFF
330
A02
100
AcDbEntity
  8
Solid
100
AcDbLine
 10
125.846
 20
-82.8434
 30
1.6
 11
111.846
 21
-82.8434
 31
1.6
  0
LINE
  5
D00
330
A02
100
AcDbEntity
  8
Solid
100
AcDbLine
 10
111.846
 20
-82.8434
 30
0
 11
111.846
 21
-82.8434
 31
1.6
  0
LINE
  5
D01
330
A02
100
AcDbEntity
  8
Solid
100
AcDbLine
 10
125.846
 20
-82.8434
 30
0
 11
111.846
 21
-82.8434
 31
0
  0
LINE
  5
D02
330
A02
100
AcDbEntity
  8
Solid
100
AcDbLine
 10
111.846
 20
-63.7939
 30
0
 11
111.846
 21
-63.7939
 31
1.6
  0
LINE
  5
D03
330
A02
100
AcDbEntity
  8
Solid
100
AcDbLine
 10
111.846
 20
-63.7939
 30
1.6
 11
111.846
 21
-77.7939
 31
1.6
  0
LINE
  5
D04
330
A02
100
AcDbEntity
  8
Solid
100
AcDbLine
 10
111.846
 20
-77.7939
 30
0
 11
111.846
 21
-77.7939
 31
1.6
  0
LINE
  5
D05
330
A02
100
AcDbEntity
  8
Solid
100
AcDbLine
 10
111.846
 20
-63.7939
 30
0
 11
111.846
 21
-77.7939
 31
0
  0
LINE
  5
D06
330
A02
100
AcDbEntity
  8
Solid
100
AcDbLine
 10
111.846
 20
-77.7939
 30
0
 11
111.846
 21
-77.7939
 31
1.6
  0
LINE
  5
D07
330
A02
100
AcDbEntity
  8
Solid
100
AcDbLine
 10
111.846
 20
-77.7939
 30
1.6
 11
125.846
 21
-77.7939
 31
1.6
  0
LINE
  5
D08
330
A02
100
AcDbEntity
  8
Solid
100
AcDbLine
 10
125.846
 20
-77.7939
 30
0
 11
125.846
 21
-77.7939
 31
1.6
  0
LINE
  5
D09
330
A02
100
AcDbEntity
  8
Solid
100
AcDbLine
 10
111.846
 20
-77.7939
 30
0
 11
125.846
 21
-77.7939
 31
0
  0
LINE
  5
D0A
330
A02
100
AcDbEntity
  8
Solid
100
AcDbLine
 10
125.846
 20
-77.7939
 30
0
 11
125.846
 21
-77.7939
 31
1.6
  0
LINE
  5
D0B
330
A02
100
AcDbEntity
  8
Solid
100
AcDbLine
 10
125.846
 20
-77.7939
 30
1.6
 11
125.846
 21
-63.7939
 31
1.6
  0
LINE
  5
D0C
330
A02
100
AcDbEntity
  8
Solid
100
AcDbLine
 10
125.846
 20
-63.7939
 30
0
 11
125.846
 21
-63.7939
 31
1.6
  0
LINE
  5
D0D
330
A02
100
AcDbEntity
  8
Solid
100
AcDbLine
 10
125.846
 20
-77.7939
 30
0
 11
125.846
 21
-63.7939
 31
0
  0
LINE
  5
D0E
330
A02
100
AcDbEntity
  8
Solid
100
AcDbLine
 10
125.846
 20
-63.7939
 30
0
 11
125.846
 21
-63.7939
 31
1.6
  0
LINE
  5
D0F
330
A02
100
AcDbEntity
  8
Solid
100
AcDbLine
 10
125.846
 20
-63.7939
 30
1.6
 11
111.846
 21
-63.7939
 31
1.6
  0
LINE
  5
D10
330
A02
100
AcDbEntity
  8
Solid
100
AcDbLine
 10
111.846
 20
-63.7939
 30
0
 11
111.846
 21
-63.7939
 31
1.6
  0
LINE
  5
D11
330
A02
100
AcDbEntity
  8
Solid
100
AcDbLine
 10
125.846
 20
-63.7939
 30
0
 11
111.846
 21
-63.7939
 31
0
  0
LINE
  5
D12
330
A02
100
AcDbEntity
  8
Solid
100
AcDbLine
 10
144.896
 20
-86.0184
 30
0
 11
144.896
 21
-86.0184
 31
1.6
  0
LINE
  5
D13
330
A02
100
AcDbEntity
  8
Solid
100
AcDbLine
 10
144.896
 20
-86.0184
 30
1.6
 11
144.896
 21
-100.018
 31
1.6
  0
LINE
  5
D14
330
A02
100
AcDbEntity
  8
Solid
100
AcDbLine
 10
144.896
 20
-100.018
 30
0
 11
144.896
 21
-100.018
 31
1.6
  0
LINE
  5
D15
330
A02
100
AcDbEntity
  8
Solid
100
AcDbLine
 10
144.896
 20
-86.0184
 30
0
 11
144.896
 21
-100.018
 31
0
  0
LINE
  5
D16
330
A02
100
AcDbEntity
  8
Solid
100
AcDbLine
 10
130.896
 20
-86.0184
 30
0
 11
130.896
 21
-86.0184
 31
1.6
  0
LINE
  5
D17
330
A02
100
AcDbEntity
  8
Solid
100
AcDbLine
 10
130.896
 20
-86.0184
 30
1.6
 11
144.896
 21
-86.0184
 31
1.6
  0
LINE
  5
D18
330
A02
100
AcDbEntity
  8
Solid
100
AcDbLine
 10
144.896
 20
-86.0184
 30
0
 11
144.896
 21
-86.0184
 31
1.6
  0
LINE
  5
D19
330
A02
100
AcDbEntity
  8
Solid
100
AcDbLine
 10
130.896
 20
-86.0184
 30
0
 11
144.896
 21
-86.0184
 31
0
  0
LINE
  5
D1A
330
A02
100
AcDbEntity
  8
Solid
100
AcDbLine
 10
130.896
 20
-100.018
 30
0
 11
130.896
 21
-100.018
 31
1.6
  0
LINE
  5
D1B
330
A02
100
AcDbEntity
  8
Solid
100
AcDbLine
 10
130.896
 20
-100.018
 30
1.6
 11
130.896
 21
-86.0184
 31
1.6
  0
LINE
  5
D1C
330
A02
100
AcDbEntity
  8
Solid
100
AcDbLine
 10
130.896
 20
-86.0184
 30
0
 11
130.896
 21
-86.0184
 31
1.6
  0
LINE
  5
D1D
330
A02
100
AcDbEntity
  8
Solid
100
AcDbLine
 10
130.896
 20
-100.018
 30
0
 11
130.896
 21
-86.0184
 31
0
  0
LINE
  5
D1E
330
A02
100
AcDbEntity
  8
Solid
100
AcDbLine
 10
144.896
 20
-100.018
 30
0
 11
144.896
 21
-100.018
 31
1.6
  0
LINE
  5
D1F
330
A02
100
AcDbEntity
  8
Solid
100
AcDbLine
 10
144.896
 20
-100.018
 30
1.6
 11
130.896
 21
-100.018
 31
1.6
  0
LINE
  5
D20
330
A02
100
AcDbEntity
  8
Solid
100
AcDbLine
 10
130.896
 20
-100.018
 30
0
 11
130.896
 21
-100.018
 31
1.6
  0
LINE
  5
D21
330
A02
100
AcDbEntity
  8
Solid
100
AcDbLine
 10
144.896
 20
-100.018
 30
0
 11
130.896
 21
-100.018
 31
0
  0
LINE
  5
D22
330
A02
100
AcDbEntity
  8
Solid
100
AcDbLine
 10
144.896
 20
-66.9694
 30
0
 11
144.896
 21
-66.9694
 31
1.6
  0
LINE
  5
D23
330
A02
100
AcDbEntity
  8
Solid
100
AcDbLine
 10
144.896
 20
-66.9694
 30
1.6
 11
130.896
 21
-66.9694
 31
1.6
  0
LINE
  5
D24
330
A02
100
AcDbEntity
  8
Solid
100
AcDbLine
 10
130.896
 20
-66.9694
 30
0
 11
130.896
 21
-66.9694
 31
1.6
  0
LINE
  5
D25
330
A02
100
AcDbEntity
  8
Solid
100
AcDbLine
 10
144.896
 20
-66.9694
 30
0
 11
130.896
 21
-66.9694
 31
0
  0
LINE
  5
D26
330
A02
100
AcDbEntity
  8
Solid
100
AcDbLine
 10
130.896
 20
-66.9694
 30
0
 11
130.896
 21
-66.9694
 31
1.6
  0
LINE
  5
D27
330
A02
100
AcDbEntity
  8
Solid
100
AcDbLine
 10
130.896
 20
-66.9694
 30
1.6
 11
130.896
 21
-80.9694
 31
1.6
  0
LINE
  5
D28
330
A02
100
AcDbEntity
  8
Solid
100
AcDbLine
 10
130.896
 20
-80.9694
 30
0
 11
130.896
 21
-80.9694
 31
1.6
  0
LINE
  5
D29
330
A02
100
AcDbEntity
  8
Solid
100
AcDbLine
 10
130.896
 20
-66.9694
 30
0
 11
130.896
 21
-80.9694
 31
0
  0
LINE
  5
D2A
330
A02
100
AcDbEntity
  8
Solid
100
AcDbLine
 10
130.896
 20
-80.9694
 30
0
 11
130.896
 21
-80.9694
 31
1.6
  0
LINE
  5
D2B
330
A02
100
AcDbEntity
  8
Solid
100
AcDbLine
 10
130.896
 20
-80.9694
 30
1.6
 11
144.896
 21
-80.9694
 31
1.6
  0
LINE
  5
D2C
330
A02
100
AcDbEntity
  8
Solid
100
AcDbLine
 10
144.896
 20
-80.9694
 30
0
 11
144.896
 21
-80.9694
 31
1.6
  0
LINE
  5
D2D
330
A02
100
AcDbEntity
  8
Solid
100
AcDbLine
 10
130.896
 20
-80.9694
 30
0
 11
144.896
 21
-80.9694
 31
0
  0
LINE
  5
D2E
330
A02
100
AcDbEntity
  8
Solid
100
AcDbLine
 10
144.896
 20
-80.9694
 30
0
 11
144.896
 21
-80.9694
 31
1.6
  0
LINE
  5
D2F
330
A02
100
AcDbEntity
  8
Solid
100
AcDbLine
 10
144.896
 20
-80.9694
 30
1.6
 11
144.896
 21
-66.9694
 31
1.6
  0
LINE
  5
D30
330
A02
100
AcDbEntity
  8
Solid
100
AcDbLine
 10
144.896
 20
-66.9694
 30
0
 11
144.896
 21
-66.9694
 31
1.6
  0
LINE
  5
D31
330
A02
100
AcDbEntity
  8
Solid
100
AcDbLine
 10
144.896
 20
-80.9694
 30
0
 11
144.896
 21
-66.9694
 31
0
  0
CIRCLE
  5
D32
330
A02
100
AcDbEntity
  8
Solid
100
AcDbCircle
 10
128.371
 20
-59.3694
 40
1.15
  0
LINE
  5
D33
330
A02
100
AcDbEntity
  8
Solid
100
AcDbLine
 10
129.521
 20
-59.3694
 30
0
 11
129.521
 21
-59.3694
 31
1.6
  0
CIRCLE
  5
D34
330
A02
100
AcDbEntity
  8
Solid
100
AcDbCircle
 10
128.371
 20
-59.3694
 40
1.15
  0
LINE
  5
D35
330
A02
100
AcDbEntity
  8
Solid
100
AcDbLine
 10
129.521
 20
-59.3694
 30
0
 11
129.521
 21
-59.3694
 31
1.6
  0
LINE
  5
D36
330
A02
100
AcDbEntity
  8
Solid
100
AcDbLine
 10
111.846
 20
-44.7439
 30
0
 11
111.846
 21
-44.7439
 31
1.6
  0
LINE
  5
D37
330
A02
100
AcDbEntity
  8
Solid
100
AcDbLine
 10
111.846
 20
-44.7439
 30
1.6
 11
125.846
 21
-44.7439
 31
1.6
  0
LINE
  5
D38
330
A02
100
AcDbEntity
  8
Solid
100
AcDbLine
 10
125.846
 20
-44.7439
 30
0
 11
125.846
 21
-44.7439
 31
1.6
  0
LINE
  5
D39
330
A02
100
AcDbEntity
  8
Solid
100
AcDbLine
 10
111.846
 20
-44.7439
 30
0
 11
125.846
 21
-44.7439
 31
0
  0
LINE
  5
D3A
330
A02
100
AcDbEntity
  8
Solid
100
AcDbLine
 10
111.846
 20
-58.7439
 30
0
 11
111.846
 21
-58.7439
 31
1.6
  0
LINE
  5
D3B
330
A02
100
AcDbEntity
  8
Solid
100
AcDbLine
 10
111.846
 20
-58.7439
 30
1.6
 11
111.846
 21
-44.7439
 31
1.6
  0
LINE
  5
D3C
330
A02
100
AcDbEntity
  8
Solid
100
AcDbLine
 10
111.846
 20
-44.7439
 30
0
 11
111.846
 21
-44.7439
 31
1.6
  0
LINE
  5
D3D
330
A02
100
AcDbEntity
  8
Solid
100
AcDbLine
 10
111.846
 20
-58.7439
 30
0
 11
111.846
 21
-44.7439
 31
0
  0
LINE
  5
D3E
330
A02
100
AcDbEntity
  8
Solid
100
AcDbLine
 10
125.846
 20
-58.7439
 30
0
 11
125.846
 21
-58.7439
 31
1.6
  0
LINE
  5
D3F
330
A02
100
AcDbEntity
  8
Solid
100
AcDbLine
 10
125.846
 20
-58.7439
 30
1.6
 11
111.846
 21
-58.7439
 31
1.6
  0
LINE
  5
D40
330
A02
100
AcDbEntity
  8
Solid
100
AcDbLine
 10
111.846
 20
-58.7439
 30
0
 11
111.846
 21
-58.7439
 31
1.6
  0
LINE
  5
D41
330
A02
100
AcDbEntity
  8
Solid
100
AcDbLine
 10
125.846
 20
-58.7439
 30
0
 11
111.846
 21
-58.7439
 31
0
  0
LINE
  5
D42
330
A02
100
AcDbEntity
  8
Solid
100
AcDbLine
 10
125.846
 20
-44.7439
 30
0
 11
125.846
 21
-44.7439
 31
1.6
  0
LINE
  5
D43
330
A02
100
AcDbEntity
  8
Solid
100
AcDbLine
 10
125.846
 20
-44.7439
 30
1.6
 11
125.846
 21
-58.7439
 31
1.6
  0
LINE
  5
D44
330
A02
100
AcDbEntity
  8
Solid
100
AcDbLine
 10
125.846
 20
-58.7439
 30
0
 11
125.846
 21
-58.7439
 31
1.6
  0
LINE
  5
D45
330
A02
100
AcDbEntity
  8
Solid
100
AcDbLine
 10
125.846
 20
-44.7439
 30
0
 11
125.846
 21
-58.7439
 31
0
  0
LINE
  5
D46
330
A02
100
AcDbEntity
  8
Solid
100
AcDbLine
 10
144.896
 20
-47.9194
 30
0
 11
144.896
 21
-47.9194
 31
1.6
  0
LINE
  5
D47
330
A02
100
AcDbEntity
  8
Solid
100
AcDbLine
 10
144.896
 20
-47.9194
 30
1.6
 11
130.896
 21
-47.9194
 31
1.6
  0
LINE
  5
D48
330
A02
100
AcDbEntity
  8
Solid
100
AcDbLine
 10
130.896
 20
-47.9194
 30
0
 11
130.896
 21
-47.9194
 31
1.6
  0
LINE
  5
D49
330
A02
100
AcDbEntity
  8
Solid
100
AcDbLine
 10
144.896
 20
-47.9194
 30
0
 11
130.896
 21
-47.9194
 31
0
  0
LINE
  5
D4A
330
A02
100
AcDbEntity
  8
Solid
100
AcDbLine
 10
130.896
 20
-47.9194
 30
0
 11
130.896
 21
-47.9194
 31
1.6
  0
LINE
  5
D4B
330
A02
100
AcDbEntity
  8
Solid
100
AcDbLine
 10
130.896
 20
-47.9194
 30
1.6
 11
130.896
 21
-61.9194
 31
1.6
  0
LINE
  5
D4C
330
A02
100
AcDbEntity
  8
Solid
100
AcDbLine
 10
130.896
 20
-61.9194
 30
0
 11
130.896
 21
-61.9194
 31
1.6
  0
LINE
  5
D4D
330
A02
100
AcDbEntity
  8
Solid
100
AcDbLine
 10
130.896
 20
-47.9194
 30
0
 11
130.896
 21
-61.9194
 31
0
  0
LINE
  5
D4E
330
A02
100
AcDbEntity
  8
Solid
100
AcDbLine
 10
130.896
 20
-61.9194
 30
0
 11
130.896
 21
-61.9194
 31
1.6
  0
LINE
  5
D4F
330
A02
100
AcDbEntity
  8
Solid
100
AcDbLine
 10
130.896
 20
-61.9194
 30
1.6
 11
144.896
 21
-61.9194
 31
1.6
  0
LINE
  5
D50
330
A02
100
AcDbEntity
  8
Solid
100
AcDbLine
 10
144.896
 20
-61.9194
 30
0
 11
144.896
 21
-61.9194
 31
1.6
  0
LINE
  5
D51
330
A02
100
AcDbEntity
  8
Solid
100
AcDbLine
 10
130.896
 20
-61.9194
 30
0
 11
144.896
 21
-61.9194
 31
0
  0
LINE
  5
D52
330
A02
100
AcDbEntity
  8
Solid
100
AcDbLine
 10
144.896
 20
-61.9194
 30
0
 11
144.896
 21
-61.9194
 31
1.6
  0
LINE
  5
D53
330
A02
100
AcDbEntity
  8
Solid
100
AcDbLine
 10
144.896
 20
-61.9194
 30
1.6
 11
144.896
 21
-47.9194
 31
1.6
  0
LINE
  5
D54
330
A02
100
AcDbEntity
  8
Solid
100
AcDbLine
 10
144.896
 20
-47.9194
 30
0
 11
144.896
 21
-47.9194
 31
1.6
  0
LINE
  5
D55
330
A02
100
AcDbEntity
  8
Solid
100
AcDbLine
 10
144.896
 20
-61.9194
 30
0
 11
144.896
 21
-47.9194
 31
0
  0
ENDSEC
  0
SECTION
  2
OBJECTS
  0
DICTIONARY
  5
F000
330
0
100
AcDbDictionary
  3
ACAD_GROUP
350
F001
  0
DICTIONARY
  5
F001
330
F000
100
AcDbDictionary
  0
ENDSEC
  0
EOF